<?xml version="1.0" standalone="no"?>
<!DOCTYPE svg PUBLIC "-//W3C//DTD SVG 1.1//EN" "http://www.w3.org/Graphics/SVG/1.1/DTD/svg11.dtd" >
<svg xmlns="http://www.w3.org/2000/svg" xmlns:xlink="http://www.w3.org/1999/xlink" version="1.1">
<metadata>
Created by FontForge 20170731 at Sun Jul 24 18:32:18 2016
 By Aleksey,,,
Copyright (c) 2015 Swiss Typefaces. All rights reserved.
</metadata>
<defs>
<font id="SuisseIntlMono-Bold" horiz-adv-x="646" >
  <font-face 
    font-family="Suisse Int'l Mono"
    font-weight="700"
    font-stretch="normal"
    units-per-em="1000"
    panose-1="2 11 8 9 0 0 0 0 0 0"
    ascent="800"
    descent="-200"
    x-height="538"
    cap-height="725"
    bbox="-53 -231 727 921"
    underline-thickness="100"
    underline-position="-310"
    unicode-range="U+000D-FB02"
  />
<missing-glyph 
d="M73 0v725h500v-725h-500zM312 362l-220 334v-667zM333 362l221 -333v667zM323 346l-217 -327h433zM106 706l217 -328l216 328h-433z" />
    <glyph glyph-name=".notdef" 
d="M73 0v725h500v-725h-500zM312 362l-220 334v-667zM333 362l221 -333v667zM323 346l-217 -327h433zM106 706l217 -328l216 328h-433z" />
    <glyph glyph-name=".null" horiz-adv-x="0" 
 />
    <glyph glyph-name="uni000D" unicode="&#xd;" 
 />
    <glyph glyph-name="space" unicode=" " 
 />
    <glyph glyph-name="exclam" unicode="!" 
d="M367 231h-88l-49 296v198h186v-198zM416 0h-186v178h186v-178z" />
    <glyph glyph-name="quotedbl" unicode="&#x22;" 
d="M168 725h145l-20 -259h-106zM333 725h145l-20 -259h-106z" />
    <glyph glyph-name="numbersign" unicode="#" 
d="M77 528h127l28 197h89l-28 -197h104l28 197h90l-28 -197h127l-14 -87h-125l-18 -132h125l-14 -87h-123l-30 -222h-90l30 222h-104l-30 -222h-89l30 222h-130l13 87h129l18 132h-129zM281 441l-18 -132h104l18 132h-104z" />
    <glyph glyph-name="dollar" unicode="$" 
d="M72 528q0 93 62 145t155 63v79h58v-78q91 -6 154 -63.5t74 -164.5h-144q-12 94 -84 112v-184l29 -7q43 -11 75.5 -24.5t66.5 -37.5t53 -64t19 -92q0 -75 -36.5 -127t-89.5 -74t-117 -24v-99h-58v103q-99 14 -158.5 79t-70.5 170h145q13 -101 84 -131v198l-30 8
q-80 20 -133.5 75t-53.5 138zM441 188q0 75 -94 103v-191q41 2 67.5 26t26.5 62zM220 542q0 -62 69 -89v169q-31 -7 -50 -28.5t-19 -51.5z" />
    <glyph glyph-name="percent" unicode="%" 
d="M165 405q-65 0 -99 44t-34 123q0 77 34 121t99 44t98.5 -44t33.5 -121q0 -79 -33.5 -123t-98.5 -44zM165 476q52 0 52 96q0 94 -52 94q-53 0 -53 -94q0 -96 53 -96zM125 0h-104l500 725h104zM487 -13q-65 0 -98.5 44.5t-33.5 122.5q0 77 34 121.5t98 44.5q65 0 99 -44.5
t34 -121.5q0 -78 -34 -122.5t-99 -44.5zM487 58q53 0 53 96q0 95 -53 95q-52 0 -52 -95q0 -96 52 -96z" />
    <glyph glyph-name="ampersand" unicode="&#x26;" 
d="M240 -13q-104 0 -161.5 63t-57.5 156q0 128 135 201q-58 86 -58 169q0 69 53.5 115.5t136.5 46.5q73 0 127 -42t54 -123q0 -58 -37 -108.5t-94 -79.5l87 -114q25 72 26 153h129q-5 -135 -76 -256l129 -168h-164l-47 61q-77 -74 -182 -74zM262 90q55 0 95 55l-137 176
q-54 -40 -54 -118q0 -43 26.5 -78t69.5 -35zM230 578q0 -49 47 -113q33 18 52.5 48t19.5 63q0 28 -16.5 44t-40.5 16q-27 0 -44.5 -15.5t-17.5 -42.5z" />
    <glyph glyph-name="quotesingle" unicode="'" 
d="M250 725h145l-20 -259h-106z" />
    <glyph glyph-name="parenleft" unicode="(" 
d="M191 275q0 135 41 252t96 199h126q-121 -200 -121 -451q0 -253 121 -450h-126q-55 82 -96 199t-41 251z" />
    <glyph glyph-name="parenright" unicode=")" 
d="M455 275q0 -135 -41 -252.5t-97 -197.5h-125q121 197 121 450t-121 450h125q56 -80 97 -197.5t41 -252.5z" />
    <glyph glyph-name="asterisk" unicode="*" 
d="M367 725v-104l99 38l34 -86l-103 -36l62 -85l-72 -54l-65 88l-59 -88l-79 53l62 85l-100 37l32 86l97 -38v104h92z" />
    <glyph glyph-name="plus" unicode="+" 
d="M385 0h-124v207h-216v120h216v211h124v-211h216v-120h-216v-207z" />
    <glyph glyph-name="comma" unicode="," 
d="M230 0v178h186v-188l-104 -148h-97l87 158h-72z" />
    <glyph glyph-name="hyphen" unicode="-" 
d="M500 196h-354v139h354v-139z" />
    <glyph glyph-name="period" unicode="." 
d="M416 0h-186v178h186v-178z" />
    <glyph glyph-name="slash" unicode="/" 
d="M247 0h-128l280 725h128z" />
    <glyph glyph-name="zero" unicode="0" 
d="M323 -13q-263 0 -263 376q0 375 263 375t263 -375q0 -376 -263 -376zM323 94q61 0 88 66t27 203v6l-227 -104q8 -88 35 -129.5t77 -41.5zM207 363v-6l226 105q-8 86 -34.5 128t-75.5 42q-62 0 -89 -66t-27 -203z" />
    <glyph glyph-name="one" unicode="1" 
d="M70 108h199v390h-199v108q115 2 163.5 29t69.5 90h110v-617h167v-108h-510v108z" />
    <glyph glyph-name="two" unicode="2" 
d="M332 735q102 0 167.5 -55.5t65.5 -152.5q0 -86 -56.5 -165.5t-168.5 -174.5l-79 -69h300v-118h-488v117l151 132q95 83 146 149.5t51 125.5q0 50 -27 75t-64 25q-50 0 -80.5 -41.5t-28.5 -119.5h-140q-4 130 67 201t184 71z" />
    <glyph glyph-name="three" unicode="3" 
d="M56 228h143q6 -63 38 -98.5t82 -35.5t79 27.5t29 77.5t-37 78.5t-98 28.5h-42v129h37q62 0 97 27t35 80q0 40 -26 65t-74 25q-99 0 -111 -116h-142q12 106 81 164t178 58q94 0 166.5 -49t72.5 -141q0 -54 -25.5 -97t-62.5 -68q45 -21 72 -70t27 -102q0 -106 -76.5 -165
t-182.5 -59q-112 0 -179.5 61.5t-80.5 179.5z" />
    <glyph glyph-name="four" unicode="4" 
d="M348 531l-179 -254h179v254zM590 277v-130h-98v-147h-144v147h-318v123l328 455h134v-448h98z" />
    <glyph glyph-name="five" unicode="5" 
d="M321 94q50 0 81.5 38t31.5 108q0 68 -33.5 103t-79.5 35q-78 0 -108 -77l-131 15l60 409h409v-118h-294l-23 -150q51 38 127 38q91 0 155 -69t64 -186q0 -119 -75 -186t-186 -67q-112 0 -180 61.5t-81 179.5h143q6 -63 38 -98.5t82 -35.5z" />
    <glyph glyph-name="six" unicode="6" 
d="M213 241q0 -66 31 -106.5t79 -40.5q47 0 77.5 40.5t30.5 106.5q0 64 -30.5 102.5t-77.5 38.5q-49 0 -79.5 -37.5t-30.5 -103.5zM332 633q-53 0 -86.5 -49t-34.5 -142q50 52 143 52q90 0 156.5 -70t66.5 -183t-72 -183.5t-182 -70.5q-129 0 -195 100t-66 262
q0 110 28.5 195.5t92.5 139.5t156 54q107 0 166 -59t65 -151h-141q-5 51 -32.5 78t-64.5 27z" />
    <glyph glyph-name="seven" unicode="7" 
d="M65 607v118h526v-118q-157 -131 -222.5 -266.5t-67.5 -340.5h-154q0 189 83 349t211 258h-376z" />
    <glyph glyph-name="eight" unicode="8" 
d="M322 627q-43 0 -73.5 -25t-30.5 -68q0 -44 30.5 -71t73.5 -27t73.5 27t30.5 71q0 43 -30.5 68t-73.5 25zM322 738q109 0 178 -56t69 -139q0 -95 -68 -154q85 -61 85 -174q0 -105 -75 -166.5t-189 -61.5t-188.5 61.5t-74.5 166.5q0 114 85 174q-68 56 -68 154q0 83 69 139
t177 56zM322 98q51 0 84 32t33 85t-32.5 83.5t-84.5 30.5t-84.5 -30.5t-32.5 -83.5t33 -85t84 -32z" />
    <glyph glyph-name="nine" unicode="9" 
d="M432 487q0 65 -31 105t-79 40q-46 0 -76.5 -40t-30.5 -105q0 -64 30 -103t77 -39q49 0 79.5 37.5t30.5 104.5zM314 93q53 0 86 50t34 143q-50 -53 -143 -53q-90 0 -156 71t-66 183q0 113 71.5 182t181.5 69q130 0 196 -97.5t66 -262.5q0 -110 -28.5 -196t-93 -140.5
t-156.5 -54.5q-106 0 -165.5 59.5t-65.5 151.5h141q5 -51 33 -78t65 -27z" />
    <glyph glyph-name="colon" unicode=":" 
d="M416 360h-186v178h186v-178zM416 0h-186v178h186v-178z" />
    <glyph glyph-name="semicolon" unicode=";" 
d="M416 360h-186v178h186v-178zM230 0v178h186v-188l-104 -148h-97l87 158h-72z" />
    <glyph glyph-name="less" unicode="&#x3c;" 
d="M55 324l516 220v-134l-364 -143l364 -143v-135l-516 221v114z" />
    <glyph glyph-name="equal" unicode="=" 
d="M577 314h-508v120h508v-120zM577 104h-508v121h508v-121z" />
    <glyph glyph-name="greater" unicode="&#x3e;" 
d="M591 324v-114l-516 -221v135l365 143l-365 143v134z" />
    <glyph glyph-name="question" unicode="?" 
d="M326 738q107 0 182.5 -48t75.5 -138q0 -49 -23.5 -85t-56.5 -57.5t-66 -41t-56.5 -48t-23.5 -67.5v-23h-146q-1 15 -1 40q0 48 22.5 83.5t54.5 56.5t64.5 39t55 42t22.5 54q0 36 -28 57t-78 21q-60 0 -95.5 -37t-35.5 -100h-144q0 116 78 184t199 68zM379 0h-186v178h186
v-178z" />
    <glyph glyph-name="at" unicode="@" 
d="M318 502q-40 0 -64.5 -48.5t-24.5 -110.5q0 -51 16 -81t46 -30q41 0 65.5 50t24.5 115q0 47 -16.5 76t-46.5 29zM472 156q-31 0 -53 24.5t-27 68.5q-38 -94 -119 -94q-51 0 -86 49t-35 138q0 91 46.5 163t118.5 72q67 0 92 -77l6 60h61l-24 -220q0 -3 -1 -13t-1.5 -16
t-1 -16.5t0 -17t1.5 -15t3.5 -14t6 -11t9.5 -8t13 -2.5q30 0 52.5 53t22.5 128q-2 127 -60.5 193.5t-160.5 66.5q-108 0 -176.5 -90.5t-68.5 -223.5q0 -130 56 -214.5t158 -84.5q85 0 153 45l24 -68q-80 -45 -177 -45q-136 0 -212.5 99t-76.5 270q0 160 94.5 271t227.5 111
q124 0 210 -83t86 -243q0 -119 -46 -187.5t-116 -68.5z" />
    <glyph glyph-name="A" unicode="A" 
d="M43 0l186 725h187l187 -725h-164l-33 151h-170l-33 -151h-160zM322 534l-60 -266h118z" />
    <glyph glyph-name="B" unicode="B" 
d="M93 0v725h225q117 0 181.5 -41t64.5 -146q0 -95 -78 -149q103 -46 103 -164q0 -116 -68.5 -170.5t-190.5 -54.5h-237zM243 427h73q91 0 91 88t-91 88h-73v-176zM430 220q0 49 -25 73t-81 24h-81v-193h81q55 0 80.5 23.5t25.5 72.5z" />
    <glyph glyph-name="C" unicode="C" 
d="M444 252h149q-15 -132 -78 -198.5t-184 -66.5q-139 0 -209.5 98t-70.5 278q0 179 72.5 277t212.5 98q116 0 178.5 -70t72.5 -194h-147q-6 76 -31.5 111t-78.5 35q-61 0 -90.5 -61.5t-29.5 -195.5q0 -137 28.5 -197.5t91.5 -60.5q104 0 114 147z" />
    <glyph glyph-name="D" unicode="D" 
d="M438 363q0 136 -49.5 188t-148.5 52h-13v-480h13q99 0 148.5 52t49.5 188zM77 725h170q350 0 350 -362q0 -363 -354 -363h-166v725z" />
    <glyph glyph-name="E" unicode="E" 
d="M107 0v725h439v-129h-289v-161h269v-129h-269v-177h289v-129h-439z" />
    <glyph glyph-name="F" unicode="F" 
d="M114 0v725h446v-129h-296v-161h278v-129h-278v-306h-150z" />
    <glyph glyph-name="G" unicode="G" 
d="M596 483h-148q-10 137 -119 137q-64 0 -96 -62t-32 -195q0 -136 31.5 -197t96.5 -61q53 0 86 40t33 108v17h-132v118h283v-388h-115l-5 90q-50 -103 -164 -103q-131 0 -202 99t-71 277t75 276.5t217 98.5q116 0 184 -68.5t78 -186.5z" />
    <glyph glyph-name="H" unicode="H" 
d="M428 725h150v-725h-150v306h-210v-306h-150v725h150v-290h210v290z" />
    <glyph glyph-name="I" unicode="I" 
d="M76 596v129h494v-129h-172v-467h172v-129h-494v129h172v467h-172z" />
    <glyph glyph-name="J" unicode="J" 
d="M152 725h386v-511q0 -115 -64 -171t-162 -56q-116 0 -176 70.5t-64 182.5h145q11 -131 91 -131t80 103v383h-236v130z" />
    <glyph glyph-name="K" unicode="K" 
d="M228 725v-273l197 273h175l-209 -276l221 -449h-171l-155 311l-58 -77v-234h-150v725h150z" />
    <glyph glyph-name="L" unicode="L" 
d="M255 725v-596h338v-129h-488v725h150z" />
    <glyph glyph-name="M" unicode="M" 
d="M323 418l49 307h216v-725h-147v330l3 272h-6l-62 -369h-106l-61 369h-7l3 -272v-330h-147v725h216z" />
    <glyph glyph-name="N" unicode="N" 
d="M572 0h-189l-159 501v-501h-150v725h188l160 -500v500h150v-725z" />
    <glyph glyph-name="O" unicode="O" 
d="M198 363q0 -258 125 -258t125 258q0 257 -125 257t-125 -257zM39 363q0 175 70.5 275t213.5 100q142 0 213 -100t71 -275t-71 -275.5t-213 -100.5q-143 0 -213.5 100t-70.5 276z" />
    <glyph glyph-name="P" unicode="P" 
d="M94 725h224q134 0 207.5 -51.5t73.5 -171.5t-73 -170t-208 -50h-74v-282h-150v725zM314 603h-70v-201h70q125 0 125 100q0 101 -125 101z" />
    <glyph glyph-name="Q" unicode="Q" 
d="M39 363q0 175 70.5 275t213.5 100q142 0 213 -100t71 -275q0 -205 -92 -301l84 -119l-81 -59l-85 122q-51 -19 -110 -19q-143 0 -213.5 100t-70.5 276zM198 363q0 -258 125 -258q21 0 37 6l-81 117l80 59l67 -96q22 65 22 172q0 257 -125 257t-125 -257z" />
    <glyph glyph-name="R" unicode="R" 
d="M430 0l-143 294h-14h-43v-294h-150v725h193q67 0 115.5 -8.5t90.5 -31t63 -66.5t21 -109q0 -136 -130 -184l162 -326h-165zM278 603h-48v-191h48q60 0 93 20.5t33 74.5t-33 75t-93 21z" />
    <glyph glyph-name="S" unicode="S" 
d="M72 528q0 101 75 155.5t177 54.5q99 0 169.5 -57.5t81.5 -171.5h-144q-7 54 -37 84t-78 30q-42 0 -68 -22t-26 -59q0 -74 91 -96l63 -16q43 -11 75.5 -24.5t66.5 -37.5t53 -64t19 -92q0 -110 -73 -167.5t-174 -57.5q-121 0 -196 67.5t-87 185.5h145q9 -64 42.5 -101
t91.5 -37q44 0 72 23t28 63q0 80 -106 107l-74 20q-80 20 -133.5 75t-53.5 138z" />
    <glyph glyph-name="T" unicode="T" 
d="M248 0v596h-205v129h560v-129h-205v-596h-150z" />
    <glyph glyph-name="U" unicode="U" 
d="M69 725h150v-451q0 -84 23 -124t83 -40q58 0 80 44t22 131v440h150v-409q0 -175 -54 -252t-198 -77q-143 0 -199.5 71.5t-56.5 251.5v415z" />
    <glyph glyph-name="V" unicode="V" 
d="M602 725l-186 -725h-187l-187 725h163l118 -533l119 533h160z" />
    <glyph glyph-name="W" unicode="W" 
d="M378 532l54 -335l25 528h157l-45 -725h-184l-63 369l-62 -369h-184l-45 725h157l24 -528l54 335h112z" />
    <glyph glyph-name="X" unicode="X" 
d="M33 0l207 368l-197 357h170l113 -206l116 206h160l-198 -348l208 -377h-168l-125 226l-128 -226h-158z" />
    <glyph glyph-name="Y" unicode="Y" 
d="M323 425l129 300h171l-225 -465v-260h-150v260l-225 465h171z" />
    <glyph glyph-name="Z" unicode="Z" 
d="M572 725v-128l-337 -468h340v-129h-510v128l338 468h-313v129h482z" />
    <glyph glyph-name="bracketleft" unicode="[" 
d="M194 725h257v-100h-134v-699h134v-101h-257v900z" />
    <glyph glyph-name="backslash" unicode="\" 
d="M247 725l280 -725h-128l-280 725h128z" />
    <glyph glyph-name="bracketright" unicode="]" 
d="M195 725h257v-900h-257v101h135v699h-135v100z" />
    <glyph glyph-name="asciicircum" unicode="^" 
d="M379 725l199 -387h-134l-122 250l-121 -250h-135l199 387h114z" />
    <glyph glyph-name="underscore" unicode="_" 
d="M547 -121h-448v121h448v-121z" />
    <glyph glyph-name="grave" unicode="`" 
d="M340 609l-158 116h187l94 -116h-123z" />
    <glyph glyph-name="a" unicode="a" 
d="M422 0l-1 69q-56 -82 -171 -82q-73 0 -127.5 43t-54.5 114q0 33 11.5 59.5t37 45t52 31.5t70.5 23t78.5 16t88.5 13v12q0 60 -24 85.5t-71 25.5q-94 0 -100 -87h-129q8 82 70 133t164 51q108 0 168 -54t60 -182q0 -4 -1 -57t-1 -81q0 -143 11 -178h-131zM410 230v14
q-111 -10 -155.5 -29.5t-44.5 -64.5q0 -31 20.5 -48t58.5 -17q121 0 121 145z" />
    <glyph glyph-name="b" unicode="b" 
d="M222 725v-255q39 80 137 80q96 0 157.5 -74t61.5 -208q0 -133 -61.5 -207t-157.5 -74q-98 0 -137 80l-1 -67h-142v725h143zM216 268q0 -85 29.5 -130t81.5 -45q51 0 79 46.5t28 128.5t-28 129t-79 47q-52 0 -81.5 -45.5t-29.5 -130.5z" />
    <glyph glyph-name="c" unicode="c" 
d="M326 550q55 0 104 -21t85.5 -69t44.5 -116h-136q-14 100 -99 100q-104 0 -104 -176q0 -175 104 -175q86 0 102 104h138q-9 -70 -47 -119t-88 -70t-107 -21q-115 0 -180.5 78t-65.5 203q0 128 66 205t183 77z" />
    <glyph glyph-name="d" unicode="d" 
d="M424 470v255h143v-725h-142l-1 67q-42 -80 -138 -80t-157 73.5t-61 207.5t61 208t157 74t138 -80zM429 268q0 85 -29.5 130.5t-81.5 45.5q-50 0 -78 -47t-28 -129t27.5 -128.5t78.5 -46.5q52 0 81.5 45t29.5 130z" />
    <glyph glyph-name="e" unicode="e" 
d="M574 232h-367q4 -70 37.5 -106.5t81.5 -36.5q85 0 102 79h137q-13 -75 -76 -128t-165 -53q-123 0 -189 75t-66 202q0 131 67 208.5t186 77.5q121 0 188.5 -85t63.5 -233zM320 447q-40 0 -73.5 -30.5t-39.5 -93.5h230q-4 124 -117 124z" />
    <glyph glyph-name="f" unicode="f" 
d="M194 538v29q0 96 46 127t152 31h173v-107h-155q-45 0 -58.5 -9.5t-13.5 -40.5v-30h227v-108h-227v-430h-144v430h-156v108h156z" />
    <glyph glyph-name="g" unicode="g" 
d="M424 470v68h143v-483q0 -128 -63.5 -185t-185.5 -57q-90 0 -152.5 41t-73.5 132h132q13 -70 95 -70q52 0 78.5 31t26.5 83v58q-44 -79 -138 -79q-95 0 -156.5 71.5t-61.5 198.5q0 126 61.5 198.5t156.5 72.5q96 0 138 -80zM429 279q0 77 -29.5 121t-81.5 44
q-50 0 -78 -45.5t-28 -119.5t28 -119.5t78 -45.5q52 0 81.5 43.5t29.5 121.5z" />
    <glyph glyph-name="h" unicode="h" 
d="M90 725h144v-250q48 75 144 75q174 0 174 -212v-338h-144v314q0 21 -1 35.5t-5.5 33t-12.5 29.5t-23 19t-36 8q-56 0 -76 -41t-20 -113v-285h-144v725z" />
    <glyph glyph-name="i" unicode="i" 
d="M554 0h-457v108h156v322h-156v108h300v-430h157v-108zM253 725h144v-133h-144v133z" />
    <glyph glyph-name="j" unicode="j" 
d="M291 429h-167v109h311v-533q0 -110 -36.5 -145t-136.5 -35h-171v107h154q32 0 39 11.5t7 55.5v430zM291 725h144v-133h-144v133z" />
    <glyph glyph-name="k" unicode="k" 
d="M297 221l-61 -70v-151h-144v725h144v-395l177 208h160l-183 -209l194 -329h-159z" />
    <glyph glyph-name="l" unicode="l" 
d="M554 0h-456v108h156v510h-156v107h300v-617h156v-108z" />
    <glyph glyph-name="m" unicode="m" 
d="M388 0h-134v360q0 49 -5.5 65t-23.5 16q-21 0 -28.5 -24t-7.5 -89v-328h-140v538h140v-41q15 24 39.5 38.5t53.5 14.5q64 0 90 -60q16 30 44 45t56 15q121 0 121 -169v-381h-140v360q0 49 -5.5 65t-23.5 16q-21 0 -28.5 -24t-7.5 -89v-328z" />
    <glyph glyph-name="n" unicode="n" 
d="M90 538h144v-63q48 75 143 75q175 0 175 -212v-338h-144v314q0 26 -2.5 44.5t-9.5 39t-24 31t-43 10.5q-29 0 -48.5 -12t-29.5 -34.5t-13.5 -47.5t-3.5 -60v-285h-144v538z" />
    <glyph glyph-name="o" unicode="o" 
d="M580 269q0 -144 -73.5 -213t-183.5 -69t-183.5 69t-73.5 213q0 74 21 130t58 88t81.5 47.5t96.5 15.5t96.5 -15.5t81.5 -47.5t58 -88t21 -130zM436 269q0 175 -113 175t-113 -175q0 -176 113 -176t113 176z" />
    <glyph glyph-name="p" unicode="p" 
d="M223 538v-68q42 80 138 80t157 -74t61 -208t-61 -207.5t-157 -73.5t-138 80v-242h-144v713h144zM218 268q0 -85 29.5 -130t81.5 -45q51 0 78.5 46.5t27.5 128.5t-28 129t-78 47q-52 0 -81.5 -45.5t-29.5 -130.5z" />
    <glyph glyph-name="q" unicode="q" 
d="M424 470v68h143v-713h-143v242q-42 -80 -138 -80t-157 73.5t-61 207.5t61 208t157 74t138 -80zM429 268q0 85 -29.5 130.5t-81.5 45.5q-50 0 -78 -47t-28 -129t27.5 -128.5t78.5 -46.5q52 0 81.5 45t29.5 130z" />
    <glyph glyph-name="r" unicode="r" 
d="M75 538h276v-91q42 91 149 91h82v-115h-103q-68 0 -97 -34.5t-29 -113.5v-167h195v-108h-473v108h134v321h-134v109z" />
    <glyph glyph-name="s" unicode="s" 
d="M543 378h-124q-16 67 -110 67q-34 0 -56.5 -13t-22.5 -34q0 -38 70 -58l59 -14q45 -10 75 -20.5t58.5 -28.5t42.5 -46t14 -66q0 -82 -65 -130t-159 -48q-99 0 -160.5 50.5t-71.5 143.5h127q11 -88 111 -88q87 0 87 55q0 43 -83 63l-64 15q-81 20 -123 57t-42 105
q0 76 60 119t151 43q83 0 148 -43t78 -129z" />
    <glyph glyph-name="t" unicode="t" 
d="M195 538v144h144v-144h210v-109h-210v-260q0 -37 12.5 -49t46.5 -12h149v-108h-202q-86 0 -118 32t-32 114v283h-156v109h156z" />
    <glyph glyph-name="u" unicode="u" 
d="M412 0v59q-46 -72 -137 -72q-181 0 -181 212v339h144v-315q0 -26 2.5 -44.5t9.5 -39t24 -31t43 -10.5q55 0 75 41t20 113v286h144v-538h-144z" />
    <glyph glyph-name="v" unicode="v" 
d="M198 538l129 -367l128 367h142l-203 -538h-139l-206 538h149z" />
    <glyph glyph-name="w" unicode="w" 
d="M265 435h116l49 -237l38 340h140l-67 -538h-156l-62 331l-63 -331h-156l-66 538h139l38 -340z" />
    <glyph glyph-name="x" unicode="x" 
d="M65 0l184 271l-174 267h158l95 -152l97 152h146l-175 -257l185 -281h-159l-104 166l-107 -166h-146z" />
    <glyph glyph-name="y" unicode="y" 
d="M597 538l-197 -520q-49 -127 -84 -160t-127 -33h-115v107h106q31 0 42.5 9.5t28.5 45.5l5 13l-207 538h149l131 -367l126 367h142z" />
    <glyph glyph-name="z" unicode="z" 
d="M96 0v105l279 324h-258v109h422v-105l-281 -325h288v-108h-450z" />
    <glyph glyph-name="braceleft" unicode="{" 
d="M443 725h35v-109h-16q-48 0 -64 -16t-16 -55v-132q0 -114 -95 -137v-2q95 -23 95 -137v-132q0 -40 16 -55.5t64 -15.5h16v-109h-35q-109 0 -154 36t-45 137v119q0 52 -15 77.5t-61 25.5v110q46 0 61 25.5t15 77.5v119q0 101 45 137t154 36z" />
    <glyph glyph-name="bar" unicode="|" 
d="M265 725h115v-815h-115v815z" />
    <glyph glyph-name="braceright" unicode="}" 
d="M203 -175h-35v109h16q48 0 64 15.5t16 55.5v132q0 114 95 137v2q-95 23 -95 137v132q0 39 -16 55t-64 16h-16v109h35q109 0 154 -36t45 -137v-119q0 -52 15 -77.5t61 -25.5v-110q-46 0 -61 -25.5t-15 -77.5v-119q0 -101 -45 -137t-154 -36z" />
    <glyph glyph-name="asciitilde" unicode="~" 
d="M413 292q28 0 42 15.5t15 52.5h98q-6 -187 -149 -187q-38 0 -98 34.5t-90 34.5q-56 0 -57 -69h-97q7 187 149 187q45 0 103.5 -34t83.5 -34z" />
    <glyph glyph-name="uni00A0" unicode="&#xa0;" 
 />
    <glyph glyph-name="exclamdown" unicode="&#xa1;" 
d="M278 308h89l49 -296v-187h-186v187zM416 360h-186v178h186v-178z" />
    <glyph glyph-name="cent" unicode="&#xa2;" 
d="M299 620h51v-71q79 -6 139 -59t71 -146h-136q-12 82 -74 97v-346q63 14 77 102h138q-13 -95 -73 -147t-142 -61v-78h-51v77q-105 8 -163.5 84.5t-58.5 195.5q0 120 59 195t163 85v72zM221 268q0 -151 78 -172v345q-78 -23 -78 -173z" />
    <glyph glyph-name="sterling" unicode="&#xa3;" 
d="M332 627q-38 0 -59.5 -24t-21.5 -64q0 -13 2.5 -26.5t4.5 -23t9 -26.5t9.5 -22.5t12 -25.5t11.5 -24h160v-75h-134q4 -15 4 -34q0 -45 -28 -89t-72 -77l1 -1q31 21 87 21q25 0 60 -12t54 -12q47 0 94 31l50 -115q-67 -41 -156 -41q-35 0 -86 19.5t-83 19.5
q-65 0 -126 -39l-53 126q60 32 88 70t28 95q0 18 -6 38h-122v75h89q-46 90 -46 153q0 95 65.5 144.5t161.5 49.5q111 0 178.5 -67.5t65.5 -185.5h-140q2 69 -26.5 105.5t-75.5 36.5z" />
    <glyph glyph-name="currency" unicode="&#xa4;" 
d="M84 346q0 78 44 139l-69 70l49 49l68 -68q63 49 144 49q83 0 147 -51l71 70l49 -49l-72 -72q44 -64 44 -137q0 -76 -44 -137l72 -71l-49 -49l-71 70q-65 -49 -147 -49q-81 0 -143 48l-69 -69l-49 49l69 70q-44 61 -44 138zM195 346q0 -56 35 -94.5t89 -38.5q58 0 95 38.5
t37 94.5q0 58 -37 97.5t-95 39.5q-54 0 -89 -39.5t-35 -97.5z" />
    <glyph glyph-name="yen" unicode="&#xa5;" 
d="M323 425l129 300h171l-185 -381h89v-88h-129v-80h129v-88h-129v-88h-150v88h-130v88h130v80h-130v88h89l-184 381h171z" />
    <glyph glyph-name="brokenbar" unicode="&#xa6;" 
d="M265 725h115v-305h-115v305zM265 215h115v-305h-115v305z" />
    <glyph glyph-name="section" unicode="&#xa7;" 
d="M322 -87q37 0 60 21t23 54q0 31 -19.5 53t-65.5 47l-120 61q-137 71 -137 179q0 84 92 137q-45 50 -45 113q0 73 63 116.5t145 43.5q90 0 150.5 -50.5t70.5 -137.5h-121q-7 41 -34 65t-69 24q-38 0 -59 -14.5t-21 -38.5q0 -26 16.5 -43t54.5 -37l130 -69
q74 -39 110.5 -78.5t36.5 -93.5q0 -91 -99 -145q48 -50 48 -119q0 -84 -62 -135.5t-152 -51.5q-95 0 -157.5 60t-68.5 160h121q18 -121 109 -121zM368 335l-137 72q-45 -21 -45 -65q0 -48 72 -83l127 -68l21 -13q50 31 50 67q0 25 -21 45t-67 45z" />
    <glyph glyph-name="dieresis" unicode="&#xa8;" 
d="M137 609v116h148v-116h-148zM360 725h148v-116h-148v116z" />
    <glyph glyph-name="copyright" unicode="&#xa9;" 
d="M44 457q0 123 80.5 202t198.5 79q117 0 198 -79t81 -202q0 -122 -80.5 -200t-198.5 -78t-198.5 78t-80.5 200zM324 370q60 0 70 57l78 -18q-13 -47 -53 -75.5t-98 -28.5q-69 0 -109 42.5t-40 111.5q0 68 41.5 109.5t110.5 41.5q56 0 95.5 -29.5t49.5 -77.5l-77 -20
q-3 27 -21.5 45.5t-46.5 18.5q-30 0 -50 -23.5t-20 -64.5q0 -42 19.5 -65.5t50.5 -23.5zM93 457q0 -103 65.5 -168t164.5 -65q100 0 164 64.5t64 168.5t-64.5 170t-163.5 66t-164.5 -66.5t-65.5 -169.5z" />
    <glyph glyph-name="ordfeminine" unicode="&#xaa;" 
d="M274 635l-89 1q11 102 148 102q69 0 101 -28t31 -90q0 -8 -0.5 -40t-0.5 -39q0 -53 6 -111h-88l-1 33q-26 -41 -94 -41q-52 0 -81.5 29t-29.5 71t27 64q33 25 124 35l44 4v9q0 38 -47 38q-46 0 -50 -37zM373 547v18l-45 -4q-56 -5 -56 -36q0 -15 10.5 -24.5t30.5 -9.5
q60 0 60 56z" />
    <glyph glyph-name="guillemotleft" unicode="&#xab;" 
d="M231 43l-159 230l159 229h136l-136 -229l136 -230h-136zM452 43l-159 230l159 229h136l-136 -229l136 -230h-136z" />
    <glyph glyph-name="logicalnot" unicode="&#xac;" 
d="M457 308h-431v120h556v-335h-125v215z" />
    <glyph glyph-name="uni00AD" unicode="&#xad;" 
d="M500 196h-354v139h354v-139z" />
    <glyph glyph-name="registered" unicode="&#xae;" 
d="M44 457q0 123 80.5 202t198.5 79q117 0 198 -79.5t81 -201.5t-81 -200t-198 -78q-118 0 -198.5 78t-80.5 200zM93 457q0 -103 65.5 -168t164.5 -65q100 0 164 64.5t64 168.5t-64.5 170t-163.5 66t-164.5 -66.5t-65.5 -169.5zM315 425h-40v-107h-80v298h120q137 0 137 -97
q0 -62 -55 -82l74 -119h-90l-63 107h-3zM372 519q0 14 -9 24.5t-28 10.5h-60v-67h60q37 0 37 32z" />
    <glyph glyph-name="overscore" unicode="&#xaf;" 
d="M479 617h-313v108h313v-108z" />
    <glyph glyph-name="degree" unicode="&#xb0;" 
d="M162 577q0 67 47 114t113 47q68 0 115 -47t47 -114q0 -66 -47 -113t-115 -47q-66 0 -113 47t-47 113zM249 577q0 -33 20.5 -56t52.5 -23q33 0 54.5 23t21.5 56t-21.5 56.5t-54.5 23.5q-32 0 -52.5 -23t-20.5 -57z" />
    <glyph glyph-name="plusminus" unicode="&#xb1;" 
d="M260 407v131h127v-131h214v-120h-214v-131h-127v131h-215v120h215zM601 0h-556v121h556v-121z" />
    <glyph glyph-name="twosuperior" unicode="&#xb2;" horiz-adv-x="647" 
d="M333 853q69 0 111.5 -29.5t42.5 -87.5q0 -56 -41 -99.5t-132 -103.5h172v-95h-326v88q8 5 48.5 33t60.5 43t49.5 40t43 46t13.5 39q0 43 -47 43q-59 0 -63 -75h-105q1 75 46.5 116.5t126.5 41.5z" />
    <glyph glyph-name="threesuperior" unicode="&#xb3;" 
d="M327 513q27 0 41 12t14 30q0 45 -80 45h-20v91h20q71 0 71 43q0 18 -14.5 27t-35.5 9q-24 0 -41.5 -13t-19.5 -36h-108q8 65 54 98.5t123 33.5q68 0 111 -29.5t43 -81.5q0 -62 -54 -90q30 -12 48 -37.5t18 -59.5q0 -58 -50 -91.5t-122 -33.5q-76 0 -122.5 37.5
t-53.5 104.5h107q11 -59 71 -59z" />
    <glyph glyph-name="acute" unicode="&#xb4;" 
d="M463 725l-158 -116h-123l94 116h187z" />
    <glyph glyph-name="mu" unicode="&#xb5;" 
d="M207 -175h-122q11 72 11 161v552h123v-279q0 -72 26 -118.5t83 -46.5q56 0 82 46.5t26 118.5v279h124v-538h-124v58q-37 -64 -108 -64q-73 0 -109 64v-67q0 -98 -12 -166z" />
    <glyph glyph-name="mu" unicode="&#x3bc;" 
d="M207 -175h-122q11 72 11 161v552h123v-279q0 -72 26 -118.5t83 -46.5q56 0 82 46.5t26 118.5v279h124v-538h-124v58q-37 -64 -108 -64q-73 0 -109 64v-67q0 -98 -12 -166z" />
    <glyph glyph-name="paragraph" unicode="&#xb6;" 
d="M67 554q0 80 62.5 125.5t165.5 45.5h213v-815h-82v739h-111v-739h-82v474q-67 7 -116.5 48t-49.5 122z" />
    <glyph glyph-name="middot" unicode="&#xb7;" 
d="M416 180h-186v178h186v-178z" />
    <glyph glyph-name="cedilla" unicode="&#xb8;" 
d="M206 -187l17 54q24 -14 65 -14q49 0 49 29q0 28 -40 28q-25 0 -39 -9l-30 17l52 83h61l-32 -52q11 4 36 4q37 0 65.5 -16.5t28.5 -51.5q0 -44 -40.5 -65t-98.5 -21q-52 0 -94 14z" />
    <glyph glyph-name="onesuperior" unicode="&#xb9;" horiz-adv-x="647" 
d="M494 438h-314v91h107v174h-91v80q53 2 78 16t37 47h86v-317h97v-91z" />
    <glyph glyph-name="ordmasculine" unicode="&#xba;" 
d="M263 580q0 -41 16 -62.5t43 -21.5q60 0 60 84q0 85 -60 85q-27 0 -43 -21.5t-16 -63.5zM164 580q0 77 45 117.5t113 40.5t113.5 -40.5t45.5 -117.5q0 -76 -45.5 -116.5t-113.5 -40.5t-113 40.5t-45 116.5z" />
    <glyph glyph-name="guillemotright" unicode="&#xbb;" 
d="M354 273l-159 -230h-135l135 230l-135 229h135zM575 273l-159 -230h-135l135 230l-135 229h135z" />
    <glyph glyph-name="onequarter" unicode="&#xbc;" 
d="M80 317v300h-65v58q45 2 57.5 9.5t22.5 40.5h73v-408h-88zM142 0l213 725h66l-213 -725h-66zM497 0v96h-146v65l141 247h90v-240h49v-72h-49v-96h-85zM421 168h76v127z" />
    <glyph glyph-name="onehalf" unicode="&#xbd;" 
d="M80 317v300h-65v58q45 2 57.5 9.5t22.5 40.5h73v-408h-88zM142 0l213 725h66l-213 -725h-66zM375 0v67l46 57q62 76 85.5 116t23.5 71q0 44 -32 44q-17 0 -23 -15t-6 -54v-6h-91v5q0 66 31 98t97 32q120 0 120 -98q0 -42 -24 -85.5t-78 -110.5l-39 -50h142v-71h-252z" />
    <glyph glyph-name="threequarters" unicode="&#xbe;" 
d="M124 309q-121 0 -121 121v2h88v-2q0 -32 7 -46.5t27 -14.5q25 0 33.5 16.5t8.5 47.5q0 22 -2 33t-13.5 20.5t-34.5 9.5h-26v63h24q24 0 31.5 14t7.5 42q0 29 -6.5 43t-27.5 14q-16 0 -22 -11t-6 -45v-2h-88v2q0 116 121 116q125 0 125 -107q0 -71 -58 -90q72 -23 72 -102
q0 -66 -35.5 -95t-104.5 -29zM196 0l213 725h66l-213 -725h-66zM512 0v96h-146v65l141 247h90v-240h49v-72h-49v-96h-85zM436 168h76v127z" />
    <glyph glyph-name="questiondown" unicode="&#xbf;" 
d="M307 -186q-70 0 -126.5 18.5t-94 60.5t-37.5 103q0 44 21.5 79.5t47 55t66.5 41.5q51 27 71 49.5t20 66.5v20h146q1 -15 1 -37q0 -36 -9 -63.5t-28.5 -48t-35.5 -33t-44 -28.5q-29 -16 -47 -27.5t-36.5 -32.5t-18.5 -40q0 -31 28 -50t75 -19q56 0 95.5 36.5t39.5 96.5
h144q0 -116 -78 -182t-200 -66zM441 360h-186v178h186v-178z" />
    <glyph glyph-name="Agrave" unicode="&#xc0;" 
d="M43 0l186 725h187l187 -725h-164l-33 151h-170l-33 -151h-160zM322 534l-60 -266h118zM273 761l-160 113h201l105 -113h-146z" />
    <glyph glyph-name="Aacute" unicode="&#xc1;" 
d="M43 0l186 725h187l187 -725h-164l-33 151h-170l-33 -151h-160zM322 534l-60 -266h118zM538 874l-161 -113h-145l104 113h202z" />
    <glyph glyph-name="Acircumflex" unicode="&#xc2;" 
d="M43 0l186 725h187l187 -725h-164l-33 151h-170l-33 -151h-160zM322 534l-60 -266h118zM405 874l138 -113h-164l-55 50l-59 -50h-162l140 113h162z" />
    <glyph glyph-name="Atilde" unicode="&#xc3;" 
d="M43 0l186 725h187l187 -725h-164l-33 151h-170l-33 -151h-160zM322 534l-60 -266h118zM383 837q48 0 55 37h97q-6 -35 -23 -59.5t-40 -35.5t-42.5 -15.5t-39.5 -4.5q-36 0 -74 18t-55 18q-45 0 -53 -36h-97q13 66 55 90.5t89 24.5q35 0 71.5 -18.5t56.5 -18.5z" />
    <glyph glyph-name="Adieresis" unicode="&#xc4;" 
d="M43 0l186 725h187l187 -725h-164l-33 151h-170l-33 -151h-160zM322 534l-60 -266h118zM134 874h148v-113h-148v113zM364 874h148v-113h-148v113z" />
    <glyph glyph-name="Aring" unicode="&#xc5;" 
d="M43 0l186 725h187l187 -725h-164l-33 151h-170l-33 -151h-160zM322 534l-60 -266h118zM323 921q39 0 65 -23.5t26 -61.5q0 -37 -26 -61t-65 -24t-65 24t-26 61t26.5 61t64.5 24zM323 879q-18 0 -30.5 -12.5t-12.5 -30.5t12.5 -30t30.5 -12t30.5 12t12.5 30t-12.5 30.5
t-30.5 12.5z" />
    <glyph glyph-name="AE" unicode="&#xc6;" 
d="M322 725h288v-129h-138v-162h119v-129h-119v-176h138v-129h-288v151h-104l-58 -151h-160zM322 417l-62 -160l62 1v159z" />
    <glyph glyph-name="Ccedilla" unicode="&#xc7;" 
d="M444 252h149q-15 -132 -78 -198.5t-184 -66.5q-139 0 -209.5 98t-70.5 278q0 179 72.5 277t212.5 98q116 0 178.5 -70t72.5 -194h-147q-6 76 -31.5 111t-78.5 35q-61 0 -90.5 -61.5t-29.5 -195.5q0 -137 28.5 -197.5t91.5 -60.5q104 0 114 147zM236 -187l17 54
q24 -14 66 -14q49 0 49 29q0 28 -41 28q-24 0 -38 -9l-30 17l51 83h62l-33 -52q12 4 37 4q37 0 65.5 -16.5t28.5 -51.5q0 -44 -40.5 -65t-98.5 -21q-51 0 -95 14z" />
    <glyph glyph-name="Egrave" unicode="&#xc8;" 
d="M107 0v725h439v-129h-289v-161h269v-129h-269v-177h289v-129h-439zM274 761l-160 113h201l105 -113h-146z" />
    <glyph glyph-name="Eacute" unicode="&#xc9;" 
d="M107 0v725h439v-129h-289v-161h269v-129h-269v-177h289v-129h-439zM543 874l-161 -113h-145l104 113h202z" />
    <glyph glyph-name="Ecircumflex" unicode="&#xca;" 
d="M107 0v725h439v-129h-289v-161h269v-129h-269v-177h289v-129h-439zM410 874l138 -113h-164l-55 50l-59 -50h-162l140 113h162z" />
    <glyph glyph-name="Edieresis" unicode="&#xcb;" 
d="M107 0v725h439v-129h-289v-161h269v-129h-269v-177h289v-129h-439zM134 874h148v-113h-148v113zM364 874h148v-113h-148v113z" />
    <glyph glyph-name="Igrave" unicode="&#xcc;" 
d="M76 596v129h494v-129h-172v-467h172v-129h-494v129h172v467h-172zM260 761l-160 113h201l105 -113h-146z" />
    <glyph glyph-name="Iacute" unicode="&#xcd;" 
d="M76 596v129h494v-129h-172v-467h172v-129h-494v129h172v467h-172zM554 874l-161 -113h-145l104 113h202z" />
    <glyph glyph-name="Icircumflex" unicode="&#xce;" 
d="M76 596v129h494v-129h-172v-467h172v-129h-494v129h172v467h-172zM405 874l138 -113h-164l-55 50l-59 -50h-162l140 113h162z" />
    <glyph glyph-name="Idieresis" unicode="&#xcf;" 
d="M76 596v129h494v-129h-172v-467h172v-129h-494v129h172v467h-172zM134 874h148v-113h-148v113zM364 874h148v-113h-148v113z" />
    <glyph glyph-name="Eth" unicode="&#xd0;" 
d="M90 725h170q350 0 350 -362q0 -363 -354 -363h-166v302h-55v129h55v294zM451 363q0 136 -49.5 188t-148.5 52h-13v-172h127v-129h-127v-179h13q99 0 148.5 52t49.5 188z" />
    <glyph glyph-name="Ntilde" unicode="&#xd1;" 
d="M572 0h-189l-159 501v-501h-150v725h188l160 -500v500h150v-725zM383 837q48 0 55 37h97q-6 -35 -23 -59.5t-40 -35.5t-42.5 -15.5t-39.5 -4.5q-36 0 -74 18t-55 18q-45 0 -53 -36h-97q13 66 55 90.5t89 24.5q35 0 71.5 -18.5t56.5 -18.5z" />
    <glyph glyph-name="Ograve" unicode="&#xd2;" 
d="M198 363q0 -258 125 -258t125 258q0 257 -125 257t-125 -257zM39 363q0 175 70.5 275t213.5 100q142 0 213 -100t71 -275t-71 -275.5t-213 -100.5q-143 0 -213.5 100t-70.5 276zM272 761l-160 113h201l105 -113h-146z" />
    <glyph glyph-name="Oacute" unicode="&#xd3;" 
d="M198 363q0 -258 125 -258t125 258q0 257 -125 257t-125 -257zM39 363q0 175 70.5 275t213.5 100q142 0 213 -100t71 -275t-71 -275.5t-213 -100.5q-143 0 -213.5 100t-70.5 276zM549 874l-161 -113h-145l104 113h202z" />
    <glyph glyph-name="Ocircumflex" unicode="&#xd4;" 
d="M198 363q0 -258 125 -258t125 258q0 257 -125 257t-125 -257zM39 363q0 175 70.5 275t213.5 100q142 0 213 -100t71 -275t-71 -275.5t-213 -100.5q-143 0 -213.5 100t-70.5 276zM405 874l138 -113h-164l-55 50l-59 -50h-162l140 113h162z" />
    <glyph glyph-name="Otilde" unicode="&#xd5;" 
d="M198 363q0 -258 125 -258t125 258q0 257 -125 257t-125 -257zM39 363q0 175 70.5 275t213.5 100q142 0 213 -100t71 -275t-71 -275.5t-213 -100.5q-143 0 -213.5 100t-70.5 276zM383 837q48 0 55 37h97q-6 -35 -23 -59.5t-40 -35.5t-42.5 -15.5t-39.5 -4.5q-36 0 -74 18
t-55 18q-45 0 -53 -36h-97q13 66 55 90.5t89 24.5q35 0 71.5 -18.5t56.5 -18.5z" />
    <glyph glyph-name="Odieresis" unicode="&#xd6;" 
d="M198 363q0 -258 125 -258t125 258q0 257 -125 257t-125 -257zM39 363q0 175 70.5 275t213.5 100q142 0 213 -100t71 -275t-71 -275.5t-213 -100.5q-143 0 -213.5 100t-70.5 276zM134 874h148v-113h-148v113zM364 874h148v-113h-148v113z" />
    <glyph glyph-name="multiply" unicode="&#xd7;" 
d="M559 111l-80 -81l-161 160l-159 -159l-73 72l159 161l-157 157l81 80l157 -157l160 160l72 -74l-159 -159z" />
    <glyph glyph-name="Oslash" unicode="&#xd8;" 
d="M39 363q0 175 70.5 275t213.5 100q132 0 206 -90l76 90l41 -35l-87 -103q48 -92 48 -237q0 -175 -71 -275.5t-213 -100.5q-134 0 -206 91l-77 -91l-40 36l86 102q-47 93 -47 238zM198 363q0 -55 6 -100l224 265q-30 92 -105 92q-125 0 -125 -257zM448 363q0 54 -6 99
l-224 -265q30 -92 105 -92q125 0 125 258z" />
    <glyph glyph-name="Ugrave" unicode="&#xd9;" 
d="M69 725h150v-451q0 -84 23 -124t83 -40q58 0 80 44t22 131v440h150v-409q0 -175 -54 -252t-198 -77q-143 0 -199.5 71.5t-56.5 251.5v415zM252 761l-160 113h201l105 -113h-146z" />
    <glyph glyph-name="Uacute" unicode="&#xda;" 
d="M69 725h150v-451q0 -84 23 -124t83 -40q58 0 80 44t22 131v440h150v-409q0 -175 -54 -252t-198 -77q-143 0 -199.5 71.5t-56.5 251.5v415zM551 874l-161 -113h-145l104 113h202z" />
    <glyph glyph-name="Ucircumflex" unicode="&#xdb;" 
d="M69 725h150v-451q0 -84 23 -124t83 -40q58 0 80 44t22 131v440h150v-409q0 -175 -54 -252t-198 -77q-143 0 -199.5 71.5t-56.5 251.5v415zM405 874l138 -113h-164l-55 50l-59 -50h-162l140 113h162z" />
    <glyph glyph-name="Udieresis" unicode="&#xdc;" 
d="M69 725h150v-451q0 -84 23 -124t83 -40q58 0 80 44t22 131v440h150v-409q0 -175 -54 -252t-198 -77q-143 0 -199.5 71.5t-56.5 251.5v415zM134 874h148v-113h-148v113zM364 874h148v-113h-148v113z" />
    <glyph glyph-name="Yacute" unicode="&#xdd;" 
d="M323 425l129 300h171l-225 -465v-260h-150v260l-225 465h171zM555 874l-161 -113h-145l104 113h202z" />
    <glyph glyph-name="Thorn" unicode="&#xde;" 
d="M94 725h151v-135h63q291 0 291 -226q0 -224 -291 -224h-64v-140h-150v725zM314 468h-69v-206h69q125 0 125 102q0 54 -34.5 79t-90.5 25z" />
    <glyph glyph-name="germandbls" unicode="&#xdf;" 
d="M236 3l31 119q40 -14 78 -14q40 0 68.5 27t28.5 81q0 57 -38 86.5t-97 29.5h-29v114h24q50 0 77.5 25.5t27.5 63.5q0 44 -26 69.5t-68 25.5q-67 0 -89.5 -38t-22.5 -119v-473h-143v472q0 133 62.5 199.5t195.5 66.5q101 0 164.5 -51t63.5 -144q0 -45 -18 -81.5t-43 -57.5
q43 -21 73.5 -69.5t30.5 -113.5q0 -113 -64 -173.5t-167 -60.5q-65 0 -120 16z" />
    <glyph glyph-name="agrave" unicode="&#xe0;" 
d="M422 0l-1 69q-56 -82 -171 -82q-73 0 -127.5 43t-54.5 114q0 33 11.5 59.5t37 45t52 31.5t70.5 23t78.5 16t88.5 13v12q0 60 -24 85.5t-71 25.5q-94 0 -100 -87h-129q8 82 70 133t164 51q108 0 168 -54t60 -182q0 -4 -1 -57t-1 -81q0 -143 11 -178h-131zM410 230v14
q-111 -10 -155.5 -29.5t-44.5 -64.5q0 -31 20.5 -48t58.5 -17q121 0 121 145zM284 609l-158 116h187l94 -116h-123z" />
    <glyph glyph-name="aacute" unicode="&#xe1;" 
d="M422 0l-1 69q-56 -82 -171 -82q-73 0 -127.5 43t-54.5 114q0 33 11.5 59.5t37 45t52 31.5t70.5 23t78.5 16t88.5 13v12q0 60 -24 85.5t-71 25.5q-94 0 -100 -87h-129q8 82 70 133t164 51q108 0 168 -54t60 -182q0 -4 -1 -57t-1 -81q0 -143 11 -178h-131zM410 230v14
q-111 -10 -155.5 -29.5t-44.5 -64.5q0 -31 20.5 -48t58.5 -17q121 0 121 145zM525 725l-158 -116h-123l94 116h187z" />
    <glyph glyph-name="acircumflex" unicode="&#xe2;" 
d="M422 0l-1 69q-56 -82 -171 -82q-73 0 -127.5 43t-54.5 114q0 33 11.5 59.5t37 45t52 31.5t70.5 23t78.5 16t88.5 13v12q0 60 -24 85.5t-71 25.5q-94 0 -100 -87h-129q8 82 70 133t164 51q108 0 168 -54t60 -182q0 -4 -1 -57t-1 -81q0 -143 11 -178h-131zM410 230v14
q-111 -10 -155.5 -29.5t-44.5 -64.5q0 -31 20.5 -48t58.5 -17q121 0 121 145zM399 725l137 -116h-151l-61 47l-64 -47h-151l140 116h150z" />
    <glyph glyph-name="atilde" unicode="&#xe3;" 
d="M422 0l-1 69q-56 -82 -171 -82q-73 0 -127.5 43t-54.5 114q0 33 11.5 59.5t37 45t52 31.5t70.5 23t78.5 16t88.5 13v12q0 60 -24 85.5t-71 25.5q-94 0 -100 -87h-129q8 82 70 133t164 51q108 0 168 -54t60 -182q0 -4 -1 -57t-1 -81q0 -143 11 -178h-131zM410 230v14
q-111 -10 -155.5 -29.5t-44.5 -64.5q0 -31 20.5 -48t58.5 -17q121 0 121 145zM388 681q44 0 52 44h97q-23 -127 -134 -127q-38 0 -79.5 22t-57.5 22q-43 0 -52 -44h-96q9 61 44 94t91 33q37 0 76 -22t59 -22z" />
    <glyph glyph-name="adieresis" unicode="&#xe4;" 
d="M422 0l-1 69q-56 -82 -171 -82q-73 0 -127.5 43t-54.5 114q0 33 11.5 59.5t37 45t52 31.5t70.5 23t78.5 16t88.5 13v12q0 60 -24 85.5t-71 25.5q-94 0 -100 -87h-129q8 82 70 133t164 51q108 0 168 -54t60 -182q0 -4 -1 -57t-1 -81q0 -143 11 -178h-131zM410 230v14
q-111 -10 -155.5 -29.5t-44.5 -64.5q0 -31 20.5 -48t58.5 -17q121 0 121 145zM138 609v116h148v-116h-148zM361 725h148v-116h-148v116z" />
    <glyph glyph-name="aring" unicode="&#xe5;" 
d="M422 0l-1 69q-56 -82 -171 -82q-73 0 -127.5 43t-54.5 114q0 33 11.5 59.5t37 45t52 31.5t70.5 23t78.5 16t88.5 13v12q0 60 -24 85.5t-71 25.5q-94 0 -100 -87h-129q8 82 70 133t164 51q108 0 168 -54t60 -182q0 -4 -1 -57t-1 -81q0 -143 11 -178h-131zM410 230v14
q-111 -10 -155.5 -29.5t-44.5 -64.5q0 -31 20.5 -48t58.5 -17q121 0 121 145zM331 775q39 0 66.5 -26t27.5 -64t-27.5 -63.5t-66.5 -25.5q-40 0 -67.5 25t-27.5 64t27.5 64.5t67.5 25.5zM331 726q-17 0 -29 -11.5t-12 -29.5q0 -17 12 -28t29 -11t29 11t12 28q0 18 -12 29.5
t-29 11.5z" />
    <glyph glyph-name="ae" unicode="&#xe6;" 
d="M142 371h-104q2 82 42 130.5t125 48.5q79 0 118 -51q43 48 112 48q95 0 141 -84.5t42 -234.5h-254q4 -135 73 -135q57 0 67 67h110q-11 -70 -55 -121.5t-118 -51.5q-51 0 -81 20t-52 61q-46 -81 -137 -81q-70 0 -108 47.5t-38 110.5q0 84 46.5 125.5t136.5 51.5l47 5v40
q0 85 -55 85q-52 0 -58 -81zM257 214v25l-40 -6q-44 -6 -60 -24t-16 -49q0 -29 11.5 -50t34.5 -21q70 0 70 125zM365 326h136q-6 121 -68 121q-26 0 -45.5 -28t-22.5 -93z" />
    <glyph glyph-name="ccedilla" unicode="&#xe7;" 
d="M326 550q55 0 104 -21t85.5 -69t44.5 -116h-136q-14 100 -99 100q-104 0 -104 -176q0 -175 104 -175q86 0 102 104h138q-9 -70 -47 -119t-88 -70t-107 -21q-115 0 -180.5 78t-65.5 203q0 128 66 205t183 77zM235 -187l17 54q24 -14 65 -14q49 0 49 29q0 28 -40 28
q-25 0 -39 -9l-30 17l52 83h61l-32 -52q11 4 36 4q37 0 65.5 -16.5t28.5 -51.5q0 -44 -40.5 -65t-98.5 -21q-52 0 -94 14z" />
    <glyph glyph-name="egrave" unicode="&#xe8;" 
d="M574 232h-367q4 -70 37.5 -106.5t81.5 -36.5q85 0 102 79h137q-13 -75 -76 -128t-165 -53q-123 0 -189 75t-66 202q0 131 67 208.5t186 77.5q121 0 188.5 -85t63.5 -233zM320 447q-40 0 -73.5 -30.5t-39.5 -93.5h230q-4 124 -117 124zM276 609l-158 116h187l94 -116h-123
z" />
    <glyph glyph-name="eacute" unicode="&#xe9;" 
d="M574 232h-367q4 -70 37.5 -106.5t81.5 -36.5q85 0 102 79h137q-13 -75 -76 -128t-165 -53q-123 0 -189 75t-66 202q0 131 67 208.5t186 77.5q121 0 188.5 -85t63.5 -233zM320 447q-40 0 -73.5 -30.5t-39.5 -93.5h230q-4 124 -117 124zM535 725l-158 -116h-123l94 116h187
z" />
    <glyph glyph-name="ecircumflex" unicode="&#xea;" 
d="M574 232h-367q4 -70 37.5 -106.5t81.5 -36.5q85 0 102 79h137q-13 -75 -76 -128t-165 -53q-123 0 -189 75t-66 202q0 131 67 208.5t186 77.5q121 0 188.5 -85t63.5 -233zM320 447q-40 0 -73.5 -30.5t-39.5 -93.5h230q-4 124 -117 124zM399 725l137 -116h-151l-61 47
l-64 -47h-151l140 116h150z" />
    <glyph glyph-name="edieresis" unicode="&#xeb;" 
d="M574 232h-367q4 -70 37.5 -106.5t81.5 -36.5q85 0 102 79h137q-13 -75 -76 -128t-165 -53q-123 0 -189 75t-66 202q0 131 67 208.5t186 77.5q121 0 188.5 -85t63.5 -233zM320 447q-40 0 -73.5 -30.5t-39.5 -93.5h230q-4 124 -117 124zM137 609v116h148v-116h-148z
M360 725h148v-116h-148v116z" />
    <glyph glyph-name="igrave" unicode="&#xec;" 
d="M554 0h-457v108h156v322h-156v108h300v-430h157v-108zM270 609l-158 116h187l94 -116h-123z" />
    <glyph glyph-name="iacute" unicode="&#xed;" 
d="M554 0h-457v108h156v322h-156v108h300v-430h157v-108zM531 725l-158 -116h-123l94 116h187z" />
    <glyph glyph-name="icircumflex" unicode="&#xee;" 
d="M554 0h-457v108h156v322h-156v108h300v-430h157v-108zM397 725l137 -116h-151l-61 47l-64 -47h-151l140 116h150z" />
    <glyph glyph-name="idieresis" unicode="&#xef;" 
d="M554 0h-457v108h156v322h-156v108h300v-430h157v-108zM137 609v116h148v-116h-148zM360 725h148v-116h-148v116z" />
    <glyph glyph-name="eth" unicode="&#xf0;" 
d="M372 698l69 47l29 -40l-56 -38q162 -136 162 -356q0 -159 -71 -241.5t-190 -82.5q-117 0 -181 71.5t-64 205.5q0 125 64 200t155 75q36 0 72 -15.5t56 -45.5l1 1q-29 70 -99 124l-72 -49l-29 40l58 39q-40 25 -80 43l112 59q27 -13 64 -37zM321 98q52 0 81.5 44t29.5 122
q0 75 -29.5 119.5t-81.5 44.5q-50 0 -78 -45.5t-28 -119.5t28 -119.5t78 -45.5z" />
    <glyph glyph-name="ntilde" unicode="&#xf1;" 
d="M90 538h144v-63q48 75 143 75q175 0 175 -212v-338h-144v314q0 26 -2.5 44.5t-9.5 39t-24 31t-43 10.5q-29 0 -48.5 -12t-29.5 -34.5t-13.5 -47.5t-3.5 -60v-285h-144v538zM384 681q44 0 52 44h97q-23 -127 -134 -127q-38 0 -79.5 22t-57.5 22q-43 0 -52 -44h-96
q9 61 44 94t91 33q37 0 76 -22t59 -22z" />
    <glyph glyph-name="ograve" unicode="&#xf2;" 
d="M580 269q0 -144 -73.5 -213t-183.5 -69t-183.5 69t-73.5 213q0 74 21 130t58 88t81.5 47.5t96.5 15.5t96.5 -15.5t81.5 -47.5t58 -88t21 -130zM436 269q0 175 -113 175t-113 -175q0 -176 113 -176t113 176zM266 609l-158 116h187l94 -116h-123z" />
    <glyph glyph-name="oacute" unicode="&#xf3;" 
d="M580 269q0 -144 -73.5 -213t-183.5 -69t-183.5 69t-73.5 213q0 74 21 130t58 88t81.5 47.5t96.5 15.5t96.5 -15.5t81.5 -47.5t58 -88t21 -130zM436 269q0 175 -113 175t-113 -175q0 -176 113 -176t113 176zM529 725l-158 -116h-123l94 116h187z" />
    <glyph glyph-name="ocircumflex" unicode="&#xf4;" 
d="M580 269q0 -144 -73.5 -213t-183.5 -69t-183.5 69t-73.5 213q0 74 21 130t58 88t81.5 47.5t96.5 15.5t96.5 -15.5t81.5 -47.5t58 -88t21 -130zM436 269q0 175 -113 175t-113 -175q0 -176 113 -176t113 176zM399 725l137 -116h-151l-61 47l-64 -47h-151l140 116h150z" />
    <glyph glyph-name="otilde" unicode="&#xf5;" 
d="M580 269q0 -144 -73.5 -213t-183.5 -69t-183.5 69t-73.5 213q0 74 21 130t58 88t81.5 47.5t96.5 15.5t96.5 -15.5t81.5 -47.5t58 -88t21 -130zM436 269q0 175 -113 175t-113 -175q0 -176 113 -176t113 176zM383 681q44 0 52 44h97q-23 -127 -134 -127q-38 0 -79.5 22
t-57.5 22q-43 0 -52 -44h-96q9 61 44 94t91 33q38 0 77 -22t58 -22z" />
    <glyph glyph-name="odieresis" unicode="&#xf6;" 
d="M580 269q0 -144 -73.5 -213t-183.5 -69t-183.5 69t-73.5 213q0 74 21 130t58 88t81.5 47.5t96.5 15.5t96.5 -15.5t81.5 -47.5t58 -88t21 -130zM436 269q0 175 -113 175t-113 -175q0 -176 113 -176t113 176zM137 609v116h148v-116h-148zM360 725h148v-116h-148v116z" />
    <glyph glyph-name="divide" unicode="&#xf7;" 
d="M248 24v139h149v-139h-149zM248 375v139h149v-139h-149zM590 209h-534v120h534v-120z" />
    <glyph glyph-name="oslash" unicode="&#xf8;" 
d="M580 269q0 -144 -73.5 -213t-183.5 -69q-95 0 -162 50l-43 -50l-40 36l45 51q-57 73 -57 195q0 74 21 130t58 88t81.5 47.5t96.5 15.5q101 0 166 -54l36 41l41 -35l-39 -45q53 -71 53 -188zM210 269q0 -49 9 -84l188 216q-30 43 -84 43q-113 0 -113 -175zM436 269
q0 38 -7 75l-186 -213q29 -38 80 -38q113 0 113 176z" />
    <glyph glyph-name="ugrave" unicode="&#xf9;" 
d="M412 0v59q-46 -72 -137 -72q-181 0 -181 212v339h144v-315q0 -26 2.5 -44.5t9.5 -39t24 -31t43 -10.5q55 0 75 41t20 113v286h144v-538h-144zM290 609l-158 116h187l94 -116h-123z" />
    <glyph glyph-name="uacute" unicode="&#xfa;" 
d="M412 0v59q-46 -72 -137 -72q-181 0 -181 212v339h144v-315q0 -26 2.5 -44.5t9.5 -39t24 -31t43 -10.5q55 0 75 41t20 113v286h144v-538h-144zM548 725l-158 -116h-123l94 116h187z" />
    <glyph glyph-name="ucircumflex" unicode="&#xfb;" 
d="M412 0v59q-46 -72 -137 -72q-181 0 -181 212v339h144v-315q0 -26 2.5 -44.5t9.5 -39t24 -31t43 -10.5q55 0 75 41t20 113v286h144v-538h-144zM401 725l137 -116h-151l-61 47l-64 -47h-151l140 116h150z" />
    <glyph glyph-name="udieresis" unicode="&#xfc;" 
d="M412 0v59q-46 -72 -137 -72q-181 0 -181 212v339h144v-315q0 -26 2.5 -44.5t9.5 -39t24 -31t43 -10.5q55 0 75 41t20 113v286h144v-538h-144zM139 609v116h148v-116h-148zM362 725h148v-116h-148v116z" />
    <glyph glyph-name="yacute" unicode="&#xfd;" 
d="M597 538l-197 -520q-49 -127 -84 -160t-127 -33h-115v107h106q31 0 42.5 9.5t28.5 45.5l5 13l-207 538h149l131 -367l126 367h142zM539 725l-158 -116h-123l94 116h187z" />
    <glyph glyph-name="thorn" unicode="&#xfe;" 
d="M223 725v-255q42 80 138 80t157 -74t61 -208t-61 -207.5t-157 -73.5t-138 80v-242h-144v900h144zM218 268q0 -85 29.5 -130t81.5 -45q51 0 78.5 46.5t27.5 128.5t-28 129t-78 47q-52 0 -81.5 -45.5t-29.5 -130.5z" />
    <glyph glyph-name="ydieresis" unicode="&#xff;" 
d="M597 538l-197 -520q-49 -127 -84 -160t-127 -33h-115v107h106q31 0 42.5 9.5t28.5 45.5l5 13l-207 538h149l131 -367l126 367h142zM142 609v116h148v-116h-148zM365 725h148v-116h-148v116z" />
    <glyph glyph-name="Amacron" unicode="&#x100;" 
d="M43 0l186 725h187l187 -725h-164l-33 151h-170l-33 -151h-160zM322 534l-60 -266h118zM491 771h-336v94h336v-94z" />
    <glyph glyph-name="amacron" unicode="&#x101;" 
d="M422 0l-1 69q-56 -82 -171 -82q-73 0 -127.5 43t-54.5 114q0 33 11.5 59.5t37 45t52 31.5t70.5 23t78.5 16t88.5 13v12q0 60 -24 85.5t-71 25.5q-94 0 -100 -87h-129q8 82 70 133t164 51q108 0 168 -54t60 -182q0 -4 -1 -57t-1 -81q0 -143 11 -178h-131zM410 230v14
q-111 -10 -155.5 -29.5t-44.5 -64.5q0 -31 20.5 -48t58.5 -17q121 0 121 145zM485 617h-313v108h313v-108z" />
    <glyph glyph-name="Abreve" unicode="&#x102;" 
d="M43 0l186 725h187l187 -725h-164l-33 151h-170l-33 -151h-160zM322 534l-60 -266h118zM396 874h118q-6 -62 -51.5 -89.5t-140.5 -27.5q-93 0 -139 27.5t-51 89.5h118q7 -46 72 -46q67 0 74 46z" />
    <glyph glyph-name="abreve" unicode="&#x103;" 
d="M422 0l-1 69q-56 -82 -171 -82q-73 0 -127.5 43t-54.5 114q0 33 11.5 59.5t37 45t52 31.5t70.5 23t78.5 16t88.5 13v12q0 60 -24 85.5t-71 25.5q-94 0 -100 -87h-129q8 82 70 133t164 51q108 0 168 -54t60 -182q0 -4 -1 -57t-1 -81q0 -143 11 -178h-131zM410 230v14
q-111 -10 -155.5 -29.5t-44.5 -64.5q0 -31 20.5 -48t58.5 -17q121 0 121 145zM386 725h108q-7 -59 -48.5 -95.5t-122.5 -36.5q-79 0 -121.5 37t-46.5 95h108q6 -50 61 -50q56 0 62 50z" />
    <glyph glyph-name="Aogonek" unicode="&#x104;" 
d="M439 0h164q-28 -14 -36.5 -18.5t-24.5 -14.5t-21 -19t-5 -20q0 -32 44 -32q18 0 56 10v-82q-54 -10 -103 -10q-60 0 -99 22t-39 68q0 62 64 96zM43 0l186 725h187l187 -725h-164l-33 151h-170l-33 -151h-160zM322 534l-60 -266h118z" />
    <glyph glyph-name="aogonek" unicode="&#x105;" 
d="M422 0l-1 69q-56 -82 -171 -82q-73 0 -127.5 43t-54.5 114q0 33 11.5 59.5t37 45t52 31.5t70.5 23t78.5 16t88.5 13v12q0 60 -24 85.5t-71 25.5q-94 0 -100 -87h-129q8 82 70 133t164 51q108 0 168 -54t60 -182q0 -4 -1 -57t-1 -81q0 -143 11 -178h-11q-27 -22 -38 -36.5
t-11 -35.5q0 -32 44 -32q19 0 56 10v-82q-54 -10 -103 -10q-60 0 -99 22t-39 68q0 57 69 96h1zM410 230v14q-111 -10 -155.5 -29.5t-44.5 -64.5q0 -31 20.5 -48t58.5 -17q121 0 121 145z" />
    <glyph glyph-name="Cacute" unicode="&#x106;" 
d="M444 252h149q-15 -132 -78 -198.5t-184 -66.5q-139 0 -209.5 98t-70.5 278q0 179 72.5 277t212.5 98q116 0 178.5 -70t72.5 -194h-147q-6 76 -31.5 111t-78.5 35q-61 0 -90.5 -61.5t-29.5 -195.5q0 -137 28.5 -197.5t91.5 -60.5q104 0 114 147zM547 874l-161 -113h-145
l104 113h202z" />
    <glyph glyph-name="cacute" unicode="&#x107;" 
d="M326 550q55 0 104 -21t85.5 -69t44.5 -116h-136q-14 100 -99 100q-104 0 -104 -176q0 -175 104 -175q86 0 102 104h138q-9 -70 -47 -119t-88 -70t-107 -21q-115 0 -180.5 78t-65.5 203q0 128 66 205t183 77zM519 725l-158 -116h-123l94 116h187z" />
    <glyph glyph-name="Ccircumflex" unicode="&#x108;" 
d="M444 252h149q-15 -132 -78 -198.5t-184 -66.5q-139 0 -209.5 98t-70.5 278q0 179 72.5 277t212.5 98q116 0 178.5 -70t72.5 -194h-147q-6 76 -31.5 111t-78.5 35q-61 0 -90.5 -61.5t-29.5 -195.5q0 -137 28.5 -197.5t91.5 -60.5q104 0 114 147zM405 874l138 -113h-164
l-55 50l-59 -50h-162l140 113h162z" />
    <glyph glyph-name="ccircumflex" unicode="&#x109;" 
d="M326 550q55 0 104 -21t85.5 -69t44.5 -116h-136q-14 100 -99 100q-104 0 -104 -176q0 -175 104 -175q86 0 102 104h138q-9 -70 -47 -119t-88 -70t-107 -21q-115 0 -180.5 78t-65.5 203q0 128 66 205t183 77zM399 725l137 -116h-151l-61 47l-64 -47h-151l140 116h150z" />
    <glyph glyph-name="Cdotaccent" unicode="&#x10a;" 
d="M444 252h149q-15 -132 -78 -198.5t-184 -66.5q-139 0 -209.5 98t-70.5 278q0 179 72.5 277t212.5 98q116 0 178.5 -70t72.5 -194h-147q-6 76 -31.5 111t-78.5 35q-61 0 -90.5 -61.5t-29.5 -195.5q0 -137 28.5 -197.5t91.5 -60.5q104 0 114 147zM237 874h172v-113h-172
v113z" />
    <glyph glyph-name="cdotaccent" unicode="&#x10b;" 
d="M326 550q55 0 104 -21t85.5 -69t44.5 -116h-136q-14 100 -99 100q-104 0 -104 -176q0 -175 104 -175q86 0 102 104h138q-9 -70 -47 -119t-88 -70t-107 -21q-115 0 -180.5 78t-65.5 203q0 128 66 205t183 77zM249 725h148v-116h-148v116z" />
    <glyph glyph-name="Ccaron" unicode="&#x10c;" 
d="M444 252h149q-15 -132 -78 -198.5t-184 -66.5q-139 0 -209.5 98t-70.5 278q0 179 72.5 277t212.5 98q116 0 178.5 -70t72.5 -194h-147q-6 76 -31.5 111t-78.5 35q-61 0 -90.5 -61.5t-29.5 -195.5q0 -137 28.5 -197.5t91.5 -60.5q104 0 114 147zM241 761l-137 113h164
l54 -49l59 49h162l-140 -113h-162z" />
    <glyph glyph-name="ccaron" unicode="&#x10d;" 
d="M326 550q55 0 104 -21t85.5 -69t44.5 -116h-136q-14 100 -99 100q-104 0 -104 -176q0 -175 104 -175q86 0 102 104h138q-9 -70 -47 -119t-88 -70t-107 -21q-115 0 -180.5 78t-65.5 203q0 128 66 205t183 77zM246 609l-136 116h150l61 -46l64 46h152l-141 -116h-150z" />
    <glyph glyph-name="Dcaron" unicode="&#x10e;" 
d="M438 363q0 136 -49.5 188t-148.5 52h-13v-480h13q99 0 148.5 52t49.5 188zM77 725h170q350 0 350 -362q0 -363 -354 -363h-166v725zM226 761l-137 113h164l54 -49l59 49h162l-140 -113h-162z" />
    <glyph glyph-name="dcaron" unicode="&#x10f;" 
d="M424 470v255h143v-725h-142l-1 67q-42 -80 -138 -80t-157 73.5t-61 207.5t61 208t157 74t138 -80zM429 268q0 85 -29.5 130.5t-81.5 45.5q-50 0 -78 -47t-28 -129t27.5 -128.5t78.5 -46.5q52 0 81.5 45t29.5 130zM727 725l-70 -170h-78l30 170h118z" />
    <glyph glyph-name="Dcroat" unicode="&#x110;" 
d="M90 725h170q350 0 350 -362q0 -363 -354 -363h-166v302h-55v129h55v294zM451 363q0 136 -49.5 188t-148.5 52h-13v-172h127v-129h-127v-179h13q99 0 148.5 52t49.5 188z" />
    <glyph glyph-name="dslash" unicode="&#x111;" 
d="M336 566v79h88v80h143v-80h91v-79h-91v-566h-142l-1 67q-42 -80 -138 -80t-157 73.5t-61 207.5t61 208t157 74t138 -80v96h-88zM429 268q0 85 -29.5 130.5t-81.5 45.5q-50 0 -78 -47t-28 -129t27.5 -128.5t78.5 -46.5q52 0 81.5 45t29.5 130z" />
    <glyph glyph-name="Emacron" unicode="&#x112;" 
d="M107 0v725h439v-129h-289v-161h269v-129h-269v-177h289v-129h-439zM498 771h-336v94h336v-94z" />
    <glyph glyph-name="emacron" unicode="&#x113;" 
d="M574 232h-367q4 -70 37.5 -106.5t81.5 -36.5q85 0 102 79h137q-13 -75 -76 -128t-165 -53q-123 0 -189 75t-66 202q0 131 67 208.5t186 77.5q121 0 188.5 -85t63.5 -233zM320 447q-40 0 -73.5 -30.5t-39.5 -93.5h230q-4 124 -117 124zM479 617h-313v108h313v-108z" />
    <glyph glyph-name="Ebreve" unicode="&#x114;" 
d="M107 0v725h439v-129h-289v-161h269v-129h-269v-177h289v-129h-439zM400 874h118q-6 -62 -51.5 -89.5t-140.5 -27.5q-93 0 -139 27.5t-51 89.5h118q7 -46 72 -46q67 0 74 46z" />
    <glyph glyph-name="ebreve" unicode="&#x115;" 
d="M574 232h-367q4 -70 37.5 -106.5t81.5 -36.5q85 0 102 79h137q-13 -75 -76 -128t-165 -53q-123 0 -189 75t-66 202q0 131 67 208.5t186 77.5q121 0 188.5 -85t63.5 -233zM320 447q-40 0 -73.5 -30.5t-39.5 -93.5h230q-4 124 -117 124zM384 725h108q-7 -59 -48.5 -95.5
t-122.5 -36.5q-79 0 -121.5 37t-46.5 95h108q6 -50 61 -50q56 0 62 50z" />
    <glyph glyph-name="Edotaccent" unicode="&#x116;" 
d="M107 0v725h439v-129h-289v-161h269v-129h-269v-177h289v-129h-439zM238 874h172v-113h-172v113z" />
    <glyph glyph-name="edotaccent" unicode="&#x117;" 
d="M574 232h-367q4 -70 37.5 -106.5t81.5 -36.5q85 0 102 79h137q-13 -75 -76 -128t-165 -53q-123 0 -189 75t-66 202q0 131 67 208.5t186 77.5q121 0 188.5 -85t63.5 -233zM320 447q-40 0 -73.5 -30.5t-39.5 -93.5h230q-4 124 -117 124zM248 725h148v-116h-148v116z" />
    <glyph glyph-name="Eogonek" unicode="&#x118;" 
d="M107 0v725h439v-129h-289v-161h269v-129h-269v-177h289v-129h-439zM387 0h159q-28 -14 -36.5 -18.5t-24.5 -14.5t-21 -19t-5 -20q0 -32 44 -32q19 0 56 10v-82q-54 -10 -103 -10q-60 0 -99 22t-39 68q0 57 69 96z" />
    <glyph glyph-name="eogonek" unicode="&#x119;" 
d="M574 232h-367q4 -70 37.5 -106.5t81.5 -36.5q85 0 102 79h137q-13 -75 -76 -128t-165 -53q-123 0 -189 75t-66 202q0 131 67 208.5t186 77.5q121 0 188.5 -85t63.5 -233zM320 447q-40 0 -73.5 -30.5t-39.5 -93.5h230q-4 124 -117 124zM254 0h159q-28 -14 -36.5 -18.5
t-24.5 -14.5t-21 -19t-5 -20q0 -32 44 -32q18 0 56 10v-82q-54 -10 -103 -10q-60 0 -99 22t-39 68q0 57 69 96z" />
    <glyph glyph-name="Ecaron" unicode="&#x11a;" 
d="M107 0v725h439v-129h-289v-161h269v-129h-269v-177h289v-129h-439zM243 761l-137 113h164l54 -49l59 49h162l-140 -113h-162z" />
    <glyph glyph-name="ecaron" unicode="&#x11b;" 
d="M574 232h-367q4 -70 37.5 -106.5t81.5 -36.5q85 0 102 79h137q-13 -75 -76 -128t-165 -53q-123 0 -189 75t-66 202q0 131 67 208.5t186 77.5q121 0 188.5 -85t63.5 -233zM320 447q-40 0 -73.5 -30.5t-39.5 -93.5h230q-4 124 -117 124zM245 609l-136 116h150l61 -46l64 46
h152l-141 -116h-150z" />
    <glyph glyph-name="Gcircumflex" unicode="&#x11c;" 
d="M596 483h-148q-10 137 -119 137q-64 0 -96 -62t-32 -195q0 -136 31.5 -197t96.5 -61q53 0 86 40t33 108v17h-132v118h283v-388h-115l-5 90q-50 -103 -164 -103q-131 0 -202 99t-71 277t75 276.5t217 98.5q116 0 184 -68.5t78 -186.5zM415 874l138 -113h-164l-55 50
l-59 -50h-162l140 113h162z" />
    <glyph glyph-name="gcircumflex" unicode="&#x11d;" 
d="M424 470v68h143v-483q0 -128 -63.5 -185t-185.5 -57q-90 0 -152.5 41t-73.5 132h132q13 -70 95 -70q52 0 78.5 31t26.5 83v58q-44 -79 -138 -79q-95 0 -156.5 71.5t-61.5 198.5q0 126 61.5 198.5t156.5 72.5q96 0 138 -80zM429 279q0 77 -29.5 121t-81.5 44
q-50 0 -78 -45.5t-28 -119.5t28 -119.5t78 -45.5q52 0 81.5 43.5t29.5 121.5zM399 725l137 -116h-151l-61 47l-64 -47h-151l140 116h150z" />
    <glyph glyph-name="Gbreve" unicode="&#x11e;" 
d="M596 483h-148q-10 137 -119 137q-64 0 -96 -62t-32 -195q0 -136 31.5 -197t96.5 -61q53 0 86 40t33 108v17h-132v118h283v-388h-115l-5 90q-50 -103 -164 -103q-131 0 -202 99t-71 277t75 276.5t217 98.5q116 0 184 -68.5t78 -186.5zM393 874h118q-6 -62 -51.5 -89.5
t-140.5 -27.5q-93 0 -139 27.5t-51 89.5h118q7 -46 72 -46q67 0 74 46z" />
    <glyph glyph-name="gbreve" unicode="&#x11f;" 
d="M424 470v68h143v-483q0 -128 -63.5 -185t-185.5 -57q-90 0 -152.5 41t-73.5 132h132q13 -70 95 -70q52 0 78.5 31t26.5 83v58q-44 -79 -138 -79q-95 0 -156.5 71.5t-61.5 198.5q0 126 61.5 198.5t156.5 72.5q96 0 138 -80zM429 279q0 77 -29.5 121t-81.5 44
q-50 0 -78 -45.5t-28 -119.5t28 -119.5t78 -45.5q52 0 81.5 43.5t29.5 121.5zM384 725h108q-7 -59 -48.5 -95.5t-122.5 -36.5q-79 0 -121.5 37t-46.5 95h108q6 -50 61 -50q56 0 62 50z" />
    <glyph glyph-name="Gdotaccent" unicode="&#x120;" 
d="M596 483h-148q-10 137 -119 137q-64 0 -96 -62t-32 -195q0 -136 31.5 -197t96.5 -61q53 0 86 40t33 108v17h-132v118h283v-388h-115l-5 90q-50 -103 -164 -103q-131 0 -202 99t-71 277t75 276.5t217 98.5q116 0 184 -68.5t78 -186.5zM244 874h172v-113h-172v113z" />
    <glyph glyph-name="gdotaccent" unicode="&#x121;" 
d="M424 470v68h143v-483q0 -128 -63.5 -185t-185.5 -57q-90 0 -152.5 41t-73.5 132h132q13 -70 95 -70q52 0 78.5 31t26.5 83v58q-44 -79 -138 -79q-95 0 -156.5 71.5t-61.5 198.5q0 126 61.5 198.5t156.5 72.5q96 0 138 -80zM429 279q0 77 -29.5 121t-81.5 44
q-50 0 -78 -45.5t-28 -119.5t28 -119.5t78 -45.5q52 0 81.5 43.5t29.5 121.5zM248 725h148v-116h-148v116z" />
    <glyph glyph-name="uni0122" unicode="&#x122;" 
d="M596 483h-148q-10 137 -119 137q-64 0 -96 -62t-32 -195q0 -136 31.5 -197t96.5 -61q53 0 86 40t33 108v17h-132v118h283v-388h-115l-5 90q-50 -103 -164 -103q-131 0 -202 99t-71 277t75 276.5t217 98.5q116 0 184 -68.5t78 -186.5zM258 -136v100h127v-106l-44 -89h-86
l38 95h-35z" />
    <glyph glyph-name="uni0123" unicode="&#x123;" 
d="M362 686v-100h-127v107l45 89h86l-39 -96h35zM424 470v68h143v-483q0 -128 -63.5 -185t-185.5 -57q-90 0 -152.5 41t-73.5 132h132q13 -70 95 -70q52 0 78.5 31t26.5 83v58q-44 -79 -138 -79q-95 0 -156.5 71.5t-61.5 198.5q0 126 61.5 198.5t156.5 72.5q96 0 138 -80z
M429 279q0 77 -29.5 121t-81.5 44q-50 0 -78 -45.5t-28 -119.5t28 -119.5t78 -45.5q52 0 81.5 43.5t29.5 121.5z" />
    <glyph glyph-name="Hcircumflex" unicode="&#x124;" 
d="M428 725h150v-725h-150v306h-210v-306h-150v725h150v-290h210v290zM405 874l138 -113h-164l-55 50l-59 -50h-162l140 113h162z" />
    <glyph glyph-name="hcircumflex" unicode="&#x125;" 
d="M249 874l138 -113h-164l-55 50l-59 -50h-162l140 113h162zM90 725h144v-250q48 75 144 75q174 0 174 -212v-338h-144v314q0 21 -1 35.5t-5.5 33t-12.5 29.5t-23 19t-36 8q-56 0 -76 -41t-20 -113v-285h-144v725z" />
    <glyph glyph-name="Hbar" unicode="&#x126;" 
d="M428 725h150v-100h48v-108h-48v-517h-150v306h-210v-306h-150v517h-48v108h48v100h150v-100h210v100zM218 435h210v82h-210v-82z" />
    <glyph glyph-name="hbar" unicode="&#x127;" 
d="M90 725h144v-80h101v-79h-101v-91q48 75 144 75q174 0 174 -212v-338h-144v314q0 21 -1 35.5t-5.5 33t-12.5 29.5t-23 19t-36 8q-56 0 -76 -41t-20 -113v-285h-144v566h-78v79h78v80z" />
    <glyph glyph-name="Itilde" unicode="&#x128;" 
d="M76 596v129h494v-129h-172v-467h172v-129h-494v129h172v467h-172zM383 837q48 0 55 37h97q-6 -35 -23 -59.5t-40 -35.5t-42.5 -15.5t-39.5 -4.5q-36 0 -74 18t-55 18q-45 0 -53 -36h-97q13 66 55 90.5t89 24.5q35 0 71.5 -18.5t56.5 -18.5z" />
    <glyph glyph-name="itilde" unicode="&#x129;" 
d="M554 0h-457v108h156v322h-156v108h300v-430h157v-108zM366 681q44 0 52 44h97q-23 -127 -134 -127q-38 0 -79.5 22t-57.5 22q-43 0 -52 -44h-96q9 61 44 94t91 33q37 0 76 -22t59 -22z" />
    <glyph glyph-name="Imacron" unicode="&#x12a;" 
d="M76 596v129h494v-129h-172v-467h172v-129h-494v129h172v467h-172zM491 771h-336v94h336v-94z" />
    <glyph glyph-name="imacron" unicode="&#x12b;" 
d="M554 0h-457v108h156v322h-156v108h300v-430h157v-108zM432 617h-313v108h313v-108z" />
    <glyph glyph-name="Ibreve" unicode="&#x12c;" 
d="M76 596v129h494v-129h-172v-467h172v-129h-494v129h172v467h-172zM396 874h118q-6 -62 -51.5 -89.5t-140.5 -27.5q-93 0 -139 27.5t-51 89.5h118q7 -46 72 -46q67 0 74 46z" />
    <glyph glyph-name="ibreve" unicode="&#x12d;" 
d="M554 0h-457v108h156v322h-156v108h300v-430h157v-108zM386 725h108q-7 -59 -48.5 -95.5t-122.5 -36.5q-79 0 -121.5 37t-46.5 95h108q6 -50 61 -50q56 0 62 50z" />
    <glyph glyph-name="Iogonek" unicode="&#x12e;" 
d="M76 596v129h494v-129h-172v-467h172v-129h-494v129h172v467h-172zM244 0h159q-28 -14 -36.5 -18.5t-24.5 -14.5t-21 -19t-5 -20q0 -32 44 -32q18 0 56 10v-82q-54 -10 -103 -10q-60 0 -99 22t-39 68q0 57 69 96z" />
    <glyph glyph-name="iogonek" unicode="&#x12f;" 
d="M253 725h144v-133h-144v133zM554 0h-457v108h156v322h-156v108h300v-430h157v-108zM240 0h159q-28 -14 -36.5 -18.5t-24.5 -14.5t-21 -19t-5 -20q0 -32 44 -32q18 0 56 10v-82q-54 -10 -103 -10q-60 0 -99 22t-39 68q0 57 69 96z" />
    <glyph glyph-name="Idot" unicode="&#x130;" 
d="M76 596v129h494v-129h-172v-467h172v-129h-494v129h172v467h-172zM238 874h172v-113h-172v113z" />
    <glyph glyph-name="dotlessi" unicode="&#x131;" 
d="M554 0h-457v108h156v322h-156v108h300v-430h157v-108z" />
    <glyph glyph-name="Jcircumflex" unicode="&#x134;" 
d="M152 725h386v-511q0 -115 -64 -171t-162 -56q-116 0 -176 70.5t-64 182.5h145q11 -131 91 -131t80 103v383h-236v130zM433 874l138 -113h-164l-55 50l-59 -50h-162l140 113h162z" />
    <glyph glyph-name="jcircumflex" unicode="&#x135;" 
d="M441 725l137 -116h-151l-61 47l-64 -47h-151l140 116h150zM291 429h-167v109h311v-533q0 -110 -36.5 -145t-136.5 -35h-171v107h154q32 0 39 11.5t7 55.5v430z" />
    <glyph glyph-name="uni0136" unicode="&#x136;" 
d="M228 725v-273l197 273h175l-209 -276l221 -449h-171l-155 311l-58 -77v-234h-150v725h150zM267 -136v100h127v-106l-44 -89h-86l38 95h-35z" />
    <glyph glyph-name="uni0137" unicode="&#x137;" 
d="M297 221l-61 -70v-151h-144v725h144v-395l177 208h160l-183 -209l194 -329h-159zM261 -136v100h127v-106l-44 -89h-86l38 95h-35z" />
    <glyph glyph-name="Lacute" unicode="&#x139;" 
d="M255 725v-596h338v-129h-488v725h150zM418 874l-161 -113h-145l104 113h202z" />
    <glyph glyph-name="lacute" unicode="&#x13a;" 
d="M554 0h-456v108h156v510h-156v107h300v-617h156v-108zM559 874l-161 -113h-145l104 113h202z" />
    <glyph glyph-name="uni013B" unicode="&#x13b;" 
d="M255 725v-596h338v-129h-488v725h150zM303 -136v100h127v-106l-44 -89h-86l38 95h-35z" />
    <glyph glyph-name="uni013C" unicode="&#x13c;" 
d="M554 0h-456v108h156v510h-156v107h300v-617h156v-108zM263 -136v100h127v-106l-44 -89h-86l38 95h-35z" />
    <glyph glyph-name="Lcaron" unicode="&#x13d;" 
d="M255 725v-596h338v-129h-488v725h150zM495 725l-70 -170h-78l30 170h118z" />
    <glyph glyph-name="lcaron" unicode="&#x13e;" 
d="M554 0h-456v108h156v510h-156v107h300v-617h156v-108zM597 725l-70 -170h-78l30 170h118z" />
    <glyph glyph-name="Ldot" unicode="&#x13f;" 
d="M255 725v-596h338v-129h-488v725h150zM378 475h172v-113h-172v113z" />
    <glyph glyph-name="ldot" unicode="&#x140;" 
d="M554 0h-456v108h156v510h-156v107h300v-617h156v-108zM498 476h148v-116h-148v116z" />
    <glyph glyph-name="Lslash" unicode="&#x141;" 
d="M266 725v-249l124 75v-158l-124 -75v-189h338v-129h-488v228l-77 -46v158l77 46v339h150z" />
    <glyph glyph-name="lslash" unicode="&#x142;" 
d="M155 182v158l99 59v219h-156v107h300v-239l108 65v-158l-108 -65v-220h156v-108h-456v108h156v133z" />
    <glyph glyph-name="Nacute" unicode="&#x143;" 
d="M572 0h-189l-159 501v-501h-150v725h188l160 -500v500h150v-725zM575 874l-161 -113h-145l104 113h202z" />
    <glyph glyph-name="nacute" unicode="&#x144;" 
d="M90 538h144v-63q48 75 143 75q175 0 175 -212v-338h-144v314q0 26 -2.5 44.5t-9.5 39t-24 31t-43 10.5q-29 0 -48.5 -12t-29.5 -34.5t-13.5 -47.5t-3.5 -60v-285h-144v538zM534 725l-158 -116h-123l94 116h187z" />
    <glyph glyph-name="uni0145" unicode="&#x145;" 
d="M572 0h-189l-159 501v-501h-150v725h188l160 -500v500h150v-725zM250 -136v100h127v-106l-44 -89h-86l38 95h-35z" />
    <glyph glyph-name="uni0146" unicode="&#x146;" 
d="M90 538h144v-63q48 75 143 75q175 0 175 -212v-338h-144v314q0 26 -2.5 44.5t-9.5 39t-24 31t-43 10.5q-29 0 -48.5 -12t-29.5 -34.5t-13.5 -47.5t-3.5 -60v-285h-144v538zM261 -136v100h127v-106l-44 -89h-86l38 95h-35z" />
    <glyph glyph-name="Ncaron" unicode="&#x147;" 
d="M572 0h-189l-159 501v-501h-150v725h188l160 -500v500h150v-725zM252 761l-137 113h164l54 -49l59 49h162l-140 -113h-162z" />
    <glyph glyph-name="ncaron" unicode="&#x148;" 
d="M90 538h144v-63q48 75 143 75q175 0 175 -212v-338h-144v314q0 26 -2.5 44.5t-9.5 39t-24 31t-43 10.5q-29 0 -48.5 -12t-29.5 -34.5t-13.5 -47.5t-3.5 -60v-285h-144v538zM253 609l-136 116h150l61 -46l64 46h152l-141 -116h-150z" />
    <glyph glyph-name="Eng" unicode="&#x14a;" 
d="M428 0l-204 501v-501h-150v725h188l160 -403v403h150v-730q0 -110 -36.5 -145.5t-136.5 -35.5h-171v107h154q32 0 39 11.5t7 55.5v12z" />
    <glyph glyph-name="eng" unicode="&#x14b;" 
d="M552 338v-332q0 -110 -37.5 -145.5t-136.5 -35.5h-171v107h154q32 0 39 11.5t7 55.5v315q0 21 -1 35.5t-5.5 33t-12.5 29.5t-23 19t-36 8q-56 0 -76 -41t-20 -113v-285h-143v538h143v-49q47 61 138 61q181 0 181 -212z" />
    <glyph glyph-name="Omacron" unicode="&#x14c;" 
d="M198 363q0 -258 125 -258t125 258q0 257 -125 257t-125 -257zM39 363q0 175 70.5 275t213.5 100q142 0 213 -100t71 -275t-71 -275.5t-213 -100.5q-143 0 -213.5 100t-70.5 276zM491 771h-336v94h336v-94z" />
    <glyph glyph-name="omacron" unicode="&#x14d;" 
d="M580 269q0 -144 -73.5 -213t-183.5 -69t-183.5 69t-73.5 213q0 74 21 130t58 88t81.5 47.5t96.5 15.5t96.5 -15.5t81.5 -47.5t58 -88t21 -130zM436 269q0 175 -113 175t-113 -175q0 -176 113 -176t113 176zM486 617h-313v108h313v-108z" />
    <glyph glyph-name="Obreve" unicode="&#x14e;" 
d="M198 363q0 -258 125 -258t125 258q0 257 -125 257t-125 -257zM39 363q0 175 70.5 275t213.5 100q142 0 213 -100t71 -275t-71 -275.5t-213 -100.5q-143 0 -213.5 100t-70.5 276zM396 874h118q-6 -62 -51.5 -89.5t-140.5 -27.5q-93 0 -139 27.5t-51 89.5h118q7 -46 72 -46
q67 0 74 46z" />
    <glyph glyph-name="obreve" unicode="&#x14f;" 
d="M580 269q0 -144 -73.5 -213t-183.5 -69t-183.5 69t-73.5 213q0 74 21 130t58 88t81.5 47.5t96.5 15.5t96.5 -15.5t81.5 -47.5t58 -88t21 -130zM436 269q0 175 -113 175t-113 -175q0 -176 113 -176t113 176zM384 725h108q-7 -59 -48.5 -95.5t-122.5 -36.5q-79 0 -121.5 37
t-46.5 95h108q6 -50 61 -50q56 0 62 50z" />
    <glyph glyph-name="Ohungarumlaut" unicode="&#x150;" 
d="M198 363q0 -258 125 -258t125 258q0 257 -125 257t-125 -257zM39 363q0 175 70.5 275t213.5 100q142 0 213 -100t71 -275t-71 -275.5t-213 -100.5q-143 0 -213.5 100t-70.5 276zM428 874l-160 -113h-145l103 113h202zM647 874l-159 -113h-145l103 113h201z" />
    <glyph glyph-name="ohungarumlaut" unicode="&#x151;" 
d="M580 269q0 -144 -73.5 -213t-183.5 -69t-183.5 69t-73.5 213q0 74 21 130t58 88t81.5 47.5t96.5 15.5t96.5 -15.5t81.5 -47.5t58 -88t21 -130zM436 269q0 175 -113 175t-113 -175q0 -176 113 -176t113 176zM405 725l-158 -116h-123l94 116h187zM629 725l-158 -116h-124
l95 116h187z" />
    <glyph glyph-name="OE" unicode="&#x152;" 
d="M239 738q41 0 67 -14h298v-129h-181v-159h162v-129h-162v-178h181v-129h-299q-25 -13 -66 -13q-60 0 -100 26t-62 78t-30.5 116.5t-8.5 156.5q0 91 8.5 156t30.5 116t62 76.5t100 25.5zM239 616q-27 0 -34.5 -53.5t-7.5 -198.5t7.5 -199.5t34.5 -54.5t34.5 54.5
t7.5 199.5t-7.5 198.5t-34.5 53.5z" />
    <glyph glyph-name="oe" unicode="&#x153;" 
d="M21 263q0 128 42 207t136 79q81 0 118 -63q42 61 118 61q95 0 142 -85t41 -234h-254q4 -137 73 -137q58 0 67 70h110q-11 -70 -55.5 -122t-121.5 -52q-81 0 -121 59q-38 -59 -117 -59q-178 0 -178 276zM272 263q0 75 -18.5 127.5t-54.5 52.5q-37 0 -55.5 -52t-18.5 -128
q0 -75 18.5 -123.5t55.5 -48.5t55 48.5t18 123.5zM365 326h136q-4 121 -68 121q-25 0 -44 -30.5t-24 -90.5z" />
    <glyph glyph-name="Racute" unicode="&#x154;" 
d="M430 0l-143 294h-14h-43v-294h-150v725h193q67 0 115.5 -8.5t90.5 -31t63 -66.5t21 -109q0 -136 -130 -184l162 -326h-165zM278 603h-48v-191h48q60 0 93 20.5t33 74.5t-33 75t-93 21zM517 874l-161 -113h-145l104 113h202z" />
    <glyph glyph-name="racute" unicode="&#x155;" 
d="M75 538h276v-91q42 91 149 91h82v-115h-103q-68 0 -97 -34.5t-29 -113.5v-167h195v-108h-473v108h134v321h-134v109zM492 725l-158 -116h-123l94 116h187z" />
    <glyph glyph-name="uni0156" unicode="&#x156;" 
d="M430 0l-143 294h-14h-43v-294h-150v725h193q67 0 115.5 -8.5t90.5 -31t63 -66.5t21 -109q0 -136 -130 -184l162 -326h-165zM278 603h-48v-191h48q60 0 93 20.5t33 74.5t-33 75t-93 21zM262 -136v100h127v-106l-44 -89h-86l38 95h-35z" />
    <glyph glyph-name="uni0157" unicode="&#x157;" 
d="M75 538h276v-91q42 91 149 91h82v-115h-103q-68 0 -97 -34.5t-29 -113.5v-167h195v-108h-473v108h134v321h-134v109zM218 -136v100h127v-106l-44 -89h-86l38 95h-35z" />
    <glyph glyph-name="Rcaron" unicode="&#x158;" 
d="M430 0l-143 294h-14h-43v-294h-150v725h193q67 0 115.5 -8.5t90.5 -31t63 -66.5t21 -109q0 -136 -130 -184l162 -326h-165zM278 603h-48v-191h48q60 0 93 20.5t33 74.5t-33 75t-93 21zM214 761l-137 113h164l54 -49l59 49h162l-140 -113h-162z" />
    <glyph glyph-name="rcaron" unicode="&#x159;" 
d="M75 538h276v-91q42 91 149 91h82v-115h-103q-68 0 -97 -34.5t-29 -113.5v-167h195v-108h-473v108h134v321h-134v109zM258 609l-136 116h150l61 -46l64 46h152l-141 -116h-150z" />
    <glyph glyph-name="Sacute" unicode="&#x15a;" 
d="M72 528q0 101 75 155.5t177 54.5q99 0 169.5 -57.5t81.5 -171.5h-144q-7 54 -37 84t-78 30q-42 0 -68 -22t-26 -59q0 -74 91 -96l63 -16q43 -11 75.5 -24.5t66.5 -37.5t53 -64t19 -92q0 -110 -73 -167.5t-174 -57.5q-121 0 -196 67.5t-87 185.5h145q9 -64 42.5 -101
t91.5 -37q44 0 72 23t28 63q0 80 -106 107l-74 20q-80 20 -133.5 75t-53.5 138zM549 874l-161 -113h-145l104 113h202z" />
    <glyph glyph-name="sacute" unicode="&#x15b;" 
d="M543 378h-124q-16 67 -110 67q-34 0 -56.5 -13t-22.5 -34q0 -38 70 -58l59 -14q45 -10 75 -20.5t58.5 -28.5t42.5 -46t14 -66q0 -82 -65 -130t-159 -48q-99 0 -160.5 50.5t-71.5 143.5h127q11 -88 111 -88q87 0 87 55q0 43 -83 63l-64 15q-81 20 -123 57t-42 105
q0 76 60 119t151 43q83 0 148 -43t78 -129zM533 725l-158 -116h-123l94 116h187z" />
    <glyph glyph-name="Scircumflex" unicode="&#x15c;" 
d="M72 528q0 101 75 155.5t177 54.5q99 0 169.5 -57.5t81.5 -171.5h-144q-7 54 -37 84t-78 30q-42 0 -68 -22t-26 -59q0 -74 91 -96l63 -16q43 -11 75.5 -24.5t66.5 -37.5t53 -64t19 -92q0 -110 -73 -167.5t-174 -57.5q-121 0 -196 67.5t-87 185.5h145q9 -64 42.5 -101
t91.5 -37q44 0 72 23t28 63q0 80 -106 107l-74 20q-80 20 -133.5 75t-53.5 138zM405 874l138 -113h-164l-55 50l-59 -50h-162l140 113h162z" />
    <glyph glyph-name="scircumflex" unicode="&#x15d;" 
d="M543 378h-124q-16 67 -110 67q-34 0 -56.5 -13t-22.5 -34q0 -38 70 -58l59 -14q45 -10 75 -20.5t58.5 -28.5t42.5 -46t14 -66q0 -82 -65 -130t-159 -48q-99 0 -160.5 50.5t-71.5 143.5h127q11 -88 111 -88q87 0 87 55q0 43 -83 63l-64 15q-81 20 -123 57t-42 105
q0 76 60 119t151 43q83 0 148 -43t78 -129zM399 725l137 -116h-151l-61 47l-64 -47h-151l140 116h150z" />
    <glyph glyph-name="Scedilla" unicode="&#x15e;" 
d="M72 528q0 101 75 155.5t177 54.5q99 0 169.5 -57.5t81.5 -171.5h-144q-7 54 -37 84t-78 30q-42 0 -68 -22t-26 -59q0 -74 91 -96l63 -16q43 -11 75.5 -24.5t66.5 -37.5t53 -64t19 -92q0 -110 -73 -167.5t-174 -57.5q-121 0 -196 67.5t-87 185.5h145q9 -64 42.5 -101
t91.5 -37q44 0 72 23t28 63q0 80 -106 107l-74 20q-80 20 -133.5 75t-53.5 138zM237 -187l17 54q24 -14 65 -14q49 0 49 29q0 28 -40 28q-25 0 -39 -9l-30 17l52 83h61l-32 -52q11 4 36 4q37 0 65.5 -16.5t28.5 -51.5q0 -44 -40.5 -65t-98.5 -21q-52 0 -94 14z" />
    <glyph glyph-name="scedilla" unicode="&#x15f;" 
d="M543 378h-124q-16 67 -110 67q-34 0 -56.5 -13t-22.5 -34q0 -38 70 -58l59 -14q45 -10 75 -20.5t58.5 -28.5t42.5 -46t14 -66q0 -82 -65 -130t-159 -48q-99 0 -160.5 50.5t-71.5 143.5h127q11 -88 111 -88q87 0 87 55q0 43 -83 63l-64 15q-81 20 -123 57t-42 105
q0 76 60 119t151 43q83 0 148 -43t78 -129zM224 -187l17 54q24 -14 65 -14q49 0 49 29q0 28 -40 28q-25 0 -39 -9l-30 17l52 83h61l-32 -52q11 4 36 4q37 0 65.5 -16.5t28.5 -51.5q0 -44 -40.5 -65t-98.5 -21q-52 0 -94 14z" />
    <glyph glyph-name="Scaron" unicode="&#x160;" 
d="M72 528q0 101 75 155.5t177 54.5q99 0 169.5 -57.5t81.5 -171.5h-144q-7 54 -37 84t-78 30q-42 0 -68 -22t-26 -59q0 -74 91 -96l63 -16q43 -11 75.5 -24.5t66.5 -37.5t53 -64t19 -92q0 -110 -73 -167.5t-174 -57.5q-121 0 -196 67.5t-87 185.5h145q9 -64 42.5 -101
t91.5 -37q44 0 72 23t28 63q0 80 -106 107l-74 20q-80 20 -133.5 75t-53.5 138zM240 761l-137 113h164l54 -49l59 49h162l-140 -113h-162z" />
    <glyph glyph-name="scaron" unicode="&#x161;" 
d="M543 378h-124q-16 67 -110 67q-34 0 -56.5 -13t-22.5 -34q0 -38 70 -58l59 -14q45 -10 75 -20.5t58.5 -28.5t42.5 -46t14 -66q0 -82 -65 -130t-159 -48q-99 0 -160.5 50.5t-71.5 143.5h127q11 -88 111 -88q87 0 87 55q0 43 -83 63l-64 15q-81 20 -123 57t-42 105
q0 76 60 119t151 43q83 0 148 -43t78 -129zM245 609l-136 116h150l61 -46l64 46h152l-141 -116h-150z" />
    <glyph glyph-name="uni0162" unicode="&#x162;" 
d="M259 -136v100h127v-106l-44 -89h-86l38 95h-35zM248 0v596h-205v129h560v-129h-205v-596h-150z" />
    <glyph glyph-name="uni0163" unicode="&#x163;" 
d="M195 538v144h144v-144h210v-109h-210v-260q0 -37 12.5 -49t46.5 -12h149v-108h-202q-86 0 -118 32t-32 114v283h-156v109h156zM226 -136v100h127v-106l-44 -89h-86l38 95h-35z" />
    <glyph glyph-name="Tcaron" unicode="&#x164;" 
d="M248 0v596h-205v129h560v-129h-205v-596h-150zM240 761l-137 113h164l54 -49l59 49h162l-140 -113h-162z" />
    <glyph glyph-name="tcaron" unicode="&#x165;" 
d="M195 538v144h144v-144h210v-109h-210v-260q0 -37 12.5 -49t46.5 -12h149v-108h-202q-86 0 -118 32t-32 114v283h-156v109h156zM624 725l-70 -170h-78l30 170h118z" />
    <glyph glyph-name="Tbar" unicode="&#x166;" 
d="M248 0v314h-152v106h152v176h-205v129h560v-129h-205v-176h152v-106h-152v-314h-150z" />
    <glyph glyph-name="tbar" unicode="&#x167;" 
d="M198 538v144h144v-144h210v-109h-210v-57h208v-107h-208v-96q0 -37 12.5 -49t46.5 -12h149v-108h-202q-86 0 -118 32t-32 114v119h-159v107h159v57h-156v109h156z" />
    <glyph glyph-name="Utilde" unicode="&#x168;" 
d="M69 725h150v-451q0 -84 23 -124t83 -40q58 0 80 44t22 131v440h150v-409q0 -175 -54 -252t-198 -77q-143 0 -199.5 71.5t-56.5 251.5v415zM383 837q48 0 55 37h97q-6 -35 -23 -59.5t-40 -35.5t-42.5 -15.5t-39.5 -4.5q-36 0 -74 18t-55 18q-45 0 -53 -36h-97
q13 66 55 90.5t89 24.5q35 0 71.5 -18.5t56.5 -18.5z" />
    <glyph glyph-name="utilde" unicode="&#x169;" 
d="M412 0v59q-46 -72 -137 -72q-181 0 -181 212v339h144v-315q0 -26 2.5 -44.5t9.5 -39t24 -31t43 -10.5q55 0 75 41t20 113v286h144v-538h-144zM385 681q44 0 52 44h97q-23 -127 -134 -127q-38 0 -79.5 22t-57.5 22q-43 0 -52 -44h-96q9 61 44 94t91 33q38 0 77 -22t58 -22
z" />
    <glyph glyph-name="Umacron" unicode="&#x16a;" 
d="M69 725h150v-451q0 -84 23 -124t83 -40q58 0 80 44t22 131v440h150v-409q0 -175 -54 -252t-198 -77q-143 0 -199.5 71.5t-56.5 251.5v415zM491 771h-336v94h336v-94z" />
    <glyph glyph-name="umacron" unicode="&#x16b;" 
d="M412 0v59q-46 -72 -137 -72q-181 0 -181 212v339h144v-315q0 -26 2.5 -44.5t9.5 -39t24 -31t43 -10.5q55 0 75 41t20 113v286h144v-538h-144zM481 617h-313v108h313v-108z" />
    <glyph glyph-name="Ubreve" unicode="&#x16c;" 
d="M69 725h150v-451q0 -84 23 -124t83 -40q58 0 80 44t22 131v440h150v-409q0 -175 -54 -252t-198 -77q-143 0 -199.5 71.5t-56.5 251.5v415zM422 874h118q-6 -62 -51.5 -89.5t-140.5 -27.5q-93 0 -139 27.5t-51 89.5h118q7 -46 72 -46q67 0 74 46z" />
    <glyph glyph-name="ubreve" unicode="&#x16d;" 
d="M412 0v59q-46 -72 -137 -72q-181 0 -181 212v339h144v-315q0 -26 2.5 -44.5t9.5 -39t24 -31t43 -10.5q55 0 75 41t20 113v286h144v-538h-144zM386 725h108q-7 -59 -48.5 -95.5t-122.5 -36.5q-79 0 -121.5 37t-46.5 95h108q6 -50 61 -50q56 0 62 50z" />
    <glyph glyph-name="Uring" unicode="&#x16e;" 
d="M69 725h150v-451q0 -84 23 -124t83 -40q58 0 80 44t22 131v440h150v-409q0 -175 -54 -252t-198 -77q-143 0 -199.5 71.5t-56.5 251.5v415zM323 921q39 0 65 -23.5t26 -61.5q0 -37 -26 -61t-65 -24t-65 24t-26 61t26.5 61t64.5 24zM323 879q-18 0 -30.5 -12.5t-12.5 -30.5
t12.5 -30t30.5 -12t30.5 12t12.5 30t-12.5 30.5t-30.5 12.5z" />
    <glyph glyph-name="uring" unicode="&#x16f;" 
d="M412 0v59q-46 -72 -137 -72q-181 0 -181 212v339h144v-315q0 -26 2.5 -44.5t9.5 -39t24 -31t43 -10.5q55 0 75 41t20 113v286h144v-538h-144zM325 775q39 0 66.5 -26t27.5 -64t-27.5 -63.5t-66.5 -25.5q-40 0 -67.5 25t-27.5 64t27.5 64.5t67.5 25.5zM325 726
q-17 0 -29 -11.5t-12 -29.5q0 -17 12 -28t29 -11t29 11t12 28q0 18 -12 29.5t-29 11.5z" />
    <glyph glyph-name="Uhungarumlaut" unicode="&#x170;" 
d="M69 725h150v-451q0 -84 23 -124t83 -40q58 0 80 44t22 131v440h150v-409q0 -175 -54 -252t-198 -77q-143 0 -199.5 71.5t-56.5 251.5v415zM427 874l-160 -113h-145l103 113h202zM646 874l-159 -113h-145l103 113h201z" />
    <glyph glyph-name="uhungarumlaut" unicode="&#x171;" 
d="M412 0v59q-46 -72 -137 -72q-181 0 -181 212v339h144v-315q0 -26 2.5 -44.5t9.5 -39t24 -31t43 -10.5q55 0 75 41t20 113v286h144v-538h-144zM403 725l-158 -116h-123l94 116h187zM627 725l-158 -116h-124l95 116h187z" />
    <glyph glyph-name="Uogonek" unicode="&#x172;" 
d="M69 725h150v-451q0 -84 23 -124t83 -40q58 0 80 44t22 131v440h150v-409q0 -175 -54 -252t-198 -77q-143 0 -199.5 71.5t-56.5 251.5v415zM271 0h159q-28 -14 -36.5 -18.5t-24.5 -14.5t-21 -19t-5 -20q0 -32 44 -32q19 0 56 10v-82q-54 -10 -103 -10q-60 0 -99 22t-39 68
q0 57 69 96z" />
    <glyph glyph-name="uogonek" unicode="&#x173;" 
d="M412 0v59q-46 -72 -137 -72q-181 0 -181 212v339h144v-315q0 -26 2.5 -44.5t9.5 -39t24 -31t43 -10.5q55 0 75 41t20 113v286h144v-538q-51 -32 -61 -45q-9 -13 -9 -27q0 -32 44 -32q18 0 56 10v-82q-54 -10 -104 -10q-60 0 -98.5 22t-38.5 68q0 57 67 96z" />
    <glyph glyph-name="Wcircumflex" unicode="&#x174;" 
d="M378 532l54 -335l25 528h157l-45 -725h-184l-63 369l-62 -369h-184l-45 725h157l24 -528l54 335h112zM405 874l138 -113h-164l-55 50l-59 -50h-162l140 113h162z" />
    <glyph glyph-name="wcircumflex" unicode="&#x175;" 
d="M265 435h116l49 -237l38 340h140l-67 -538h-156l-62 331l-63 -331h-156l-66 538h139l38 -340zM399 725l137 -116h-151l-61 47l-64 -47h-151l140 116h150z" />
    <glyph glyph-name="Ycircumflex" unicode="&#x176;" 
d="M323 425l129 300h171l-225 -465v-260h-150v260l-225 465h171zM405 874l138 -113h-164l-55 50l-59 -50h-162l140 113h162z" />
    <glyph glyph-name="ycircumflex" unicode="&#x177;" 
d="M597 538l-197 -520q-49 -127 -84 -160t-127 -33h-115v107h106q31 0 42.5 9.5t28.5 45.5l5 13l-207 538h149l131 -367l126 367h142zM404 725l137 -116h-151l-61 47l-64 -47h-151l140 116h150z" />
    <glyph glyph-name="Ydieresis" unicode="&#x178;" 
d="M323 425l129 300h171l-225 -465v-260h-150v260l-225 465h171zM134 874h148v-113h-148v113zM364 874h148v-113h-148v113z" />
    <glyph glyph-name="Zacute" unicode="&#x179;" 
d="M572 725v-128l-337 -468h340v-129h-510v128l338 468h-313v129h482zM547 874l-161 -113h-145l104 113h202z" />
    <glyph glyph-name="zacute" unicode="&#x17a;" 
d="M96 0v105l279 324h-258v109h422v-105l-281 -325h288v-108h-450zM524 725l-158 -116h-123l94 116h187z" />
    <glyph glyph-name="Zdotaccent" unicode="&#x17b;" 
d="M572 725v-128l-337 -468h340v-129h-510v128l338 468h-313v129h482zM237 874h172v-113h-172v113z" />
    <glyph glyph-name="zdotaccent" unicode="&#x17c;" 
d="M96 0v105l279 324h-258v109h422v-105l-281 -325h288v-108h-450zM250 725h148v-116h-148v116z" />
    <glyph glyph-name="Zcaron" unicode="&#x17d;" 
d="M572 725v-128l-337 -468h340v-129h-510v128l338 468h-313v129h482zM243 761l-137 113h164l54 -49l59 49h162l-140 -113h-162z" />
    <glyph glyph-name="zcaron" unicode="&#x17e;" 
d="M96 0v105l279 324h-258v109h422v-105l-281 -325h288v-108h-450zM247 609l-136 116h150l61 -46l64 46h152l-141 -116h-150z" />
    <glyph glyph-name="uni018F" unicode="&#x18f;" 
d="M326 -13q-146 0 -219.5 106.5t-66.5 317.5h408q-6 109 -40.5 159t-86.5 50q-46 0 -76 -35.5t-39 -88.5h-155q8 37 18.5 66.5t31.5 64t48.5 57.5t72.5 38.5t101 15.5q142 0 213.5 -100t71.5 -275t-70.5 -275.5t-211.5 -100.5zM328 106q102 0 119 184h-245q2 -92 38 -138
t88 -46z" />
    <glyph glyph-name="uni0218" unicode="&#x218;" 
d="M72 528q0 101 75 155.5t177 54.5q99 0 169.5 -57.5t81.5 -171.5h-144q-7 54 -37 84t-78 30q-42 0 -68 -22t-26 -59q0 -74 91 -96l63 -16q43 -11 75.5 -24.5t66.5 -37.5t53 -64t19 -92q0 -110 -73 -167.5t-174 -57.5q-121 0 -196 67.5t-87 185.5h145q9 -64 42.5 -101
t91.5 -37q44 0 72 23t28 63q0 80 -106 107l-74 20q-80 20 -133.5 75t-53.5 138zM275 -136v100h127v-106l-44 -89h-86l38 95h-35z" />
    <glyph glyph-name="uni0219" unicode="&#x219;" 
d="M543 378h-124q-16 67 -110 67q-34 0 -56.5 -13t-22.5 -34q0 -38 70 -58l59 -14q45 -10 75 -20.5t58.5 -28.5t42.5 -46t14 -66q0 -82 -65 -130t-159 -48q-99 0 -160.5 50.5t-71.5 143.5h127q11 -88 111 -88q87 0 87 55q0 43 -83 63l-64 15q-81 20 -123 57t-42 105
q0 76 60 119t151 43q83 0 148 -43t78 -129zM262 -136v100h127v-106l-44 -89h-86l38 95h-35z" />
    <glyph glyph-name="uni021A" unicode="&#x21a;" 
d="M248 0v596h-205v129h560v-129h-205v-596h-150zM259 -136v100h127v-106l-44 -89h-86l38 95h-35z" />
    <glyph glyph-name="uni021B" unicode="&#x21b;" 
d="M195 538v144h144v-144h210v-109h-210v-260q0 -37 12.5 -49t46.5 -12h149v-108h-202q-86 0 -118 32t-32 114v283h-156v109h156zM226 -136v100h127v-106l-44 -89h-86l38 95h-35z" />
    <glyph glyph-name="uni0232" unicode="&#x232;" 
d="M323 425l129 300h171l-225 -465v-260h-150v260l-225 465h171zM491 771h-336v94h336v-94z" />
    <glyph glyph-name="uni0233" unicode="&#x233;" 
d="M597 538l-197 -520q-49 -127 -84 -160t-127 -33h-115v107h106q31 0 42.5 9.5t28.5 45.5l5 13l-207 538h149l131 -367l126 367h142zM484 617h-313v108h313v-108z" />
    <glyph glyph-name="uni0237" unicode="&#x237;" 
d="M291 429h-167v109h311v-533q0 -110 -36.5 -145t-136.5 -35h-171v107h154q32 0 39 11.5t7 55.5v430z" />
    <glyph glyph-name="uni0259" unicode="&#x259;" 
d="M324 -13q-121 0 -188.5 85t-63.5 233h366q-4 71 -37 107t-81 36q-85 0 -102 -79h-137q13 75 76 128t165 53q123 0 189 -75t66 -202q0 -131 -67 -208.5t-186 -77.5zM326 90q40 0 73.5 31t38.5 93h-229q4 -124 117 -124z" />
    <glyph glyph-name="circumflex" unicode="&#x2c6;" 
d="M399 725l137 -116h-151l-61 47l-64 -47h-151l140 116h150z" />
    <glyph glyph-name="caron" unicode="&#x2c7;" 
d="M245 609l-136 116h150l61 -46l64 46h152l-141 -116h-150z" />
    <glyph glyph-name="breve" unicode="&#x2d8;" 
d="M384 725h108q-7 -59 -48.5 -95.5t-122.5 -36.5q-79 0 -121.5 37t-46.5 95h108q6 -50 61 -50q56 0 62 50z" />
    <glyph glyph-name="dotaccent" unicode="&#x2d9;" 
d="M248 725h148v-116h-148v116z" />
    <glyph glyph-name="ring" unicode="&#x2da;" 
d="M323 775q39 0 66.5 -26t27.5 -64t-27.5 -63.5t-66.5 -25.5q-40 0 -67.5 25t-27.5 64t27.5 64.5t67.5 25.5zM323 726q-17 0 -29 -11.5t-12 -29.5q0 -17 12 -28t29 -11t29 11t12 28q0 18 -12 29.5t-29 11.5z" />
    <glyph glyph-name="ogonek" unicode="&#x2db;" 
d="M271 0h159q-28 -14 -36.5 -18.5t-24.5 -14.5t-21 -19t-5 -20q0 -32 44 -32q19 0 56 10v-82q-54 -10 -103 -10q-60 0 -99 22t-39 68q0 57 69 96z" />
    <glyph glyph-name="tilde" unicode="&#x2dc;" 
d="M383 681q44 0 52 44h97q-23 -127 -134 -127q-38 0 -79.5 22t-57.5 22q-43 0 -52 -44h-96q9 61 44 94t91 33q38 0 77 -22t58 -22z" />
    <glyph glyph-name="hungarumlaut" unicode="&#x2dd;" 
d="M351 725l-158 -116h-123l94 116h187zM575 725l-158 -116h-124l95 116h187z" />
    <glyph glyph-name="uni0394" unicode="&#x394;" 
d="M6 0l317 674l317 -674h-634zM478 104l-155 327l-156 -327h311z" />
    <glyph glyph-name="uni0394" unicode="&#x2206;" 
d="M6 0l317 674l317 -674h-634zM478 104l-155 327l-156 -327h311z" />
    <glyph glyph-name="uni03A9" unicode="&#x3a9;" 
d="M323 726q116 0 195 -78.5t79 -231.5q0 -96 -40.5 -167.5t-107.5 -103.5v-37h148v-108h-244v199q63 12 104.5 76.5t41.5 140.5q0 104 -47 162.5t-129 58.5t-129.5 -58.5t-47.5 -162.5q0 -76 42.5 -140.5t104.5 -76.5v-199h-244v108h148v37q-67 32 -107.5 103.5
t-40.5 167.5q0 145 80.5 227.5t193.5 82.5z" />
    <glyph glyph-name="uni03A9" unicode="&#x2126;" 
d="M323 726q116 0 195 -78.5t79 -231.5q0 -96 -40.5 -167.5t-107.5 -103.5v-37h148v-108h-244v199q63 12 104.5 76.5t41.5 140.5q0 104 -47 162.5t-129 58.5t-129.5 -58.5t-47.5 -162.5q0 -76 42.5 -140.5t104.5 -76.5v-199h-244v108h148v37q-67 32 -107.5 103.5
t-40.5 167.5q0 145 80.5 227.5t193.5 82.5z" />
    <glyph glyph-name="pi" unicode="&#x3c0;" 
d="M247 0h-124v417h-85v121h567v-121h-85v-244q0 -41 7.5 -52t40.5 -11h38v-110h-54q-93 0 -125 31t-32 129v257h-148v-417z" />
    <glyph glyph-name="Wgrave" unicode="&#x1e80;" 
d="M378 532l54 -335l25 528h157l-45 -725h-184l-63 369l-62 -369h-184l-45 725h157l24 -528l54 335h112zM253 761l-160 113h201l105 -113h-146z" />
    <glyph glyph-name="wgrave" unicode="&#x1e81;" 
d="M265 435h116l49 -237l38 340h140l-67 -538h-156l-62 331l-63 -331h-156l-66 538h139l38 -340zM267 609l-158 116h187l94 -116h-123z" />
    <glyph glyph-name="Wacute" unicode="&#x1e82;" 
d="M378 532l54 -335l25 528h157l-45 -725h-184l-63 369l-62 -369h-184l-45 725h157l24 -528l54 335h112zM554 874l-161 -113h-145l104 113h202z" />
    <glyph glyph-name="wacute" unicode="&#x1e83;" 
d="M265 435h116l49 -237l38 340h140l-67 -538h-156l-62 331l-63 -331h-156l-66 538h139l38 -340zM538 725l-158 -116h-123l94 116h187z" />
    <glyph glyph-name="Wdieresis" unicode="&#x1e84;" 
d="M378 532l54 -335l25 528h157l-45 -725h-184l-63 369l-62 -369h-184l-45 725h157l24 -528l54 335h112zM134 874h148v-113h-148v113zM364 874h148v-113h-148v113z" />
    <glyph glyph-name="wdieresis" unicode="&#x1e85;" 
d="M265 435h116l49 -237l38 340h140l-67 -538h-156l-62 331l-63 -331h-156l-66 538h139l38 -340zM137 609v116h148v-116h-148zM360 725h148v-116h-148v116z" />
    <glyph glyph-name="uni1ECA" unicode="&#x1eca;" 
d="M76 596v129h494v-129h-172v-467h172v-129h-494v129h172v467h-172zM248 -58h148v-116h-148v116z" />
    <glyph glyph-name="uni1ECB" unicode="&#x1ecb;" 
d="M554 0h-457v108h156v322h-156v108h300v-430h157v-108zM253 725h144v-133h-144v133zM251 -58h148v-116h-148v116z" />
    <glyph glyph-name="uni1ECC" unicode="&#x1ecc;" 
d="M198 363q0 -258 125 -258t125 258q0 257 -125 257t-125 -257zM39 363q0 175 70.5 275t213.5 100q142 0 213 -100t71 -275t-71 -275.5t-213 -100.5q-143 0 -213.5 100t-70.5 276zM248 -58h148v-116h-148v116z" />
    <glyph glyph-name="uni1ECD" unicode="&#x1ecd;" 
d="M580 269q0 -144 -73.5 -213t-183.5 -69t-183.5 69t-73.5 213q0 74 21 130t58 88t81.5 47.5t96.5 15.5t96.5 -15.5t81.5 -47.5t58 -88t21 -130zM436 269q0 175 -113 175t-113 -175q0 -176 113 -176t113 176zM248 -58h148v-116h-148v116z" />
    <glyph glyph-name="uni1EE4" unicode="&#x1ee4;" 
d="M69 725h150v-451q0 -84 23 -124t83 -40q58 0 80 44t22 131v440h150v-409q0 -175 -54 -252t-198 -77q-143 0 -199.5 71.5t-56.5 251.5v415zM248 -58h148v-116h-148v116z" />
    <glyph glyph-name="uni1EE5" unicode="&#x1ee5;" 
d="M412 0v59q-46 -72 -137 -72q-181 0 -181 212v339h144v-315q0 -26 2.5 -44.5t9.5 -39t24 -31t43 -10.5q55 0 75 41t20 113v286h144v-538h-144zM251 -58h148v-116h-148v116z" />
    <glyph glyph-name="Ygrave" unicode="&#x1ef2;" 
d="M323 425l129 300h171l-225 -465v-260h-150v260l-225 465h171zM258 761l-160 113h201l105 -113h-146z" />
    <glyph glyph-name="ygrave" unicode="&#x1ef3;" 
d="M597 538l-197 -520q-49 -127 -84 -160t-127 -33h-115v107h106q31 0 42.5 9.5t28.5 45.5l5 13l-207 538h149l131 -367l126 367h142zM277 609l-158 116h187l94 -116h-123z" />
    <glyph glyph-name="endash" unicode="&#x2013;" 
d="M547 207h-448v120h448v-120z" />
    <glyph glyph-name="emdash" unicode="&#x2014;" 
d="M601 207h-556v120h556v-120z" />
    <glyph glyph-name="quoteleft" unicode="&#x2018;" 
d="M416 567v-177h-186v187l102 148h98l-88 -158h74z" />
    <glyph glyph-name="quoteright" unicode="&#x2019;" 
d="M230 547v178h186v-188l-104 -148h-97l87 158h-72z" />
    <glyph glyph-name="quotesinglbase" unicode="&#x201a;" 
d="M230 0v178h186v-188l-104 -148h-97l87 158h-72z" />
    <glyph glyph-name="quotedblleft" unicode="&#x201c;" 
d="M297 567v-177h-186v187l102 148h98l-88 -158h74zM536 567v-177h-186v187l102 148h98l-88 -158h74z" />
    <glyph glyph-name="quotedblright" unicode="&#x201d;" 
d="M350 547v178h186v-188l-104 -148h-97l87 158h-72zM111 547v178h186v-188l-104 -148h-97l87 158h-72z" />
    <glyph glyph-name="quotedblbase" unicode="&#x201e;" 
d="M350 0v178h186v-188l-104 -148h-97l87 158h-72zM111 0v178h186v-188l-104 -148h-97l87 158h-72z" />
    <glyph glyph-name="dagger" unicode="&#x2020;" 
d="M385 0h-124v397h-216v121h216v207h124v-207h216v-121h-216v-397z" />
    <glyph glyph-name="daggerdbl" unicode="&#x2021;" 
d="M386 301h215v-120h-215v-181h-125v181h-216v120h216v118h-216v120h216v186h125v-186h215v-120h-215v-118z" />
    <glyph glyph-name="bullet" unicode="&#x2022;" 
d="M143 279q0 73 52 125t124 52q78 0 131 -51.5t53 -125.5q0 -78 -52.5 -130.5t-131.5 -52.5q-73 0 -124.5 53t-51.5 130z" />
    <glyph glyph-name="ellipsis" unicode="&#x2026;" 
d="M190 0h-165v178h165v-178zM405 0h-165v178h165v-178zM620 0h-165v178h165v-178z" />
    <glyph glyph-name="guilsinglleft" unicode="&#x2039;" 
d="M341 43l-159 230l159 229h136l-136 -229l136 -230h-136z" />
    <glyph glyph-name="guilsinglright" unicode="&#x203a;" 
d="M464 273l-159 -230h-135l135 230l-135 229h135z" />
    <glyph glyph-name="fraction" unicode="&#x2044;" 
d="M125 0h-104l500 725h104z" />
    <glyph glyph-name="Euro" unicode="&#x20ac;" 
d="M355 247h-90q7 -75 29.5 -112t67.5 -37q43 0 65 31.5t29 99.5h141q-26 -242 -234 -242q-115 0 -172 65.5t-72 194.5h-119l54 82h59v34v34h-113l54 81h65q30 260 248 260q109 0 160.5 -63.5t64.5 -184.5h-140q-7 74 -25 105.5t-65 31.5q-45 0 -66.5 -37t-30.5 -112h165
l-53 -81h-116v-34v-34h148z" />
    <glyph glyph-name="trademark" unicode="&#x2122;" 
d="M122 381v282h-98v62h281v-62h-98v-282h-85zM464 565l24 160h115v-344h-82v156l1 129h-3l-29 -175h-51l-30 175h-3l2 -129v-156h-83v344h115z" />
    <glyph glyph-name="partialdiff" unicode="&#x2202;" 
d="M320 -13q-117 0 -194 70t-77 178q0 111 71 174.5t179 63.5q105 0 161 -68l1 1q-6 95 -83 157.5t-201 68.5v106q197 0 308 -115.5t111 -283.5q0 -159 -69 -255.5t-207 -96.5zM451 230q0 61 -37.5 99.5t-94.5 38.5q-58 0 -94.5 -38t-36.5 -100q0 -63 36.5 -100t94.5 -37
q57 0 94.5 37.5t37.5 99.5z" />
    <glyph glyph-name="product" unicode="&#x220f;" 
d="M213 -175h-125v900h470v-900h-125v780h-220v-780z" />
    <glyph glyph-name="summation" unicode="&#x2211;" 
d="M40 -63l274 338l-274 338v112h558v-120h-392l269 -330l-269 -330h392v-120h-558v112z" />
    <glyph glyph-name="minus" unicode="&#x2212;" 
d="M56 327h534v-120h-534v120z" />
    <glyph glyph-name="radical" unicode="&#x221a;" 
d="M36 136l177 91l109 -231l148 729h136l-194 -911h-128l-128 255l-71 -38z" />
    <glyph glyph-name="infinity" unicode="&#x221e;" 
d="M461 402q67 0 109 -39t42 -100q0 -63 -40.5 -102t-109.5 -39q-70 0 -138 71q-68 -70 -140 -70q-68 0 -109 38.5t-41 101.5q0 61 42 100t109 39q76 0 138 -67q60 67 138 67zM185 217q40 0 79 46q-42 46 -77 46q-23 0 -39 -13t-16 -33t15 -33t38 -13zM461 309
q-37 0 -77 -46q39 -46 78 -46q23 0 37 13t14 33q0 19 -14.5 32.5t-37.5 13.5z" />
    <glyph glyph-name="integral" unicode="&#x222b;" 
d="M254 207v218q0 313 178 313q42 0 72 -23t30 -64q0 -27 -16.5 -44t-43.5 -17q-21 0 -38 15t-17 46q0 10 3 25q-40 -10 -40 -119q0 -25 5 -97t5 -162v-175q0 -313 -173 -313q-44 0 -75.5 23t-31.5 64q0 27 16.5 44t43.5 17q21 0 38 -15t17 -45q0 -14 -4 -26q39 9 39 118
q0 20 -4 93t-4 124z" />
    <glyph glyph-name="approxequal" unicode="&#x2248;" 
d="M421 405q62 0 63 68h106q-7 -187 -162 -187q-42 0 -106.5 34.5t-98.5 34.5q-61 0 -62 -69h-106q7 187 162 187q49 0 114 -34t90 -34zM421 200q62 0 63 69h106q-7 -187 -162 -187q-42 0 -106.5 34.5t-98.5 34.5q-61 0 -62 -69h-106q7 187 162 187q39 0 77.5 -17
t70.5 -34.5t56 -17.5z" />
    <glyph glyph-name="notequal" unicode="&#x2260;" 
d="M131 5l283 547l81 -42l-283 -547zM577 314h-508v120h508v-120zM577 104h-508v121h508v-121z" />
    <glyph glyph-name="lessequal" unicode="&#x2264;" 
d="M223 337l367 -79v-123l-534 145v114l534 145v-124zM56 0v121h534v-121h-534z" />
    <glyph glyph-name="greaterequal" unicode="&#x2265;" 
d="M422 337l-366 78v124l534 -145v-114l-534 -145v123zM590 0h-534v121h534v-121z" />
    <glyph glyph-name="lozenge" unicode="&#x25ca;" 
d="M327 561l-146 -225l146 -225l145 225zM38 336l288 438l282 -438l-282 -439z" />
    <glyph glyph-name="fi" unicode="&#xfb01;" 
d="M574 0h-144v430h-192v-430h-144v430h-69v108h69v29q0 96 46 127t152 31h33v-107h-15q-46 0 -59 -10.5t-13 -49.5v-20h336v-538zM430 725h144v-133h-144v133z" />
    <glyph glyph-name="fl" unicode="&#xfb02;" 
d="M430 0v618h-120q-46 0 -59 -10.5t-13 -49.5v-20h117v-108h-117v-430h-144v430h-69v108h69v29q0 96 46 127t152 31h282v-725h-144z" />
    <glyph glyph-name="NULL" 
 />
    <glyph glyph-name="apple" 
d="M143 279q0 73 52 125t124 52q78 0 131 -51.5t53 -125.5q0 -78 -52.5 -130.5t-131.5 -52.5q-73 0 -124.5 53t-51.5 130z" />
    <glyph glyph-name="f_i" 
d="M574 0h-144v430h-192v-430h-144v430h-69v108h69v29q0 96 46 127t152 31h33v-107h-15q-46 0 -59 -10.5t-13 -49.5v-20h336v-538zM430 725h144v-133h-144v133z" />
    <glyph glyph-name="f_l" 
d="M430 0v618h-120q-46 0 -59 -10.5t-13 -49.5v-20h117v-108h-117v-430h-144v430h-69v108h69v29q0 96 46 127t152 31h282v-725h-144z" />
    <glyph glyph-name="dot" 
d="M253 725h144v-133h-144v133z" />
    <glyph glyph-name="commaaccent" 
d="M261 -136v100h127v-106l-44 -89h-86l38 95h-35z" />
    <glyph glyph-name="caron.slovak" 
d="M397 725l-70 -170h-78l30 170h118z" />
    <glyph glyph-name="acute.case" 
d="M476 874l-161 -113h-145l104 113h202z" />
    <glyph glyph-name="breve.case" 
d="M396 874h118q-6 -62 -51.5 -89.5t-140.5 -27.5q-93 0 -139 27.5t-51 89.5h118q7 -46 72 -46q67 0 74 46z" />
    <glyph glyph-name="caron.case" 
d="M240 761l-137 113h164l54 -49l59 49h162l-140 -113h-162z" />
    <glyph glyph-name="cedilla.case" 
d="M206 -187l17 54q24 -14 66 -14q49 0 49 29q0 28 -41 28q-24 0 -38 -9l-30 17l51 83h62l-33 -52q12 4 37 4q37 0 65.5 -16.5t28.5 -51.5q0 -44 -40.5 -65t-98.5 -21q-51 0 -95 14z" />
    <glyph glyph-name="circumflex.case" 
d="M405 874l138 -113h-164l-55 50l-59 -50h-162l140 113h162z" />
    <glyph glyph-name="dieresis.case" 
d="M134 874h148v-113h-148v113zM364 874h148v-113h-148v113z" />
    <glyph glyph-name="dotaccent.case" 
d="M237 874h172v-113h-172v113z" />
    <glyph glyph-name="grave.case" 
d="M330 761l-160 113h201l105 -113h-146z" />
    <glyph glyph-name="hungarumlaut.case" 
d="M366 874l-160 -113h-145l103 113h202zM585 874l-159 -113h-145l103 113h201z" />
    <glyph glyph-name="macron.case" 
d="M491 771h-336v94h336v-94z" />
    <glyph glyph-name="ogonek.case" 
d="M272 0h159q-65 -32 -78 -46q-10 -12 -10 -26q0 -32 45 -32q18 0 56 10v-82q-54 -10 -103 -10q-60 0 -99.5 22t-39.5 68q0 57 70 96z" />
    <glyph glyph-name="ring.case" 
d="M323 921q39 0 65 -23.5t26 -61.5q0 -37 -26 -61t-65 -24t-65 24t-26 61t26.5 61t64.5 24zM323 879q-18 0 -30.5 -12.5t-12.5 -30.5t12.5 -30t30.5 -12t30.5 12t12.5 30t-12.5 30.5t-30.5 12.5z" />
    <glyph glyph-name="tilde.case" 
d="M383 837q48 0 55 37h97q-6 -35 -23 -59.5t-40 -35.5t-42.5 -15.5t-39.5 -4.5q-36 0 -74 18t-55 18q-45 0 -53 -36h-97q13 66 55 90.5t89 24.5q35 0 71.5 -18.5t56.5 -18.5z" />
    <glyph glyph-name="a.ss01" 
d="M430 268q0 85 -29.5 130.5t-81.5 45.5q-50 0 -78 -47t-28 -129t27.5 -128.5t78.5 -46.5q52 0 81.5 45t29.5 130zM425 470v68h143v-538h-142l-1 67q-42 -80 -138 -80t-157.5 74t-61.5 207q0 134 61.5 208t157.5 74t138 -80z" />
    <glyph glyph-name="aacute.ss01" 
d="M430 268q0 85 -29.5 130.5t-81.5 45.5q-50 0 -78 -47t-28 -129t27.5 -128.5t78.5 -46.5q52 0 81.5 45t29.5 130zM425 470v68h143v-538h-142l-1 67q-42 -80 -138 -80t-157.5 74t-61.5 207q0 134 61.5 208t157.5 74t138 -80zM537 725l-158 -116h-123l94 116h187z" />
    <glyph glyph-name="abreve.ss01" 
d="M430 268q0 85 -29.5 130.5t-81.5 45.5q-50 0 -78 -47t-28 -129t27.5 -128.5t78.5 -46.5q52 0 81.5 45t29.5 130zM425 470v68h143v-538h-142l-1 67q-42 -80 -138 -80t-157.5 74t-61.5 207q0 134 61.5 208t157.5 74t138 -80zM392 725h108q-7 -59 -48.5 -95.5t-122.5 -36.5
q-79 0 -121.5 37t-46.5 95h108q6 -50 61 -50q56 0 62 50z" />
    <glyph glyph-name="acircumflex.ss01" 
d="M430 268q0 85 -29.5 130.5t-81.5 45.5q-50 0 -78 -47t-28 -129t27.5 -128.5t78.5 -46.5q52 0 81.5 45t29.5 130zM425 470v68h143v-538h-142l-1 67q-42 -80 -138 -80t-157.5 74t-61.5 207q0 134 61.5 208t157.5 74t138 -80zM404 725l137 -116h-151l-61 47l-64 -47h-151
l140 116h150z" />
    <glyph glyph-name="adieresis.ss01" 
d="M430 268q0 85 -29.5 130.5t-81.5 45.5q-50 0 -78 -47t-28 -129t27.5 -128.5t78.5 -46.5q52 0 81.5 45t29.5 130zM425 470v68h143v-538h-142l-1 67q-42 -80 -138 -80t-157.5 74t-61.5 207q0 134 61.5 208t157.5 74t138 -80zM144 609v116h148v-116h-148zM367 725h148v-116
h-148v116z" />
    <glyph glyph-name="agrave.ss01" 
d="M430 268q0 85 -29.5 130.5t-81.5 45.5q-50 0 -78 -47t-28 -129t27.5 -128.5t78.5 -46.5q52 0 81.5 45t29.5 130zM425 470v68h143v-538h-142l-1 67q-42 -80 -138 -80t-157.5 74t-61.5 207q0 134 61.5 208t157.5 74t138 -80zM303 609l-158 116h187l94 -116h-123z" />
    <glyph glyph-name="amacron.ss01" 
d="M430 268q0 85 -29.5 130.5t-81.5 45.5q-50 0 -78 -47t-28 -129t27.5 -128.5t78.5 -46.5q52 0 81.5 45t29.5 130zM425 470v68h143v-538h-142l-1 67q-42 -80 -138 -80t-157.5 74t-61.5 207q0 134 61.5 208t157.5 74t138 -80zM491 617h-313v108h313v-108z" />
    <glyph glyph-name="aogonek.ss01" 
d="M426 0h142q-70 -44 -70 -74q0 -34 44 -34q18 0 56 10v-82q-54 -10 -103 -10q-60 0 -99 22.5t-39 69.5q0 59 69 98zM430 268q0 85 -29.5 130.5t-81.5 45.5q-50 0 -78 -47t-28 -129t27.5 -128.5t78.5 -46.5q52 0 81.5 45t29.5 130zM425 470v68h143v-538h-142l-1 67
q-42 -80 -138 -80t-157.5 74t-61.5 207q0 134 61.5 208t157.5 74t138 -80z" />
    <glyph glyph-name="aring.ss01" 
d="M430 268q0 85 -29.5 130.5t-81.5 45.5q-50 0 -78 -47t-28 -129t27.5 -128.5t78.5 -46.5q52 0 81.5 45t29.5 130zM425 470v68h143v-538h-142l-1 67q-42 -80 -138 -80t-157.5 74t-61.5 207q0 134 61.5 208t157.5 74t138 -80zM336 775q39 0 66.5 -26t27.5 -64t-27.5 -63.5
t-66.5 -25.5q-40 0 -67.5 25t-27.5 64t27.5 64.5t67.5 25.5zM336 726q-17 0 -29 -11.5t-12 -29.5q0 -17 12 -28t29 -11t29 11t12 28q0 18 -12 29.5t-29 11.5z" />
    <glyph glyph-name="atilde.ss01" 
d="M430 268q0 85 -29.5 130.5t-81.5 45.5q-50 0 -78 -47t-28 -129t27.5 -128.5t78.5 -46.5q52 0 81.5 45t29.5 130zM425 470v68h143v-538h-142l-1 67q-42 -80 -138 -80t-157.5 74t-61.5 207q0 134 61.5 208t157.5 74t138 -80zM393 681q44 0 52 44h97q-23 -127 -134 -127
q-38 0 -79.5 22t-57.5 22q-43 0 -52 -44h-96q9 61 44 94t91 33q38 0 77 -22t58 -22z" />
    <glyph glyph-name="germandbls.ss03" 
d="M236 3l31 119q40 -14 78 -14q40 0 68.5 27t28.5 81q0 57 -38 86.5t-97 29.5h-29v114h24q50 0 77.5 25.5t27.5 63.5q0 44 -26 69.5t-68 25.5q-67 0 -89.5 -38t-22.5 -119v-648h-143v647q0 133 62.5 199.5t195.5 66.5q101 0 164.5 -51t63.5 -144q0 -45 -18 -81.5t-43 -57.5
q43 -21 73.5 -69.5t30.5 -113.5q0 -113 -64 -173.5t-167 -60.5q-65 0 -120 16z" />
  </font>
</defs>
</svg>
