<?xml version="1.0" encoding="UTF-8"?>
<svg id="Layer_1" xmlns="http://www.w3.org/2000/svg" version="1.1" viewBox="0 0 400 400">
  <!-- Generator: Adobe Illustrator 29.0.0, SVG Export Plug-In . SVG Version: 2.1.0 Build 186)  -->
  <defs>
    <style>
      .st0 {
        fill: #f76689;
      }

      .st1 {
        fill: #e0f7e9;
      }

      .st2 {
        fill: #7a5f5a;
      }

      .st3 {
        fill: #ab5c3b;
      }

      .st4 {
        fill: #fff;
      }

      .st5 {
        fill: #2e4d34;
      }

      .st6 {
        fill: #c7c1b7;
      }

      .st7 {
        fill: #8e364c;
      }
    </style>
  </defs>
  <rect class="st7" x="13.9" y="395.4" width="372" height="2.1"/>
  <g>
    <path class="st1" d="M344.9,162c-86-53.8-113.2-114.3-166.6-124.8C9.4,3.9-50.3,368.3,55.8,364.6c84.8-3,90.8-5.6,220.4,27.1,135.8,34.3,154.7-175.8,68.7-229.6Z"/>
    <path class="st1" d="M289.1,37.6c-11.9,33.5,9,68.3,34.1,88.3,52.4,41.7,50.5-8.5,22-38.6-19.7-20.8-44.2-83.2-56.1-49.7Z"/>
    <path class="st1" d="M289.1,37.6c-11.9,33.5,9,68.3,34.1,88.3,52.4,41.7,50.5-8.5,22-38.6-19.7-20.8-44.2-83.2-56.1-49.7Z"/>
    <path class="st1" d="M178.3,37.2c53.4,10.5,80.6,71,166.6,124.8,86,53.8,67,263.9-68.7,229.6-129.5-32.7-135.5-30.1-220.4-27.1C-50.3,368.3,9.4,3.9,178.3,37.2Z"/>
  </g>
  <g>
    <polygon class="st7" points="316.8 333.9 319.6 395.6 321.6 395.6 318.8 333.9 316.8 333.9"/>
    <path class="st7" d="M309.7,325.8c-8.5,0-36.1.3-36.1,4.6s27.6,4.6,36.1,4.6,36.1-.3,36.1-4.6-27.6-4.6-36.1-4.6ZM309.7,332.9c-18.6,0-30.6-1.4-33.6-2.6,2.9-1.2,15-2.6,33.6-2.6s30.6,1.4,33.6,2.6c-2.9,1.2-15,2.6-33.6,2.6Z"/>
    <path class="st5" d="M275.7,298.2c-1.7,4.2-2.6,8.8-2.6,13.7,0,20.3,16.4,36.7,36.7,36.7s36.7-16.4,36.7-36.7-.9-9.4-2.6-13.7h-68.1Z"/>
    <path class="st5" d="M309.7,292.8c-18.8,0-34.1,2.4-34.1,5.4s15.3,5.4,34.1,5.4,34.1-2.4,34.1-5.4-15.3-5.4-34.1-5.4Z"/>
    <path class="st2" d="M309.7,294.2c-17,0-30.7,1.8-30.7,4s13.8,4,30.7,4,30.7-1.8,30.7-4-13.8-4-30.7-4Z"/>
    <path class="st7" d="M343.9,330c-1.2,1.2-13.8,2.9-34.2,2.9s-33-1.7-34.2-2.9c0,0,.1.2.1.3h-2c0,4.2,27.6,4.6,36.1,4.6s36.1-.3,36.1-4.6h-2c0-.2,0-.3.1-.3Z"/>
    <polygon class="st7" points="343.3 331 351 395.6 353 395.5 345.3 330.9 343.3 331"/>
    <polygon class="st7" points="268.3 395.5 270.3 395.6 276.7 331.3 274.7 331.1 268.3 395.5"/>
    <rect class="st7" x="273.3" y="363.8" width="61.7" height="2" transform="translate(-67.1 661) rotate(-88.8)"/>
    <path class="st5" d="M322.9,294.6c-.7,0-1.3,0-2-.1-3.1-.2-6.4-.3-9.9-.3h-1.9c-2.1,0-4.2,0-6.2,0-.6,0-1.2,0-1.9,0-1,0-2.1,0-3.1.1-.6,0-1.3,0-1.9,0-10.1.7-17,2-17,3.6s7.4,3,18,3.6c.6,0,1.3,0,1.9,0,.9,0,1.8,0,2.7.1.6,0,1.2,0,1.9,0,1.4,0,2.8,0,4.3,0,.6,0,1.3,0,1.9,0h0c2.8,0,5.6,0,8.2-.1.7,0,1.3,0,2,0,12-.5,20.6-2,20.6-3.8s-7.2-3-17.5-3.6Z"/>
    <path class="st5" d="M305.5,226c-.6,1.8-1.6,3.6-2.4,4.9-1,1.6-2.5,4.7-4.4,5.4-2,.7-2.4-1.1-2.1-2.6,0,0,0-.2,0-.2,0,0,0,0,0,0,0-.1,0-.3.1-.4,0-.1.1-.2.2-.3,1.1-2.1,2.3-4.1,3.3-6.3.7-1.6,1.1-3.3,1.6-4.9-4.5-5.1-10-9.6-16-12.1,1.2,2.6,2.1,5.4,2.9,8,.8,2.6,2.9,8.1,1,10.6-.5.7-1.7,1.1-2.5.7-1.4-.8-1.2-3.6-1.2-4.9,0-3.1,0-5.8-1.1-8.8-.9-2.6-2.3-4.9-3.9-7.2-3.8-.9-7.8-1-11.8,0,1.2,1.1,2.1,2.4,2.4,3.9.2,1.4-.6,4.7-2.5,4.8-2.5.1-2.6-5.6-2.9-7.8-2.2.8-4.5,1.9-6.8,3.4-3.9,2.6-6.9,5.9-9.1,9.6,0,0,0,.1,0,.2.8,6.3,8.8,8.4,13.6,10.9,1.5.8,7,3.3,6.3,5.6-.4,1.2-2.4,1.2-3.3,1-2.4-.4-4.5-2.3-6.4-3.8-4.3-3.3-8.5-6.5-12.1-10.6-3.9,8.4-4.8,18-4.7,25.2.1,0,.3,0,.4,0,2.7,1.2,6,1.7,8.9,1.4,1.9-.2,3.9-.6,5.8-.3,1.6.2,4.1,2.2,2.3,3.8-1.5,1.4-5,1-6.9.8-3.8-.5-7.2-1.7-10.5-3.3.1,2.1.3,3.9.5,5.3,1.1,7,5.3,13.3,11.2,17.2,2,1.3,4.1,2.3,6.3,3.1,4.3-3.7,7.6-7.9,9.5-13.5.8-2.2,2.4-8.4,5.6-8.2,1.4,0,2.4,1.8,2.7,3.1.5,2.1-.8,4.2-2,5.8-1.7,2.4-3.6,4.7-5.2,7.1-1.6,2.4-3.3,4.7-5,7,4.1.5,8.3.2,12.2-1,6.1-1.9,12.6-8.3,9.2-14.9,6.6,1.5,14.7,2.4,20.6-1-1.3-.8-2.6-1.9-3.5-2.9-1.5-1.6-4-4.1-3.9-6.5,0-2,2.1-2.4,3.4-1.2,1.2,1,1.7,2.6,2.7,3.8,1.2,1.5,3,2.7,5,3.5,2.6-3.8,3.1-9,2.2-13.5-1-5.2-4.5-12.7-9.7-19.7ZM255.1,245.1c0,0-.2,0-.3,0-.2.2-.5.3-.8,0,0,0-.2-.2-.3-.3-.7-.4-1.1-1.3-1.3-2,0-.2,0-.3,0-.4,0-.4-.1-.8-.2-1.2,0-1,.4-2,1.6-1.8,1.3.2,2.6,1.6,2.7,2.9.1,1.1-.5,2.4-1.6,2.8ZM295.2,246.6c-.7.9-1.8,1-2.7.2-.9-.8-1.1-2.1-.8-3.2,0-.2.2-.3.3-.3,0,0,0,0,0,0,1-.4,2.3-.4,3.2.3,1,.8.7,2.2,0,3Z"/>
    <g>
      <path class="st4" d="M364.4,214c-2.8,1.3-7.7,3.6-10.2.6-.2-.2-.2-.5,0-.7,2.7-2.3,6.4-2,9.6-3.1,3.2-1,6.7-3.2,8.9-6,0-.6-.1-1.2-.2-1.7-.7-5.2-1.6-10.4-2.6-15.5,0,0,0,.2-.1.3-.4.9-1.3,2.8-2.4,3-1.1.2-1.5-1.1-1.3-2,.3-1.3,1.6-2.3,2.1-3.6.3-.8.6-1.5.8-2.3-.9-4.1-1.8-8.1-2.7-12.2,0-.3-.4-.4-.6-.4-4,.6-8.1,1.1-12.2,1.8-4.4,4.4-7.6,9.5-8.1,15.9-.1,1.8,1,11.3-3.3,10.2-4.6-1.2-2.4-9.8-1.5-12.6,1.4-4.5,3.7-8.5,6.5-12.2-9.2,1.8-18.3,4.4-26.6,8.8-3.1,6.5-2.7,13.3,1.4,19.7.9,1.4,6,7.9,1.9,8.6-3.5.6-6.2-6.2-6.8-8.8-.9-3.8-.4-7.7-.1-11.6.2-2.3.6-4.5,1.3-6.6,0,0-.2.1-.3.2-6.3,3.7-12.2,8.5-14.1,15.9-.9,3.3-1,6.6-.6,9.9,1.6,2.4,3.3,4.6,5.3,6.7,2.1,2.1,4.4,3,6.8,4.6,1.7,1.1,4.6,4.7,2.1,6.5-2,1.5-5.8-.3-7.7-1.1-.8-.3-1.6-.7-2.3-1-.3,19.9,17,9.6,17,9.7-.1,18.2,18.4,18.3,29.9,14.1-1.1-.2-2.3-.4-3.4-.6-2.3-.4-4.6-.5-6.9-1-2.5-.5-5.9-2-5.4-5.2.4-2.7,4-.5,5.2.2,4.4,2.4,9.6,4.7,14.8,4.4.6-.3,1.1-.7,1.6-1,4-2.8,7.3-6.5,9.6-10.7-4.4-.1-8.8-.4-13.2-1.2-3.2-.5-8.2-1.4-9.7-4.7-.2-.4,0-.7.4-.8,3.8-.3,7.4.7,10.8,2.5,4,2.1,8.2,3,12.5,2.5.5-1.1,1-2.1,1.3-3.3,0,0,0-.1,0-.2-3.5-.4-7-1.3-10.3-2.5-.6-.2-.3-1.2.3-1,3.4,1.3,6.8,2.1,10.4,2.5,2-6.8,1.7-14.1.9-21.1-2.5,2.5-5.2,4.7-8.6,6.3ZM354.9,188.9c0-.2.1-.3.2-.3.2-.8.8-1.5,1.8-1.7,2.4-.4,4.1,2.5,2.1,4.1-.8.6-1.9,1-2.9.7-1.2-.4-1.4-1.7-1.2-2.8ZM332.5,237.7c-.7.6-1.7.7-2.5.1-.3-.2-.2-.6.1-.8,0-.7.3-1.4.7-1.9.7-.7,1.8-.5,2.3.3.5.8,0,1.7-.6,2.2ZM334.6,198.6c-.2,1.2-.8,3-2,3.6-1.4.7-2-1.1-2.2-2.2,0,0,0-.2,0-.2-.6-1.2-1-2.6-.8-3.7.2-1.8,2.1-2.3,3.6-1.4,1.4.8,1.7,2.5,1.4,4ZM348.3,217.9c-.6.7-1.7.8-2.5.4-1.1-.5-1.5-1.6-1.4-2.8,0-.4.5-.6.8-.4.7-.8,1.8-1,2.6-.3.8.7,1.3,2.1.5,3Z"/>
      <path d="M356,192c.3,0,.5.1.8.1.8,0,1.6-.3,2.3-.9.9-.7,1.2-1.8.8-2.7-.4-1.2-1.7-2-3.1-1.8-1,.2-1.7.8-1.9,1.7-.1.1-.2.3-.3.4-.2,1.6.2,2.7,1.3,3.1ZM355.1,189c0-.1,0-.1.1-.2,0,0,.1,0,.1-.2.1-.8.7-1.3,1.6-1.5.1,0,.3,0,.4,0,1,0,1.9.6,2.2,1.5.3.8,0,1.6-.7,2.2-.8.7-1.9.9-2.7.6-1.2-.4-1.2-1.8-1-2.6Z"/>
      <path d="M373,207.4c0,0-.2,0-.2,0-2.8,2.9-5.5,4.9-8.5,6.3-1.6.8-4.4,2-6.7,2s-2.5-.4-3.3-1.4c0,0-.1-.2,0-.3,0,0,0,0,0-.1,1.8-1.5,3.9-1.9,6.2-2.3,1.1-.2,2.2-.4,3.3-.7,3.5-1.1,6.9-3.4,9-6.1,0,0,0-.1,0-.2,0-.6-.1-1.2-.2-1.7-.6-4.7-1.4-9.8-2.6-15.5,0,0,0-.2-.2-.2,0,0-.2,0-.2.1l-.2.5c-.4.9-1.2,2.5-2.2,2.7-.3,0-.6,0-.8-.3-.3-.3-.4-.9-.2-1.4.2-.7.6-1.3,1.1-1.9.4-.5.8-1.1,1-1.7.3-.8.6-1.6.8-2.3,0,0,0,0,0-.1-.9-4.2-1.9-8.4-2.7-12.2,0-.4-.5-.6-.9-.5-4.3.6-8.3,1.1-12.2,1.8,0,0,0,0-.1,0-5,4.9-7.7,10.2-8.2,16,0,.3,0,.9,0,1.6,0,2.3.2,6.5-1.3,8-.3.3-.7.5-1.2.5h0c-.2,0-.4,0-.6,0-.9-.2-1.5-.8-1.9-1.5-1.7-3,0-9,.6-10.8,1.3-4,3.4-8,6.5-12.2,0,0,0-.2,0-.3,0,0-.1-.1-.2-.1-10.8,2.1-19.3,5-26.6,8.9,0,0,0,0,0,.1-3.2,6.6-2.7,13.5,1.4,19.9.1.2.3.4.5.7,1.1,1.5,3.5,5.1,2.8,6.7-.2.5-.6.7-1.3.9-.1,0-.3,0-.4,0h0c-3.1,0-5.6-6.4-6.1-8.7-.7-3.2-.5-6.5-.2-9.8,0-.6,0-1.2.1-1.7.2-2.4.6-4.5,1.3-6.5,0,0,0-.2,0-.2,0,0-.2,0-.3,0h-.1c0,.1-.1.1-.2.2-5.5,3.3-12.1,8.1-14.2,16-.8,3.1-1,6.3-.6,10,0,0,0,0,0,.1,2,2.9,3.6,4.9,5.4,6.7,1.4,1.4,2.9,2.3,4.5,3.2.8.4,1.5.9,2.3,1.4,1.2.8,2.9,2.8,3,4.4,0,.7-.3,1.3-.9,1.7-.5.3-1.1.5-1.8.5-1.7,0-3.8-.9-5.2-1.5l-.5-.2c-.7-.3-1.5-.6-2.3-1,0,0-.2,0-.2,0,0,0-.1.1-.1.2,0,4.9.9,8.3,2.9,10.4,1.4,1.4,3.2,2.1,5.5,2.1s4.6-.4,8.6-2.4c0,4.9,1.4,8.8,4.2,11.5,3.8,3.9,9.5,4.7,13.5,4.7s8.5-.8,12.5-2.3c0,0,.2-.1.1-.2,0-.1,0-.2-.2-.2-1.3-.2-2.4-.4-3.5-.6-1-.2-2-.3-3-.4-1.3-.1-2.6-.3-3.9-.6-1-.2-5.8-1.3-5.2-4.9.1-.8.5-1.1,1.2-1.1,1.1,0,2.5.8,3.4,1.3l.3.2c3.7,2,9.3,4.8,14.9,4.5,0,0,0,0,.1,0,.6-.4,1.2-.7,1.6-1.1,4-2.8,7.3-6.5,9.7-10.8,0,0,0-.2,0-.2,0,0-.1-.1-.2-.1-5.1-.1-9.3-.5-13.1-1.2h0c-3.2-.6-8-1.4-9.4-4.6,0-.1,0-.2,0-.3,0,0,.1-.1.3-.1,3.4-.3,7,.6,10.6,2.5,3.4,1.8,6.8,2.6,10.1,2.6h0c.8,0,1.7,0,2.5-.2,0,0,.1,0,.2-.1.6-1.2,1-2.3,1.3-3.3v-.2c0,0,0-.1,0-.2,0,0,0,0-.2-.1-3.5-.4-7-1.3-10.3-2.5-.2,0-.2-.3-.2-.4,0-.1.1-.3.3-.2,3.4,1.3,6.9,2.1,10.4,2.5.1,0,.2,0,.2-.2,2-7.1,1.6-14.7.9-21.2,0,0,0-.2-.2-.2ZM371.9,228.5c-3.4-.4-6.8-1.2-10.1-2.5-.4-.2-.8.1-.9.5,0,.3,0,.7.5.9,3.3,1.2,6.7,2.1,10.1,2.5-.3.9-.7,1.9-1.3,3.1-.8,0-1.5.1-2.3.1h0c-3.3,0-6.6-.9-9.9-2.6-3.7-1.9-7.4-2.8-10.9-2.5-.3,0-.5.2-.6.4-.1.2-.1.5,0,.7,1.5,3.4,6.5,4.2,9.7,4.8h0c3.8.7,7.9,1.1,12.8,1.2-2.3,4.1-5.5,7.6-9.4,10.3-.5.3-1,.6-1.6,1-5.5.3-11-2.4-14.6-4.4l-.3-.2c-.9-.5-2.5-1.4-3.7-1.4s-1.5.5-1.7,1.5c-.5,3.1,2.5,4.8,5.6,5.4,1.3.3,2.6.4,3.9.6,1,.1,2,.2,3,.4.8.1,1.7.3,2.6.5-3.7,1.3-7.8,2-11.5,2s-9.4-.8-13.2-4.6c-2.7-2.7-4.1-6.6-4-11.6,0-.1-.1-.2-.2-.2s0,0-.3.1c-3.9,2-6.8,2.5-8.5,2.5s-3.9-.7-5.2-2c-1.9-1.9-2.8-5.2-2.8-9.7.7.3,1.4.6,2,.9l.5.2c1.4.6,3.6,1.5,5.4,1.5s1.6-.2,2.1-.6c.7-.5,1.1-1.2,1.1-2.1,0-1.9-1.9-3.9-3.2-4.8-.8-.5-1.6-1-2.3-1.4-1.6-.9-3.1-1.8-4.4-3.1-1.7-1.7-3.4-3.8-5.3-6.6-.4-3.6-.2-6.8.6-9.8,2-7.7,8.4-12.4,13.8-15.6-.6,1.9-1,3.9-1.1,6.1,0,.6,0,1.2-.1,1.7-.3,3.3-.5,6.6.2,9.9.4,1.8,2.9,9,6.6,9,.2,0,.3,0,.5,0,.8-.1,1.4-.5,1.6-1.1.8-1.9-1.6-5.3-2.9-7.2-.2-.3-.4-.5-.5-.7-4-6.2-4.4-12.9-1.4-19.4,7.2-3.8,15.4-6.6,25.9-8.7-2.9,4-5,7.9-6.2,11.8-.6,1.8-2.3,8-.5,11.2.5.9,1.3,1.5,2.2,1.8.3,0,.5.1.8.1h0c.6,0,1.1-.2,1.5-.6,1.5-1.6,1.4-5.8,1.4-8.3,0-.7,0-1.2,0-1.5.5-5.7,3.1-10.8,8-15.7,3.9-.6,7.8-1.2,12.1-1.8,0,0,0,0,0,0,0,0,.3,0,.3.2.9,3.8,1.8,8,2.7,12.2-.2.7-.5,1.5-.8,2.2-.2.5-.6,1.1-1,1.6-.5.6-1,1.3-1.2,2.1-.2.6,0,1.3.3,1.8.3.4.7.6,1.2.5,1.2-.2,2-1.8,2.5-2.8,1.1,5.5,1.9,10.3,2.5,14.8,0,.5.1,1.1.2,1.7-2.1,2.6-5.3,4.8-8.7,5.8-1.1.3-2.2.5-3.3.7-2.2.4-4.6.8-6.4,2.4-.1.1-.2.3-.2.4,0,.2,0,.4.2.6.9,1,2.1,1.5,3.6,1.5,2.4,0,5.2-1.3,6.9-2.1,2.9-1.4,5.6-3.3,8.3-6,.7,6.3,1,13.6-.9,20.4Z"/>
      <path d="M331.9,234.5c-.5,0-.9.2-1.2.5-.4.5-.7,1.2-.8,1.9-.2.1-.3.3-.3.5,0,.2,0,.4.3.5.4.3.8.4,1.3.4s1.1-.2,1.5-.6c.7-.6,1.2-1.6.7-2.5-.3-.5-.9-.8-1.5-.8ZM332.4,237.5c-.7.6-1.6.6-2.2.1,0,0,0-.1,0-.2,0,0,0-.2.2-.2,0,0,.1-.1.1-.2,0-.6.2-1.3.6-1.7.2-.2.5-.4.9-.4s.9.2,1.1.6c.4.7,0,1.5-.6,1.9Z"/>
      <path d="M345.1,214.9c-.4,0-.9.2-.9.7-.2,1.4.4,2.5,1.5,3,.3.1.7.2,1.1.2.7,0,1.3-.3,1.7-.7.8-1,.4-2.5-.5-3.3-.8-.8-2.1-.7-2.9.2ZM348.1,217.8c-.3.4-.8.6-1.4.6s-.6,0-.9-.2c-.9-.4-1.4-1.4-1.3-2.5,0-.2.2-.3.4-.3s0,0,.1,0c0,0,.2,0,.3,0,.6-.7,1.6-.9,2.3-.2.7.6,1.2,1.9.5,2.7Z"/>
      <path d="M333.3,194.4c-.5-.3-1.1-.5-1.6-.5-1.2,0-2.1.8-2.3,2.1-.1,1.2.1,2.6.8,3.8,0,0,0,.1,0,.2,0,.6.5,2.5,1.8,2.5s.5,0,.7-.2c1.5-.7,2-3.1,2.1-3.8.3-1.9-.3-3.5-1.5-4.2ZM334.4,198.6c-.2,1.3-.8,2.9-1.9,3.4-.2,0-.4.1-.5.1-1,0-1.3-1.8-1.4-2.1,0,0,0,0,0-.1,0,0,0-.1,0-.2-.6-1.2-.9-2.5-.8-3.6.2-1.2,1.1-1.7,1.8-1.7s.9.1,1.4.4c1.6.9,1.4,3.1,1.3,3.8Z"/>
    </g>
    <g>
      <path class="st4" d="M277.8,279.7c0,0,5.9-11.5-7.2-10.3.3.5.6.9.8,1.4.6,1.2,2,3.5,1.1,4.8-1.1,1.7-3.6,0-4.4-1-1.2-1.4-1.9-2.9-3.4-4.1-1.4-1.2-3-2.1-4.7-3-2.2,0-4.4.2-6.6.9-4.8,1.6-7.7,5.6-9.8,9.7,0,0,0,.1,0,.2,1.4-.6,2.8-.9,4.3-1.1,2.5-.4,5.1-.9,7.7-.5,1.7.2,6.4,1.6,6.2,3.9-.3,2.7-4.8-.3-5.8-.7-4.4-2.2-8.9-2.2-13.1.1-2.5,5.5-3.8,11.3-4.6,17.3,2.3-1.9,4.9-3.6,7.8-4.7,1.8-.7,7.4-2.5,8.4.3,1,2.7-5.4,2.4-6.6,2.6-4.2.7-7.5,2.9-10.1,5.9-.2,2.6-.4,5.2-.6,7.8,0,.2,0,.4.3.4,2.7.4,5.5.8,8.2,1.1.5-.2,1-.4,1.5-.6.8-.4,1.4-1.2,2.3-1.5.6-.2,1.4,0,1.4.7,0,.8-1.3,1.4-1.9,1.7,0,0-.1,0-.2.1,3.5.4,6.9.7,10.4.9.4,0,.8,0,1.2,0,1.8-1.5,3-3.8,3.5-5.9.5-2.1.2-4.4,1.6-6.2.1-.2.3-.1.5,0,2.1,1.5.8,4.6,0,6.5-.9,2.2-2.2,4.1-3.8,5.8,4.7.1,9.6,0,14-1.6-.4-2.2-1.2-4.4-2.2-6.4-.2-.4.5-.6.6-.2,1,2,1.7,4.2,2.2,6.4,0,0,0,0,.1,0,.7-.3,1.4-.6,2.1-1,.1-2.8-.7-5.3-2.2-7.8-1.3-2-2.2-4.3-2.2-6.7,0-.3.2-.4.5-.3,2.3.8,3.1,3.9,3.6,5.9.7,2.7,1.1,5.5,1.4,8.3,2.7-1.7,5-4,6.6-6.6.2-.4.4-.7.6-1.1,0-3.3-1.8-6.5-3.7-9.1-.5-.8-2.2-2.9-.4-3.3,2.1-.5,3.2,1.6,3.7,3.1.4,1.4.6,2.9,1,4.3.2.7.4,1.4.6,2.1,2.3-7.4,1.3-19.2-10.8-18.2ZM250.5,304c-1,1.4-3,.4-2.8-1.1,0-.6.5-1.1,1-1.2,0,0,0-.1.2-.2.7-.2,1.6-.1,1.9.6.3.6,0,1.3-.3,1.9ZM256.6,286.7c-.3.8-1.5,1.3-2.3,1.4-1,.2-2.1.1-2.7-.7-.6-.9-.4-2.1.8-2.3.8-.2,1.7,0,2.5.3,0,0,0,0,.2,0,.7,0,1.9.3,1.5,1.3ZM267.8,295.8c-.6.5-1.5.3-2-.2-.6-.5-.5-1.2,0-1.7,0-.2,0-.5.3-.5.8-.2,1.5,0,1.9.7.3.5.3,1.2-.2,1.6ZM280.1,284.9c-.3.4-.9.8-1.4.5-.6-.3-.7-1-.3-1.4.3-.3.8-.5,1.2-.5,0-.2.3-.3.5-.1.4.5.4,1.1,0,1.6Z"/>
      <path d="M278.1,279.4c.9-2,1.9-5.5.4-7.9-1.2-1.9-3.9-2.7-8-2.4,0,0-.1,0-.2.1,0,0,0,.2,0,.2.3.5.6.9.8,1.4l.2.3c.6,1.2,1.7,3.2,1,4.3-.3.4-.6.6-1.1.6-1,0-2.4-.9-2.9-1.6-.4-.5-.7-.9-1-1.4-.7-1-1.4-1.9-2.4-2.7-1.3-1-2.7-2-4.7-3.1,0,0,0,0-.1,0-.2,0-.4,0-.7,0-2.2,0-4.2.3-6,.9-5.2,1.7-8,6.2-10,9.8v.2c-.1,0-.1.2,0,.3,0,0,.2,0,.3,0,1.3-.5,2.7-.9,4.3-1.1.4,0,.8-.1,1.1-.2,1.5-.2,3.1-.5,4.7-.5s1.2,0,1.8.1c1.6.2,6.2,1.6,6,3.6,0,.6-.4.9-1,.9-1.2,0-3-1-4-1.6-.2-.1-.4-.2-.5-.3-4.4-2.2-9.1-2.2-13.3.1,0,0,0,0,0,.1-2.2,4.9-3.7,10.4-4.6,17.3,0,0,0,.2.1.2,0,0,.2,0,.3,0,2.6-2.2,5.1-3.7,7.7-4.7.9-.4,3.4-1.2,5.4-1.2s2.4.5,2.8,1.4c.1.4.1.7,0,.9-.7,1.1-3.7,1.2-5.3,1.3-.5,0-.8,0-1,0-3.9.6-7.2,2.6-10.3,6,0,0,0,0,0,.1-.2,2.5-.4,5-.6,7.8,0,.3.2.6.5.6,2.5.4,5.4.8,8.2,1.1,0,0,0,0,.1,0,.5-.2,1-.4,1.5-.6.4-.2.7-.5,1.1-.7.4-.3.8-.6,1.2-.8.3-.1.8,0,1,.2,0,0,.1.2,0,.3,0,.6-1.1,1.1-1.6,1.5l-.3.2c0,0-.1.1-.1.2,0,0,0,.2.2.2,3.9.4,7.3.7,10.4.9h1.2c0,0,.1,0,.2,0,1.7-1.5,3-3.7,3.6-6,.2-.7.3-1.4.3-2.2.2-1.5.3-2.8,1.2-4,0,0,.1,0,.2,0,1.9,1.4.7,4.5,0,6.2-.8,2-2,3.8-3.7,5.7,0,0,0,.2,0,.2,0,0,.1.1.2.1.7,0,1.5,0,2.2,0,4.9,0,8.7-.5,11.8-1.7.1,0,.2-.1.1-.3-.4-2.2-1.2-4.4-2.2-6.5,0,0,.2,0,.2,0,1,2,1.7,4.2,2.2,6.3,0,0,0,.1.1.1,0,0,.1,0,.2,0h0c.7-.3,1.3-.6,2.1-1.1,0,0,.1-.1.1-.2.1-2.7-.6-5.4-2.3-7.9-1.4-2.2-2.1-4.4-2.1-6.6,0-.1,0-.1.1-.1s0,0,0,0c2.1.7,2.9,3.7,3.4,5.7h0c.6,2.5,1.1,5.1,1.4,8.3,0,0,0,.1.1.2,0,0,.2,0,.2,0,2.7-1.7,5-4,6.7-6.7.2-.3.4-.7.6-1.1,0,0,0,0,0-.1,0-3.6-2.1-7-3.7-9.3v-.2c-.5-.6-1.3-1.8-1.1-2.4,0-.2.3-.3.6-.4.2,0,.4,0,.5,0,1.5,0,2.5,1.6,2.9,3,.2.8.4,1.6.5,2.4.1.6.3,1.3.4,1.9.2.7.4,1.4.6,2.2,0,0,.1.2.2.2h0c0,0,.2,0,.2-.2,1.3-4.2,1.7-10.7-1.3-14.8-2-2.7-5.1-3.9-9.3-3.7ZM288.5,297c-.1-.5-.2-.9-.4-1.4-.2-.6-.3-1.2-.4-1.9-.2-.8-.3-1.6-.6-2.4-.5-1.6-1.6-3.4-3.3-3.4s-.4,0-.6,0c-.5.1-.8.3-.9.7-.3.8.5,2.1,1,2.8v.2c1.6,2.2,3.6,5.5,3.7,9-.2.4-.4.7-.6,1-1.6,2.5-3.7,4.7-6.3,6.3-.3-3.1-.8-5.6-1.4-7.9h0c-.5-2.1-1.4-5.2-3.7-6-.4-.1-.8.1-.8.5,0,2.3.7,4.5,2.2,6.8,1.6,2.5,2.3,4.9,2.2,7.5-.7.4-1.3.7-1.8.9-.5-2.1-1.2-4.2-2.1-6.2,0-.2-.3-.3-.5-.3s-.4.1-.5.3c0,.1,0,.3,0,.5,1,2,1.7,4.1,2.1,6.2-3.1,1.1-6.8,1.6-11.5,1.6s-1.1,0-1.7,0c1.6-1.8,2.7-3.6,3.5-5.5.7-1.8,2.1-5.2-.2-6.8-.2-.2-.6-.1-.8,0-.9,1.3-1.1,2.8-1.3,4.2,0,.7-.2,1.4-.3,2.1-.5,2.2-1.8,4.3-3.4,5.7h-1.1c-3-.2-6.1-.4-9.7-.8.7-.4,1.5-.9,1.5-1.6,0-.3,0-.5-.2-.7-.2-.2-.6-.4-1-.4s-.3,0-.5,0c-.5.2-.9.5-1.3.8-.3.3-.6.5-1,.7-.5.2-.9.4-1.4.6-2.8-.4-5.7-.8-8.2-1.1,0,0,0-.1,0-.1.2-2.7.4-5.2.6-7.7,3-3.3,6.2-5.2,9.9-5.8.2,0,.6,0,1,0,1.8,0,4.8-.3,5.6-1.5.3-.4.3-.8.1-1.3-.4-1.1-1.5-1.7-3.2-1.7s-4.6.9-5.5,1.2c-2.5,1-4.9,2.4-7.4,4.4.9-6.6,2.3-11.9,4.5-16.6,4.1-2.2,8.5-2.3,12.8,0,.1,0,.3.1.5.3,1,.6,2.9,1.6,4.2,1.6s1.4-.5,1.5-1.3c.3-2.6-5-3.9-6.3-4.1-.6,0-1.2-.1-1.9-.1-1.6,0-3.2.2-4.7.5-.4,0-.8.1-1.1.2-1.4.2-2.6.5-3.8.9,1.9-3.5,4.7-7.7,9.5-9.3,1.8-.6,3.7-.9,5.8-.9s.4,0,.6,0c1.9,1.1,3.4,2,4.6,3,1,.8,1.6,1.7,2.3,2.6.3.5.7.9,1.1,1.4.6.7,2,1.8,3.3,1.8s1.2-.3,1.5-.8c.9-1.4-.3-3.5-1-4.8l-.2-.3c-.2-.4-.4-.7-.6-1.1,3.7-.3,6.1.5,7.2,2.2,1.5,2.3.3,5.8-.5,7.7,0,.2-.1.2,0,.3,0,0,.1.1.2.1,4.2-.3,7.3.8,9.3,3.5,2.8,3.8,2.6,9.5,1.5,13.6Z"/>
      <path d="M248.9,301.3c-.1,0-.2,0-.3.2-.6.2-1,.7-1.1,1.4,0,.5.1,1,.5,1.4.4.4.8.6,1.3.6h0c.6,0,1.1-.3,1.4-.8.4-.5.7-1.3.3-2.1-.3-.7-1.1-1-2.2-.7ZM250.3,303.8c-.3.5-.8.6-1,.6h0c-.4,0-.8-.2-1-.5-.3-.3-.4-.7-.4-1.1,0-.5.3-.9.8-1,0,0,.2,0,.2-.2.2,0,.4,0,.6,0,.5,0,.9.2,1,.6.2.5,0,1.2-.3,1.6Z"/>
      <path d="M279.4,283.2c-.5,0-.9.3-1.2.6-.2.3-.4.6-.3,1,0,.4.3.7.7.8.2,0,.3.1.5.1.5,0,1-.4,1.2-.7.5-.6.4-1.4,0-1.9-.2-.2-.6-.2-.8,0ZM279.9,284.8c-.3.4-.8.6-1.1.4-.2-.1-.4-.3-.4-.5,0-.2,0-.4.2-.6.2-.3.7-.4,1.1-.5,0,0,.1,0,.2-.1,0,0,0,0,0,0h0c.4.4.3,1,0,1.3Z"/>
      <path d="M266,293.3c-.2,0-.3.2-.4.3,0,.1,0,.2,0,.4-.3.3-.4.6-.4.9,0,.4.2.7.5,1,.4.3.9.5,1.4.5h0c.4,0,.7-.1,1-.4.6-.5.5-1.4.2-1.9-.4-.7-1.2-1-2.2-.9ZM267.6,295.7c-.2.2-.4.2-.6.2s-.8-.2-1.1-.4c-.2-.2-.3-.4-.3-.6,0-.3.1-.5.3-.7,0,0,.1-.2,0-.3,0,0,0,0,0-.1,0,0,0,0,.1,0,.1,0,.3,0,.4,0,.6,0,1,.2,1.3.7.2.4.2,1-.1,1.3Z"/>
      <path d="M255.1,285.2s0,0,0,0c-.8-.3-1.8-.5-2.6-.3-.6.1-1,.5-1.2.9-.2.5-.1,1.2.3,1.7.4.6,1.1.9,2,.9h0c.3,0,.6,0,.9-.1.5-.1,2-.5,2.4-1.6.2-.4,0-.7,0-.9-.3-.6-1.3-.7-1.8-.7ZM256.4,286.7c-.3.7-1.3,1.1-2.1,1.3-.3,0-.6.1-.8.1h0c-.5,0-1.2-.1-1.6-.7-.3-.4-.4-.9-.2-1.3.1-.3.4-.6.9-.7.2,0,.4,0,.6,0,.6,0,1.2.1,1.8.4,0,0,.2,0,.2,0,.5,0,1.2.2,1.4.5,0,.1,0,.3,0,.5Z"/>
    </g>
    <path class="st5" d="M377.3,243.4c-2.3,3.1-4.3,6.4-7.3,8.8-1.2,1-4.3,3.8-5.8,2.7-1.7-1.3,1.3-3.3,2.2-3.9,3.8-2.5,7.5-5,10.4-8.7-1.5-3-3.7-5.4-6.9-7-2.2-1.1-4.6-1.8-7.1-2.4.6,3.8,0,9.6-3.6,10.5-2.5.7-4.1-2.3-4.3-4.6-.2-2.7,1.5-5.1,3.6-6.6-3.8-.4-7.7-.4-11.3-.1-.7,0-1.3.1-2,.2,0,0,0,.1,0,.2-1.8,3.5-3.8,7.4-4.2,11.4-.1,1.5.5,3.4-.3,4.8-1.2,2.2-3.5.4-3.9-1.4-.6-3.2.9-7.3,1.9-10.3.4-1.3.9-2.6,1.4-3.9-4.5.9-9,2.5-12.9,5.3-1.3.9-2.5,2-3.6,3.1-.5,3.9-.3,7.9,1.1,11.4,1,2.5,3.9,7.3,1.1,10-1.9,1.8-3.1-1.7-3.5-3.1-1.3-4.5-1.8-9.4-2-14.2-2,2.8-3.5,6-4.8,9.3-1.2,3.2-2.2,6.6-2.9,10,2.4,1.7,5.2,2.4,7.8,3.8,1.2.7,3.6,2.2,2.4,4-2.4,3.8-7.8-.6-10.9-3.9-.3,3.1.8,5.5,2.9,7.8,4.6,4.8,11.9,6.4,17.6,2-.2,5.6,4,10.3,9.5,9.5,2-.3,3.6-1.3,5.1-2.6-1.3.1-2.6.2-3.8.1-1.6,0-4.5-.2-5.1-2.2-.6-1.9,1.1-2,2.3-1.5,1.5.6,2.4,1.4,4.1,1.4,1.9,0,3.8-.6,5.6-1.3,2.1-2.5,4.1-4.7,7-6.2,1.1-.6,2.3-1.1,3.5-1.5-2.3-.2-5.7-.6-6.5-2.7-1.3-3.5,4.1-3.7,5.9-3.5,2.4.4,4.7,1.2,7.2,1.3,2.1.1,4.1-.1,6.1-.7.4-.3.8-.6,1.2-.9,1.9-1.6,3-3.9,3.7-6.4-1.2,0-2.4-.2-3.7-.2-2.5-.2-5.9.2-8-1.5-.2-.2-.3-.6,0-.8,3.8-3.2,8,.3,12.1.5.5-3.2.4-6.5.2-9.2-.2-2.4-.7-4.6-1.5-6.6ZM337.3,261.1c-.2,1.1-1.2,2.9-2.4,2.8-1.1,0-1.6-1.3-1.7-2.3-.1-1,0-1.9.4-2.8,0,0,0-.2,0-.2.2-.7.6-1.5,1.3-1.7.5-.2,1.1.1,1.4.5.8.9,1.2,2.4.9,3.7ZM346.2,275.5c-.7,1.1-2.2,1.6-3.1.6-.7-.8-.7-1.9-.4-2.9-.2-.2-.3-.5,0-.8,1.9-1.6,4.8.7,3.5,3ZM351.2,251.6c-1,.7-2.2.4-2.8-.7-.6-1.2-.2-2.6.8-3.4.1,0,.2-.1.3-.1,1-.7,2.1-.5,2.7.6.6,1.3.1,2.8-1,3.6Z"/>
    <path class="st5" d="M341.6,268.5c-8.6,6.8-15.6,15.4-20.4,25.3-.1.2-.2.5-.3.7-1.2,2.4-2.1,5-2.9,7.6.7,0,1.3,0,2,0,.7-2,1.4-3.9,2.3-5.8.2-.5.5-1,.7-1.5,4.7-9.7,11.6-18.1,20-24.8.9-.8-.4-2.1-1.3-1.3Z"/>
    <path class="st5" d="M330.2,224.6c-5.5,7.5-8.3,16.4-10.7,25.3-2.9,10.6-5.7,21.2-8,32-.9,4.1-1.7,8.3-2.4,12.4-.5,2.6-.9,5.3-1.2,8,.6,0,1.3,0,1.9,0,.3-2.7.8-5.3,1.2-8,.8-4.6,1.7-9.2,2.7-13.7,2.2-9.6,4.7-19.1,7.2-28.6,2.5-9.3,5.2-18.5,10.9-26.4.7-1-.9-1.9-1.6-.9Z"/>
    <path class="st5" d="M294.5,278.3c-.3-1-.5-2-.9-3-1.8-6-4-12-6.9-17.7-.5-1.1-2.2-.1-1.6,1,2.5,5.1,4.5,10.3,6.2,15.6.3.8.5,1.5.7,2.3h0c1.7,5.9,3,12,4,18.2.4,2.4.7,4.8,1,7.2.6,0,1.3,0,1.9,0-.3-2.5-.6-4.9-1-7.4-.9-5.5-2-10.9-3.4-16.3Z"/>
    <path class="st5" d="M296.2,277.4c-.8-.8-1.6-1.5-2.6-2.1-.7-.5-1.5-.9-2.3-1.1-2-.7-4.1-.7-6.3,0-2.9,1.1-5.5,3.3-8.1,5-3.4,2.3-6.9,4.6-10.3,6.9-1,.6,0,2.2.9,1.6,4.9-3.3,9.8-6.6,14.8-9.8,2.8-1.8,5.5-3.1,8.8-1.9.3.1.6.3.9.4.9.5,1.7,1.1,2.5,1.8,1,.9,1.8,2,2.5,3.1,2.3,3.8,3.4,8.3,4,13,.3,2.5.5,5.1.7,7.7.6,0,1.2,0,1.9,0-.2-2.6-.3-5.2-.7-7.8-.8-6.5-2.5-12.7-6.7-16.9Z"/>
  </g>
  <g>
    <g>
      <path class="st5" d="M238.5,213.9c-8.6-4.9-36.2-23.5-37.1-24.9-.6-1.1-.5-6.2-.4-13h0c0-.5,0-1,0-1.4,0-.7,0-1.4,0-2.2s0-.1,0-.2c.2-13.7-1.5-28.5-6.2-35.4-4.6-6.8-15.3,24.5-15.3,24.5,0,0-1.8,2.4-3.4,6.3-1.6,3.8-1.8,7.1-1.3,12.9,0,.2,0,.4,0,.7.1,1.3.4,2.7.7,4.1.2,1,.5,2.1.8,3.1.2.6.4,1.3.7,1.9,2.2,6.2,6.7,18.7,18.7,20.9,9,1.7,41.6,13.4,49.7,11.4,2.7-.7-1.3-5.4-1.3-5.4-.1-.3-3.5-2-5.8-3.3Z"/>
      <g>
        <path class="st4" d="M174.6,154.7c-2.7,4-4.6,7.3-5.1,8.4-.2.5-.4,1.2-.4,1.9-.1,1.4.1,3.2.5,5.2.3,1.4.7,2.9,1.1,4.4,1.2,4,2.6,8.2,3.2,11.6,14.1,2,24.8-4.5,30.3-13.3-1-13-1.5-29.1-8-37-3.8-4.6-14.8,8.4-21.7,18.8Z"/>
        <path d="M196.5,135.7c-.6-.7-1.3-1-2.2-1-5,0-13.8,10.7-19.9,19.9-2.5,3.8-4.6,7.2-5.1,8.4-.2.6-.4,1.2-.4,1.9-.1,1.3,0,3.1.6,5.3.3,1.2.6,2.6,1.1,4.4.3,1.1.7,2.2,1,3.3.9,2.9,1.8,5.9,2.2,8.3,0,0,0,.2.2.2,1.7.2,3.4.4,5.1.4,10.7,0,20-5,25.5-13.8,0,0,0,0,0-.1,0-1.2-.2-2.4-.3-3.7-.9-12.3-1.9-26.2-7.8-33.5ZM179.1,186.3c-1.6,0-3.2-.1-4.9-.3-.5-2.5-1.3-5.4-2.2-8.2-.3-1.1-.7-2.2-1-3.3-.5-1.8-.9-3.2-1.1-4.4-.5-2.2-.6-3.9-.5-5.2,0-.6.2-1.2.4-1.8.4-1,2.2-4,5-8.3,6.5-9.8,15.1-19.7,19.5-19.7s1.4.3,1.9.9c5.9,7.1,6.8,21,7.7,33.2,0,1.2.2,2.4.3,3.6-5.4,8.6-14.6,13.5-25,13.5Z"/>
      </g>
      <path class="st4" d="M203.5,187.5c.4-4.5.9-14.6.9-14.6l-12.6,2.4-15,7.7-2,2.9s3.2,15.3,11.2,21.5c8,6.2,20.1,7.7,20.1,7.7,4.2-3.5,11.1-16,11.1-16,0,0-14.1-7.1-13.7-11.5Z"/>
      <g>
        <path class="st5" d="M246.6,216.2c-1.3-.3-6.8,1.4-6.4,4.6.2,1.4,1.2,1.3,2.1,2.1,1.1,1,3,5.5,4.5,5.8,2.1.3-1.2-3.3,0-3.6.4,0,4.5,6,4.3,2.4,0-.8-2.2-4.1-1-3.6,1.1,1.2,3.2,4.3,4.2,3.3.5-.5-.6-2.5-1.3-3.2-3.3-3.9-1.2-2.6.9,0,1.1,1.4,2.1,1.1,1.5-.8-1.2-3.9-5.7-6.4-8.9-7.1Z"/>
        <path class="st5" d="M250.4,215.1c-1.3-.4-4,.7-5.1,1.2-.1,0,1.9,1,2.4,1,.5,0,1.1-.2,1.6-.2.6,0,1.3-.1,1.8-.5.8-.6,0-1.3-.7-1.5Z"/>
      </g>
      <path class="st6" d="M198.8,209.4c-1.3,3.6-.6,3.9-.6,3.9l3.6,1.2,6.2-6.6,1.5-5.2,1.2-5.4s-10.5,8.5-11.8,12.1Z"/>
      <path class="st4" d="M214.8,196.1c-2-1.2-3.8.3-5.9,3.4-2.1,3.1-8.3,10.1-8.9,12.2-.6,2.1.6,3.4,3,4.9,2.4,1.5,4.5,3,5.8.8,2.9-5.1,4.4-8.3,6.2-9.7,5.1-4,4.4-7.1,3.3-8.3-1.1-1.2-3.4-3.2-3.4-3.2Z"/>
    </g>
    <path class="st3" d="M155.5,375.4c-.3,1.8-.8,8.8.2,9.8.9.9,9.5,2.9,9.7,1.1.2-1.5,2-10.2,1.1-11.3-.9-1.2-10.9-.2-11,.4Z"/>
    <path class="st5" d="M178.9,385.2c-6.2-.8-13.2-.6-13.2-.6,0,0-6.2,3.4-10.7-1.5,0,0-4.6,6.6-1.3,11.7,0,0,24,1.1,31.2,0,0,0,.2-8.8-6-9.6Z"/>
    <path class="st3" d="M102.6,375.4c-.3,1.8-.8,8.8.2,9.8.9.9,8.4,3.8,8.6,2,.2-1.5,1.7-11.1.8-12.2-.9-1.2-9.4-.2-9.5.4Z"/>
    <path class="st5" d="M138.2,226.3c-1.6,1.8,1.4,18.1,5.6,28.9,4.9,12.5,10.8,27.1,11.5,34.7,1.1,14.1,0,42.5-1,56.6,0,.9,0,33.7,0,33.7l13.2,1.3c7.2-21.5,21-69.7,21-91.2s-1.8-57.1-9.7-74c-7.5-16.1-37,6.1-40.5,10.1Z"/>
    <path class="st5" d="M159.9,270.2c-2.4-4.4-3.7-9.3-3.3-14.3.2-2.7,1.9-6.2,1-8.9-1.1-3.5-11.5-15.1-14.1-13.3-3.2,2.1-1.6,10.4-2.9,14.3,4.9,12.5,14.1,34.3,14.7,41.9,1.1,14.1-1.2,42.4-2,56.5-.8,14.1.9,33.8.9,33.8l8.2.8c-.7-5.1,0-16.6.3-21.8.5-9.1,2.8-18,4.9-26.8,3.3-14,6.5-28.9,2.5-43.1-2-7.3-6.5-12.4-10.2-18.9Z"/>
    <path class="st5" d="M118.8,211.3c-2.4-.3-4.2.2-4.9,1.4-2.5,4.1-4.4,8-5.9,11.6-9.9,23.4-1.6,37.5-1.7,68,0,1.8,0,3.6,0,5.3-.3,12.6,3.1,28.1-.5,41.2-7.1,25.8-4.1,41.3-4.1,41.3l11.8,1.3c6.1-20.3,22.5-55,24.9-76.2,3.7-33,8.3-68.4,8.5-77.1,0-1.4,0-2.1,0-2.1-8.1-9.9-21.8-13.9-27.9-14.6Z"/>
    <path class="st5" d="M116.9,247.5c-.9-6.1.4-11.9,1.4-17.8.5-3.4,1-6.7.9-10.2,0-2.8-11.2-.6-11.2,4.1-9.9,23.4-1.6,38.3-1.7,68.7,0,1.8,0,3.6,0,5.3-.3,12.6-.7,26.9-2.8,40.4-4.9,32.4-1.8,42.1-1.8,42.1l2.7.3c0-6.9,0-16.7.8-23.5,1.2-10.8,4.2-21,7.9-31.2,6-16.4,10-32.6,8.9-50.3-.6-9.6-3.7-18.5-5-27.9Z"/>
    <g>
      <path class="st4" d="M147.1,122.8c-2.8.4-5,1.2-6.5,2.3-.3.2-.7.6-1.1.9-1.2,1.3-2.7,3.3-4.3,5.9-4.7,7.7-10.7,20.4-15.3,33.4-5.6,15.7-14.8,52.4-14.6,55.2.1,2,7,6,17.5,8.5,5.9,1.4,12.9,2.2,20.6,2,16.3-.6,38.1-9.7,39.5-11.5,1.6-8-7.7-25.6-4.3-36.4,1.1-3.4,3.7-8.5,6.4-14.2,6-12.1,13-25.4,10.9-33.3-9.4-8.3-33.4-15.2-48.8-12.7Z"/>
      <path d="M196.1,135.3c-8.3-7.3-27.1-13.3-42-13.3s-4.9.2-7,.5c-2.8.4-5.1,1.2-6.6,2.3-.3.2-.7.6-1.1,1-1.2,1.2-2.7,3.2-4.4,5.9-5,8.1-10.9,20.9-15.3,33.4-5.5,15.5-14.8,52.2-14.6,55.3.1,2.2,7.3,6.3,17.6,8.7,5.7,1.3,11.7,2,17.8,2h0c.9,0,1.9,0,2.8,0,16.4-.6,38.2-9.7,39.7-11.6,0,0,0,0,0,0,.7-3.6-.7-9-2.2-14.7-1.9-7.3-4.1-15.6-2.2-21.7,1-3.1,3.1-7.4,5.6-12.5l1.9-3.9c5.8-11.6,11.7-23.7,9.8-31.2,0,0,0,0,0-.1ZM185.9,166.4l-1.9,3.9c-2.5,5.1-4.7,9.5-5.6,12.5-1.9,6.1.2,14.5,2.2,21.9,1.5,5.7,2.9,11,2.2,14.5-1.8,1.9-23.5,10.8-39.3,11.4-.9,0-1.9,0-2.8,0h0c-6,0-12-.7-17.7-2-10.5-2.4-17.2-6.5-17.3-8.2-.2-2.9,9.2-40,14.6-55.1,4.4-12.5,10.3-25.3,15.3-33.3,1.7-2.7,3.1-4.7,4.3-5.9.4-.4.7-.7,1.1-.9,1.5-1.1,3.6-1.8,6.4-2.2,2.1-.3,4.5-.5,7-.5,14.7,0,33.3,5.9,41.6,13.1,1.8,7.3-4.1,19.3-9.8,30.8Z"/>
    </g>
    <path class="st7" d="M179.3,139.4c.9-2.7,1.5-7.8,1.5-8h-1.3c0,0-.7,5.7-1.6,8l-.2.5.5.3c.2.1,4.8,2.8,10.5,3.3-1.7,3.8-8.9,19.4-14.6,25.7-7.2,7.9-13.1,32.7-5.2,56.7l1.2-.4c-7.8-23.6-2-47.8,5-55.5,6.7-7.4,14.9-26.1,15.2-26.9l.4-.9h-1c-4.8-.1-9-2.2-10.4-2.9Z"/>
    <g>
      <path class="st5" d="M168.7,260.7c0,.8,83.9.8,83.9,0v-6.3h-83.9v6.3Z"/>
      <g>
        <path class="st4" d="M168.7,254.6c0,.8,18.8,1.4,41.9,1.4s41.9-.6,41.9-1.4v-6.3h-83.9v6.3Z"/>
        <path d="M252.6,248.2h-83.9c-.1,0-.2.1-.2.2v6.3c0,.3,0,.8,12.5,1.2,7.9.3,18.5.4,29.7.4s21.7-.1,29.7-.4c12.5-.4,12.5-.9,12.5-1.2v-6.3c0-.1-.1-.2-.2-.2ZM252.4,254.6c-1.3.6-17.4,1.3-41.7,1.3s-40.5-.7-41.7-1.3v-5.9h83.4v5.9Z"/>
      </g>
      <path class="st5" d="M168.7,248.4c0,.8,18.8,1.4,41.9,1.4s41.9-.6,41.9-1.4v-6.3h-83.9v6.3Z"/>
      <g>
        <path class="st4" d="M168.7,242.4c0,.8,18.8,1.4,41.9,1.4s41.9-.6,41.9-1.4v-6.3h-83.9v6.3Z"/>
        <path d="M252.6,235.9h-83.9c-.1,0-.2.1-.2.2v6.3c0,.3,0,.8,12.5,1.2,7.9.3,18.5.4,29.7.4s21.7-.1,29.7-.4c12.5-.4,12.5-.9,12.5-1.2v-6.3c0-.1-.1-.2-.2-.2ZM252.4,242.3c-1.3.6-17.4,1.3-41.7,1.3s-40.5-.7-41.7-1.3v-5.9h83.4v5.9Z"/>
      </g>
      <path class="st5" d="M168.7,236.1c0,.8,18.8,1.4,41.9,1.4s41.9-.6,41.9-1.4v-6.3h-83.9v6.3Z"/>
      <path class="st7" d="M251.2,230c-27.1.4-54.1.4-81.2,0-.2-.8-1.5-.5-1.3.4.4,2.8,2.8,5,5.8,4.7,1.9-.2,3.3-.8,5.3,0,1,.4,1.8,1.4,2.8,1.8,1.8.7,3.8.8,5.6.3,2.5-.8,3.7-2.6,6.2-.3,1.2,1.2,2.5,2.4,4.1,3.1,1.5.6,3.2.8,4.7,0,2-.9,2.7-3.3,4.6-4.3,2.5-1.4,5.2,1.1,7.7,1.3,1.9.2,3.4-.9,5.2-1.3,5.2-1.3,7.6,6.3,12.8,5,1.8-.4,2.8-1.9,4.1-3,2.1-1.8,3.6-2.2,6.2-1.7.7.1,1.2.6,2,.5,2.6-.3,5.2-3.6,6.1-5.8.2-.4-.3-.9-.7-.9Z"/>
      <path class="st7" d="M210.6,228.4c-23.2,0-41.9.6-41.9,1.4s18.8,1.4,41.9,1.4,41.9-.6,41.9-1.4-18.8-1.4-41.9-1.4Z"/>
      <path class="st5" d="M174.3,229c0,.7,16.3,1.2,36.4,1.2s36.4-.6,36.4-1.2v-5.4h-72.8v5.4Z"/>
      <g>
        <path class="st4" d="M174.3,223.7c0,.7,16.3,1.2,36.4,1.2s36.4-.6,36.4-1.2v-5.4h-72.8v5.4Z"/>
        <path d="M247,218.1h-72.8c-.1,0-.2.1-.2.2v5.4c0,.3,0,.7,10.9,1.1,6.9.2,16,.4,25.7.4s18.9-.1,25.7-.4c10.9-.4,10.9-.8,10.9-1.1v-5.4c0-.1-.1-.2-.2-.2ZM246.8,223.6c-1.2.5-15.2,1.1-36.2,1.1s-34.9-.6-36.2-1.1v-5.1h72.3v5.1Z"/>
      </g>
      <path class="st5" d="M174.3,218.3c0,.7,16.3,1.2,36.4,1.2s36.4-.6,36.4-1.2v-5.4h-72.8v5.4Z"/>
      <g>
        <path class="st4" d="M174.3,213.1c0,.7,16.3,1.2,36.4,1.2s36.4-.6,36.4-1.2v-5.4h-72.8v5.4Z"/>
        <path d="M247,207.4h-72.8c-.1,0-.2.1-.2.2v5.4c0,.3,0,.7,10.9,1.1,6.9.2,16,.4,25.7.4s18.9-.1,25.7-.4c10.9-.4,10.9-.8,10.9-1.1v-5.4c0-.1-.1-.2-.2-.2ZM246.8,213c-1.2.5-15.2,1.1-36.2,1.1s-34.9-.6-36.2-1.1v-5.1h72.3v5.1Z"/>
      </g>
      <path class="st5" d="M174.3,207.6c0,.7,16.3,1.2,36.4,1.2s36.4-.6,36.4-1.2v-5.4h-72.8v5.4Z"/>
      <path class="st7" d="M245.9,202.3c-23.5.3-46.9.3-70.4,0-.2-.7-1.3-.4-1.2.4.4,2.4,2.5,4.3,5,4.1,1.7-.2,2.8-.7,4.6,0,.9.4,1.5,1.2,2.4,1.6,1.5.6,3.3.7,4.9.2,2.2-.7,3.2-2.3,5.4-.2,1.1,1,2.2,2.1,3.6,2.7,1.3.5,2.8.7,4.1,0,1.7-.8,2.4-2.9,4-3.7,2.2-1.2,4.5,1,6.6,1.2,1.7.2,2.9-.8,4.5-1.1,4.5-1.1,6.6,5.4,11.1,4.4,1.6-.4,2.4-1.6,3.5-2.6,1.8-1.6,3.1-1.9,5.4-1.5.6.1,1.1.5,1.7.4,2.2-.2,4.6-3.1,5.3-5.1.1-.4-.2-.8-.6-.8Z"/>
      <path class="st7" d="M210.6,201c-20.1,0-36.4.6-36.4,1.2s16.3,1.2,36.4,1.2,36.4-.6,36.4-1.2-16.3-1.2-36.4-1.2Z"/>
      <path class="st5" d="M182,201.7c0,.5,12.8,1,28.6,1s28.6-.4,28.6-1v-4.3h-57.3v4.3Z"/>
      <g>
        <path class="st4" d="M182,197.6c0,.5,12.8,1,28.6,1s28.6-.4,28.6-1v-4.3h-57.3v4.3Z"/>
        <path d="M239.3,193.1h-57.3c-.1,0-.2.1-.2.2v4.3c0,.3,0,.6,8.6.9,5.4.2,12.6.3,20.3.3s14.9-.1,20.3-.3c8.6-.3,8.6-.6,8.6-.9v-4.3c0-.1-.1-.2-.2-.2ZM239.1,197.5c-1.1.4-12.1.9-28.4.9s-27.3-.4-28.4-.9v-3.9h56.8v3.9Z"/>
      </g>
      <path class="st5" d="M182,193.3c0,.5,12.8,1,28.6,1s28.6-.4,28.6-1v-4.3h-57.3v4.3Z"/>
      <g>
        <path class="st4" d="M182,189.2c0,.5,12.8,1,28.6,1s28.6-.4,28.6-1v-4.3h-57.3v4.3Z"/>
        <path d="M239.3,184.7h-57.3c-.1,0-.2.1-.2.2v4.3c0,.3,0,.6,8.6.9,5.4.2,12.6.3,20.3.3s14.9-.1,20.3-.3c8.6-.3,8.6-.6,8.6-.9v-4.3c0-.1-.1-.2-.2-.2ZM239.1,189.1c-1.1.4-12.1.9-28.4.9s-27.3-.4-28.4-.9v-3.9h56.8v3.9Z"/>
      </g>
      <path class="st5" d="M182,184.9c0,.5,12.8,1,28.6,1s28.6-.4,28.6-1v-4.3h-57.3v4.3Z"/>
      <path class="st7" d="M238.4,180.8c-18.5.3-37,.3-55.4,0-.1-.6-1-.3-.9.3.3,1.9,1.9,3.4,3.9,3.2,1.3-.1,2.2-.6,3.6,0,.7.3,1.2,1,1.9,1.3,1.2.5,2.6.6,3.8.2,1.7-.5,2.5-1.8,4.2-.2.8.8,1.7,1.7,2.8,2.1,1,.4,2.2.5,3.2,0,1.3-.6,1.9-2.3,3.1-2.9,1.7-.9,3.6.8,5.2.9,1.3.1,2.3-.6,3.6-.9,3.6-.9,5.2,4.3,8.8,3.4,1.2-.3,1.9-1.3,2.8-2.1,1.4-1.3,2.4-1.5,4.3-1.1.5,0,.8.4,1.3.3,1.8-.2,3.6-2.5,4.2-4,.1-.3-.2-.6-.5-.6Z"/>
      <path class="st7" d="M210.6,179.7c-15.8,0-28.6.4-28.6,1s12.8,1,28.6,1,28.6-.4,28.6-1-12.8-1-28.6-1Z"/>
      <g>
        <path class="st4" d="M191,180.1c0,.5,8.8.9,19.6.9s19.6-.4,19.6-.9v-3.9h-39.2v3.9Z"/>
        <path d="M230.2,176h-39.2c-.1,0-.2.1-.2.2v3.9c0,.3,0,.6,6,.9,3.7.2,8.6.3,13.9.3s10.2,0,13.9-.3c6-.3,6-.6,6-.9v-3.9c0-.1-.1-.2-.2-.2ZM230,180c-.9.4-8.4.8-19.4.8s-18.5-.4-19.4-.8v-3.6h38.7v3.6Z"/>
      </g>
      <path class="st5" d="M191,176.2c0,.5,8.8.9,19.6.9s19.6-.4,19.6-.9v-3.9h-39.2v3.9Z"/>
      <g>
        <path class="st4" d="M191,172.5c0,.5,8.8.9,19.6.9s19.6-.4,19.6-.9v-3.9h-39.2v3.9Z"/>
        <path d="M230.2,168.3h-39.2c-.1,0-.2.1-.2.2v3.9c0,.3,0,.6,6,.9,3.7.2,8.6.3,13.9.3s10.2,0,13.9-.3c6-.3,6-.6,6-.9v-3.9c0-.1-.1-.2-.2-.2ZM230,172.4c-.9.4-8.7.8-19.4.8s-18.5-.4-19.4-.8v-3.6h38.7v3.6Z"/>
      </g>
      <path class="st7" d="M229.4,168.4c-2.8-.4-6,.1-8.8.1-3.2,0-6.4,0-9.5-.1-6.4,0-12.6,0-19,0,0,0-.6.1-.6.1-.3-.3-.2,2.6.3,3.6,0,.1.3.3.4.2.2,0,.9-.5.9-.5,1,.1,1.4,2.9,1.9,3.7.7,1.1,1.6,1.6,2.8.8,1.2-.9,1.8-3.6,3.8-2.5.5.3.8.8,1.5.9.7,0,1.1-.2,1.6-.6.4-.3,1.3-1.6,1.7-1.8,1-.3,1.4.7,1.9,1.4.9,1.4,1.4,3.9,3.5,3.9,1.6,0,2.2-2,2.7-3.2.2-.5,1.3-2.9,2.1-3.3,1.2,0,1.6,1.5,2,1.7.5.3.7.4,1.2.2.3-.1.7-.6.8-.8,1.6-2.6,3.6-.2,3.9,1.1.4.9.7,1.6,1.3,2.4.1.1.3.2.5.1,1.5-.5,1.7-1.6,2-3,.3-1.2,1-2,1.4-3.1.3-.6.4-.6.2-1.2,0-.2-.2-.3-.5-.4Z"/>
      <path class="st0" d="M210.6,167.7c-10.8,0-19.6.4-19.6.9s8.8.9,19.6.9,19.6-.4,19.6-.9-8.8-.9-19.6-.9Z"/>
      <path class="st7" d="M210.6,167.7c-10.8,0-19.6.4-19.6.9s8.8.9,19.6.9,19.6-.4,19.6-.9-8.8-.9-19.6-.9Z"/>
    </g>
    <path class="st7" d="M161.7,200.3c-.9-.2-1.8.7-2,1.8-.2,1.2.4,2.2,1.3,2.4.9.2,1.8-.7,2-1.8.2-1.2-.4-2.2-1.3-2.4Z"/>
    <path class="st7" d="M150.6,200.1c-.9-.2-1.8.7-2,1.8-.2,1.2.4,2.2,1.3,2.4.9.2,1.8-.7,2-1.8.2-1.2-.4-2.2-1.3-2.4Z"/>
    <path class="st3" d="M176.6,115.6l-4.5,8.9s3.3,7.5,9.2,6.8c1.7-.2,0-4,0-4l1.8-4.2-6.6-7.5Z"/>
    <path class="st5" d="M125.9,385.2c-6.2-.8-14.2-1.1-14.2-1.1,0,0-5.2,3.8-9.7-1.1,0,0-4.6,6.6-1.3,11.7,0,0,24,1.1,31.2,0,0,0,.2-8.8-6-9.6Z"/>
    <g>
      <path class="st3" d="M143.6,201.8c-2.1-3.9-5-31.3-.9-35.8,4-4.3-16-13.9-21.6-13.3-5.5.6-5.9,14.1-3.9,28.2.3,1.9.6,3.8.9,5.7.1.8.3,1.5.4,2.3,1.4,7.2,3.4,13.9,5.4,18.4,1,2.2,2,3.9,3,4.9,8.6,8.9,26.6,12.2,34.5,13.2,2.7.3,4.3.4,4.3.4l5.9-6.9s-27.1-15.2-28.1-17.1Z"/>
      <path class="st5" d="M131.9,166.7c-.8.6-1.5,1.2-2.1,1.8-4.2-1-8-2.6-11.7-4.8-.6-.4-1.8-.2-1.8.7-.2,5.6.2,11,1,16.5.3,1.9.6,3.8.9,5.7.1.8.3,1.5.4,2.3,1.4,7.2,3.4,13.9,5.4,18.4.4.4-3-29.7,9.3-38.7,1.2-.9-.2-2.6-1.4-1.8Z"/>
      <g>
        <path class="st3" d="M171.1,218.5c-1.7-.2-8.8,2.4-8.4,5.9.2,1.6,1.5,1.4,2.7,2.2,1.4,1,3.7,6,5.6,6.1,2.7.2-1.5-3.6.1-4,.6-.1,5.7,6.3,5.5,2.3,0-.9-2.7-4.4-1.1-4,1.3,1.3,4,4.6,5.2,3.2.6-.6-.7-2.7-1.6-3.5-4.2-4-1.5-2.9,1.1,0,1.4,1.5,2.7,1,2-1.1-1.4-4.3-7.2-6.7-11.3-7.1Z"/>
        <path class="st3" d="M176,216.8c-1.6-.3-5.2,1.3-6.6,1.9-.2,0,2.4.9,3.1.8.7,0,1.4-.3,2.1-.4.8,0,1.7-.3,2.3-.8,1-.8,0-1.5-.9-1.6Z"/>
      </g>
      <g>
        <path class="st4" d="M144.3,200.5c-3.2-12.2-2.4-25.1,2.3-36.9,2.4-6,5-14.5,3.8-21.8-.9-5.3-2-18.4-8.8-17.8-10.9,1-24,12.3-27.1,37.5,0,0-1.6,23.7,2.5,39.2,4.1,15.5,24.4,21.2,24.4,21.2l9.5-15.8-6.2-4.6s-.1-.4-.3-1Z"/>
        <path d="M144.8,201.4c0-.1-.1-.5-.3-.9-3.2-12.1-2.4-25.2,2.3-36.7,2.4-5.9,5-14.5,3.8-21.9,0-.5-.2-1.2-.3-1.8-.9-6.2-2.4-16.7-8.7-16.1-11.4,1-24.3,13-27.3,37.7,0,.2-1.6,23.9,2.5,39.3,4,15.4,24.3,21.3,24.5,21.3,0,0,0,0,0,0,0,0,.2,0,.2-.1l9.5-15.8c0-.1,0-.2,0-.3l-6.1-4.6ZM141.2,221.7c-1.9-.6-20.3-6.5-24-20.9-4-15.3-2.5-38.9-2.5-39.1,3-24.4,15.7-36.3,26.9-37.3.1,0,.3,0,.4,0,5.5,0,7,9.9,7.8,15.8,0,.7.2,1.3.3,1.8,1.2,7.2-1.4,15.8-3.8,21.6-4.7,11.6-5.5,24.8-2.3,37,.2.7.3,1,.3,1,0,0,0,0,0,.1l6,4.5-9.3,15.5Z"/>
      </g>
    </g>
    <g>
      <path class="st4" d="M148.8,202c-2-1.2-3.8.3-5.9,3.4-2.1,3.1-8.3,10.1-8.9,12.2-.6,2.1.6,3.4,3,4.9,2.4,1.5,4.5,3,5.8.8,2.9-5.1,4.4-8.3,6.2-9.7,5.1-4,4.4-7.1,3.3-8.3-1.1-1.2-3.4-3.2-3.4-3.2Z"/>
      <path d="M148.9,201.8c-.5-.3-1-.4-1.5-.4-1.4,0-2.9,1.2-4.8,3.9-.8,1.1-2.1,2.8-3.5,4.6-2.5,3.1-5,6.3-5.4,7.7-.7,2.3.8,3.7,3.1,5.2l.5.3c1.3.8,2.6,1.6,3.7,1.6s1.4-.4,1.9-1.2c.5-.9.9-1.7,1.4-2.5,2-3.6,3.3-6,4.7-7.2,3.2-2.6,4-4.7,4.1-6,0-1-.2-2-.9-2.7-1.1-1.2-3.4-3.2-3.5-3.3ZM148.8,213.4c-1.5,1.2-2.9,3.6-4.9,7.3-.4.8-.9,1.6-1.4,2.5-.4.7-.8,1-1.5,1-.9,0-2.2-.7-3.4-1.5l-.5-.3c-2.7-1.6-3.5-2.9-2.9-4.7.4-1.3,3-4.6,5.3-7.5,1.4-1.8,2.7-3.4,3.5-4.6,1.7-2.5,3.1-3.7,4.4-3.7s.8.1,1.2.3c0,0,2.3,2,3.4,3.2.5.6.8,1.4.7,2.3,0,1.2-.9,3.2-4,5.7Z"/>
    </g>
    <g>
      <polygon class="st4" points="170.7 124.3 176.6 130.4 177.6 123 174.2 119.6 170.7 124.3"/>
      <path d="M174.3,119.4s-.1,0-.2,0c0,0-.1,0-.2,0l-3.5,4.7c0,.1,0,.2,0,.3.1,0,.2,0,.3,0l3.3-4.5,3.2,3.2-1,7.3c0,.1,0,.2.2.3,0,0,0,0,0,0,.1,0,.2,0,.2-.2l1-7.4c0,0,0-.1,0-.2l-3.5-3.4Z"/>
    </g>
    <g>
      <polygon class="st4" points="181.5 124.6 181.5 131.3 183.9 128.5 183.1 124.2 181.5 124.6"/>
      <path d="M183.3,124c0,0-.1,0-.2,0l-1.7.5c0,0-.2.1-.2.2v6.7c0,.1.1.2.2.2s.2-.1.2-.2v-6.5l1.3-.4.7,4.1c0,.1.1.2.3.2.1,0,.2-.1.2-.3l-.7-4.4c0,0,0-.1-.1-.2Z"/>
    </g>
    <path class="st7" d="M180.8,124.1v6.6c-1.7.1-2.9-.6-3.5-.9l1-7-3.7-4-.9.9,3.3,3.5-1,7.1.3.2c0,0,1.8,1.4,4.1,1.4.3,0,.7,0,1.1,0h.5c0,0,.1-6.8.1-6.8l1.2-.3-.3-1.2-2.2.6Z"/>
    <path class="st3" d="M176.5,118.5c3.2,8.7,13.3,5.8,14.7,1.5,2.1-6.1,2.1-12.6,2.1-12.6l-14.1-5.6s-6,7.9-2.8,16.7Z"/>
    <path class="st5" d="M179.2,103.7s0,0,0,0c-.3-.5-.9-.9-1.6-.6-1.6.6-2.8,2.1-3,3.9,0,.3-.1.6,0,.6-.2.2-.5.3-.7.5-.6.7-.6,1.4-.7,2.3,0,1.6-1,3,.4,4.3,1.2,1.1,2.9.9,4-.2,1.6-1.7,1.5-4.6,2.1-6.8.3-1.3,1.4-3.4-.4-4.1Z"/>
    <path class="st5" d="M177,105.3c-.1,4.9,4.5,3.3,7.7,3.3,2.2,0,3.9,4.3,10.1,2.5,2.1-.6,4.6-3.8,3.6-6.5-2.3-5.9-21.2-7.7-21.4.6Z"/>
    <path class="st7" d="M181.5,148.7c-.8-.4-2,.1-2.5,1.2-.5,1.1-.2,2.3.6,2.7s2-.1,2.5-1.2c.5-1.1.2-2.3-.6-2.7Z"/>
    <path class="st7" d="M171,145.3c-.8-.4-2,.1-2.5,1.2-.5,1.1-.2,2.3.6,2.7.8.4,2-.1,2.5-1.2.5-1.1.2-2.3-.6-2.7Z"/>
    <path class="st7" d="M169.8,163.2c-.8-.4-2,.1-2.5,1.2-.5,1.1-.2,2.3.6,2.7.8.4,2-.1,2.5-1.2.5-1.1.2-2.3-.6-2.7Z"/>
    <path class="st7" d="M159.3,159.8c-.8-.4-2,.1-2.5,1.2-.5,1.1-.2,2.3.6,2.7.8.4,2-.1,2.5-1.2.5-1.1.2-2.3-.6-2.7Z"/>
    <path class="st7" d="M163.7,180.1c-.9-.3-1.9.4-2.2,1.6-.3,1.1.1,2.3,1,2.5.9.3,1.9-.4,2.2-1.6.3-1.1-.1-2.3-1-2.5Z"/>
    <path class="st7" d="M152.8,178.4c-.9-.3-1.9.4-2.2,1.6-.3,1.1.1,2.3,1,2.5.9.3,1.9-.4,2.2-1.6.3-1.1-.1-2.3-1-2.5Z"/>
    <g>
      <g>
        <path class="st4" d="M166.5,98.9l6.9,9.8c12.3-3.4,16.9-8.4,16.9-8.4l-2.8-11.1-21,9.7Z"/>
        <path d="M187.6,88.9c0,0-.1,0-.2,0l-21,9.7c0,0-.1,0-.1.1,0,0,0,.1,0,.2l6.9,9.8c0,0,.1,0,.2,0s0,0,0,0c12.2-3.4,17-8.5,17-8.5,0,0,0-.1,0-.2l-2.8-11.1c0,0,0-.1-.1-.1ZM173.4,108.5l-6.6-9.5,20.5-9.5,2.7,10.7c-.7.7-5.5,5.2-16.6,8.2Z"/>
      </g>
      <g>
        <path class="st4" d="M182.8,85c-1.8.9-2.4,3.4-1.3,5.6,1.1,2.2,3.4,3.2,5.2,2.3,1.8-.9,2.4-3.4,1.3-5.6-1.1-2.2-3.4-3.2-5.2-2.3Z"/>
        <path d="M184.2,84.5c-.5,0-1,.1-1.5.3-1.9.9-2.5,3.6-1.4,5.9.8,1.7,2.4,2.8,4,2.8s1-.1,1.5-.3c1.9-.9,2.5-3.6,1.4-5.9-.8-1.7-2.4-2.8-4-2.8ZM186.7,92.7c-.4.2-.8.3-1.3.3-1.4,0-2.9-1-3.6-2.5-1-2.1-.5-4.4,1.2-5.2.4-.2.8-.3,1.3-.3,1.4,0,2.9,1,3.6,2.5,1,2.1.5,4.4-1.2,5.3Z"/>
      </g>
      <g>
        <path class="st4" d="M175.9,85.6c-2.1,1-2.7,4-1.5,6.5,1.3,2.6,4,3.8,6.1,2.8,2.1-1,2.7-4,1.5-6.5-1.3-2.6-4-3.8-6.1-2.8Z"/>
        <path d="M177.5,85c-.6,0-1.2.1-1.7.4-2.2,1.1-2.9,4.2-1.6,6.8,1,2,2.8,3.3,4.7,3.3s1.2-.1,1.7-.4c1.1-.5,1.8-1.5,2.1-2.8.3-1.3,0-2.7-.6-4-1-2-2.8-3.3-4.7-3.3ZM182.3,92.1c-.3,1.2-.9,2.1-1.9,2.5-.5.2-1,.3-1.5.3-1.7,0-3.4-1.2-4.3-3-1.2-2.4-.6-5.2,1.4-6.2.5-.2,1-.3,1.5-.3,1.7,0,3.4,1.2,4.3,3,.6,1.2.8,2.5.5,3.7Z"/>
      </g>
      <g>
        <path class="st4" d="M171.6,90.6c-2,1-2.6,3.7-1.4,6,1.2,2.3,3.7,3.4,5.6,2.4,2-1,2.6-3.7,1.4-6-1.2-2.3-3.7-3.4-5.6-2.4Z"/>
        <path d="M173.1,90c-.6,0-1.1.1-1.6.4-2.1,1-2.8,3.8-1.5,6.3.9,1.8,2.6,2.9,4.3,2.9h0c.6,0,1.1-.1,1.6-.4,2.1-1,2.8-3.8,1.5-6.3-.9-1.8-2.6-2.9-4.3-2.9ZM175.7,98.8c-.4.2-.9.3-1.4.3-1.6,0-3.1-1-3.9-2.7-1.1-2.2-.5-4.8,1.3-5.7.4-.2.9-.3,1.4-.3,1.6,0,3.1,1,3.9,2.7,1.1,2.2.5,4.8-1.3,5.7Z"/>
      </g>
      <g>
        <path class="st4" d="M165.7,94.7c-1.8.9-2.5,3.2-1.6,5.1,1,1.9,3.2,2.7,5.1,1.8,1.8-.9,2.5-3.2,1.6-5.1-1-1.9-3.2-2.7-5.1-1.8Z"/>
        <path d="M167.3,94.1c-.6,0-1.2.1-1.7.4-1.9,1-2.7,3.4-1.7,5.4.7,1.4,2.1,2.3,3.7,2.3.6,0,1.2-.1,1.7-.4.9-.5,1.6-1.3,1.9-2.3.3-1,.2-2.1-.3-3.1-.7-1.4-2.1-2.3-3.7-2.3ZM170.8,99.4c-.3.9-.9,1.6-1.7,2.1-.5.2-1,.4-1.5.4-1.4,0-2.6-.8-3.3-2.1-.9-1.8-.2-4,1.5-4.8.5-.2,1-.4,1.5-.4,1.4,0,2.6.8,3.3,2.1.4.9.5,1.9.2,2.8Z"/>
      </g>
    </g>
  </g>
  <g>
    <path class="st7" d="M48.5,394.4c0,.7.6,1.2,1.2,1.2h6.5c.7,0,1.2-.6,1.2-1.2v-130.8h-9v130.8Z"/>
    <path class="st7" d="M299.1,394.4c0,.7.6,1.2,1.2,1.2h6.5c.7,0,1.2-.6,1.2-1.2v-130.8h-9v130.8Z"/>
    <g>
      <rect class="st4" x="91.5" y="346.6" width="250.6" height="7"/>
      <path d="M342.1,346.3H91.5c-.1,0-.2.1-.2.2v7c0,.1.1.2.2.2h250.6c.1,0,.2-.1.2-.2v-7c0-.1-.1-.2-.2-.2ZM341.9,353.4H91.8v-6.6h250.2v6.6Z"/>
    </g>
    <rect class="st7" x="50.3" y="346.6" width="41.2" height="7"/>
    <g>
      <path class="st4" d="M333.2,394.4c0,.7.6,1.2,1.2,1.2h6.5c.7,0,1.2-.6,1.2-1.2v-130.8h-9v130.8Z"/>
      <path d="M342.1,263.4h-9c-.1,0-.2.1-.2.2v130.8c0,.8.7,1.5,1.5,1.5h6.5c.8,0,1.5-.7,1.5-1.5v-130.8c0-.1-.1-.2-.2-.2ZM341.9,394.4c0,.6-.5,1-1,1h-6.5c-.6,0-1-.5-1-1v-130.6h8.5v130.6Z"/>
    </g>
    <g>
      <rect class="st4" x="100.7" y="261.1" width="254" height="12.7"/>
      <path d="M354.7,260.8H100.7c-.1,0-.2.1-.2.2v12.7c0,.1.1.2.2.2h254c.1,0,.2-.1.2-.2v-12.7c0-.1-.1-.2-.2-.2ZM354.4,273.5H100.9v-12.3h253.5v12.3Z"/>
    </g>
    <g>
      <path class="st4" d="M82.6,393.2c0,1.3,1.1,2.4,2.4,2.4h4.1c1.3,0,2.4-1.1,2.4-2.4v-129.6h-9v129.6Z"/>
      <path d="M91.5,263.4h-9c-.1,0-.2.1-.2.2v129.6c0,1.5,1.2,2.7,2.7,2.7h4.1c1.5,0,2.7-1.2,2.7-2.7v-129.6c0-.1-.1-.2-.2-.2ZM91.3,393.2c0,1.2-1,2.2-2.2,2.2h-4.1c-1.2,0-2.2-1-2.2-2.2v-129.4h8.5v129.4Z"/>
    </g>
    <rect class="st7" x="31.5" y="261.1" width="69.1" height="12.7"/>
  </g>
  <path class="st7" d="M233.2,346.3h37.6c2.6-1.6,5-3.4,7.1-5.6,6.5-6.5,10.6-15.4,10.7-25.3h-73.3c.2,13.1,7.3,24.6,17.9,30.9Z"/>
  <g>
    <g>
      <path class="st4" d="M127,329.6c-2.6,0-4.7,3.7-4.7,7.1s2.1,5.4,4.7,5.4,4.7-1.9,4.7-5.4-2.1-7.1-4.7-7.1Z"/>
      <path d="M127,329.3c-2.8,0-5,3.9-5,7.3s2,5.6,5,5.6,5-2.3,5-5.6-2.1-7.3-5-7.3ZM127,341.8c-2.7,0-4.5-2.1-4.5-5.2s2-6.9,4.5-6.9,4.5,3.7,4.5,6.9-1.8,5.2-4.5,5.2Z"/>
    </g>
    <g>
      <path class="st4" d="M137.5,329.6c-2.6,0-4.7,3.7-4.7,7.1s2.1,5.4,4.7,5.4,4.7-1.9,4.7-5.4-2.1-7.1-4.7-7.1Z"/>
      <path d="M137.5,329.3c-2.8,0-5,3.9-5,7.3s2,5.6,5,5.6,5-2.3,5-5.6-2.1-7.3-5-7.3ZM137.5,341.8c-2.7,0-4.5-2.1-4.5-5.2s2-6.9,4.5-6.9,4.5,3.7,4.5,6.9-1.8,5.2-4.5,5.2Z"/>
    </g>
    <g>
      <path class="st4" d="M148.2,329.6c-2.6,0-4.7,3.7-4.7,7.1s2.1,5.4,4.7,5.4,4.7-1.9,4.7-5.4-2.1-7.1-4.7-7.1Z"/>
      <path d="M148.2,329.3c-2.8,0-5,3.9-5,7.3s2,5.6,5,5.6,5-2.3,5-5.6-2.1-7.3-5-7.3ZM148.2,341.8c-2.7,0-4.5-2.1-4.5-5.2s2-6.9,4.5-6.9,4.5,3.7,4.5,6.9-1.8,5.2-4.5,5.2Z"/>
    </g>
    <g>
      <path class="st7" d="M129.7,343.6h-5.5c-.4,0-.7.3-.6.6l.6,2.3c0,.2.3.4.6.4h4.2c.3,0,.5-.2.6-.4l.6-2.3c0-.3-.2-.6-.6-.6Z"/>
      <path class="st7" d="M123.1,338.8h50.1c.8,0,1.4.6,1.4,1.4v3.8c0,.8-.6,1.4-1.4,1.4h-50.1c-.8,0-1.4-.6-1.4-1.4v-3.8c0-.8.6-1.4,1.4-1.4Z"/>
      <path class="st7" d="M120.6,337.6h55.1c.3,0,.6.3.6.6v1.4c0,.3-.3.6-.6.6h-55.1c-.3,0-.6-.3-.6-.6v-1.4c0-.3.3-.6.6-.6Z"/>
      <g>
        <path class="st4" d="M131.8,343.6h-5.5c-.4,0-.7.3-.6.6l.6,2.3c0,.2.3.4.6.4h4.2c.3,0,.5-.2.6-.4l.6-2.3c0-.3-.2-.6-.6-.6Z"/>
        <path d="M131.8,343.4h-5.5c-.3,0-.6.1-.7.3-.1.2-.2.4-.1.6l.6,2.3c0,.3.4.6.8.6h4.2c.4,0,.7-.2.8-.6l.6-2.3c0-.2,0-.4-.1-.6-.2-.2-.4-.3-.7-.3ZM132.2,344.2l-.6,2.3c0,.1-.2.2-.4.2h-4.2c-.2,0-.4,0-.4-.2l-.6-2.3c0,0,0-.1,0-.2,0,0,.2-.2.4-.2h5.5c.1,0,.3,0,.4.2,0,0,0,.1,0,.2Z"/>
      </g>
      <path class="st7" d="M142.3,343.6h-5.5c-.4,0-.7.3-.6.6l.6,2.3c0,.2.3.4.6.4h4.2c.3,0,.5-.2.6-.4l.6-2.3c0-.3-.2-.6-.6-.6Z"/>
      <path class="st7" d="M152.8,343.6h-5.5c-.4,0-.7.3-.6.6l.6,2.3c0,.2.3.4.6.4h4.2c.3,0,.5-.2.6-.4l.6-2.3c0-.3-.2-.6-.6-.6Z"/>
      <path class="st7" d="M163.3,343.6h-5.5c-.4,0-.7.3-.6.6l.6,2.3c0,.2.3.4.6.4h4.2c.3,0,.5-.2.6-.4l.6-2.3c0-.3-.2-.6-.6-.6Z"/>
      <path class="st7" d="M173.8,343.6h-5.5c-.4,0-.7.3-.6.6l.6,2.3c0,.2.3.4.6.4h4.2c.3,0,.5-.2.6-.4l.6-2.3c0-.3-.2-.6-.6-.6Z"/>
      <g>
        <path class="st4" d="M125.2,338.8h50.1c.8,0,1.4.6,1.4,1.4v3.8c0,.8-.6,1.4-1.4,1.4h-50.1c-.8,0-1.4-.6-1.4-1.4v-3.8c0-.8.6-1.4,1.4-1.4Z"/>
        <path d="M175.3,338.6h-50.1c-.9,0-1.6.7-1.6,1.6v3.8c0,.9.7,1.6,1.6,1.6h50.1c.9,0,1.6-.7,1.6-1.6v-3.8c0-.9-.7-1.6-1.6-1.6ZM176.5,344c0,.6-.5,1.1-1.1,1.1h-50.1c-.6,0-1.1-.5-1.1-1.1v-3.8c0-.6.5-1.1,1.1-1.1h50.1c.6,0,1.1.5,1.1,1.1v3.8Z"/>
      </g>
      <g>
        <rect class="st4" x="122.1" y="337.6" width="56.3" height="2.6" rx=".6" ry=".6"/>
        <path d="M177.8,337.4h-55.1c-.5,0-.8.4-.8.8v1.4c0,.5.4.8.8.8h55.1c.5,0,.8-.4.8-.8v-1.4c0-.5-.4-.8-.8-.8ZM178.2,339.6c0,.2-.2.4-.4.4h-55.1c-.2,0-.4-.2-.4-.4v-1.4c0-.2.2-.4.4-.4h55.1c.2,0,.4.2.4.4v1.4Z"/>
      </g>
    </g>
    <g>
      <path class="st4" d="M134.3,329.6c-2.6,0-4.7,3.7-4.7,7.1s2.1,5.4,4.7,5.4,4.7-1.9,4.7-5.4-2.1-7.1-4.7-7.1Z"/>
      <path d="M134.3,329.3c-2.8,0-5,3.9-5,7.3s2,5.6,5,5.6,5-2.3,5-5.6-2.1-7.3-5-7.3ZM134.3,341.8c-2.7,0-4.5-2.1-4.5-5.2s2-6.9,4.5-6.9,4.5,3.7,4.5,6.9-1.8,5.2-4.5,5.2Z"/>
    </g>
    <g>
      <path class="st4" d="M144.8,329.6c-2.6,0-4.7,3.7-4.7,7.1s2.1,5.4,4.7,5.4,4.7-1.9,4.7-5.4-2.1-7.1-4.7-7.1Z"/>
      <path d="M144.8,329.3c-2.8,0-5,3.9-5,7.3s2,5.6,5,5.6,5-2.3,5-5.6-2.1-7.3-5-7.3ZM144.8,341.8c-2.7,0-4.5-2.1-4.5-5.2s2-6.9,4.5-6.9,4.5,3.7,4.5,6.9-1.8,5.2-4.5,5.2Z"/>
    </g>
    <g>
      <path class="st4" d="M155.5,329.6c-2.6,0-4.7,3.7-4.7,7.1s2.1,5.4,4.7,5.4,4.7-1.9,4.7-5.4-2.1-7.1-4.7-7.1Z"/>
      <path d="M155.5,329.3c-2.8,0-5,3.9-5,7.3s2,5.6,5,5.6,5-2.3,5-5.6-2.1-7.3-5-7.3ZM155.5,341.8c-2.7,0-4.5-2.1-4.5-5.2s2-6.9,4.5-6.9,4.5,3.7,4.5,6.9-1.8,5.2-4.5,5.2Z"/>
    </g>
    <g>
      <path class="st4" d="M166.1,329.6c-2.6,0-4.7,3.7-4.7,7.1s2.1,5.4,4.7,5.4,4.7-1.9,4.7-5.4-2.1-7.1-4.7-7.1Z"/>
      <path d="M166.1,329.3c-2.8,0-5,3.9-5,7.3s2,5.6,5,5.6,5-2.3,5-5.6-2.1-7.3-5-7.3ZM166.1,341.8c-2.7,0-4.5-2.1-4.5-5.2s2-6.9,4.5-6.9,4.5,3.7,4.5,6.9-1.8,5.2-4.5,5.2Z"/>
    </g>
    <g>
      <path class="st7" d="M135,343.6h-5.5c-.4,0-.7.3-.6.6l.6,2.3c0,.2.3.4.6.4h4.2c.3,0,.5-.2.6-.4l.6-2.3c0-.3-.2-.6-.6-.6Z"/>
      <path class="st7" d="M128.4,338.8h50.1c.8,0,1.4.6,1.4,1.4v3.8c0,.8-.6,1.4-1.4,1.4h-50.1c-.8,0-1.4-.6-1.4-1.4v-3.8c0-.8.6-1.4,1.4-1.4Z"/>
      <path class="st7" d="M125.9,337.6h55.1c.3,0,.6.3.6.6v1.4c0,.3-.3.6-.6.6h-55.1c-.3,0-.6-.3-.6-.6v-1.4c0-.3.3-.6.6-.6Z"/>
      <path class="st5" d="M137,343.6h-5.5c-.4,0-.7.3-.6.6l.6,2.3c0,.2.3.4.6.4h4.2c.3,0,.5-.2.6-.4l.6-2.3c0-.3-.2-.6-.6-.6Z"/>
      <path class="st5" d="M147.5,343.6h-5.5c-.4,0-.7.3-.6.6l.6,2.3c0,.2.3.4.6.4h4.2c.3,0,.5-.2.6-.4l.6-2.3c0-.3-.2-.6-.6-.6Z"/>
      <path class="st5" d="M158,343.6h-5.5c-.4,0-.7.3-.6.6l.6,2.3c0,.2.3.4.6.4h4.2c.3,0,.5-.2.6-.4l.6-2.3c0-.3-.2-.6-.6-.6Z"/>
      <path class="st5" d="M168.5,343.6h-5.5c-.4,0-.7.3-.6.6l.6,2.3c0,.2.3.4.6.4h4.2c.3,0,.5-.2.6-.4l.6-2.3c0-.3-.2-.6-.6-.6Z"/>
      <path class="st5" d="M179,343.6h-5.5c-.4,0-.7.3-.6.6l.6,2.3c0,.2.3.4.6.4h4.2c.3,0,.5-.2.6-.4l.6-2.3c0-.3-.2-.6-.6-.6Z"/>
      <path class="st5" d="M130.4,338.8h50.1c.8,0,1.4.6,1.4,1.4v3.8c0,.8-.6,1.4-1.4,1.4h-50.1c-.8,0-1.4-.6-1.4-1.4v-3.8c0-.8.6-1.4,1.4-1.4Z"/>
      <path class="st5" d="M127.9,337.6h55.1c.3,0,.6.3.6.6v1.4c0,.3-.3.6-.6.6h-55.1c-.3,0-.6-.3-.6-.6v-1.4c0-.3.3-.6.6-.6Z"/>
    </g>
  </g>
</svg>