<?xml version="1.0" encoding="utf-8"?>
<!-- Generator: Adobe Illustrator 28.2.0, SVG Export Plug-In . SVG Version: 6.00 Build 0)  -->
<svg version="1.1" id="Layer_1" xmlns="http://www.w3.org/2000/svg" xmlns:xlink="http://www.w3.org/1999/xlink" x="0px" y="0px"
	 viewBox="0 0 496.1 269.3" style="enable-background:new 0 0 496.1 269.3;" xml:space="preserve">
<style type="text/css">
	.st0{fill:#FFFFFF;}
</style>
<g>
	<g>
		<path class="st0" d="M108.8,180.2l2.4,2h-8.9l2.4-2v-19l-2.4-2h8.9l-2.4,2V180.2z M126.2,182.1v0.2c-7.1,0.7-9.3-1.5-15.6-11.9
			l9-8.9l-3.2-2.3h8.2l-9.8,9.8C119.4,176.4,121.4,180.3,126.2,182.1z"/>
		<path class="st0" d="M137.1,182.1h-8.6l2.4-2v-10.1l-2.1-1.8l6-2.6v14.5L137.1,182.1z M130.3,160.6c0-1.3,1.1-2.4,2.4-2.4
			c1.3,0,2.4,1.1,2.4,2.4c0,1.3-1.1,2.4-2.4,2.4C131.4,163,130.3,161.9,130.3,160.6z"/>
		<path class="st0" d="M153.5,180.2v-8.4c0-2.6-1.2-3.3-3-3.3c-1,0-2.4,0.3-4,1.4v10.3l2.4,2h-8.6l2.4-2v-10.1l-2.1-1.8l6-2.6
			l-0.5,2.9l0.2,0.2c1.6-1.6,3.5-3,6.5-3c2.3,0,4.7,1.1,4.7,4.7v9.7l2.4,2h-8.6L153.5,180.2z"/>
		<path class="st0" d="M180.7,168.7l-3.9-1.3c1,0.9,1.8,2.1,1.8,3.7c0,3.5-3.5,5.3-6.8,5.3c-1.1,0-2.3-0.2-3.3-0.6
			c-0.9,0.7-1.2,1.4-1.2,2.1c0,0.8,0.5,1.3,1.4,1.3h9.2c1.7,0.9,2.9,2.5,2.9,4.6c0,3.4-3.2,6.4-9.7,6.4c-4.8,0-7.2-1.6-7.2-4.1
			c0-1.3,0.7-2.6,2.5-3.6c-1.2-0.8-1.8-2-1.8-3.3c0-1.8,1-3.1,2.7-4.1c-1.3-0.9-2.3-2.3-2.3-4.1c0-3.6,3.5-5.4,6.8-5.4
			c1.1,0,2.1,0.2,3.1,0.6l5.8-0.4V168.7z M168.1,182.8c-0.6,0.7-1.1,1.6-1.1,2.8c0,2.1,1.6,3.4,4.6,3.4c3.6,0,5.1-1.6,5.1-3.7
			c0-1.5-0.8-2.5-2.5-2.5H168.1z M174.7,171.5c0-2.4-1.3-4.4-3.2-4.4c-1.7,0-2.7,1.7-2.7,3.7c0,2.5,1.3,4.5,3.2,4.5
			C173.8,175.2,174.7,173.5,174.7,171.5z"/>
		<path class="st0" d="M197.4,177.3c0,3.1-2.8,5.2-6.3,5.2c-1.4,0-2.8-0.3-3.9-0.8l-2.1,0.9v-5.9l2.9,3.8c0.9,0.4,1.7,0.6,2.5,0.6
			c1.9,0,3-1.2,3-2.4c0-3.7-8.4-2.6-8.4-8c0-3.3,3.2-4.9,6.4-4.9c1.2,0,2.4,0.3,3.4,0.7l1.8-0.7v5.7l-3.1-4
			c-0.5-0.2-1.1-0.3-1.6-0.3c-2.1,0-3.1,1.2-3.1,2.3C188.8,172.8,197.4,171.7,197.4,177.3z"/>
		<path class="st0" d="M233.3,182.1h-9.5l2.4-2l-2.6-6.2h-7.6l-2.6,6v0l3.6,2.1h-6.7l10.6-24.1h0.2l9.9,22.3L233.3,182.1z
			 M222.8,172.3l-3.1-7.2l-3.1,7.2H222.8z"/>
		<path class="st0" d="M242.3,170.8v9.2l3.6,2.1h-9.8l2.4-2v-10.1l-2.1-1.8l6-2.6l-0.7,4.2l0.2,0.1c1.1-2.6,3.6-4.6,6.8-3.8
			l-1.4,4.1C245.2,169.5,243.3,169.8,242.3,170.8z"/>
		<path class="st0" d="M281.3,182.1h-8.6l2.4-2v-8.4c0-2.6-0.9-3.3-2.6-3.3c-1,0-2.2,0.3-3.7,1.4v10.3l2.4,2h-8.6l2.4-2v-8.4
			c0-2.6-0.9-3.3-2.6-3.3c-1,0-2.2,0.3-3.7,1.4v10.3l2.4,2h-8.6l2.4-2v-10.1l-2.1-1.8l6-2.6l-0.5,2.9l0.2,0.2c1.4-1.6,3.4-3,6.2-3
			c1.9,0,3.5,0.7,4.1,2.9c1.4-1.5,3.4-2.9,6.1-2.9c2.3,0,4.4,1.1,4.4,4.7v9.7L281.3,182.1z"/>
		<path class="st0" d="M298.3,177.3c0,3.1-2.8,5.2-6.3,5.2c-1.4,0-2.8-0.3-3.9-0.8l-2.1,0.9v-5.9l2.9,3.8c0.9,0.4,1.7,0.6,2.5,0.6
			c1.9,0,3-1.2,3-2.4c0-3.7-8.4-2.6-8.4-8c0-3.3,3.2-4.9,6.4-4.9c1.2,0,2.4,0.3,3.4,0.7l1.8-0.7v5.7l-3.1-4
			c-0.5-0.2-1.1-0.3-1.6-0.3c-2.1,0-3.1,1.2-3.1,2.3C289.8,172.8,298.3,171.7,298.3,177.3z"/>
		<path class="st0" d="M332.9,180.4l2.4,2h-8.9l2.4-2v-9.3h-12.3v9.3l2.4,2h-8.9l2.4-2v-19l-2.4-2h8.9l-2.4,2v8h12.3v-8l-2.4-2h8.9
			l-2.4,2V180.4z"/>
		<path class="st0" d="M337.6,174.3c0-5.3,4-8.4,8.5-8.4c4.5,0,8.5,3,8.5,8.4c0,5.3-4,8.3-8.5,8.3
			C341.6,182.7,337.6,179.6,337.6,174.3z M350.1,175c0-4.5-1.9-7.7-4.5-7.7c-2.7,0-3.7,2.9-3.7,6.3c0,4.5,2,7.7,4.6,7.7
			C349.3,181.3,350.1,178.4,350.1,175z"/>
		<path class="st0" d="M360.9,177.6v-9.2h-3.4l7.3-5.3v3.2h6.7l-1,2.1h-5.7v7.8c0,1.6,0.4,3.2,2.8,3.2c1.1,0,2.3-0.4,3.6-1.4
			l0.2,0.2c-0.8,3.1-2.9,4.5-5.3,4.5C362.8,182.7,360.9,180.4,360.9,177.6z"/>
		<path class="st0" d="M389.2,177.6l0.2,0.2c-1.2,3.6-3.8,4.9-6.5,4.9c-4.6,0-7.9-3.5-7.9-8.5c0-5.2,3.8-8.2,8.1-8.2
			c3.5,0,6.5,2,6.5,6.4h-10.9v0.6c0,4,1.9,6.5,5.5,6.5C385.5,179.4,387.3,179,389.2,177.6z M378.8,171.1h6.6c0-2.2-1.1-3.8-2.9-3.8
			C380.7,167.3,379.3,168.6,378.8,171.1z"/>
		<path class="st0" d="M401.6,182.3H393l2.4-2V161l-2.1-1.8l6-2.6v23.8L401.6,182.3z"/>
	</g>
	<g>
		<path class="st0" d="M285.3,69.5c0.2-1.3,0.3-2.8-0.4-5.4c-1.1-4.2-5.6-6.5-9.7-5.2c-0.6,0.2-1.3,0.5-2,1
			c-0.4,0.4-0.5,0.5-1.2,1.3c0,0-1.4,1.5-2.3,2.6c-0.9,1.1-2.4,1.4-3.5,0.6c-1-0.7-1.4-2.1-0.9-3.2c0.4-0.6,0.6-1,0.9-1.5
			c0.3-0.5,0.6-1,1.1-2c0.6-1,0.7-1.1,0.9-1.6c0.3-0.8,0.4-1.6,0.4-2.2c-0.1-4.3-5-7.8-8.4-7.8c-2.8,0-4.4,1.2-4.4,1.2
			c0.2-1,0.4-2.1,0.4-3.3c0-7.2-6.2-12.6-6.2-12.6s-6.2,5.3-6.2,12.6c0,1.2,0.1,2.3,0.4,3.2c-1.1-0.5-2.5-0.9-4.7-1
			c-4.3-0.1-7.8,3.3-8,7.6c0,1,0,1.4,0.4,2.2c0.2,0.5,0.3,0.6,0.9,1.6c0,0,0.9,1.6,1.8,3c0.8,1.4,0.6,2.7-0.5,3.6
			c-1,0.8-2.6,0.7-3.3-0.2c-0.7-0.8-0.8-0.9-1.2-1.3c-0.4-0.5-0.7-0.8-1.5-1.7c-0.8-0.9-0.8-1-1.2-1.3c-0.6-0.6-1.4-0.9-2-1
			c-4.1-1.2-8.5,1.1-9.7,5.2c-0.7,2.3-0.7,3.8-0.5,5c-0.8-0.5-1.7-0.9-2.8-1.3c-6.9-2.2-13.9,2-13.9,2s3.2,7.5,10,9.8
			c1,0.3,1.9,0.5,2.8,0.6c-0.8,0.9-1.6,2.1-2.2,4c-1.4,4.1,0.7,8.5,4.8,9.9c0.6,0.2,1.3,0.4,2.2,0.3c0.6-0.1,0.7-0.1,1.8-0.3
			c1.1-0.2,1.6-0.3,2.2-0.5l1.2-0.3c1.5-0.4,2.8,0.2,3.2,1.6c0.4,1.2-0.1,2.5-1.2,3.1l-3.4,1.5c-1.1,0.5-1.4,0.6-1.9,0.9
			c-0.7,0.4-1.2,1-1.6,1.5c-2.4,3.5-1.6,8.4,2,10.9c1.8,1.2,3.1,1.7,4.3,2c-0.7,0.7-1.4,1.4-2.1,2.3c-4.2,5.8-2.4,13.8-2.4,13.8
			s8.2-0.7,12.4-6.5c0.7-1,1.2-1.9,1.6-2.8c0.6,1.1,1.5,2.3,3.3,3.7c3.4,2.6,8.3,2,10.9-1.5c0.4-0.5,0.8-1.2,1-2
			c0.1-0.5,0.2-1.9,0.3-3l0.2-2.3c0.2-1.9,1.1-2.6,2.5-2.6c1.3,0,2.4,0.6,2.6,2.1c0.1,1.4,0.4,4,0.4,4c0.1,1.2,0.1,1.3,0.2,1.8
			c0.2,0.8,0.6,1.5,1,2c2.6,3.4,7.5,4.1,10.9,1.5c1.8-1.4,2.7-2.5,3.3-3.6c0.4,0.9,0.9,1.8,1.6,2.7c4.2,5.8,12.4,6.5,12.4,6.5
			s1.9-8-2.4-13.8c-0.7-0.9-1.4-1.7-2.1-2.3c1.2-0.2,2.6-0.7,4.4-2c3.5-2.4,4.4-7.3,2-10.9c-0.4-0.5-0.9-1.1-1.6-1.5
			c-0.5-0.3-0.6-0.3-1.6-0.8l-3.7-1.6c-1-0.5-1.6-1.9-1.2-3.1c0.5-1.3,1.7-1.9,3.2-1.6c1.5,0.3,3.4,0.8,3.4,0.8
			c1.1,0.2,1.2,0.3,1.8,0.3c0.8,0.1,1.6-0.1,2.2-0.3c4.1-1.4,6.2-5.9,4.8-9.9c-0.6-1.8-1.4-3-2.1-3.8c0.9-0.1,1.8-0.3,2.8-0.6
			c6.9-2.2,10-9.8,10-9.8s-7-4.2-13.9-2C287.3,68.4,286.3,68.9,285.3,69.5L285.3,69.5z M285.8,92.7c-0.6,0.2-1,0.4-1.8,0.3
			c-0.9-0.2-1.7-0.4-2-0.4c0,0-1.2-0.3-3-0.7c-1.7-0.4-3.7,0.7-4.4,2.5c-0.7,2,0.4,4.3,2.4,5c0.9,0.4,1,0.4,1.6,0.7
			c0.5,0.2,1.3,0.6,2,0.9c0.2,0.1,0.3,0.1,0.6,0.3c0.6,0.3,1,0.8,1.3,1.3c1.1,1.6,0.3,5-2.6,7.1c-3,2.2-7.9-0.6-11.5,2l-0.1,0.1
			c-3.6,2.6-2.5,8.1-5.5,10.3c-2.9,2.1-6.4,1.8-7.5,0.3c-0.4-0.5-0.7-1-0.8-1.7c0-0.3-0.1-0.4-0.1-0.6c-0.1-0.7-0.2-1.7-0.2-2.2
			c-0.1-0.7,0-0.7-0.1-1.7c-0.1-2.1-1.8-3.8-4-3.8c-1.9,0-3.5,1.5-3.8,3.4l-0.7,4.3c0,0.3,0,0.3-0.1,0.6c-0.1,0.6-0.5,1.2-0.8,1.7
			c-1.2,1.5-4.7,1.8-7.5-0.3c-3-2.2-1.9-7.7-5.5-10.3l-0.1-0.1c-3.6-2.6-8.5,0.1-11.5-2c-2.9-2.1-3.7-5.5-2.6-7.1
			c0.3-0.5,0.8-1,1.3-1.3c0.3-0.1,1-0.4,1.2-0.6l3-1.3c2-0.7,3.1-2.9,2.4-5c-0.6-1.8-2.5-2.9-4.4-2.5l-1.8,0.5
			c-0.5,0.1-1.4,0.3-2.1,0.4c-0.3,0.1-0.3,0.1-0.6,0.1c-0.6,0.1-1.3-0.1-1.8-0.3c-1.8-0.6-3.2-3.9-2.1-7.3c1.1-3.5,6.7-4.1,8.1-8.4
			l0-0.1c1.4-4.2-2.8-8-1.6-11.6c1.1-3.4,4.1-5.1,5.9-4.7c1,0.3,2.4,1.6,2.9,2.1c0.5,0.5,1.4,1.6,1.8,2.1c1.2,1.6,3.7,2,5.5,0.7
			c1.5-1.2,2-3.3,1.1-4.9l-1.2-2.4c-0.1-0.2-0.6-1.1-1.1-2.1c-0.3-0.6-0.3-1.2-0.3-1.8c0.1-1.9,2.7-4.2,6.3-4.2
			c3.7,0,6,5.1,10.5,5.1h0.1c4.5,0,6.8-5.1,10.5-5.1c3.6,0,6.2,2.3,6.3,4.2c0,0.6,0,1.3-0.3,1.8c-0.1,0.3-0.4,0.8-0.5,1
			c-0.4,0.6-0.6,1-0.8,1.4c-0.3,0.6-0.4,0.6-0.9,1.5c-1.2,1.8-0.8,4.2,1,5.4c1.6,1.1,3.7,0.8,5-0.5l2.1-2.3c0.2-0.2,0.9-1,1.1-1.2
			c0.4-0.4,1-0.8,1.7-0.9c1.9-0.2,4.8,1.3,5.9,4.7c1.1,3.5-3,7.3-1.6,11.6l0,0.1c1.4,4.2,7,4.9,8.1,8.4
			C288.9,88.9,287.6,92.1,285.8,92.7z"/>
		<g>
			<path class="st0" d="M273.8,81.6c-0.4-0.1-0.9-0.2-1.4-0.2c-0.4,0-0.4,0.1-1.1,0.2c0,0-1.3,0.2-2.2,0.5c-0.9,0.2-1.8-0.2-2.1-1
				c-0.3-0.8,0.1-1.6,0.8-2c0.4-0.2,0.7-0.3,1.1-0.5c0.4-0.2,0.7-0.3,1.3-0.6c0.7-0.3,0.8-0.3,1.1-0.5c0.5-0.3,0.8-0.7,1-1
				c1.6-2.3,1-5.4-1.3-7c-3.4-2.4-4.5-0.6-6.8-2.3c-2.3-1.7-0.9-3.2-4.3-5.8c-2.2-1.7-5.3-1.2-7.1,0.9c-0.4,0.5-0.5,0.7-0.6,1.3
				c-0.1,0.3-0.1,0.4-0.1,1.2c0,0-0.1,1.2-0.2,2.3c-0.1,1-0.7,1.7-1.6,1.7c-0.8,0-1.6-0.6-1.6-1.3c-0.1-0.7-0.1-0.7-0.1-1.1
				c0-0.4-0.1-0.7-0.1-1.5c-0.1-0.7-0.1-0.8-0.1-1.2c-0.1-0.5-0.4-1-0.6-1.3c-1.7-2.2-4.8-2.6-7.1-0.9c-3.3,2.5-2,4.1-4.3,5.8
				c-2.3,1.7-3.4-0.1-6.8,2.3c-2.3,1.6-2.9,4.7-1.3,7c0.2,0.3,0.6,0.7,1,1c0.3,0.2,0.4,0.2,1.1,0.5c0.7,0.3,1,0.4,1.3,0.6l0.7,0.3
				c0.9,0.4,1.4,1.2,1.1,2c-0.2,0.8-1,1.2-1.8,1.2l-2.4-0.5c-0.7-0.2-1-0.2-1.3-0.3c-0.5-0.1-1,0.1-1.4,0.2c-2.6,0.9-4,3.8-3.1,6.4
				c1.4,3.9,3.3,3.2,4.2,5.8c0.9,2.7-1.1,3.2,0,7.2c0.8,2.7,3.6,4.2,6.3,3.4c0.4-0.1,0.8-0.3,1.3-0.7c0.3-0.2,0.8-0.9,1.3-1.4l1-1.1
				c0.8-0.9,1.5-0.9,2.3-0.4c0.7,0.5,1,1.2,0.6,2c-0.5,0.8-1.3,2.3-1.3,2.3c-0.4,0.6-0.4,0.7-0.6,1c-0.2,0.5-0.3,1-0.2,1.4
				c0.1,2.8,2.4,5,5.1,4.9c4.2-0.1,4-2.2,6.8-2.2c2.8,0,2.7,2.1,6.8,2.2c2.8,0.1,5.1-2.1,5.2-4.9c0-0.4,0-0.9-0.2-1.4
				c-0.1-0.3-0.2-0.4-0.6-1l-1.3-2.3c-0.3-0.6-0.1-1.6,0.6-2c0.7-0.5,1.6-0.3,2.3,0.4c0.7,0.8,1.5,1.7,1.5,1.7
				c0.5,0.6,0.5,0.6,0.8,0.9c0.4,0.4,0.9,0.6,1.3,0.7c2.7,0.8,5.5-0.7,6.3-3.4c1.2-4-0.8-4.5,0.1-7.2c0.9-2.7,2.8-1.9,4.2-5.8
				C277.8,85.4,276.4,82.5,273.8,81.6z M274.3,87.3c-0.3,1-1.3,1.6-2.3,2.3c-1.2,0.8-2.4,1.6-2.9,3.1l0,0.1c-0.5,1.5,0,2.9,0.5,4.2
				c0.4,1.1,0.8,2.2,0.5,3.2c-0.7,2.2-2.5,3.1-3.5,2.9l-0.2,0c-0.3-0.1-0.5-0.1-0.8-0.4c-0.3-0.3-0.5-0.6-0.7-0.8l-0.2-0.2
				c0,0-0.5-0.6-1.3-1.5c-0.9-1-2.5-1.1-3.6-0.4c-0.6,0.4-1,1-1.1,1.8c-0.1,0.7,0,1.5,0.4,2c0.2,0.3,0.3,0.5,0.4,0.6
				c0.1,0.1,0.1,0.2,0.2,0.4c0.1,0.1,0.2,0.3,0.3,0.5c0.1,0.2,0.3,0.5,0.4,0.7c0.1,0.1,0.1,0.2,0.2,0.4c0.2,0.3,0.2,0.8,0.2,1.1
				c0,1-1.5,2.5-3.8,2.5h0c-1,0-1.9-0.7-2.9-1.5c-1.1-0.9-2.3-1.8-3.9-1.8h-0.1h0c-1.6,0-2.7,0.9-3.9,1.8c-1,0.8-1.8,1.5-2.9,1.5
				c0,0,0,0,0,0c-2.3,0-3.8-1.5-3.8-2.5c0-0.3,0-0.7,0.2-1.1c0.1-0.2,0.1-0.2,0.2-0.3l0-0.1c0.1-0.2,0.3-0.5,0.4-0.7
				c0.1-0.2,0.2-0.4,0.3-0.5c0.1-0.2,0.2-0.3,0.2-0.4c0.1-0.1,0.2-0.3,0.3-0.6c0.9-1.2,0.5-3-0.7-3.8c-1.1-0.8-2.6-0.6-3.5,0.4l-2,2
				c-0.1,0.1-0.1,0.1-0.3,0.3c-0.3,0.3-0.7,0.4-1,0.5c-1,0.3-2.8-0.7-3.5-2.9c-0.3-1,0.1-2.1,0.5-3.2c0.5-1.3,1-2.7,0.5-4.2l0-0.1
				c-0.5-1.5-1.7-2.3-2.9-3.1c-1-0.7-2-1.3-2.3-2.3c-0.6-2,0.1-4,1.2-4.4c0.3-0.1,0.7-0.2,1.1-0.2c0.2,0,0.5,0.1,0.7,0.1l2.1,0.5
				c1.5,0.4,3-0.4,3.4-1.8c0.4-1.3-0.2-2.7-1.5-3.3l-1.1-0.4c-0.1-0.1-0.3-0.2-0.6-0.3c-0.2-0.1-0.5-0.2-0.7-0.3
				c-0.2-0.1-0.2-0.1-0.4-0.2c-0.3-0.2-0.6-0.5-0.8-0.8c-0.6-0.8-0.2-2.9,1.6-4.2c0.8-0.6,2-0.6,3.2-0.5c1.4,0.1,2.9,0.1,4.2-0.8
				l0.1-0.1c1.3-0.9,1.7-2.4,2.1-3.7c0.3-1.2,0.6-2.3,1.5-2.9c1.8-1.3,3.9-1,4.5-0.2c0.3,0.4,0.5,1.4,0.6,2.1
				c0.1,0.5,0.1,1.3,0.1,1.7c0,0.7,0.3,1.4,0.8,1.9c0.5,0.5,1.2,0.8,2,0.8c1.4,0,2.5-1,2.7-2.4l0.3-1.7c0-0.1,0.1-0.6,0.2-1.2l0-0.3
				c0.1-0.4,0.3-0.7,0.5-1c0.6-0.8,2.7-1.1,4.5,0.2c0.8,0.6,1.2,1.7,1.5,2.9c0.4,1.4,0.8,2.8,2.1,3.7l0.1,0.1
				c1.3,0.9,2.8,0.9,4.2,0.8c1.2-0.1,2.4-0.1,3.2,0.5c1.8,1.3,2.2,3.4,1.6,4.2c-0.2,0.2-0.4,0.6-0.8,0.8c-0.1,0.1-0.3,0.2-0.5,0.2
				l-0.2,0.1c-0.2,0.1-0.4,0.2-0.6,0.3c-0.1,0.1-0.3,0.1-0.4,0.2c-0.2,0.1-0.3,0.1-0.4,0.2c-0.1,0.1-0.3,0.1-0.6,0.2
				c-1.4,0.5-2.2,2.1-1.7,3.5c0.5,1.3,1.8,2,3.1,1.8l2.3-0.5c0.3-0.1,0.6-0.1,0.7-0.1c0.4-0.1,0.7,0,1,0.2
				C274,83.4,275,85.1,274.3,87.3z"/>
		</g>
	</g>
	<g>
		<path class="st0" d="M181.8,212h1.7v3.1h3.2V212h1.7v7.8h-1.7v-3.1h-3.2v3.1h-1.7V212z"/>
		<path class="st0" d="M195.8,211.9h1.6l3.4,7.9h-1.8l-0.7-1.8h-3.3l-0.7,1.8h-1.8L195.8,211.9z M197.6,216.5l-1-2.5l-1,2.5H197.6z"
			/>
		<path class="st0" d="M204.7,212h1.9l2.1,3.3l2.1-3.3h1.9v7.8h-1.7v-5.1l-2.2,3.3h0l-2.2-3.3v5.1h-1.7V212z"/>
		<path class="st0" d="M217.2,212h3.2c1.9,0,3,1.1,3,2.7v0c0,1.8-1.4,2.8-3.2,2.8h-1.3v2.3h-1.7V212z M220.3,215.9
			c0.9,0,1.4-0.5,1.4-1.2v0c0-0.8-0.5-1.2-1.4-1.2h-1.3v2.4H220.3z"/>
		<path class="st0" d="M229.3,213.6h-2.4V212h6.5v1.6H231v6.2h-1.7V213.6z"/>
		<path class="st0" d="M236.8,215.9L236.8,215.9c0-2.2,1.8-4.1,4.2-4.1c2.4,0,4.1,1.8,4.1,4v0c0,2.2-1.8,4-4.2,4
			S236.8,218.1,236.8,215.9z M243.3,215.9L243.3,215.9c0-1.4-1-2.5-2.4-2.5s-2.3,1.1-2.3,2.4v0c0,1.3,1,2.5,2.4,2.5
			C242.4,218.3,243.3,217.3,243.3,215.9z"/>
		<path class="st0" d="M249.5,212h1.6l3.7,4.8V212h1.7v7.8H255l-3.8-5v5h-1.7V212z"/>
		<path class="st0" d="M266.9,215.9L266.9,215.9c0-2.2,1.7-4.1,4.1-4.1c1.5,0,2.4,0.5,3.1,1.2l-1.1,1.3c-0.6-0.5-1.2-0.9-2-0.9
			c-1.3,0-2.3,1.1-2.3,2.4v0c0,1.3,0.9,2.5,2.3,2.5c0.9,0,1.4-0.4,2.1-0.9l1.1,1.1c-0.8,0.9-1.7,1.4-3.2,1.4
			C268.6,219.9,266.9,218.2,266.9,215.9z"/>
		<path class="st0" d="M277.7,215.9L277.7,215.9c0-2.2,1.8-4.1,4.2-4.1s4.1,1.8,4.1,4v0c0,2.2-1.8,4-4.2,4
			C279.5,219.9,277.7,218.1,277.7,215.9z M284.3,215.9L284.3,215.9c0-1.4-1-2.5-2.4-2.5c-1.4,0-2.3,1.1-2.3,2.4v0
			c0,1.3,1,2.5,2.4,2.5S284.3,217.3,284.3,215.9z"/>
		<path class="st0" d="M290.3,216.4V212h1.7v4.4c0,1.3,0.6,1.9,1.7,1.9c1.1,0,1.7-0.6,1.7-1.9V212h1.7v4.4c0,2.4-1.3,3.5-3.4,3.5
			S290.3,218.8,290.3,216.4z"/>
		<path class="st0" d="M301.6,212h3.6c1,0,1.8,0.3,2.3,0.8c0.4,0.4,0.7,1.1,0.7,1.8v0c0,1.3-0.7,2.1-1.7,2.4l1.9,2.8h-2l-1.7-2.5
			h-1.4v2.5h-1.7V212z M305.1,215.8c0.8,0,1.3-0.4,1.3-1.1v0c0-0.7-0.5-1.1-1.4-1.1h-1.7v2.2H305.1z"/>
		<path class="st0" d="M314.3,213.6H312V212h6.5v1.6h-2.4v6.2h-1.7V213.6z"/>
	</g>
</g>
</svg>
