<?xml version="1.0" encoding="UTF-8"?>
<svg id="Layer_1" xmlns="http://www.w3.org/2000/svg" version="1.1" viewBox="0 0 400 400">
  <!-- Generator: Adobe Illustrator 29.0.0, SVG Export Plug-In . SVG Version: 2.1.0 Build 186)  -->
  <defs>
    <style>
      .st0 {
        fill-rule: evenodd;
      }

      .st0, .st1 {
        fill: #8e364c;
      }
    </style>
  </defs>
  <g>
    <path class="st0" d="M148.4,404.8c2.2-.4,2.5.3,4.3,1-1,.7.2,1.3-.4,2.9-3,.5-4.2-.8-3.9-3.9Z"/>
    <path class="st0" d="M234.1,396.1c.4-.6,1.1-.8,2-.7.2.4.4.8.3,1.5-1.1.9-1.5-.2-2.3-.8Z"/>
    <path class="st0" d="M186.5,382.3l.2-1.4c.8.2,2.5-.2,1.8,1.2-.9-.2-1.1.5-2,.2Z"/>
    <path class="st0" d="M143.7,372.5c.6-1,2.1.9,3.8.5,0,1.9-4,.5-3.8-.5Z"/>
    <path class="st0" d="M137.1,371.1c.1-.5,0-.9-.4-1,.7-1.3,2,.4,2.9.4-.5.7-1.6.5-2.5.7Z"/>
    <path class="st0" d="M136.3,369.6c-.8,1.3-2.4-.4-2.8-.8.8-1.3,2.1.6,2.8.8Z"/>
    <path class="st0" d="M172.5,372.7c-1.7.2-2-.8-2.8-1.3.3-.7.9-1.1,1.2-1.8,1.7.2,2.1,1.3,1.6,3.1Z"/>
    <path class="st0" d="M129.4,366.3c-1.1.8-3.5-1.1-5.8-.7.1-.8-.2-1.3-.8-1.6,2.2-2,3.6,2.2,6.5,2.3Z"/>
    <path class="st0" d="M314.1,389.6c.2-.9-.5-1.1-.2-2,1.7.4,1.4-2,2.3-2.6,1.3,1.3-.5,2.9.5,4-.5.7-1.6.5-2.5.7Z"/>
    <path class="st0" d="M119.6,362.6c.6-1.7,2.4-.4,2.9.4-1,1.3-1.9.3-2.9-.4Z"/>
    <path class="st0" d="M117.1,362.7l-1.4-.2c1.5-1.1-.4-1.5-.1-2.9,1.1,0,1.8.3,2.4.8-.9,1-1.1.8-.8,2.3Z"/>
    <path class="st0" d="M321.8,386.7c-1.5-.1-1.3-1.6-1.1-3.1,1.2.5.8,1.2,1.1,3.1Z"/>
    <path class="st0" d="M110.4,358c-1.1,1.4-2-1-3.3-.9.3-.4.7-.8.1-1,1-1.5,2.7-.2,3.8.5.2.7-2,.9-.7,1.4Z"/>
    <path class="st0" d="M338.2,384.8c-1.6-1,1.5-.6.8-2.3,1.3.7.4,2,2.3,1.3,0,2.8-2-.4-3.1,1.1Z"/>
    <path class="st0" d="M106.8,355.6c-1.2-1.8-1.8-1.5-4.6-2,.5-.5.8-1.2.8-2.3.9,1.9,4.3,1.9,4.9,4-.6-.1-.9,0-1,.4Z"/>
    <path class="st0" d="M315,379c-.8,0-1.1-1-1.4-.2-.4,0-.4-.2-.4-.5v-1c1.4,0,2.2.4,1.9,1.7Z"/>
    <path class="st0" d="M233.9,366.8l.3-2.4c.6.2.9,0,1-.4,1.5,0,1.1,1.5,2.2,1.7-.3.4-.6.7-.7,1.4-1.8-.2-1.4.4-2.9-.4Z"/>
    <path class="st0" d="M347.8,359.2c-1.9,1.4-3.4-1.1-5.2-1.2.9-1.3,1.7-.5,3.4,0,1.3-.6,1.9-2.1,3.2-2.5,3.1,1.9-2.5,2.9-1.4,3.7Z"/>
    <path class="st0" d="M288.9,345.9c-1.5,0-2.1-.7-1.7-2.2,1.7-.1,1.7,1,1.7,2.2Z"/>
    <path class="st0" d="M379.5,355.9c-1.2-2.3-.4-3.2-.4-4.9.8,1.1,2.2.5,3.4.4-1.1.9,1.1,1.7.5,3.5-1.2.3-1.5,1.8-3.5,1Z"/>
    <path class="st0" d="M42.8,308.9c-1,0-1.2-.5-1.9-.7.2-.8,1-1,2.1-.7l-.2,1.4Z"/>
    <path class="st0" d="M384.7,287.6l-2.4-.3c.4-1.1.7-2.4,2.2-2.2.3.6.5,1.4.2,2.5Z"/>
    <path class="st0" d="M370.9,188.1l-2.4-.3c-.6-1.7.3-1.8.5-3.9,2.3.6,2.9,2.1,1.9,4.2Z"/>
    <path class="st0" d="M215.8,42.3c1.2-1.7,3.2,1.2,4-1,4.9,1.4,12.9,3.1,19.1,3.4.1,1.3.7,2.4,1.6,3.1-3.7,2.1-12.3.8-16.5-.6-.9-.3-1.1.8-1.1.8-.5-.1-.7-1.4-1.3-1.6-1.9-.9-7.2-.4-5.8-4.2Z"/>
    <path class="st0" d="M173.5,380.6c-.3.7-.6-.3-1.4-.2,1.1-2-1.3-3.6,0-4.4,1.8.4-.5,3.4,1.4,4.6Z"/>
    <path class="st0" d="M255.6,369.5c-1.2-.4-2.2,2.3-3,.6.6-1.5,2.3,0,2.8-2.6.7.9,2.1-.2,3.9.5-.2-.6-3-1.4-2.8-.9.4-.8,1.8-3.7,5.3-3.2.5-3.8,9.3-5.7,14.4-6,.7-.1-.1-.6.2-1.5,6.6-.2,9.3-5.9,18-7,.6-1.9-1.3-1.9-.5-4,.8,1,.5,1.8,2.3,1.3-.4.5-1.2.4-1.1,1.3,2.1.3,1.7-2.7,3.7-2.5-.6-.3-1.2-.4-2.3-1.3-.3.7-.5.5-1.2,1.8-2.4-1.6,3.2-3.2.7-5.3,1.5,1.7,5.3-1.1,7.3,0,.7-1.3,2.4-1.4,2.8-3.1l1.9.2c1.3-2.7,5.2-1.8,6-5.1,13.7,1.7,7.4-13.8,18.7-16.2,1.2-1.4,3.4-1.6,5.2-2.3.4-2.2,1.9-2.8,2.9-4,.2-1.8-.4-1.4.4-2.9.9-.3,1.6-1,2.6-1.1,8.6-13.8,14.9-25.4,20.9-41.4-.3-.9.3-2.6-1.1-2.6.8-4.7.2-4.5,2-8.1.5.2.2,1,.8,1.1,4.2-7.4,5.5-16.9,6.6-25.1,1.2-9.2,1.3-21.5,1.7-32.5-1.1-2.3-1.2-5.3,0-7.3-1.9-5.5-1.5-12.1-4-18.6-1.8-.2-1.4.4-2.9-.4-.5-1.4-1.9-3.8-.3-5.4,1.4,0,1.6,1.1,2.2,1.7-.9-8-5.2-16.9-6.6-24.8-1-1.4-1.2.9-2.9.1,0-1.6.4-2.4,1.3-2.8-1.7-2.2-3.7-6.3-3.3-8.7-.5-.8-1.8-1-2.2-1.7-7.1-17.6-20-31.5-33.4-45.3l-3.9-.5c.4-1.6-2-1.1-2.7-1.8-10.2,5.4-17.7-6-24.1-10.4-2-4.8,1.4-6.7-1-11.4-10.6-5.3-20.2-13.6-33.7-16-3.3-.6-7.8-1.2-12-2-.5.3-.8.8-1.1,1.3-.6-.6-.8-1.4-1.2-2.1-27.6-5.2-58.2-5.6-79.9,1.6-5.8-.5-9,2.1-13.2,3.7l-2.4-.3c-27.9,10.7-54.2,26.3-71.7,48.6-6.1,3.3-8.9,10.9-14.2,15.3-.2,3.3-3.3,4.8-4.9,7.7-2.1,4-4.7,11.2-7.8,11.7-1.6,11.3-11.1,23.6-11.5,32.8.2,1.6-1.7.5-1.7,1.7-.5,4.1,0,9-2.1,12.9,0,5.8-1.3,11.3-2.6,16.8-.5,2,.4,6.3.2,9.8-.1,1.7-.7,3.1-.6,4.8.2,3.1.9,4.5.5,7.9s1.1,2.4,1,4c0,.6-1.1,1.4-1.1,1.3,0,.9,1.1.6,1.3,1.1.3.7-.4,2.1-.4,2.9.8,7.3,2.4,17.7,5.1,25.1-.4.9-1.3,2.3.6,3,3.8,17.6,10.4,33.7,20.4,47.6,1.4,5.6,6.1,8.6,8,13.7,4.8,3.7,6.8,9.5,12.1,12.8.5.7,0,.8-.2,1.4,4.6,3.6,8.7,8.4,12.6,12.3,2.2,2.1,7.4,3.8,7.4,6.8,1.5-1.1,1.9,1.1,3.8,1,0,1.8-1.6,1.3-3.1,1.1l.2-1.9c-1.3-.2-1.2,1.4-2.6,1.1-1.7-2.5-6-2.9-6.5-6.2-9.5-2.1-14.2-11.6-21.9-16.5-.6-1.7-.9-3.7-3.4-3.9-1.4-4-6.6-6.1-7.8-11.7-14.3-10.4-19.4-25.6-26-41.4.6-4.7-2.7-6.3-2-11,0-.6-.8-.5-1.4-.7.3-15.6-7.4-24-6.3-38.9,2.5-6.5,0-12.6,1.7-20.8-.1-.6-.5-1.1-1.3-1.1,3-11,2-27.8,8.1-40.5-1.2-5,5.2-9.2,2.1-12.5,3.5-3.6,7.2-9.9,6.6-13.8,4-2.4,4.7-7.4,5.9-11.5,5.7-5.8,9.1-17.5,14.4-25.1.2-.3-.7-.6-.9-.6,2.3-.2,1,.4,2.7-2.1,1.7-2.6,6.1-3.4,6.8-7.5,6.3-1.4,7.9-8.8,14-10.4l.2-1.9c8.5-8.4,22.4-8.5,22.8-26,2-2.6,4.5-4.6,6.3-7.5,4.8-4.4,13.2.9,19.1-.5l3.8.5c17.7-8.8,38.7-18.8,63.9-14.4,12.7-3.4,29.7,2.3,43.4,4.5,4,6.1,14.6,7.3,23.6,10.3,8.3,2.8,14.9,11.6,23.2,5.9,4.2.3,5.3,2.3,9.9,3.2,1.7,5.2,4.9,9.2,7,14.1,4,.4,4.5,3.5,8.3,4,.1,1.3,1.9,1.5,1.6,3.1,5.6,2.6,9,8.9,14.1,12,1.4.9,3.5.7,5.2,1.6,5.7,3,10.7,7.2,14.1,12-1.2,1,.8,1.9,0,3.9.7.9.8,2.3,1.6,3.1-.3.4-.6.7-.7,1.4,3.3,8.6,11.7,19.7,15.8,29.4.8,1.8.7,3.8,1.4,4.6.3.3,1.7-.1,1.9.2.3.5-1.5.4-1.5.3,0,.6,1.6,1.3,2.2,2.2.9,1.7.6,4.5,1.2,6,1.1,2.9,4,5.1,4.9,8,.9,3.3,0,7.8,2.4,11.5-.6,2.7.4,4.1,1.3,5.5-.4,3.4-.8,5.3.1,6.9-2-.5,1.3,2-1.3,2.3,0,.7,1.1,1.7,1,.1-.2,3.5,4.9,11.6.5,11.3-.7,1.4,1,1,1.8,1.2-.5,5.2,4.6,12.4-.4,14.6-.2,3,1.4,4.4,1.5,7.5,0,1.2-.6.6-1,.4-.4,4.8,2.5,8.4,2.3,13-.2,2.4-2.1,4.7-1.9,7.6.3,4.9,2.9,8,2.3,12.5-1.5,12.2-10.9,17.5-13.3,31.6-3.7,5.6-4.9,12.6-10.6,17.7-.7,3-.5,3.5-.4,6.8.8,19-19.2,20.2-24.4,34.1.9,0,.5-1.6,1.2-1.8,1.5,1.2-2.3,2.1-.9,3.3.5,0,.4-.5.6-.9-.9,2.6-.5,2.9-1.8,6.1.6,1.5,1.5.4,2.3,1.3-.7.5-.9,2.2-.4,2.9,1,0,.3-2.2,2.1-1.2-.9.9-.7,3.2-1.5,4.2.1,1.8,3.1,1.3,3.5,2.9-.2.6-1.3.2-2,.2-.4,1.1,3.1,2.2,2.9.4,1.4,1-1.9,1.6-.4,2.9,1.7-2.1.5-.4,3.4.4-2.9.6-1.4,3-2,4.6,3,.3,3.4-.5,6.4-.2-.2,1.3,2.5,5.7,2.2,5.7,1,.6-.7,2.4-1.7,2.2-.2-1.8-.9-1.4,0-3.4-1.5-1.1-2.4-1.6-2.6-2.8-.8,1.4-1.5,1.5-2.5.2.2,1.7,2.6,1.7,3,3.3-1.5,1.5-1.2,2.1-2.3,2.6-1.5,1.7-.2-2.4-2.2-1.7-2,1.9.9,3.3-.7,5.3-.5,0-.3-.6-.4-1h-1c.1-.7.9-.4,1.5-.4-.7-1.2-2.1-2-1-3.5-1.1-.3-1.2.7-2.5.2-.2-1.8,2-.4,3-.6.3-1.1.1-1.8-.7-2-.9,1.2-4.2.4-4.3,3.4.8,0,.8.6,1.4.7.3-2.2,2.2,1.3,2.2,1.8-.1,1.1-1.3-.3-.8-1.1-2.1.6-1.6.6-2.8-.8-1.4-.2,1.9,1.6-.2,1.9-1.6,1.2-.5-2.2-2.2-2.2-.9,1.4-2.9,2.1-2.5,4.6,1.3.2,1.2-1.4,2.6-1.1v1c-.3.4,0,.5.3.5-.3,1-1.2-.9-2,.2,2.1.2.8,2.6,2.2,1.8.8.6-1.7,1.9-1.4,3.7-1.1,0,0-1.7-.2-2.5-1.9-.3-1.9,2-3.2,2.5-1.4-.5-2.7-1.1-2.6-2.8,1.6-.4,1.1.9,1.8,1.2.2-2.7-2.2-1.7-4.5-3,.9.8,1.7,1.6,1,3.5-1.5-.6-3.6.9-3.1,1.1-.3,1.2-.7-.8-1.9-.2-.2-1.8,2.2-.1,2.2-1.7-1.7-1.6-3.9,2.1-2.9,4-2.3,0-1.9-2-3.6-2.4,1.9-1.6,1.2-2,.6-4.8l-4.3-.5c1.8,1.3-6.7,0-9,1.3-.6-.6-.4-1.7-1.2-2.1-1.4.3,1.3,1.3-.2,1.9-3.3-.5-3-2.1-5.7-1.7-1-1.2-1.4-3-4-3-.7.4-.8,1.5-1.7,1.7.9.7.7-.3.2,2-3.7-1.7-1-6.3,1-7.7-8-.2-14.4,7.4-22.3,9.9-.4.1-1-.3-1.4-.2-3.1,1.8-5.9,1.6-10.1,2.6-1.8,1.3-3.9,2-7,1.6-.5,0-.4.9-1.1.8-1.7-1.1-1.8-1.1-4.3-1,.6-1.1-1.3-3.1.8-2.8-.3-2.3-1.5.7-2.4-.8,1.4-2.2,2.1-3.3,4.3-2.9-.1-2.2,3.8-1.5,4-4.9,1.9,0,3.4-.4,4.2-1.9ZM267.7,362.3c0-2.3-2.4-.2-3.2-1.4,0,.7-.4,1-.7,1.4,1.2-.5,1.7,1.5,1.9.2-.9-1.1.7-.6,2-.2ZM341.8,367.7c.3,0,.6,0,.5-.4-1.1-.3-1.8-.1-2,.7.9.9,1.7,1.4,2.3.8-.5-.2-.7-.6-.8-1.1ZM296.6,373.2c-.1.8.2,1.3.8,1.6.2-.9-.4-1.1-.2-2-2.5.7-2.6-1.4-4.3-.5,1.9,1.5,2.7,3,3.8,1ZM319.6,377.6c-.3,0-.6-.1-.4-.5.4,0,.9.1,1-.4-1.7-1-4.2,1.4-3,.6,1.3-.5,1.8,1.7,2.4.3ZM328.9,373.4c0,.8-.3,1.5-.7,1.9.7.3,1.1.9,1.8,1.2,0-1.2-.7-2.1-1.1-3.1ZM333.3,369.1c-1,1.6,1.6.5,1.3,1.6-.4,0-.9-.1-1,.4.7,1.5,2.8-1.2,1.7-1.7-.3,1.2-.7-.8-1.9-.2ZM336.1,367c.7-.2,1.3-.6,1.6-1.3-1.5-.3-2.2.5-2.6,1.6.9.2,3,1.6,3.9.5-1.2-.5,1.9-1.4-.2-2-.3.8-1.8,2.8-2.6,1.1Z"/>
    <path class="st0" d="M338.9,379.6c-.9,0-.9-.6-.4-.5-.2-1.5-1.6,0-2.4-.3-.2-1-1.4-3.5-2.1-2.7-1.4-1.3,1.6-1.6,2.2-2.2,1,.3-.9,1.2.2,2,.7-.2,1.3-.6,2.1-.7,1.1.3-1,.9-1.1,1.3,1,.7,1.7,1.5,1.6,3.1Z"/>
  </g>
  <g>
    <path class="st0" d="M7.9,235c-1-.9-.2-1.8.7-2.8.5.7.9.4,1.4,0,1,1-1.1,2.8-2.1,2.8Z"/>
    <path class="st0" d="M149.8,373.4l-1.4-1.4c.7-.6.3-1.1,1-1.7.6.7,1.1.3,1.7,1-1,.7-.1,1.4-1.4,2.1Z"/>
    <path class="st0" d="M89.7,310.6c-1-.4,1.1-2.4-.3-1.7-.7-.9,1.3-1.7,1.7-1.7.4,1.1,0,2.3-1.4,3.4Z"/>
    <path class="st0" d="M136.3,348.2c-1-2.4,3.1-1.7,1,.3-.4-.5-.7-.5-1-.3Z"/>
    <path class="st0" d="M90.8,291.6c-.4-.9,0-2.4,1-2.4.4.9.4,2.4-1,2.4Z"/>
    <path class="st0" d="M73.5,267.4c-.5-.7-.2-1.4.7-2.1l1.4,1.4c-.7,1.2-1.4,0-2.1.7Z"/>
    <path class="st0" d="M169.5,340.6c-2.1,2.9-5.1,9.4-8.3,4.8.9-4.5,4.8-5.4,8.3-4.8Z"/>
    <path class="st0" d="M52.8,234.3c-.8-.9-.8-1.8,0-2.8.6,0,1.1.4,1.7,1-.6.6-1.1,1.1-1.7,1.7Z"/>
    <path class="st0" d="M81.4,262.2c-2.1-3-.5-5,2.4-7.2,1.7,2.3.8,7.1-2.4,7.2Z"/>
    <path class="st0" d="M101.5,260.2c-.7-.4-.3-.9-.7-1.4.6-.7,1.2-.3,1.7-1,1.1.9,0,2.5-1,2.4Z"/>
    <path class="st0" d="M31.7,162.8c.7-.7-.5-1.4.7-2.1.4.5.7.6,1,.4.3,1,1.1,2.1.3,3.1-.7-1-1.4-.1-2.1-1.4Z"/>
    <path class="st0" d="M34.5,156.6c-1.1-1-2.5-2.1-1-3.1,1.3.5,2.8,1.7,1,3.1Z"/>
    <path class="st0" d="M34.8,152.1c-1.4-1,.4-2.1-1-3.1,1-1,2.1,3,3.1,1,1.3,1.5-1.3.8-.7,2.1-.5.3-.9-.4-1.4,0Z"/>
    <path class="st0" d="M33.1,139.4c-1.8,0-.9-2.7-.3-3.8,1.9,0,.9,2,1.7,3.1-.3.4-2.2-.8-1.4.7Z"/>
    <path class="st0" d="M48.6,116.2c-2.4-2.4-1.7-4.8-5.2-7.3.1-3.3,3.2-3.5,4.5-5.9,1.5.8,3.9,4.6,3.8,6.6-.7,1.4-1.4-.2-2.1-.7-.5,1,.5,2.8-1.4,2.8.8,1.3,1.6.4,2.4,1.7-2.2.6-.6,1.4-2.1,2.8Z"/>
    <path class="st0" d="M51.1,98.6c-1-.7,1.8-1.4,0-2.1,1.7-1.4,3.1-2.1,2.1-4.2,2.9-4.2,4.9-5.9,8.3-9.7-.1-2.9,5.4-6.4,6.9-9,1.7,2.5,2.1,5.1,2.8,7.6-1.8,1.5-2.9,1.8-1,3.8-.8,1.4-1.6-.7-2.4.4-.3-.4.1-.7.3-1-.7-.6-1.4.9-2.1,0,1.5,1.5-.9,3,1,4.5-2.5.6-3.4,2.1-5.5,3.4-.6.7,1,1.4.7,2.1-1.5,1.7-5.1,1.3-3.8,4.5-2.4,2.1-4.8.1-7.3-.4Z"/>
    <path class="st0" d="M75.2,69.6c-1.3-.7,2.6-3,3.4-3.4-.9,1.7,1.9,3.4,2.4,5.2-.9,1.3-1.8,0-2.8.7.4-1-.2-2.1-.3-3.1-.9-.3-1.8-.6-2.8.7Z"/>
    <path class="st0" d="M82.8,68.9c.7-3-2.6-2.6-3.5-4.8,1.9.5,1.7-1.6,2.4-2.4.4.7.6,4.3,2.8,6.9-.6.3-1.2,0-1.7.3Z"/>
    <path class="st0" d="M86.3,65.5c0-.5-.2-.9-.7-1.4,1.7-.2,1.2-1.6,2.8-2.1,1.1,1.9-.2,3-2.1,3.5Z"/>
    <path class="st0" d="M83.8,60.3c1.7-.9.1-1.8,1.4-2.8.6,0,1.1-.1,1.7-.4.5,1.8-2.3,1.8-1,3.8-.7.2-1.4-.1-2.1-.7Z"/>
    <path class="st0" d="M94.2,60.3c.7-1.9-3.6-2.8-1.4-3.4-.9-.5-1.8-3-2.8-1.4-.6-4,6.1-4.8,7.2-7.2.7-1,1.4,1.8,2.1,0,.2,1.7-1.9,1.2-2.1,2.8-.5,0-.9-.2-1.4-.7-.6,1.5-.8,2.9-2.8,2.8,1,1.8,3.7,2.2,3.1,5.2-1.3.7-1.4.8-2.1,2.1Z"/>
    <path class="st0" d="M99.4,55.8c-1.7-.9-.1-1.8-1.4-2.8.5-.6,1.5-1.1,1-1.7,2-.8-.8,2.9,1.4,2.1.2.8-.1,1.6-1,2.4Z"/>
    <path class="st0" d="M97.3,35.1l-1-1c1.3-.9.4-1.7,1.7-1.7,1.2.9.4,1.8-.7,2.8Z"/>
    <path class="st0" d="M120.8,42c-1.3-1.4-2-2.8-1.4-4.1,1.3,1.8,2.5,1.6,3.8,3.1-.8.5-1.6-.4-2.4,1Z"/>
    <path class="st0" d="M120.1,37.2c-.9.6-2.1-1.6-2.1-2.1,1.3-.6,2.5-.4,3.8.3-.4.8-2.5.4-1.7,1.7Z"/>
    <path class="st0" d="M126,37.5c1.8-.8,1.8-1.3,0-2.1.5,0,1-.2.7-.7,2.6.6,3.4-2.2,6.2-2.1.4-.5-.6-1.5-1-1,0-.9.5-2.1,1.4-2.1.8,2.4,3.4,1.8,5.2,1,1,.7-1.8,1.4,0,2.1-2.4,2.4-6.3,3.4-7.6,2.1-1.4,1.4-2.9,3.7-4.8,2.8Z"/>
    <path class="st0" d="M156.7,27.5c-1.7-1.5-2.7-3-1.7-4.5,1,0,2.1,1.5,3.1,2.4-1.7,0-.1,1.2-1.4,2.1Z"/>
    <path class="st0" d="M216.4,18.2c-.8-.8-1.6-1.6-2.4-2.4,1.4-.5,2.8-.4,4.1.7.2-2,2.6-.6,3.8-1,1.8.8-.3,1.6,1,2.4-2.2-.3-4.4-1.1-6.5.4Z"/>
    <path class="st0" d="M225.4,17.5c1.2-1.7,3.3-.7,3.4.7-1.2,1-2.3-.1-3.4-.7Z"/>
    <path class="st0" d="M242.3,20.6c.1-.5.2-.9.7-1.4,1.7.9,3.5.5,5.2,1.7-1,.5-2.5,1.3-1.7,3.1-1.7-.7-1.5-3-4.2-3.4Z"/>
    <path class="st0" d="M252.3,25.8c-2.2,0-.4-2.7-2.4-3.8,1.8-.5,3.7-.4,5.5.7-1.1,1.3-4.1.8-3.1,3.1Z"/>
    <path class="st0" d="M263,28.9c-2.1,0-2.1-3-2.8-4.1,1.2-1.5,2.3,2.1,3.4-.7.5,1.6-2.7,3.2-.7,4.8Z"/>
    <path class="st0" d="M277.9,34.1c-2.3.3-.4-2.3-2.4-3.1,1.3-.3,2.5-.3,3.8.3-.9.9-2.2,1.8-1.4,2.8Z"/>
    <path class="st0" d="M137,363.4c2-1.4-.4.1-.3-2.4-1.5,1.1-3.2-1.5-3.8,1-2.4-2-6.2-2.4-8.3-4.1,0,0,.7-.7.7-.7-2.8-1.6-7.8-2.2-9-4.8-1.5.3-4.7-.4-4.1-2.8-.8-.8-.8,1.1,0,1.4-2.2-1.3-6.2-2.5-7.3-5.2-1.2,1.6-4.6-3.1-6.9-2.8-1.5-.9-1.1-1.8-1.4-2.8-8-4.7-17.5-13.4-22.8-20-8.6-7.5-16.5-15.6-23.8-25.2,0,0,.7-.6.7-.7-11.4-12.8-14.6-27.4-21.4-40-.2-.7,0-1.4.7-2.1-.5-.7-.9-.4-1.4,0-.4-3.3.8-6.7-3.1-10,.5-.5.9-.9,1.4-1.4-2.6-3.1-4.8-7.7-2.8-10.4-2.8-2.9-.7-4.7-2.8-6.9.3-.3.7.2,1,.4-3.4-5.1-.6-8.8-3.4-14.5.8-.2,1.6-1.1,2.4.3-.4-2.2-3.1-4-2.8-6.9.6-.3,1.2,0,1.7-.3-2.4-1.1-1.4-4.4-1-6.6.9,1.1,1.8.5,2.8.7-.5-1.8-1.3-2.6-2.4-3.1-.2.5-.3.9,0,1.4-1.2.4,0-2-1.4-2.8,2.4-.5-.7-1.1,2.1-2.8-.6-.7-1.2-.3-1.7-1,2.6-2.2,1.2,2.9,3.8,1.7,1.5-2-1.5-2.7-2.8-4.1.8-.5,1.6.4,2.4-1,.2-.5.3-.9,0-1.4-.6.3-1.4.6-2.8.7-.9-2.1.6-1.2-.7-2.8,2,.9,2-.7,3.8-1.7.5-1.4-1.8.4-2.4-1,1.5-.5,1.1-2.1,2.8-.7.5-1.2-1.8-.9-2.4-2.4,1.3-2.3,3.3-3.4.7-6.9,1.3-1.6.6,1.1,2.1.7.7-.8-1.3-1.6-1.7-2.4,1-.8,1.8-1.6.4-2.4,2.3,0,1.2,1.1,3.4,0,.7,2.4,1.4,4.8.4,7.3.9.9,2.2,1.8,1.4,2.8,1.6,0,3.2-.8,4.8.7-1.5.9-1.1,1.8-1.4,2.8.8,1.3,1.6-.3,2.4,1-.5,9.8-1,19.6-1.7,29.3,3.4,6.4,3.1,12.9,2.8,19.3,4.4,6.5,4.2,15.2,6.6,21.7,1.9,5.2,5.9,10,5.9,14.8,2.1,2.9,5.3,5.5,3.4,6.9,3.6,2.5,3.9,6.2,7.6,9.7,0,1.3-.8.9-1.7,1.7,1.8-.3,2.7.7,2.1,2.1,3.7,2,7.4,7.8,7.6,11,1,0,2.1,1.5,3.1,1-.9,3.7,8,4.7,6.5,10,.5.4.9-.3,1.4-.7,1.3,1.4,0,2.8.7,4.1,1.3.8.4-1.1,1.4-1.4,1.8.6,1.6,1.7,3.1,3.1,0,.9-.4.7-1,1,.9.9,1.8-.3,2.8.7,0,1.2-1.6,2.3-.7,3.5,1.1,0,1.1-1.6,3.1-1.7-.3,2,3.2,2.7,2.1,4.1.8.9,1.6.6,2.4.3,1.2,1-.3,3.8,2.1,2.8.4.6-.6,1.1-1,1.7,4.1,1,4.9,4,9,4.1-.2,1.2.8,2.3,1.4,3.5,1.3.8.4-1.1,1.4-1.4,2.5-.3,3.3,6.6,6.9,4.1,1.3,1.2,0,2.3.7,3.4,3.7.4,7.4,2.3,11.1,3.5,0,3.3,2.7,2.7,3.4,5.5,1.1-.3,2.3.3,3.5-.7,2,3,3.3,1.2,5.5,1.4.1.9,1,1.8.7,2.8,1.2.6-.3-1.6,1.4-2.1.6,3,7.4,1.6,8.3,5.5,1.5.6.9-.5,2.4-1,1.7,1.2,1.4,1.8,3.1,1,1.6,1-.9,2.1,1,3.1.6-.7,2.3-1.1,3.8-1.7.9,2.4,7.2,0,6.9,3.5,1.5-1,3-.8,4.5-.3.9.7-.6,1.4,0,2.1,3-.6,2.3,1,6.2,0-1.2,3.4,3.4,1.1.7,3.4,3,2.2,2.5-2.4,5.2-3.1.9.9,1.8,2.5,2.8.7,1.4,1,1.3,2.1,1.7,3.1,1.4-.6,2.8-.9,4.1,0,0-2,2-1.4,3.1-1.7,1.8,4.1,6.4,4.1,9.3,2.4,1.3.6,2.5.4,3.8,1,.9-1.7,1.8-.1,2.8-1.4,6,3.3,12,.4,17.9,3.4,1.2-1.8,2-1.5,2.1-3.4,3.3,0,8.6-4.3,10.4.7,1.6,1.3,3.2-.1,4.8,0,1-1.2,0-2.3.7-3.5,1.9,0,1.7-.2,3.5-1.4.3.5.7.5,1,.3.8,2.2-.3,2.7-1.7,4.5,1.3,0,2.5,0,3.8-.3.2-1.3-2.8-2.5-.4-3.8.7.9-.6,1.8.7,2.8,5.1-2.1,7.3-11.6,13.8-7.6,1,.5,2.1-1,3.1-1,.3.6,0,1.2.4,1.7-.2-2.5,3.7.4,3.4-1.4,1.4.7,2.8,1.5,4.2,1.4-2.8,4.2-10.2,7.5-15.9,9.7-1.6-2.2-3.2,0-4.8-1.4-.8.6,1.1.9,1.4.7-1.8,2.1-6.7,1.3-9.7,3.5-.9-.6-.7-1.2-1-1.7-1.3,2.3-2.5.9-3.8,1.7-.3-.6-.3-1.1.4-1.7-2.4-.1.4,2.6-2.1,2.8-1.1-1.3,1-.9.3-1.7-3.5,1.3-8.3,4.7-10.7,2.4-.8,1.3-.4.9-1.7,1.7l-1.4-1.4c-.6,0-1.4,1.4-2.8,2.1-.8-1.3-1.6-.4-2.4-1.7-9.1,5.7-20.8,0-31.1,1.4-1.6-1.7-5.1-1.4-6.2,0-1.6-.5-1.2-1.5-2.4-1.7-.7.6-.3,1.1-1,1.7.3-1.9-1.4-1.9-2.8-.7-.6-1.7-2.1-1.8-4.1-1.4-.3-.5.5-.9,0-1.4-.4-.2-.7,0-1-.3-.3.6-.3,1.1.3,1.7-3.2.6-4.2.6-7.2-.3-1.2-.7,0-1.4,0-2.1-1.5.5-.9-.8-2.4-1-1,.9,2.7,1.8.7,2.8,0-.8-.8-1.6-1.7-2.4,0,.5-.2,1-.7.7-.4.5.3,1,.7.7.5,1.3-1.8,0-2.4.4-.4-.9.6-.7,1-1-.5-.5-1-.9-.7-1.4-2.2.2-7.5,1.9-6.9-1.4-1.3-.8-.4,1.1-1.4,1.4-.9-1.9-1.8-.3-2.8-1.4.7-1.2,1.4,0,2.1-.7-2.8-.5-5.5.7-8.3-1.4.4-.2.7,0,1-.4-.9-1.3-2.1-.6-2.1-2.1-1.4.7.2,1.4.7,2.1-1.1,0-2.3-1-3.5-.7Z"/>
    <path class="st0" d="M26.9,151.1c2.1-1.5,3.3-3.2,2.1-5.5,1.2-1.3,1.5-2.4,2.1-4.8,4.7,3.6-2.7,10.1-1,14.9-2.8,2.2-.9,4.4-3.8,6.6-.9-1.5-2.7-1-1.7.3-2,.3-.8-2.3-1.7-3.1,1.9-1.4,6.9-3.9,4.1-8.3Z"/>
    <path class="st0" d="M324.1,315.8c.3-.5-.2-.5-.3-.3,1-2.6,1.4-5,4.5-5.9.7.5.3.9.7,1.4.1-.5.5-2.1,1.4-.7,1.2-2.9,4.2-5.8,6.9-6.9-.3-1.2.6-2.3,0-3.5,1.7-.7,3.7-1.6,3.1-3.8.8-.2,1.6-1.1,2.4.3-1.4-.9,1.6-3.7,0-3.4,3-1,2.3-5.7,5.2-7.3-1.7-2.6,4-3.1,2.1-6.2,4.2-7.7,10.3-18.7,13.1-24.2-.5-1.3,1.8-.9,2.4-1,.6-1-.9-.1-.7-1.4,2.8-3.1,5.5-2.8,8.3-2.8,1.3,1.8-1.2,3.7,0,5.5-1.6,1-1.6,2.4-2.8,1.4-.8,1.3,1.1.4,1.4,1.4-.8.1-1.6.9-2.4,1,.2,1.5.7,2.8-.7,4.1.8.5,1.6.1,2.4,1,0,.9-1.5,2.4-2.4,2.4-.3-.6-.3-1.2.3-1.7-1.8-.5-2,3.6-.4,3.1-1.5,1.4-3.9,5.1-4.1,7.6-1.5.8-1.1-.5-1.4-1.4-1,1.2.2,2.3.7,3.5-2.1.7-1.4,2.8-1.7,4.5-.7.3-1.4.3-2.1,0-1.4,1.3-.8,3.9-3.1,3.8-.8,1.3,1.1.4,1.4,1.4-3.2,1.9-3,3.7-5.9,3.8-1,1,.9,2.1-.3,3.1-.7-.5-.3-.9-.7-1.4,0,3.2-4.4,5.4-3.8,7.9-.9-1.9-5.1,6.7-9.7,6.9,0,1.2,1.2,1,2.1.7.3,2.4-4.6,3.9-5.5,4.8-1.7,1.7-2.4,6.5-6.2,6.9-.2.8-.6,1.6.4,2.4-3.1.3-3.5,3.5-6.6,3.8-2.3,6.9-11.4,11.3-15.5,16.2l-1-1c-3.1,3.4-6.4,5.6-10.4,8.3-2.8,1.8-6.1,1.5-8.3,2.8-2.9,1.6-4.1,3.3-6.9,1.4-.8.6,1.1.9,1.4.7-.2,1.4-2.9,0-3.5,1.4-.6-.8,1.4-1.6,1-2.4-3-.6-6,1.4-9-.7,1.5-1.6,1.8-2.9,4.5-4.5,1.5-.9,3.4,0,4.8-.7,2.4-1.2,5.7-6.7,9-6.2,7-5.7,16.1-11.7,23.5-16.6,0,.5.2.9.7,1.4.3-.6.3-1.1-.4-1.7,1.5-.5,3.2-1.3,3.8-3.1,1.4.9,2.8-.3,4.1.7.1-1.3-.2-3.3,1.7-2.4.8-.7-1.1-1.4-1.4-2.1,2.1-1.6,1-2.8,3.8-2.4Z"/>
    <path class="st0" d="M179.1,143.8c-1.5-1.8.4-3,2.1-3.5.7.7-.6,3.2.7,2.8.4.7-2,.9-2.8.7Z"/>
    <path class="st0" d="M111.1,41.3c-.2.8-.6,1.6.3,2.4,2.6-1.3-.8,2.7,1.4,2.8-2.3,1.2-4.6,4.9-6.9,2.1.5-1,1.7-2.1,1-3.1,1-.6,2.1.2,3.1-.4.4-.6-.6-1.1-1-1.7-1.5-.8-3,2.9-4.5.4,3.5-2.2,6.8-3.2,9-5.5,1.9-.3-1.4,3.4-2.4,3.1Z"/>
    <path class="st0" d="M233.3,18.5c2.6-1.6,5.3.6,7.9.3,1.5,1.5.2,3-.3,4.5-2.4-1.7.2-1.2-.7-2.8-1.4-1.1-2.8-.3-4.1-.7-.6-2.4-1.4-.5-2.8-1.4Z"/>
    <path class="st0" d="M257.5,25.4c-.4,1.6-.1-1.5-1.4-2.1.8-.2,1.6-.6,2.4.3.4,1.3-1.7.4-1,1.7Z"/>
    <path class="st0" d="M266.1,30.6c-.3-.5.2-.5.4-.4-.5-.6-1.5-2.3-1.7-3.8.9-.5,1.8-.1,2.8-1.4-.7,1.5,2.2,3.2,3.5,2.8,1.1,1.3-1,.9-.3,1.7-1.5.8-1.3-1.5-3.1-1-.9,1,1.8,2.1.3,3.1-.5-.3-.5-.7-.3-1-.5-.2-.9-.3-1.4,0Z"/>
    <path class="st0" d="M281.3,34.8c-.6.5-1.5-1.8-.3-2.4l1.4,1.4c-.5,0-1.5.4-1,1Z"/>
    <path class="st0" d="M35.2,133.1c-.9-3.7,2.7-8.9,2.1-13.1,1.5-.9,1.1-3.1,2.8-2.1,0-2.5,1.6-5.7,2.4-7.2,3.6,2,3.3,5.7,5.9,7.9-1.7-.1,0,1.8-1.7,1.7-1.5-.9-.8-1.8-2.1-2.8-.2,4.6-1.4,7.3-2.4,12.1-2.1,0-5.4,2.5-6.9,3.5Z"/>
    <path class="st0" d="M139.4,30.3c2.1-.9,2.7-4.1,5.2-2.4-.7-1.8,1.5-1.4,2.8-2.1.5.9.2,1.3-.7,1.4l1.4,1.4c.6-.6.6-1.2.3-1.7,2.1-.3,1,2.3,1.7,3.1-1,.4-2.1.4-3.1-1-.5,2.5-4.3,1.1-3.8,3.1-1.3.3-3.6-.2-3.8-1.7Z"/>
  </g>
  <path class="st0" d="M133.7,280.3c-.7-2.2-2.2-3.4-4.6-4.5.1-3.3-2-2-2.4-4.7-.3,0-.2.3-.3.5-.9.2-.2-.7,0-.8-.5-.4-.8-.1-1.9-.4.7-1.1-.8-1-1.2-1.7.9-.3.5-1-.5-1.1,1.7-.4-.3-1.4.2-2.9,1.9,1,2.4,3.2,4.3,4.2,0,.8.3,2.4,1.2,2.7.6.2.5-.7,1.1-.2,1.2.9,1.7,2.5,3.6,3.4,0,.7-.6,1.5-.4,2.1.5-1.2,1.8-1.5,3.2.7,2.4,1,4.3,2.6,6.5,4.1,2.1,1.5,4.4,2.5,6.5,3.8,1.4.9,4,3.1,6.2,4.1,2.1,1,4.6.9,6.3,2.7,1-.2,1.6.8,1.9-.2,4,3.4,9.1,3.1,13.9,4.2,1.9.5,3.8,1.2,5.8,1.4.5,0,.6-.4.6-1,.7.1.9.7,1,1.4,1.1-.4,3.4-1.2,3.2.2,1.5-.1,1.6,0,2.4-.7.1.2,1.6.9,2.1.1.3.3.5.7,1,.9,3.3-.7,7.8.4,11.8-1,9.3.5,22.8-4,31.1-7.7,3.2-1.4,5.6-2.4,7.2-4.4,2.2.1,2.6-1.8,4.6-1.9.2-.4.3-.3.6-1,16.1-9.7,29.9-26.5,36.9-46.8,5.1-14.7,7.9-34.1,4.1-50.7-.2-.9-.3-2.4-1.4-3-.2-4.4-2.5-11.2-5-15.2-.2-2.9-1.8-4.7-3.1-6.6-5.9-11.8-14.9-22.2-25.1-29.4-2-2.8-5.7-4.1-8.5-6.3-.7.3-1.1-.8-1.3,0-.1-1.3-2.4-1.1-1.8-1.7-.7-.2-.9-.4-1.3.2-.8-1.7-3.3-2.8-5.2-2.7-5.4-4-10-5.1-17-6.5-1,0-.6-1-1.6-.9-4.9.7-8.7-2.4-12.2-1.2-9-1.7-19,0-26.8,2-2.7,0-5.5,0-7.3,2-1.6-.6-3.6.2-5.1.8-3.9,1.5-7.7,4-11.2,5-3.1.9-6.6,3.1-9.3,4.8-3,1.8-5.6,4.2-8.6,5.7.5-.5,0-.3,0-1.1-6.1,3.8-10.7,9.3-15.2,14.9.1,1.6-.7,2.3-1,3.4-.5,0-.5.7-1.4.5-.8,1.8-1.5,3.7-3.2,4.6-.2.8.2,1,.2,1.6-1.8,1.1-1.7,3.3-3.5,4.9,0,3.8-3.5,6.9-3.6,11.5,0,2.3-.9,3.3-1.9,5.2-.5,1-.3,2.2-.7,3.2-.3.7-.9.7-1.1,1.3-.2.6.1,1.3-.1,1.9-.2.5-1,.9-1.2,1.5-1.2,4-1.1,7.8-2.2,11.9-1.7,1.3-1.8,3.1-3.7,3.8,0,.7.8.5,1.1,0,0,.9-1.5,2.7-1.8,3.4,0-10.3.6-18.8,3.2-24.6-.2-.3-.6-.3-.5-.8,1.9-5,3.3-9.2,5.8-13.3,2.4-8.6,6.8-13.6,9.9-21.1,11.8-13.8,24.6-26.5,42.9-33.2.4-.2.9-.3.9-1,5.2-.4,9.6-3,14.1-4.6,5.4-1.8,9.9-.8,16.6-1.8,6.6-.5,13.9-.1,19.7,0,.4.1,0,.2,0,.5,2.3,0,4.2.4,5.3,1.6,4.1.2,8.6,2.2,12.9,3.6,4.2,1.4,9,1.1,12.9,3.9,1.4,1,2.3,2.7,3.8,3.7,1.3.9,3.1,1.1,4.2,1.8,2,1.4,3.8,3.7,5.8,5.4,4,3.2,9.4,5.8,11.7,10.5.4,0,.9.9,1,.3.3,0,.3.8,0,.8,8.3,7,12.9,19.5,20.4,28.1-.2,2.6,1,3.5.2,5.3,3.7,13.4,7.6,28.7,5.3,45.4-2.5,18.1-9.5,33-17.2,46-.8,0-.5,1.3-1.6,1-6.8,11.2-17,18.7-27,26.3-.7-.3-.7.3-1.3.2-7.8,4.9-16.9,9.7-27,11.1-.4.2-.4.9-.9,1-6.5,1.4-13.4,2-19.6,2.7-9.8-.4-20.3-1.1-28.1-3.1-2.9-.8-5.3-2.6-8.2-2.3-1.8-1.8-5-2.5-7.8-3.9-.7-.4-1.8-.4-2.1-.7-.3-.2-1.1-1.4-2.6-1.2-4-2.1-7-5-11.4-6.7-.7-2.4-4.9-3-4.8-5.3-.7,0-.9.5-1.3,0Z"/>
  <g>
    <path class="st1" d="M70.7,149l-4.2-.2-1.3,1.9-2.8-1.3,5.1-11,2.8,1.3-.9,2.8,16.9,1.4h0c0-.1-12.5-11.1-12.5-11.1l-1.6,2.5-2.8-1.3,3.5-7.5,2.8,1.3-.6,2.2,19.2,17-1.8,3.8-17.2-1.3h0c0,.1,12.2,12.2,12.2,12.2l-1.8,3.8-25.7-3.1-1.2,1.8-2.8-1.3,5-10.8,2.8,1.3-.9,2.7,16.8,2.2h0c0-.1-9.3-9.3-9.3-9.3Z"/>
    <path class="st1" d="M86.5,110.3c5.5-6.3,12.4-6.3,19.1-.5,6.9,5.9,8.4,12.8,2.5,19.6-5.8,6.7-12.5,6.6-19.5.5-6.7-5.8-7.7-13.3-2.1-19.7ZM88.5,112.3c-3.4,3.9-.6,7.6,4.7,12.3,4.9,4.2,9.2,6.8,12.7,2.9,3.3-3.8.5-7.5-4.9-12.1-5.2-4.5-9.2-6.8-12.5-3Z"/>
    <path class="st1" d="M111.8,87.9l1.8,2.4-2.6,2.3,12.6,17.1,1.4-1.1c4-2.9,5.1-5.3,2.2-10.8l2.3-1.7,6,8.8-17.5,12.9-1.8-2.4,1.9-1.8-12.6-17.1-2.3,1.3-1.8-2.5,10.2-7.5Z"/>
    <path class="st1" d="M145.7,69.2l4.2,8.2-2.7,1.2c-3-4-5-4.2-9.2-2.3l-2.4,1.1,4,8.6.9-.4c2.4-1.1,2.8-2.6,1.9-5.8l2.1-1,5,10.8-2.2,1c-2.3-3.4-3.2-3.6-5.8-2.3l-.8.4,3.8,8.2,3.8-1.4,1.3,2.8-12.1,5.6-1.3-2.8,2.3-1.4-8.9-19.4-2.5.8-1.3-2.8,19.8-9.2Z"/>
    <path class="st1" d="M177.7,73.6c2.5,2.8,5.8,5.6,9,8.1.9-2.1,1.3-4.4,1.4-6.7h-3.2c0,.1-.3-2.5-.3-2.5l8.4-1.1.3,2.6-2.9.7c-.2,2.8-.7,5.7-1.9,8.2,1.5,1,2.8,1.5,3.9,1.3,1.4-.2,2-.9,1.8-3.9h2.2c.7,5.9-1.6,7.8-4.6,8.2-2.3.3-4.5-.3-6.5-1.3-1.9,1.6-4.4,2.7-7.6,3.1-4.8.6-10.2-1-10.8-6.3-.5-3.8,1.3-6.2,4.8-8.6-1.2-1.7-2-3.5-2.2-5.2-.6-4.8,2.8-8,7.9-8.7,4.5-.6,6.7,1.4,7,4,.5,3.6-2.2,5.5-6.5,8ZM183,86c-3.5-2.3-7.2-5.6-9.9-8.6-.7,1.1-.9,2.5-.7,4.2.5,4.2,3.4,6,7.2,5.5,1.3-.2,2.4-.5,3.4-1.1ZM176.6,72.3c2.9-2,3.9-4,3.6-6.1-.3-2.1-1.5-2.6-2.8-2.4-1.8.2-3,1.7-2.7,4.1.2,1.6.9,3.1,1.9,4.5Z"/>
    <path class="st1" d="M235.3,74.6l-2.9-.6c0-5.6-.9-6.5-4.8-7.2h-.2s-4,20.9-4,20.9l3.7,1-.6,3-14-2.7.6-3,3.8.4,4-20.9h-.2c-4-.8-5.4,0-7.3,4.9l-2.8-.5,2.2-9.3,23.8,4.6-1.4,9.4Z"/>
    <path class="st1" d="M244.7,71.7l-2.4-1.2,1.1-2.9,11.1,4.2-1.1,2.8-2.6-.7-7.5,19.9,2.4,1.2-1.1,2.8-11.1-4.2,1.1-2.8,2.6.7,7.5-19.9Z"/>
    <path class="st1" d="M270.6,80c5.9,3.5,9.3,7.4,6.2,12.8-3.5,5.9-9.5,5-15.5,1.4l-.9-.5-3.9,6.7,3.5,2.4-1.5,2.6-11.8-6.9,1.5-2.6,2.6,1.2,10.7-18.5-2.3-1.7,1.5-2.6,9.8,5.7ZM262.1,91l.8.5c3.3,1.9,5.7,1.4,7.6-1.8,2-3.5,1-5.3-2.2-7.1l-1-.6-5.2,9Z"/>
    <path class="st1" d="M295.4,98.1c5.1,4.6,7.6,9.2,3.4,13.8-4.6,5.1-10.3,2.9-15.5-1.8l-.7-.7-5.2,5.7,2.9,3-2,2.2-10.1-9.2,2-2.2,2.3,1.7,14.4-15.8-1.9-2.1,2-2.2,8.4,7.6ZM284.8,107l.7.6c2.8,2.5,5.3,2.6,7.8-.2,2.7-3,2.1-4.9-.6-7.4l-.9-.8-7,7.7Z"/>
    <path class="st1" d="M316.7,122.1l-2.5,1.8-2.3-2.6-17.2,12.5,1.1,1.5c2.9,4,5.3,5.1,10.8,2.3l1.7,2.3-8.9,6-12.8-17.6,2.5-1.8,1.8,2,17.2-12.5-1.3-2.3,2.5-1.8,7.4,10.3Z"/>
    <path class="st1" d="M335,156.3l-8,3.9-1.2-2.6c4-2.9,4-4.8,2-9.4l-.9-2-8.3,3.7.4.9c1.1,2.5,2.4,2.9,5.7,2.1l.9,2.1-10.8,4.8-1-2.2c3.4-2.2,3.7-3.3,2.5-5.9l-.3-.7-8.7,3.9.9,2c2.5,5.6,4.6,6.5,9.9,5.1l1.2,2.6-9.5,3.9-9.2-20.7,2.7-1.2,1.4,2.3,19.5-8.7-.8-2.5,2.8-1.2,8.9,19.9Z"/>
  </g>
  <g>
    <path class="st1" d="M162.4,261.6l-3.3,4.5-1.4-1.1c1.4-2.8.8-3.8-1.6-5.8l-1.1-.9-3.5,4.5.5.4c1.3,1,2.2.9,3.7-.5l1.1.9-4.6,5.8-1.2-.9c1.2-2.2,1.1-2.9-.3-4l-.4-.3-3.7,4.7,1.1.8c3,2.4,4.4,2.3,7,0l1.4,1.1-4.1,4.9-11.1-8.7,1.2-1.5,1.4.9,8.2-10.5-1.2-1.2,1.2-1.5,10.7,8.4Z"/>
    <path class="st1" d="M167.7,278.9c.8-1.6-.5-2.6-3.1-4.6-2.8-2.2-3.7-4.2-2.4-6.9,1.2-2.7,4.1-4,7.5-2.4,1.9.9,2.4,2.1,2.9,2.4.3.1.5,0,.9-.3l1.3.6-2.1,4.9-1.7-.8c.4-2.4,0-4-2.1-4.9-1.4-.6-2.8-.6-3.4.8-.7,1.5.5,2.5,2.1,3.8,2.7,2.2,4.8,4.1,3.1,7.7-1.4,3-4.6,4.2-7.9,2.7-2.2-1-2.6-2.3-3.2-2.6-.3-.2-.6,0-1.1.6l-1.5-.7,2.3-5.5,1.8.8c-.4,2.5-.1,4.3,2.3,5.5,1.9.9,3.4.6,4.1-.8Z"/>
    <path class="st1" d="M190.5,277.4l-1.8-.4c0-3.5-.5-4.1-3-4.6h-.1s-2.7,13-2.7,13l2.3.7-.4,1.9-8.7-1.8.4-1.9,2.4.3,2.7-13h0c-2.5-.5-3.4,0-4.6,3l-1.8-.4,1.4-5.8,14.9,3.1-1,5.9Z"/>
    <path class="st1" d="M193.4,284.6c1.4,0,2.3.8,2.2,2.3,0,1.3-.9,2.2-2.4,2.2-1.8,0-2.3-1.3-2.2-2.3,0-1.2.9-2.2,2.4-2.1Z"/>
    <path class="st1" d="M206.1,275.7c0,.1,0,.3.1.4h.8c.1.2.2.5.3.8.1.8-.3,1.5-1.4,1.7-1.1.2-1.8-.5-1.9-1.4-.3-1.9,1.2-3.6,4.2-4.1,3.4-.6,4.8.9,5.2,2.8.4,2.5-.9,4.3-4.7,8.6l-1.1,1.2h0s3.5-.5,3.5-.5c2-.3,2.4-1.1,2.5-2.5l1.3-.2.6,4.6-9.6,1.6-.3-1.9,2.1-3.5c1.8-3,2.4-4.7,2.1-6.6-.3-1.5-.9-2.4-2.3-2.1-1,.2-1.5.6-1.4,1.3Z"/>
    <path class="st1" d="M220.1,269.9c3.2-1.1,6.2,0,8.1,5,1.9,5.3,0,8.1-3,9.2-3.9,1.4-6.6-.7-8.1-5-1.9-5.2,0-8.1,3.1-9.2ZM224.7,282.9c1.7-.6,1.7-2.2.1-6.5-1.5-4.3-2.7-5.6-4.3-5-1.5.5-1.6,2.3-.1,6.6,1.6,4.4,2.6,5.5,4.3,5Z"/>
    <path class="st1" d="M232.1,264.2c2.9-1.7,6.1-1.3,8.9,3.4,2.9,4.8,1.7,8-1.1,9.7-3.5,2.1-6.6.6-9-3.3-2.8-4.7-1.6-8,1.2-9.7ZM239.1,276c1.5-.9,1.2-2.5-1.2-6.4-2.4-3.9-3.8-4.9-5.2-4.1-1.4.8-1.2,2.6,1.2,6.5,2.4,4,3.7,4.9,5.2,4Z"/>
    <path class="st1" d="M239.8,261.3c-1.8-2-1.5-4.8,1.2-7.4,2.7-2.5,5.5-2.9,7.3-.8,1.5,1.7,1.4,4.1-.3,6.1h0c2.5-2,4.9-1.8,6.6,0,2.1,2.2,1.4,5.4-1.5,8-3,2.8-6,3.1-8,.9-1.7-1.9-1.7-4.5.5-6.7h0c-2.2,1.7-4.4,1.5-5.9,0ZM246.3,259.7c1-1,.7-2.1-.7-3.6-1.4-1.5-2.5-2-3.5-1-1.1,1-.5,2.3.7,3.6,1.4,1.5,2.6,1.8,3.5,1ZM248.1,265.1c1.4,1.5,2.8,2.1,4.1,1,1.2-1.2.8-2.6-.6-4.2-1.6-1.7-3-2.2-4.2-1-1.2,1.1-.8,2.6.7,4.3Z"/>
  </g>
  <g>
    <path class="st1" d="M129.9,297.7l-1.8,2.4-3-1.8-12.9,16.9,1.4,1.1c3.9,3,6.5,3.4,11-.9l2.3,1.7-6.8,8.3-17.3-13.2,1.8-2.4,2.3,1.3,12.9-16.9-1.9-1.9,1.9-2.4,10.1,7.7Z"/>
    <path class="st1" d="M154.2,310.9c7.7,3.2,9.9,9.8,6.5,18-3.5,8.4-9.5,12-17.8,8.5-8.2-3.4-10.2-9.8-6.6-18.3,3.4-8.1,10.2-11.5,18-8.2ZM152.9,313.4c-4.8-2-7.4,1.8-10.1,8.3-2.5,6-3.5,10.9,1.3,12.9,4.6,1.9,7.3-1.9,10-8.4,2.6-6.4,3.5-10.9-1.1-12.8Z"/>
    <path class="st1" d="M191.7,348.1l-5.3-.6-10.2-23.5h-.2s-2.2,18.7-2.2,18.7l2.7.6-.4,3-8.7-1,.4-3h2.4s2.5-21.2,2.5-21.2l-2.3-.6.4-3.1,10.5,1.2,7.8,19h.2s1.7-14.5,1.7-14.5l-2.4-.6.4-3.1,8.4,1-.4,3.1h-2.3s-2.9,24.5-2.9,24.5Z"/>
    <path class="st1" d="M215.5,346.7l-9.4,1.5-.5-3,2.8-.7-3.3-21.1-2.9.2-.5-3,10.5-1.7c9.6-1.5,16.4,1,18,10.8,1.8,11.1-5.4,15.5-14.7,17ZM215.9,343.3c6.4-1,8.6-4.8,7.4-12.3-1.4-8.6-5.2-9.7-11.1-8.8h-.6c0,0,3.3,21.2,3.3,21.2l.9-.2Z"/>
    <path class="st1" d="M245,308.8c7.6-3.5,13.9-.7,17.6,7.4,3.8,8.2,2.4,15.1-5.8,18.9-8.1,3.8-14.1.9-18-7.5-3.7-8-1.5-15.3,6.1-18.8ZM246,311.5c-4.7,2.2-3.7,6.7-.7,13.1,2.7,5.9,5.6,10,10.4,7.8,4.5-2.1,3.5-6.6.5-13-2.9-6.2-5.6-10-10.2-7.9Z"/>
    <path class="st1" d="M297.8,306.3l-4,3.5-24.2-8.3h-.1c0,.1,12.3,14.4,12.3,14.4l2.2-1.6,2,2.3-6.6,5.7-2-2.3,1.6-1.7-14-16.2-2,1.3-2-2.3,8-6.9,19.3,7.1h.1c0-.1-9.5-11.2-9.5-11.2l-2.1,1.4-2-2.3,6.4-5.5,2,2.3-1.6,1.7,16.1,18.7Z"/>
  </g>
</svg>