<?xml version="1.0" encoding="UTF-8"?>
<svg xmlns="http://www.w3.org/2000/svg" version="1.1" viewBox="0 0 400 400">
  <!-- Generator: Adobe Illustrator 29.0.0, SVG Export Plug-In . SVG Version: 2.1.0 Build 186)  -->
  <defs>
    <style>
      .st0 {
        fill-rule: evenodd;
      }

      .st0, .st1 {
        fill: #8e364c;
      }
    </style>
  </defs>
  <g id="stain">
    <g>
      <path class="st0" d="M202.7.4c-2,1-2.4.4-4.4.2.8-1-.6-1.2-.5-2.9,2.8-1.3,4.2-.4,4.8,2.7Z"/>
      <path class="st0" d="M122.9,32.7c-.2.7-.9,1.1-1.8,1.3-.3-.3-.6-.7-.7-1.4.8-1.2,1.6-.2,2.5,0Z"/>
      <path class="st0" d="M172.5,32.7l.2,1.4c-.9,0-2.3.9-2.1-.7.9,0,.9-.7,1.8-.8Z"/>
      <path class="st0" d="M216.3,30.1c-.3,1.1-2.3-.3-3.8.6-.5-1.8,3.7-1.6,3.8-.6Z"/>
      <path class="st0" d="M223.1,29.5c0,.6.2.8.6.9-.3,1.4-2,.2-2.9.5.3-.8,1.4-.9,2.2-1.3Z"/>
      <path class="st0" d="M224.3,30.8c.4-1.5,2.4-.2,3,0-.4,1.5-2.2,0-3,0Z"/>
      <path class="st0" d="M188.6,38c1.6-.6,2.1.2,3,.5-.1.7-.5,1.3-.7,2.1-1.6.3-2.4-.6-2.4-2.6Z"/>
      <path class="st0" d="M231.8,32.1c.9-1.1,3.6,0,5.8-.9.1.8.6,1.2,1.2,1.3-1.5,2.5-4.1-1.1-6.9-.4Z"/>
      <path class="st0" d="M47.9,61.3c0,.9.8.9.8,1.8-1.8.1-.8,2.3-1.5,3.2-1.7-.9-.3-2.9-1.6-3.7.3-.8,1.4-.9,2.2-1.3Z"/>
      <path class="st0" d="M242.3,32.9c0,1.8-2.1,1-2.9.5.6-1.5,1.7-.9,2.9-.5Z"/>
      <path class="st0" d="M244.6,32l1.4-.2c-1.1,1.5.8,1.4.9,2.8-1.1.3-1.9.2-2.5,0,.5-1.2.9-1.1.1-2.5Z"/>
      <path class="st0" d="M41.3,66.3c1.5-.3,1.7,1.2,1.9,2.6-1.2-.1-1.1-.9-1.9-2.6Z"/>
      <path class="st0" d="M252.4,34.7c.7-1.6,2.2.4,3.4,0-.2.5-.4.9.2.9-.6,1.7-2.5,1-3.8.6-.4-.6,1.7-1.5.2-1.5Z"/>
      <path class="st0" d="M26.1,72.6c1.8.6-1.3,1-.1,2.5-1.4-.3-.9-1.8-2.5-.6-.7-2.7,2-.2,2.6-1.9Z"/>
      <path class="st0" d="M256.5,36c1.7,1.4,2.1.9,5,.7-.3.6-.4,1.4-.1,2.5-1.4-1.6-4.6-.6-5.8-2.5.6,0,.8-.2.9-.6Z"/>
      <path class="st0" d="M50.1,71.8c.8-.2,1.4.6,1.4-.2.4-.2.5.1.6.4l.2,1c-1.2.3-2.1.2-2.1-1.1Z"/>
      <path class="st0" d="M131.3,60.8l.4,2.4c-.6,0-.8.2-.9.6-1.5.5-1.5-1.1-2.6-1.1.2-.4.4-.9.3-1.5,1.8-.3,1.3-.8,2.9-.5Z"/>
      <path class="st0" d="M24.1,100c1.4-1.9,3.6.1,5.3-.4-.5,1.5-1.5,1-3.3,1-1,.9-1.2,2.5-2.4,3.3-3.6-1,1.6-3.4.3-4Z"/>
      <path class="st0" d="M84.4,96.3c1.5-.5,2.2,0,2.2,1.6-1.6.6-1.9-.5-2.2-1.6Z"/>
      <path class="st0" d="M-5.4,112c1.8,1.9,1.3,2.9,1.7,4.6-1.1-.8-2.3.1-3.4.5.8-1.2-1.5-1.4-1.5-3.2,1.1-.6,1-2.1,3.1-2Z"/>
      <path class="st0" d="M331,63c1-.4,1.3.1,2,.2,0,.9-.7,1.2-1.8,1.3l-.2-1.4Z"/>
      <path class="st0" d="M8.7,179l2.4-.4c0,1.2,0,2.5-1.5,2.7-.5-.5-.8-1.2-.9-2.3Z"/>
      <path class="st0" d="M49.8,270.7l2.4-.4c1,1.4.2,1.8.6,3.8-2.3,0-3.4-1.2-3-3.5Z"/>
      <path class="st0" d="M239.5,367.2c-.7,1.9-3.4-.2-3.6,2-5.1,0-13.2.6-19.3,2.1-.5-1.3-1.3-2.1-2.4-2.6,3-3.1,11.6-4.3,16.1-4,.9,0,.8-1.1.8-1.1.5,0,1.1,1.1,1.7,1.2,2.1.3,7-1.6,6.8,2.4Z"/>
      <path class="st0" d="M185.4,30.6c0-.7.6,0,1.4-.2-.5,2.2,2.2,3.1,1.2,4.2-1.9.2-.5-3.4-2.6-4Z"/>
      <path class="st0" d="M109.8,64.3c1.2,0,1.5-2.8,2.7-1.4-.2,1.6-2.3.6-1.9,3.3-.9-.7-1.9.7-3.8.6.4.5,3.3.5,3,0-.2.9-.7,4-4.2,4.6.6,3.8-7.3,8.1-12.2,9.8-.7.3.3.6.2,1.4-6.3,2-7.3,8.3-15.3,11.8,0,2,1.8,1.4,1.6,3.7-1.1-.7-1-1.6-2.5-.6.2-.5,1-.7.7-1.6-2.1.3-.9,3-2.9,3.4.7.1,1.3,0,2.6.6.1-.8.4-.6.7-2.1,2.8.8-2.2,4,.8,5.3-1.9-1.2-4.8,2.6-7,2.1-.3,1.5-1.9,2-1.9,3.7l-1.9.3c-.5,2.9-4.5,3.2-4.3,6.6-13.6,2.2-3.2,15.3-13.4,20.8-.8,1.7-2.8,2.5-4.3,3.6.3,2.2-1,3.2-1.7,4.7.3,1.8.7,1.3.5,2.9-.8.6-1.2,1.4-2.2,1.8-4.4,15.7-7.2,28.6-8.5,45.5.6.8.4,2.6,1.8,2.2.6,4.7,1.1,4.4.3,8.3-.5,0-.5-.9-1.1-.8-2,8.3-.6,17.7.7,25.9,1.4,9.1,4.8,21.1,7.5,31.7,1.7,1.9,2.6,4.8,2.1,7,3.3,4.7,4.9,11.2,9,16.7,1.8-.3,1.3-.8,2.9-.5.9,1.2,2.9,3.1,1.8,5.1-1.4.3-1.8-.6-2.6-1,3.1,7.4,9.7,14.8,13.3,21.9,1.4,1,.9-1.2,2.8-.9.5,1.5.2,2.4-.5,3,2.2,1.7,5.3,5,5.6,7.5.7.6,2,.4,2.6,1.1,11.7,14.9,28,24.6,44.7,34.1l3.8-.6c0,1.6,2.2.5,3.1,1,8.3-8,18.7.8,26,3.2,3.3,4.1.5,6.8,4.2,10.6,11.7,2.1,23.2,7.4,36.8,5.9,3.4-.4,7.8-1.1,12.1-1.4.4-.4.6-1,.7-1.6.7.4,1.2,1.1,1.7,1.7,27.9-2.7,57.4-10.9,76.2-23.9,5.7-1.1,8.1-4.6,11.6-7.2l2.4-.4c23.8-18.1,44.7-40.4,55.2-66.7,5-4.9,5.5-13,9.3-18.7-.7-3.2,1.9-5.6,2.5-8.8.9-4.4,1.4-12,4.2-13.4-1.7-11.3,4.1-25.8,1.9-34.7-.7-1.5,1.5-.9,1.1-2.1-.6-4.1-2.5-8.6-1.6-13-1.6-5.5-1.9-11.2-2.2-16.8,0-2.1-2.2-5.9-3-9.4-.4-1.7-.2-3.2-.8-4.8-1.1-2.9-2.1-4.1-2.7-7.4s-1.7-2-2-3.6c-.1-.6.7-1.7.7-1.6-.3-.8-1.3-.3-1.6-.7-.4-.6-.2-2.2-.5-2.9-2.8-6.7-7.2-16.3-11.9-22.6.1-1,.6-2.6-1.4-2.7-8.6-15.8-19.4-29.5-32.9-40-2.9-5-8.3-6.5-11.6-10.9-5.6-2.2-9.2-7.2-15.2-8.9-.7-.5-.3-.7-.2-1.4-5.4-2.1-10.7-5.7-15.6-8.3-2.7-1.5-8.2-1.6-9.1-4.5-1.1,1.5-2.1-.5-3.9.1-.6-1.7,1.2-1.7,2.6-1.9l.3,1.9c1.3-.2.8-1.7,2.2-1.8,2.3,1.9,6.5,1.1,8,4.1,9.7-.7,16.8,7.1,25.6,9.7,1.1,1.5,1.8,3.3,4.4,2.7,2.5,3.4,8,4,10.8,9.1,16.7,5.9,25.8,19.2,36.6,32.5.7,4.6,4.4,5.3,5,10,.2.6.9.3,1.5.3,4.1,15,13.8,20.9,16.9,35.6-.6,6.9,3.6,12.1,4.2,20.4.3.6.8.9,1.6.7.2,11.4,5.8,27.2,3.6,41.2,2.5,4.5-2.4,10.3,1.5,12.5-2.3,4.4-4.2,11.6-2.5,15.1-3.1,3.4-2.4,8.4-2.4,12.7-3.8,7.1-3.9,19.3-6.8,28.1-.1.4.8.3,1,.3-2.1.8-1.1-.1-2,2.8-.9,3-4.9,5-4.5,9.1-5.7,3.1-5.1,10.7-10.6,14l.3,1.9c-5.8,10.4-19.1,14.4-14.7,31.3-1.2,3.1-3.1,5.7-4,9-3.4,5.6-12.9,2.8-18.2,5.8l-3.8.6c-14.6,13.4-31.9,28.9-57.3,31.7-11.2,6.8-29.2,6.1-43,7.8-5.6-4.7-16-2.9-25.6-3.3-8.8-.3-17.5-7-23.9.9-4.2.9-5.8-.7-10.4-.3-3.1-4.5-7.3-7.5-10.7-11.6-3.9.8-5.3-2.1-9.1-1.5-.5-1.3-2.2-.9-2.4-2.6-6.1-1-11.1-6.1-16.9-7.6-1.6-.4-3.5.3-5.4-.1-6.3-1.3-12.2-3.9-16.9-7.6.9-1.3-1.3-1.6-1.1-3.8-.9-.7-1.4-2-2.4-2.6.2-.4.4-.9.3-1.5-5.5-7.3-16.8-15.6-23.4-23.8-1.2-1.5-1.7-3.5-2.6-4-.4-.2-1.6.6-1.9.3-.4-.4,1.3-.8,1.4-.7-.2-.5-1.9-.7-2.7-1.5-1.3-1.4-1.9-4.2-2.8-5.4-1.9-2.5-5.3-3.8-6.9-6.3-1.8-2.9-2.2-7.5-5.6-10.4-.2-2.7-1.5-3.8-2.8-5-.5-3.4-.7-5.3-2-6.6,2-.1-1.8-1.5.6-2.5-.1-.7-1.6-1.4-.9.2-.8-3.4-7.9-9.7-3.7-10.7.3-1.5-1.2-.7-2.1-.7-1-5.1-7.9-10.6-3.7-14.1-.6-2.9-2.6-3.8-3.5-6.8-.4-1.2.4-.7.9-.6-.9-4.7-4.8-7.3-5.8-11.8-.5-2.4.7-5.1-.3-7.8-1.6-4.6-5-6.8-5.7-11.4-2-12.1,5.6-19.8,3.9-34,2-6.4,1.2-13.5,5.2-20-.1-3-.5-3.5-1.5-6.6-6-18,12.8-24.8,13.9-39.5-.9.2,0,1.7-.7,2.1-1.8-.8,1.6-2.7,0-3.4-.5,0-.3.6-.3,1,0-2.8-.3-2.9,0-6.4-1-1.3-1.5,0-2.5-.6.6-.7.3-2.4-.5-2.9-.9.3.3,2.2-1.7,1.7.6-1.1-.2-3.2.3-4.5-.6-1.7-3.4-.4-4.2-1.8,0-.7,1.1-.6,1.8-.8.1-1.1-3.6-1.2-2.9.5-1.7-.5,1.4-2.1-.5-2.9-1,2.5-.4.5-3.3.5,2.6-1.4.5-3.2.7-5-2.9.5-3.1,1.4-6.1,1.9-.2-1.3-4-4.8-3.7-4.8-1.1-.3,0-2.5,1.1-2.6.7,1.7,1.2,1.1,1,3.3,1.7.6,2.7.9,3.3,1.9.4-1.6,1-1.9,2.3-.9-.7-1.6-3-.9-3.8-2.3,1-1.9.6-2.3,1.5-3.2,1-2,.9,2.2,2.6,1.1,1.4-2.4-1.8-2.9-.8-5.3.5,0,.5.5.6.9l1-.2c0,.6-.8.6-1.4.7,1.1,1,2.6,1.3,2,3.1,1.2,0,.9-1,2.3-.9.7,1.7-1.8,1-2.7,1.4,0,1.1.4,1.8,1.3,1.8.5-1.4,4-1.5,3.2-4.4-.8.3-.9-.3-1.5-.2.4,2.2-2.5-.6-2.6-1.1-.2-1.1,1.3,0,1.1.8,1.8-1.2,1.4-1.1,3,0,1.4-.2-2.2-1-.3-1.9,1.2-1.6,1.1,1.9,2.7,1.5.5-1.6,2.2-2.8,1.1-5.1-1.3.2-.8,1.7-2.2,1.8l-.2-1c0-.4-.2-.4-.6-.4,0-1,1.4.5,1.8-.8-2.1.4-1.5-2.2-2.6-1.1-.9-.4,1.1-2.3.3-4,1-.3.5,1.7.9,2.3,1.9-.3,1.2-2.5,2.4-3.3,1.5,0,2.9.3,3.3,1.9-1.4.8-1.3-.6-2.1-.7.6,2.7,2.6,1,5.2,1.6-1.1-.5-2.1-1-2-3.1,1.6.1,3.2-1.8,2.6-1.9,0-1.3.9.5,1.9-.3.7,1.7-2.1.7-1.6,2.2,2,1.1,3.2-3.1,1.7-4.7,2.2-.7,2.4,1.4,4.1,1.3-1.4,2.1-.6,2.3.8,4.8l4.3-.7c-2.1-.7,6.4-1.9,8.2-3.8.7.4.9,1.5,1.7,1.7,1.2-.6-1.6-.8-.3-1.9,3.3-.4,3.5,1.2,5.9,0,1.3.9,2.1,2.5,4.7,1.7.6-.6.4-1.7,1.1-2.1-1.1-.4-.6.5-.8-1.8,4.1.6,2.8,5.8,1.2,7.7,7.8-2,11.8-11.1,18.6-15.7.4-.2,1,0,1.4-.2,2.5-2.6,5.2-3.2,9-5.3,1.3-1.7,3.2-3,6.3-3.5.5-.2.2-1,.8-1.1,1.9.6,2.1.5,4.4-.2-.3,1.3,2.2,2.6,0,3,.9,2.1,1.3-1.1,2.5.1-.7,2.5-1.1,3.8-3.3,4,.7,2.1-3.2,2.5-2.5,5.8-1.8.5-3.2,1.4-3.5,3ZM100.1,74.6c.6,2.2,2.3-.5,3.5.4-.1-.7,0-1.1.3-1.5-1,.8-2-.9-1.9.3,1.2.8-.5.8-1.8.8ZM27.4,90.1c-.3,0-.6.2-.4.6,1.1,0,1.8-.4,1.8-1.3-1.1-.6-2-.8-2.5-.1.5,0,.8.4,1.1.8ZM69.3,72.2c-.1-.8-.6-1.2-1.2-1.3,0,.9.7,1,.8,1.8,2.2-1.4,2.9.6,4.3-.7-2.2-.9-3.5-2.2-3.9.1ZM46.1,74.4c.3,0,.6,0,.6.4-.4.2-.9.2-.9.6,1.9.5,3.7-2.5,2.7-1.4-1.1.8-2.2-1.1-2.4.4ZM38.3,81c-.2-.8-.1-1.5.2-2-.7-.1-1.3-.5-2.1-.6.4,1.2,1.2,1.8,1.9,2.6ZM35.2,86.4c.5-1.8-1.7,0-1.7-1.2.4-.2.9-.2.9-.6-1.1-1.3-2.3,1.9-1.1,2.1,0-1.3.9.5,1.9-.3ZM33.2,89.2c-.6.4-1.1.9-1.2,1.7,1.5-.1,1.9-1.1,2.1-2.3-.9,0-3.4-.7-3.8.6,1.3.1-1.5,1.9.8,1.8,0-.9,1-3.2,2.2-1.8Z"/>
      <path class="st0" d="M27,77.9c.8-.3,1.1.3.6.4.6,1.3,1.5-.5,2.4-.4.5.9,2.3,3,2.8,2,1.7.9-1.1,2-1.5,2.7-1,0,.5-1.4-.8-1.8-.7.4-1.1.9-1.8,1.3-1.2,0,.7-1.1.7-1.6-1.2-.3-2.1-1-2.4-2.6Z"/>
    </g>
    <g>
      <path class="st0" d="M2.9,242.8c-1-.9-.2-1.8.7-2.8.5.7.9.4,1.4,0,1,1-1.1,2.8-2.1,2.8Z"/>
      <path class="st0" d="M144.7,381.2l-1.4-1.4c.7-.6.3-1.1,1-1.7.6.7,1.1.3,1.7,1-1,.7-.1,1.4-1.4,2.1Z"/>
      <path class="st0" d="M84.7,318.4c-1-.4,1.1-2.4-.3-1.7-.7-.9,1.3-1.7,1.7-1.7.4,1.1,0,2.3-1.4,3.4Z"/>
      <path class="st0" d="M131.3,356c-1-2.4,3.1-1.7,1,.3-.4-.5-.7-.5-1-.3Z"/>
      <path class="st0" d="M85.7,299.4c-.4-.9,0-2.4,1-2.4.4.9.4,2.4-1,2.4Z"/>
      <path class="st0" d="M68.4,275.2c-.5-.7-.2-1.4.7-2.1l1.4,1.4c-.7,1.2-1.4,0-2.1.7Z"/>
      <path class="st0" d="M164.4,348.4c-2.1,2.9-5.1,9.4-8.3,4.8.9-4.5,4.8-5.4,8.3-4.8Z"/>
      <path class="st0" d="M47.7,242.1c-.8-.9-.8-1.8,0-2.8.6,0,1.1.4,1.7,1-.6.6-1.1,1.1-1.7,1.7Z"/>
      <path class="st0" d="M76.4,270.1c-2.1-3-.5-5,2.4-7.2,1.7,2.3.8,7.1-2.4,7.2Z"/>
      <path class="st0" d="M96.4,268c-.7-.4-.3-.9-.7-1.4.6-.7,1.2-.3,1.7-1,1.1.9,0,2.5-1,2.4Z"/>
      <path class="st0" d="M26.7,170.6c.7-.7-.5-1.4.7-2.1.4.5.7.6,1,.4.3,1,1.1,2.1.3,3.1-.7-1-1.4-.1-2.1-1.4Z"/>
      <path class="st0" d="M29.4,164.4c-1.1-1-2.5-2.1-1-3.1,1.3.5,2.8,1.7,1,3.1Z"/>
      <path class="st0" d="M29.8,159.9c-1.4-1,.4-2.1-1-3.1,1-1,2.1,3,3.1,1,1.3,1.5-1.3.8-.7,2.1-.5.3-.9-.4-1.4,0Z"/>
      <path class="st0" d="M28.1,147.2c-1.8,0-.9-2.7-.3-3.8,1.9,0,.9,2,1.7,3.1-.3.4-2.2-.8-1.4.7Z"/>
      <path class="st0" d="M43.6,124c-2.4-2.4-1.7-4.8-5.2-7.3.1-3.3,3.2-3.5,4.5-5.9,1.5.8,3.9,4.6,3.8,6.6-.7,1.4-1.4-.2-2.1-.7-.5,1,.5,2.8-1.4,2.8.8,1.3,1.6.4,2.4,1.7-2.2.6-.6,1.4-2.1,2.8Z"/>
      <path class="st0" d="M46,106.4c-1-.7,1.8-1.4,0-2.1,1.7-1.4,3.1-2.1,2.1-4.2,2.9-4.2,4.9-5.9,8.3-9.7-.1-2.9,5.4-6.4,6.9-9,1.7,2.5,2.1,5.1,2.8,7.6-1.8,1.5-2.9,1.8-1,3.8-.8,1.4-1.6-.7-2.4.4-.3-.4.1-.7.3-1-.7-.6-1.4.9-2.1,0,1.5,1.5-.9,3,1,4.5-2.5.6-3.4,2.1-5.5,3.4-.6.7,1,1.4.7,2.1-1.5,1.7-5.1,1.3-3.8,4.5-2.4,2.1-4.8.1-7.3-.4Z"/>
      <path class="st0" d="M70.2,77.4c-1.3-.7,2.6-3,3.4-3.4-.9,1.7,1.9,3.4,2.4,5.2-.9,1.3-1.8,0-2.8.7.4-1-.2-2.1-.3-3.1-.9-.3-1.8-.6-2.8.7Z"/>
      <path class="st0" d="M77.8,76.8c.7-3-2.6-2.6-3.5-4.8,1.9.5,1.7-1.6,2.4-2.4.4.7.6,4.3,2.8,6.9-.6.3-1.2,0-1.7.3Z"/>
      <path class="st0" d="M81.2,73.3c0-.5-.2-.9-.7-1.4,1.7-.2,1.2-1.6,2.8-2.1,1.1,1.9-.2,3-2.1,3.5Z"/>
      <path class="st0" d="M78.8,68.1c1.7-.9.1-1.8,1.4-2.8.6,0,1.1-.1,1.7-.4.5,1.8-2.3,1.8-1,3.8-.7.2-1.4-.1-2.1-.7Z"/>
      <path class="st0" d="M89.1,68.1c.7-1.9-3.6-2.8-1.4-3.4-.9-.5-1.8-3-2.8-1.4-.6-4,6.1-4.8,7.2-7.2.7-1,1.4,1.8,2.1,0,.2,1.7-1.9,1.2-2.1,2.8-.5,0-.9-.2-1.4-.7-.6,1.5-.8,2.9-2.8,2.8,1,1.8,3.7,2.2,3.1,5.2-1.3.7-1.4.8-2.1,2.1Z"/>
      <path class="st0" d="M94.3,63.6c-1.7-.9-.1-1.8-1.4-2.8.5-.6,1.5-1.1,1-1.7,2-.8-.8,2.9,1.4,2.1.2.8-.1,1.6-1,2.4Z"/>
      <path class="st0" d="M92.3,42.9l-1-1c1.3-.9.4-1.7,1.7-1.7,1.2.9.4,1.8-.7,2.8Z"/>
      <path class="st0" d="M115.7,49.8c-1.3-1.4-2-2.8-1.4-4.1,1.3,1.8,2.5,1.6,3.8,3.1-.8.5-1.6-.4-2.4,1Z"/>
      <path class="st0" d="M115,45c-.9.6-2.1-1.6-2.1-2.1,1.3-.6,2.5-.4,3.8.3-.4.8-2.5.4-1.7,1.7Z"/>
      <path class="st0" d="M120.9,45.3c1.8-.8,1.8-1.3,0-2.1.5,0,1-.2.7-.7,2.6.6,3.4-2.2,6.2-2.1.4-.5-.6-1.5-1-1,0-.9.5-2.1,1.4-2.1.8,2.4,3.4,1.8,5.2,1,1,.7-1.8,1.4,0,2.1-2.4,2.4-6.3,3.4-7.6,2.1-1.4,1.4-2.9,3.7-4.8,2.8Z"/>
      <path class="st0" d="M151.6,35.3c-1.7-1.5-2.7-3-1.7-4.5,1,0,2.1,1.5,3.1,2.4-1.7,0-.1,1.2-1.4,2.1Z"/>
      <path class="st0" d="M211.4,26c-.8-.8-1.6-1.6-2.4-2.4,1.4-.5,2.8-.4,4.1.7.2-2,2.6-.6,3.8-1,1.8.8-.3,1.6,1,2.4-2.2-.3-4.4-1.1-6.5.4Z"/>
      <path class="st0" d="M220.3,25.3c1.2-1.7,3.3-.7,3.4.7-1.2,1-2.3-.1-3.4-.7Z"/>
      <path class="st0" d="M237.2,28.4c.1-.5.2-.9.7-1.4,1.7.9,3.5.5,5.2,1.7-1,.5-2.5,1.3-1.7,3.1-1.7-.7-1.5-3-4.2-3.4Z"/>
      <path class="st0" d="M247.3,33.6c-2.2,0-.4-2.7-2.4-3.8,1.8-.5,3.7-.4,5.5.7-1.1,1.3-4.1.8-3.1,3.1Z"/>
      <path class="st0" d="M258,36.7c-2.1,0-2.1-3-2.8-4.1,1.2-1.5,2.3,2.1,3.4-.7.5,1.6-2.7,3.2-.7,4.8Z"/>
      <path class="st0" d="M272.8,41.9c-2.3.3-.4-2.3-2.4-3.1,1.3-.3,2.5-.3,3.8.3-.9.9-2.2,1.8-1.4,2.8Z"/>
      <path class="st0" d="M132,371.2c2-1.4-.4.1-.3-2.4-1.5,1.1-3.2-1.5-3.8,1-2.4-2-6.2-2.4-8.3-4.1,0,0,.7-.7.7-.7-2.8-1.6-7.8-2.2-9-4.8-1.5.3-4.7-.4-4.1-2.8-.8-.8-.8,1.1,0,1.4-2.2-1.3-6.2-2.5-7.3-5.2-1.2,1.6-4.6-3.1-6.9-2.8-1.5-.9-1.1-1.8-1.4-2.8-8-4.7-17.5-13.4-22.8-20-8.6-7.5-16.5-15.6-23.8-25.2,0,0,.7-.6.7-.7-11.4-12.8-14.6-27.4-21.4-40-.2-.7,0-1.4.7-2.1-.5-.7-.9-.4-1.4,0-.4-3.3.8-6.7-3.1-10,.5-.5.9-.9,1.4-1.4-2.6-3.1-4.8-7.7-2.8-10.4-2.8-2.9-.7-4.7-2.8-6.9.3-.3.7.2,1,.4-3.4-5.1-.6-8.8-3.4-14.5.8-.2,1.6-1.1,2.4.3-.4-2.2-3.1-4-2.8-6.9.6-.3,1.2,0,1.7-.3-2.4-1.1-1.4-4.4-1-6.6.9,1.1,1.8.5,2.8.7-.5-1.8-1.3-2.6-2.4-3.1-.2.5-.3.9,0,1.4-1.2.4,0-2-1.4-2.8,2.4-.5-.7-1.1,2.1-2.8-.6-.7-1.2-.3-1.7-1,2.6-2.2,1.2,2.9,3.8,1.7,1.5-2-1.5-2.7-2.8-4.1.8-.5,1.6.4,2.4-1,.2-.5.3-.9,0-1.4-.6.3-1.4.6-2.8.7-.9-2.1.6-1.2-.7-2.8,2,.9,2-.7,3.8-1.7.5-1.4-1.8.4-2.4-1,1.5-.5,1.1-2.1,2.8-.7.5-1.2-1.8-.9-2.4-2.4,1.3-2.3,3.3-3.4.7-6.9,1.3-1.6.6,1.1,2.1.7.7-.8-1.3-1.6-1.7-2.4,1-.8,1.8-1.6.4-2.4,2.3,0,1.2,1.1,3.4,0,.7,2.4,1.4,4.8.4,7.3.9.9,2.2,1.8,1.4,2.8,1.6,0,3.2-.8,4.8.7-1.5.9-1.1,1.8-1.4,2.8.8,1.3,1.6-.3,2.4,1-.5,9.8-1,19.6-1.7,29.3,3.4,6.4,3.1,12.9,2.8,19.3,4.4,6.5,4.2,15.2,6.6,21.7,1.9,5.2,5.9,10,5.9,14.8,2.1,2.9,5.3,5.5,3.4,6.9,3.6,2.5,3.9,6.2,7.6,9.7,0,1.3-.8.9-1.7,1.7,1.8-.3,2.7.7,2.1,2.1,3.7,2,7.4,7.8,7.6,11,1,0,2.1,1.5,3.1,1-.9,3.7,8,4.7,6.5,10,.5.4.9-.3,1.4-.7,1.3,1.4,0,2.8.7,4.1,1.3.8.4-1.1,1.4-1.4,1.8.6,1.6,1.7,3.1,3.1,0,.9-.4.7-1,1,.9.9,1.8-.3,2.8.7,0,1.2-1.6,2.3-.7,3.5,1.1,0,1.1-1.6,3.1-1.7-.3,2,3.2,2.7,2.1,4.1.8.9,1.6.6,2.4.3,1.2,1-.3,3.8,2.1,2.8.4.6-.6,1.1-1,1.7,4.1,1,4.9,4,9,4.1-.2,1.2.8,2.3,1.4,3.5,1.3.8.4-1.1,1.4-1.4,2.5-.3,3.3,6.6,6.9,4.1,1.3,1.2,0,2.3.7,3.4,3.7.4,7.4,2.3,11.1,3.5,0,3.3,2.7,2.7,3.4,5.5,1.1-.3,2.3.3,3.5-.7,2,3,3.3,1.2,5.5,1.4.1.9,1,1.8.7,2.8,1.2.6-.3-1.6,1.4-2.1.6,3,7.4,1.6,8.3,5.5,1.5.6.9-.5,2.4-1,1.7,1.2,1.4,1.8,3.1,1,1.6,1-.9,2.1,1,3.1.6-.7,2.3-1.1,3.8-1.7.9,2.4,7.2,0,6.9,3.5,1.5-1,3-.8,4.5-.3.9.7-.6,1.4,0,2.1,3-.6,2.3,1,6.2,0-1.2,3.4,3.4,1.1.7,3.4,3,2.2,2.5-2.4,5.2-3.1.9.9,1.8,2.5,2.8.7,1.4,1,1.3,2.1,1.7,3.1,1.4-.6,2.8-.9,4.1,0,0-2,2-1.4,3.1-1.7,1.8,4.1,6.4,4.1,9.3,2.4,1.3.6,2.5.4,3.8,1,.9-1.7,1.8-.1,2.8-1.4,6,3.3,12,.4,17.9,3.4,1.2-1.8,2-1.5,2.1-3.4,3.3,0,8.6-4.3,10.4.7,1.6,1.3,3.2-.1,4.8,0,1-1.2,0-2.3.7-3.5,1.9,0,1.7-.2,3.5-1.4.3.5.7.5,1,.3.8,2.2-.3,2.7-1.7,4.5,1.3,0,2.5,0,3.8-.3.2-1.3-2.8-2.5-.4-3.8.7.9-.6,1.8.7,2.8,5.1-2.1,7.3-11.6,13.8-7.6,1,.5,2.1-1,3.1-1,.3.6,0,1.2.4,1.7-.2-2.5,3.7.4,3.4-1.4,1.4.7,2.8,1.5,4.2,1.4-2.8,4.2-10.2,7.5-15.9,9.7-1.6-2.2-3.2,0-4.8-1.4-.8.6,1.1.9,1.4.7-1.8,2.1-6.7,1.3-9.7,3.5-.9-.6-.7-1.2-1-1.7-1.3,2.3-2.5.9-3.8,1.7-.3-.6-.3-1.1.4-1.7-2.4-.1.4,2.6-2.1,2.8-1.1-1.3,1-.9.3-1.7-3.5,1.3-8.3,4.7-10.7,2.4-.8,1.3-.4.9-1.7,1.7l-1.4-1.4c-.6,0-1.4,1.4-2.8,2.1-.8-1.3-1.6-.4-2.4-1.7-9.1,5.7-20.8,0-31.1,1.4-1.6-1.7-5.1-1.4-6.2,0-1.6-.5-1.2-1.5-2.4-1.7-.7.6-.3,1.1-1,1.7.3-1.9-1.4-1.9-2.8-.7-.6-1.7-2.1-1.8-4.1-1.4-.3-.5.5-.9,0-1.4-.4-.2-.7,0-1-.3-.3.6-.3,1.1.3,1.7-3.2.6-4.2.6-7.2-.3-1.2-.7,0-1.4,0-2.1-1.5.5-.9-.8-2.4-1-1,.9,2.7,1.8.7,2.8,0-.8-.8-1.6-1.7-2.4,0,.5-.2,1-.7.7-.4.5.3,1,.7.7.5,1.3-1.8,0-2.4.4-.4-.9.6-.7,1-1-.5-.5-1-.9-.7-1.4-2.2.2-7.5,1.9-6.9-1.4-1.3-.8-.4,1.1-1.4,1.4-.9-1.9-1.8-.3-2.8-1.4.7-1.2,1.4,0,2.1-.7-2.8-.5-5.5.7-8.3-1.4.4-.2.7,0,1-.4-.9-1.3-2.1-.6-2.1-2.1-1.4.7.2,1.4.7,2.1-1.1,0-2.3-1-3.5-.7Z"/>
      <path class="st0" d="M21.8,158.9c2.1-1.5,3.3-3.2,2.1-5.5,1.2-1.3,1.5-2.4,2.1-4.8,4.7,3.6-2.7,10.1-1,14.9-2.8,2.2-.9,4.4-3.8,6.6-.9-1.5-2.7-1-1.7.3-2,.3-.8-2.3-1.7-3.1,1.9-1.4,6.9-3.9,4.1-8.3Z"/>
      <path class="st0" d="M319.1,323.6c.3-.5-.2-.5-.3-.3,1-2.6,1.4-5,4.5-5.9.7.5.3.9.7,1.4.1-.5.5-2.1,1.4-.7,1.2-2.9,4.2-5.8,6.9-6.9-.3-1.2.6-2.3,0-3.5,1.7-.7,3.7-1.6,3.1-3.8.8-.2,1.6-1.1,2.4.3-1.4-.9,1.6-3.7,0-3.4,3-1,2.3-5.7,5.2-7.3-1.7-2.6,4-3.1,2.1-6.2,4.2-7.7,10.3-18.7,13.1-24.2-.5-1.3,1.8-.9,2.4-1,.6-1-.9-.1-.7-1.4,2.8-3.1,5.5-2.8,8.3-2.8,1.3,1.8-1.2,3.7,0,5.5-1.6,1-1.6,2.4-2.8,1.4-.8,1.3,1.1.4,1.4,1.4-.8.1-1.6.9-2.4,1,.2,1.5.7,2.8-.7,4.1.8.5,1.6.1,2.4,1,0,.9-1.5,2.4-2.4,2.4-.3-.6-.3-1.2.3-1.7-1.8-.5-2,3.6-.4,3.1-1.5,1.4-3.9,5.1-4.1,7.6-1.5.8-1.1-.5-1.4-1.4-1,1.2.2,2.3.7,3.5-2.1.7-1.4,2.8-1.7,4.5-.7.3-1.4.3-2.1,0-1.4,1.3-.8,3.9-3.1,3.8-.8,1.3,1.1.4,1.4,1.4-3.2,1.9-3,3.7-5.9,3.8-1,1,.9,2.1-.3,3.1-.7-.5-.3-.9-.7-1.4,0,3.2-4.4,5.4-3.8,7.9-.9-1.9-5.1,6.7-9.7,6.9,0,1.2,1.2,1,2.1.7.3,2.4-4.6,3.9-5.5,4.8-1.7,1.7-2.4,6.5-6.2,6.9-.2.8-.6,1.6.4,2.4-3.1.3-3.5,3.5-6.6,3.8-2.3,6.9-11.4,11.3-15.5,16.2l-1-1c-3.1,3.4-6.4,5.6-10.4,8.3-2.8,1.8-6.1,1.5-8.3,2.8-2.9,1.6-4.1,3.3-6.9,1.4-.8.6,1.1.9,1.4.7-.2,1.4-2.9,0-3.5,1.4-.6-.8,1.4-1.6,1-2.4-3-.6-6,1.4-9-.7,1.5-1.6,1.8-2.9,4.5-4.5,1.5-.9,3.4,0,4.8-.7,2.4-1.2,5.7-6.7,9-6.2,7-5.7,16.1-11.7,23.5-16.6,0,.5.2.9.7,1.4.3-.6.3-1.1-.4-1.7,1.5-.5,3.2-1.3,3.8-3.1,1.4.9,2.8-.3,4.1.7.1-1.3-.2-3.3,1.7-2.4.8-.7-1.1-1.4-1.4-2.1,2.1-1.6,1-2.8,3.8-2.4Z"/>
      <path class="st0" d="M174.1,151.7c-1.5-1.8.4-3,2.1-3.5.7.7-.6,3.2.7,2.8.4.7-2,.9-2.8.7Z"/>
      <path class="st0" d="M106.1,49.1c-.2.8-.6,1.6.3,2.4,2.6-1.3-.8,2.7,1.4,2.8-2.3,1.2-4.6,4.9-6.9,2.1.5-1,1.7-2.1,1-3.1,1-.6,2.1.2,3.1-.4.4-.6-.6-1.1-1-1.7-1.5-.8-3,2.9-4.5.4,3.5-2.2,6.8-3.2,9-5.5,1.9-.3-1.4,3.4-2.4,3.1Z"/>
      <path class="st0" d="M228.3,26.3c2.6-1.6,5.3.6,7.9.3,1.5,1.5.2,3-.3,4.5-2.4-1.7.2-1.2-.7-2.8-1.4-1.1-2.8-.3-4.1-.7-.6-2.4-1.4-.5-2.8-1.4Z"/>
      <path class="st0" d="M252.4,33.3c-.4,1.6-.1-1.5-1.4-2.1.8-.2,1.6-.6,2.4.3.4,1.3-1.7.4-1,1.7Z"/>
      <path class="st0" d="M261.1,38.4c-.3-.5.2-.5.4-.4-.5-.6-1.5-2.3-1.7-3.8.9-.5,1.8-.1,2.8-1.4-.7,1.5,2.2,3.2,3.5,2.8,1.1,1.3-1,.9-.3,1.7-1.5.8-1.3-1.5-3.1-1-.9,1,1.8,2.1.3,3.1-.5-.3-.5-.7-.3-1-.5-.2-.9-.3-1.4,0Z"/>
      <path class="st0" d="M276.3,42.6c-.6.5-1.5-1.8-.3-2.4l1.4,1.4c-.5,0-1.5.4-1,1Z"/>
      <path class="st0" d="M30.1,141c-.9-3.7,2.7-8.9,2.1-13.1,1.5-.9,1.1-3.1,2.8-2.1,0-2.5,1.6-5.7,2.4-7.2,3.6,2,3.3,5.7,5.9,7.9-1.7-.1,0,1.8-1.7,1.7-1.5-.9-.8-1.8-2.1-2.8-.2,4.6-1.4,7.3-2.4,12.1-2.1,0-5.4,2.5-6.9,3.5Z"/>
      <path class="st0" d="M134.4,38.1c2.1-.9,2.7-4.1,5.2-2.4-.7-1.8,1.5-1.4,2.8-2.1.5.9.2,1.3-.7,1.4l1.4,1.4c.6-.6.6-1.2.3-1.7,2.1-.3,1,2.3,1.7,3.1-1,.4-2.1.4-3.1-1-.5,2.5-4.3,1.1-3.8,3.1-1.3.3-3.6-.2-3.8-1.7Z"/>
    </g>
  </g>
  <g id="text">
    <g>
      <path class="st1" d="M139.2,174.7l-6-14.5-8.5-1.3v-11.4h45.5v11.4l-10.9,1.3,22,59.6h.6l17.4-59.6-10.9-1.3v-11.4h31v11.4l-8.4,1.3-27.2,92.1h-15.7l-22.6-60.5h-.6l-21.6,60.5h-15.9l-30.2-92.1-8.1-1.3v-11.4h44.8v11.4l-10.5,1.3,18.9,60.5h.6l16.5-46Z"/>
      <path class="st1" d="M218.6,224.5c3.6,5.5,8.8,11,13.9,16,2-3.4,3.3-7.4,3.8-11.4l-5.7-.5v-4.6h14.8v4.6l-5.1.6c-.9,4.9-2.4,9.7-5.1,13.8,2.4,2,4.5,3.1,6.4,3.1s3.6-1.2,3.9-6.4l3.8.4c-.1,10.5-4.5,13.4-9.7,13.4s-7.8-1.5-11.1-3.7c-3.6,2.3-8.2,3.7-13.9,3.7-8.5,0-17.4-4-17.4-13.3s3.7-10.5,10.3-13.9c-1.7-3.3-2.7-6.4-2.7-9.5,0-8.5,6.7-13.3,15.5-13.3s11.3,3.9,11.3,8.5-5.1,9-13.1,12.5ZM225.1,247.2c-5.6-4.7-11.2-11.3-15.3-17.1-1.4,1.8-2.2,4.1-2.2,7.1,0,7.3,4.5,11.1,11.3,11.1s4.3-.4,6.1-1.2ZM217,222c5.5-2.8,7.6-6,7.6-9.9s-2.1-4.8-4.3-4.8c-3.2,0-5.5,2.3-5.5,6.4s.8,5.5,2.2,8.3Z"/>
      <path class="st1" d="M331,182.5h-11c-3.8-20.7-7.8-23.4-23.1-23.4h-.8v80.5l14.6,1.2v11.5h-53.9v-11.5l14.3-1.2v-80.5h-.6c-15.6,0-19.9,3.9-23.4,23.4h-10.9l1.5-35.9h91.6l1.5,35.9Z"/>
    </g>
    <g>
      <path class="st0" d="M22.1,283.9l1,.9c-.5.8-1,.7-1.5,1-.5-.6-.2-1.2.5-1.9Z"/>
      <path class="st0" d="M58.3,327.9c1.5-.5,4.5.2,5.1,2.3-2.1,3.4-7.9,1.1-5.1-2.3Z"/>
      <path class="st0" d="M361.5,51.4c.8-1,1.6-1.8,2.5-.8,0,1.1-1.5,2.2-2.5.8Z"/>
      <path class="st0" d="M395.6,95.9c-3.9,3.3-9.8,2.4-11.4-1.9,3.5-3.6,8.7-.2,11.4,1.9Z"/>
      <path class="st0" d="M398,81.9l1.2-1.3c1.5.4,1.6,1.2.1,2.5l-1.3-1.2Z"/>
      <path class="st0" d="M374.3,207.6c2.9-.4,0-.9,2-2.9,2,2.3-2.2,4.9-.6,7.3l-3,3.3c.9,0,1.7-.4.4.9.5.3,1-.6,1.5-1-.6,1.9.5,3.8-1.6,5.7.3,1,1.4,4.4-1.9,6.1.5,0,1-.5,1.6.2-1.9,1.4-1.4,5.6-3.2,4.9,1.5,2.8.4,3.6-1.2,7.3-3.7,8.7-7.8,22-15.3,31.6-.3.4.3.8.7,1.2-5.6,6.9-9.7,16.2-17,23.5-11.3,11.2-23.1,20.1-34,29.1-3.5.3-8.3,3.7-10.6,7.2-2.8-.3-6.1,2.7-6.3,5-1.5-.5-2.9,1.3-4.4.8-3.5,3.6-10.3,5.1-11.8,8.5-4.2-.5-8.2,2.8-12.4,2.5-9.1,6.3-20.3,4.8-28.4,9.6-.6.6-1.3-.8-1.9-.5-1,1.1-2.1.4-3,2-13.5,1.4-27.2.1-40.8,1.5-12.4-4.3-25.4-4.4-37.5-8.1-4.5-1.4-8.6-4-13.2-5.9-3-1.3-6.3-.5-9.5-1.4-2.1-.6-4.3-2.7-6.2-3.8-.9-.5-2.2-.4-2.9-.8-4.5-2.4-5.9-6.4-9.9-9.5-2-1.5-4.6-1.7-6.5-3.4-7.8-7.1-15.1-14.8-22.1-19.9-2.8-9.1-21-16.6-17.3-25.2-1.3-2.8-4.1-5.4-4.8-7.9,0-.3.7-1,.6-1.3-.6-1.2-1.8-1.5-2.3-2.7-1.1-2.4-4.4-7.7-4.6-10.8,0-.3,1-.7.9-1-.6-2.5-2.1-5.2-3.9-7.7,1.3-3.1-1.5-6-.2-9.1-.4-.1-.8-.2-1.2,0,.3-.9,1.7-4.7.1-3.5-.9-7.1,8.2-14.7,4.6-21.6-.5.8-1,.7-1.5,1,2-2.7-.8-5.2,1.8-7.9-.1-1.5-.5-2.9-.9-4.4,4.1-8.8,4.4-17.4,5-26,3.7.2,4.6,6,5.7,6.9.8,1.1-1,.4-1.2,1.3,3.2,7,1.4,18.1,5.4,26.4-1,1.8-.1,3.6,1.2,5.3,1.1,8.6,3.5,16.4,8.2,24.1-.7,2.2.6,2.8,1.8,5.2-1.4.1-1.2.2-.8,2.2.1-.4.2-.9,0-1.3,2.8,1.1,2.6,4.3,3.8,6.4,3.7,6.7,8.8,12.7,12.3,20.1,8.6,10.2,18.2,20.8,31.5,31.4,20.9,16.7,45.4,23.3,65.1,31.2,1.2,1.5,1.2,1.7,2.6,2.4,4-2,8.1-.5,12.1-2.2,4.1.7,8.2.2,12.2-.3,6.1,2.4,13.5-1.2,18.6.6,3.2-1.8,6.4-1.7,9.7-1.4,5.3-1.5,10.5-3.3,15.8-3.6,6.5-2.2,12.9-5.2,19.5-6.3,8.8-6.2,19.4-8.6,27.1-16.8,5.9-2.8,13.5-9.6,17.7-16.9,2.3-1.1,6-6,8-8.9,20.9-29.4,27.9-66.7,27.2-94.4-2,0-1.5-1.1-3-2.7.8-.7,1.7.2,2.5-.1-.8-3.7.5-8.2-2.1-10.9,1.8-4.2-1.1-17.1-3.9-21.5,0-.5.3-1.1.9-1.6-3.6-7.5-4-16.8-9.7-23.1-.6-8.1-8.1-15-11.2-22.1-.7-.5-1.3-1.8-1.9-.5-.5-.6-.2-1.2.5-1.9-4.2-6.6-7.8-10-13.9-13.1-9.2-4.7-12.3-13.6-18-19.8-2.4-.4-3.6-2.9-5.5-2.6-1.6-3.5-5.9-6.5-9.1-5.8.4-3.8-6.1-6.1-9.8-7-.2-2.1-7-4.6-10-4.8-.6-1.2-1.1-1.6-2.3-2.1-19.6-7.8-38.7-9.6-57.2-11.5-4.2.4-8.4-1.2-12.5.6-1.3-.9-5-.9-7.3-.6-7,.9-13.7,3.6-20,7.6-2.9-1.1-5.6,1.2-8.4,2-1.6,6.2-10.3,9.7-14.2,5.1-1.8,0-3.5.3-5.3,1.8-4.6-2.5-8.1.6-11.7,5-3.5-2.1-8.9,3.9-13.2,6.7-1.3,6.1-8.1,14.6-13.3,10.7-9,8-18.9,18.9-25.6,28.3-1.5,2.1-2.1,4.5-3.4,6.5-2,3-3.6,4.5-5.9,6.6-.5,2.2-1.6,4.3-4.1,5.9-2.3-1.3,0-3.2-.6-5.3,4.5-5.3,6.2-11.8,9.8-17.5,1.7-2.6,4.4-4.3,6.2-6.9,1.5-2,2.1-4.4,3.8-6.2,1.1-1.1,2.4-1.8,3.3-3,8.3-10.5,16.9-19.9,27.1-28.7,8.7-7.5,19.7-12.7,29.1-21,3,.6,5.7-2.8,8.7-2.3,4.1-4.5,8.5-2.7,12.5-6.6,1.4.4,2.7,0,4-1.8,3.3.7,6.3-3.1,9.6-2.1,7.9-3.5,16-2.4,23.9-5.9,1,1.7,1.8-.6,2.9.8l1.5-1.6c7.3-.3,14.6-1.3,21.9-2.4,1.5,1.1,3.7,1.2,6,0,4.2,1.9,9.9,2.1,15.5,2.7,3.6,2.5,7.5,4.1,11.6,5.1,8.6,2.1,20.7,6.3,29.7,8.2,8.8,5.9,15.5,10.1,23.4,14.5,3.8.5,7.5,1.9,10.6,3.5,6.1,9.8,14.8,16.1,22.9,23.7.8,1.4.7,2.9,1.5,4.3,4.8,2.4,11.6,9.3,12.1,15.7.7,1.7.7.3,1.9,1.2-1.1,3.2,2.5,6.1,5.5,8.5,0,6.7,8.3,11.5,8.2,18.8,12.8,9.4,12.6,21,10.8,33.1-.4.1-.8.2-1.2.7-.5,8.3,2.2,16.4-.3,24.9,1.5,5.9-2.1,10.3-1,16.4-.5.1-1.1-.3-1.6.4-.6,1.2,1.2-.8,1.6.9-1,2-.5,4.2-2.9,4.6,1.7.8.9,2-.1,4.1Z"/>
    </g>
  </g>
</svg>