<?xml version="1.0" encoding="utf-8"?>
<!-- Generator: Adobe Illustrator 28.2.0, SVG Export Plug-In . SVG Version: 6.00 Build 0)  -->
<svg version="1.1" id="Layer_1" xmlns="http://www.w3.org/2000/svg" xmlns:xlink="http://www.w3.org/1999/xlink" x="0px" y="0px"
	 viewBox="0 0 867.1 98" style="enable-background:new 0 0 867.1 98;" xml:space="preserve">
<style type="text/css">
	.st0{fill:#197884;}
</style>
<g>
	<path class="st0" d="M34.3,67.6l6.6,5.5H16l6.6-5.5V14.5L16,9h24.9l-6.6,5.5V67.6z M82.8,73.1v0.5c-19.8,1.8-26-4.3-43.7-33.3
		l25.2-24.9L55.4,9h22.8L50.7,36.5C63.9,57,69.6,68,82.8,73.1z"/>
	<path class="st0" d="M113.3,73.1h-24l6.6-5.5V39.5l-5.9-4.9l16.7-7.3v40.4L113.3,73.1z M94.3,13.1c0-3.7,3-6.7,6.6-6.7
		c3.7,0,6.7,3,6.7,6.7c0,3.6-3,6.6-6.7,6.6C97.3,19.7,94.3,16.7,94.3,13.1z"/>
	<path class="st0" d="M159.1,67.6V44.1c0-7.3-3.3-9.2-8.2-9.2c-2.7,0-6.8,0.7-11.2,4v28.7l6.6,5.5h-24l6.6-5.5V39.5l-5.9-4.9
		l16.7-7.3l-1.4,8.1l0.5,0.5c4.5-4.6,9.8-8.3,18.1-8.3c6.5,0,13.1,3,13.1,13.1v27.1l6.6,5.5h-24L159.1,67.6z"/>
	<path class="st0" d="M235,35.7L224.2,32c2.9,2.5,4.9,6,4.9,10.4c0,9.9-9.7,14.9-19,14.9c-3.2,0-6.4-0.5-9.3-1.7
		c-2.4,1.9-3.5,3.9-3.5,6c0,2.2,1.4,3.8,4,3.8h25.7c4.7,2.4,8,7.1,8,12.9c0,9.6-8.8,17.8-27,17.8c-13.3,0-20-4.6-20-11.5
		c0-3.7,1.9-7.3,7.1-10c-3.3-2.1-5-5.5-5-9.3c0-4.9,2.8-8.7,7.4-11.5c-3.8-2.5-6.3-6.3-6.3-11.4c0-10,9.7-15,19.1-15
		c2.9,0,6,0.5,8.7,1.6l16.1-1.2V35.7z M199.8,74.9c-1.7,1.9-2.9,4.5-2.9,7.7c0,5.8,4.4,9.6,12.9,9.6c10,0,14.2-4.6,14.2-10.4
		c0-4.3-2.2-6.9-7.1-6.9H199.8z M218.3,43.3c0-6.8-3.8-12.4-9-12.4c-4.8,0-7.4,4.7-7.4,10.4c0,6.9,3.7,12.5,8.9,12.5
		C215.7,53.9,218.3,49.1,218.3,43.3z"/>
	<path class="st0" d="M281.6,59.6c0,8.7-7.9,14.5-17.7,14.5c-3.9,0-7.7-0.9-10.8-2.3l-5.8,2.5V57.7l8.2,10.6
		c2.5,1.1,4.9,1.7,7.1,1.7c5.4,0,8.2-3.3,8.2-6.7c0-10.3-23.5-7.2-23.5-22.3c0-9.2,8.9-13.7,17.8-13.7c3.5,0,6.7,0.7,9.5,1.8l4.9-2
		v16l-8.7-11.1c-1.5-0.5-2.9-0.7-4.6-0.7c-5.9,0-8.6,3.3-8.6,6.4C257.7,47,281.6,44.1,281.6,59.6z"/>
	<path class="st0" d="M381.9,73.1h-26.6l6.6-5.5l-7.3-17.3h-21.2l-7.2,16.9v0.1l10,5.9h-18.6l29.6-67.3h0.5L375.4,68L381.9,73.1z
		 M352.6,45.5l-8.5-20.2l-8.6,20.2H352.6z"/>
	<path class="st0" d="M407.2,41.6v25.6l10.1,6h-27.5l6.6-5.5V39.5l-5.9-4.9l16.7-7.3l-1.9,11.6l0.5,0.2c3.2-7.3,10-12.7,18.9-10.7
		l-3.9,11.4C415,37.8,409.9,38.8,407.2,41.6z"/>
	<path class="st0" d="M515.8,73.1h-24l6.6-5.5V44.1c0-7.2-2.5-9.2-7.3-9.2c-2.7,0-6,0.7-10.4,4v28.7l6.6,5.5h-24l6.6-5.5V44.1
		c0-7.2-2.5-9.2-7.3-9.2c-2.7,0-6,0.7-10.4,4v28.7l6.6,5.5h-24l6.6-5.5V39.5l-5.9-4.9l16.7-7.3l-1.4,8.1l0.5,0.5
		c4-4.4,9.6-8.3,17.3-8.3c5.2,0,9.9,1.9,11.5,8c4-4.2,9.5-8,17-8c6.4,0,12.2,2.9,12.2,13.1v27.1L515.8,73.1z"/>
	<path class="st0" d="M563.5,59.6c0,8.7-7.9,14.5-17.7,14.5c-3.9,0-7.7-0.9-10.8-2.3l-5.8,2.5V57.7l8.2,10.6
		c2.5,1.1,4.9,1.7,7.1,1.7c5.4,0,8.2-3.3,8.2-6.7c0-10.3-23.5-7.2-23.5-22.3c0-9.2,8.9-13.7,17.8-13.7c3.5,0,6.7,0.7,9.5,1.8l4.9-2
		v16l-8.7-11.1c-1.5-0.5-2.9-0.7-4.6-0.7c-5.9,0-8.6,3.3-8.6,6.4C539.6,47,563.5,44.1,563.5,59.6z"/>
	<path class="st0" d="M660.1,68.2l6.6,5.5h-24.9l6.6-5.5V42.2h-34.3v25.9l6.6,5.5h-24.9l6.6-5.5V15l-6.6-5.5h24.9l-6.6,5.5v22.4
		h34.3V15l-6.6-5.5h24.9l-6.6,5.5V68.2z"/>
	<path class="st0" d="M673.2,51.3c0-14.9,11.1-23.4,23.6-23.4c12.5,0,23.6,8.4,23.6,23.4c0,14.8-11.2,23.3-23.6,23.3
		C684.3,74.6,673.2,66.2,673.2,51.3z M708.2,53.2c0-12.6-5.4-21.4-12.6-21.4c-7.6,0-10.3,8-10.3,17.5c0,12.6,5.6,21.4,12.8,21.4
		C705.7,70.7,708.2,62.8,708.2,53.2z"/>
	<path class="st0" d="M738.2,60.5V34.7h-9.6L749,19.8v9.1h18.8l-2.8,5.9H749v21.8c0,4.4,1.2,9,7.7,9c3.2,0,6.3-1.1,10-3.9l0.5,0.5
		c-2.3,8.7-8.2,12.5-14.9,12.5C743.5,74.6,738.2,68.2,738.2,60.5z"/>
	<path class="st0" d="M817.2,60.5l0.5,0.5c-3.3,10.2-10.5,13.7-18.1,13.7c-12.7,0-22.1-9.9-22.1-23.7c0-14.6,10.6-22.9,22.7-22.9
		c9.9,0,18.1,5.5,18.2,17.8h-30.5v1.6c0,11.1,5.4,18.2,15.4,18.2C807,65.5,811.9,64.5,817.2,60.5z M788.3,42.3h18.4
		c0-6.2-2.9-10.7-8-10.7C793.6,31.6,789.5,35.5,788.3,42.3z"/>
	<path class="st0" d="M852,73.7h-24l6.6-5.5V14.1l-5.9-4.9l16.7-7.3v66.3L852,73.7z"/>
</g>
</svg>
