<?xml version="1.0" encoding="UTF-8"?>
<svg id="Layer_1" xmlns="http://www.w3.org/2000/svg" version="1.1" viewBox="0 0 400 400">
  <!-- Generator: Adobe Illustrator 29.0.0, SVG Export Plug-In . SVG Version: 2.1.0 Build 186)  -->
  <defs>
    <style>
      .st0 {
        fill: #ffd2a7;
      }

      .st1, .st2, .st3 {
        fill-rule: evenodd;
      }

      .st1, .st4 {
        fill: #fff;
      }

      .st5 {
        fill: #e0f7e9;
      }

      .st6, .st2 {
        fill: #ab5c3b;
      }

      .st3, .st7 {
        fill: #2e4d34;
      }

      .st8 {
        fill: #8e364c;
      }
    </style>
  </defs>
  <g>
    <path class="st5" d="M352.3,143.8c-46-14-85.6-33.7-130.5-88.4C176.9.6,56.2,17.4,21.1,99.5c-35.1,82.1-9.8,157.9,32.3,171.9,42.1,14,60.2,27.8,83.4,81.6,18.6,43.2,122.3,64,154.4,22.3,58.7-76.2,60.4-46.4,88.4-103.3,28.1-56.8,19.9-114.1-27.4-128.4Z"/>
    <path class="st5" d="M324,64.9c-31.2-35.3-43.1-45.8-77.6-38.4-34.5,7.4,21.6,67.4,78.8,96.8,57.2,29.4,37.1-15.1-1.2-58.4Z"/>
  </g>
  <rect class="st7" x="12.1" y="397.3" width="370.2" height="2.7"/>
  <g>
    <g>
      <g>
        <path class="st4" d="M185.2,240c3.7,0,7.1-1.3,10.1-3.3.1,6.2-.3,12.5-1.5,18.6-4,6.4-15,18.2-14.3,18.1,3.1-.2,6-1.1,8.9-2.1-1.9,3.9-4.1,7.6-6.7,11-5.4,7.1-13,12.8-15.9,21.6,0,.2-.2.3-.3.4,0,.5-.6.9-1,.5-14.4-13.7-17-34.4-19.1-53.2-.1-.9-.2-1.8-.3-2.7,4,4,8.2,7.6,13.3,10.4.7.4-9-15.2-13.8-22.3.2-4.5.9-9,2.5-13.3,3.4-9,9.1-17.5,14.8-25.2.2-.3.5-.6.7-.9,1.5,4,3.5,7.8,6.2,11.2.5.6-1-11.4-1.9-16.8,1.4-1.7,2.8-3.5,4.3-5.2,1.9-2.3,4.3-6.1,7.7-5.6,3.3.5,11,14.2,11.9,18.1.4,1.7.8,3.4,1.1,5.1.2.7.3,1.5.4,2.2,1.3,6.9,2,13.9,2.6,20.8-.2.4-.5.7-.7,1.1-2.8,3.8-9.6,11.5-8.9,11.5Z"/>
        <path d="M164.8,305.4c-.3,0-.5-.1-.8-.3-14.8-14-17.3-35.9-19.2-53.5-.1-.9-.2-1.8-.3-2.7v-1.4c-.1,0,.9,1,.9,1,4.2,4.2,7.9,7.2,11.7,9.5-2.2-3.9-9.2-14.9-13-20.8h0c0-.1,0-.3,0-.3.2-5,1-9.4,2.5-13.5,3.4-9.2,9.5-17.9,14.8-25.4.1-.2.2-.3.4-.5.1-.2.2-.3.3-.5l.6-.8.3.9c1.4,3.6,3.1,6.9,5.2,9.9-.3-3.1-1.2-10.7-2-15.2v-.2s.1-.2.1-.2c1.4-1.7,2.8-3.5,4.3-5.2.3-.3.6-.7.9-1.1,1.8-2.3,4.1-5.1,7.3-4.7,3.9.6,11.5,14.9,12.4,18.5.4,1.6.8,3.3,1.1,5.1.2.7.3,1.4.4,2.1v.2c1.1,5.9,1.9,12.6,2.6,20.9v.2s0,.1,0,.1c-.2.4-.5.8-.8,1.1-1.1,1.5-2.9,3.7-4.6,5.7-1.5,1.8-3.2,3.9-3.9,4.9,3.1-.2,6.1-1.2,9-3.2l.8-.5v1c.1,6.9-.4,13-1.5,18.7v.2c-2.5,3.8-7.2,9.5-10.7,13.6-1.2,1.4-2.4,2.8-3.1,3.7,2.9-.4,5.6-1.2,7.7-1.9l1.2-.4-.5,1.1c-1.9,4-4.2,7.7-6.8,11.1-1.7,2.3-3.8,4.5-5.7,6.7-4,4.4-8.2,8.9-10.1,14.7,0,.2-.2.4-.4.6-.1.3-.4.6-.7.7-.1,0-.2,0-.4,0ZM145.7,250.3c0,.4,0,.8.1,1.2,2,17.4,4.4,39.1,18.9,52.8,0,0,.2,0,.2-.2v-.3s.3-.1.3-.1c2-6,6.2-10.7,10.3-15.2,1.9-2.1,3.9-4.3,5.6-6.6,2.3-3,4.4-6.3,6.1-9.8-2.2.7-4.9,1.5-7.8,1.7h-.3s-.2-.3-.2-.3c-.2-.5-.2-.5,3.7-5.2,3.4-4.1,8.2-9.6,10.5-13.4,1.1-5.4,1.6-11.1,1.5-17.5-3.1,1.9-6.3,2.9-9.6,2.9h-.3s-.2-.3-.2-.3c-.2-.5-.1-.7,4.4-6.3,1.7-2.1,3.4-4.2,4.5-5.7.2-.3.4-.6.6-.9-.7-8.2-1.5-14.8-2.5-20.6v-.2c-.2-.7-.3-1.4-.4-2-.4-1.9-.7-3.5-1.1-5.1-1-4-8.5-17.3-11.5-17.7-2.6-.4-4.6,2.1-6.4,4.3-.3.4-.6.8-.9,1.1-1.4,1.6-2.8,3.3-4.1,5,.4,2.6,1,6.6,1.4,10.2.8,6.8.7,6.8.2,7l-.4.2-.3-.3c-2.4-3.1-4.4-6.6-5.9-10.5,0,0,0,.1-.1.2-5.3,7.4-11.3,16-14.7,25.1-1.4,3.9-2.2,8.1-2.4,13,2.2,3.4,5.7,8.8,8.7,13.6,5.4,8.8,5.3,8.9,5,9.3l-.3.3-.4-.2c-4.1-2.2-8-5.2-12.4-9.4Z"/>
      </g>
      <path class="st7" d="M172.1,233.1c7.1-1.1,12.5-5.6,17.7-10.2.8-.7-.2-2-1-1.3-4.9,4.3-10,8.7-16.6,9.8,1.5-10.6,3.3-21.1,5.3-31.6.2-1-1.4-1.3-1.6-.3-2.8,13.9-5,27.9-6.7,41.9-4.1-5.8-7.2-12.1-9.4-18.9-.3-1-1.8-.4-1.5.6,2.3,7.2,5.7,13.8,10.1,20,.2.2.4.3.6.3-.4,3.1-.7,6.1-1,9.2-3-3.7-5.3-7.7-7-12.2-.4-1-1.9-.4-1.5.6,1.9,5,4.5,9.5,7.9,13.5.1.1.2.2.3.2-1,10.1-1.8,20.3-2.4,30.4,0,0,0,.2,0,.3-.2,3.7-.3,7.4-.4,11.2,0,2.4-.1,4.8-.2,7.3,0,.3,0,.4.2.5.4,22.9,3.8,45.6,8.6,68,.5-.1,1.1-.2,1.6-.4-5.4-25.3-9.1-51-8.6-77,0-2.7.2-5.5.3-8.2.2,0,.5,0,.7,0,3-2,5.5-4.6,7.4-7.6.6-.9-.7-1.9-1.3-1-1.8,2.8-4.1,5.2-6.8,7.1.9-17.5,2.6-35,5-52.3,0,0,0,0,0,0Z"/>
      <g>
        <path class="st4" d="M115.6,280.1c-3.2,1.2-6.4,1.4-9.6.8,1.7,4.7,3.9,9.3,6.7,13.5,5.2,3.5,18,8.7,17.4,8.9-2.7.8-5.4,1.2-8.1,1.4,2.7,2.3,5.7,4.3,8.9,6.1,6.6,3.6,14.8,5.4,19.8,11,.1.1.3.2.4.2.2.3.8.5,1,0,8.3-15,4.4-31.5.8-46.2-.2-.7-.3-1.4-.5-2.1-2.2,4.3-4.8,8.4-8.3,12.1-.5.5,3.3-14.4,5.2-21.3-1.4-3.3-3.3-6.4-6-9.2-5.5-5.7-12.9-10.1-19.9-14.1-.3-.2-.6-.3-.9-.5-.1,3.5-.7,7-2,10.5-.2.6-2.4-8.9-3.2-13.3-1.7-.9-3.4-1.7-5.1-2.5-2.3-1.1-5.4-3.2-8.2-1.7-2.7,1.5-5.2,14.3-4.9,17.5.1,1.4.3,2.8.5,4.2,0,.6.2,1.2.3,1.8.9,5.6,2.3,11.1,3.9,16.5.3.2.6.4,1,.6,3.5,1.9,11.5,5.5,10.9,5.7Z"/>
        <path d="M151.6,322.8h0c-.3,0-.6-.1-.8-.3-.2,0-.4-.2-.5-.3-3.3-3.7-8.1-5.7-12.8-7.7-2.3-1-4.6-2-6.8-3.1-3.2-1.7-6.2-3.8-9-6.1l-1-.8h1.3c1.9-.2,4.4-.5,6.9-1.1-.8-.4-2.1-1-3.4-1.6-4.2-1.9-9.9-4.6-13-6.7h-.1c-2.6-4.1-4.8-8.5-6.7-13.7l-.3-.8.9.2c3,.5,5.8.4,8.4-.5-1-.6-2.9-1.5-4.5-2.3-2-1-4.2-2-5.6-2.8-.3-.2-.7-.4-1-.6h-.2c0-.1,0-.3,0-.3-1.9-6.5-3.1-11.8-3.9-16.6-.1-.7-.2-1.3-.3-1.8-.2-1.5-.4-2.9-.5-4.2-.3-3.4,2.2-16.4,5.2-18,2.6-1.4,5.4,0,7.6,1.1.4.2.7.4,1.1.5,1.8.8,3.5,1.7,5.2,2.5h.2c0,.1,0,.4,0,.4.6,3.5,2,9.3,2.7,11.9.9-2.9,1.4-5.9,1.5-9v-.9s.8.4.8.4c.1,0,.3.2.4.2.2,0,.3.2.4.2,6.7,3.8,14.4,8.4,20,14.2,2.5,2.5,4.4,5.6,6.1,9.3v.2c0,0,0,.2,0,.2-1.7,6-4.2,15.8-5,19.6,2.5-2.9,4.7-6.3,7.1-10.8l.6-1.2.3,1.3c.2.7.4,1.4.5,2.1,3.4,13.9,7.7,31.1-.8,46.6-.2.4-.6.6-.9.6ZM151.4,321.4v.3c8.6-15.1,4.4-32.1,1-45.8,0-.3-.1-.5-.2-.8-2.5,4.6-4.9,8.1-7.7,11.1l-.3.3-.4-.2c-.4-.2-.5-.3,1.5-8.7,1.1-4.5,2.5-9.7,3.4-13-1.6-3.5-3.5-6.4-5.8-8.9-5.5-5.7-13.1-10.2-19.8-14,0,0,0,0-.1,0-.2,3.4-.9,6.7-2,9.8v.4c-.1,0-.6,0-.6,0-1,0-3.3-11.6-3.6-13.5-1.6-.8-3.2-1.6-4.9-2.4-.4-.2-.7-.4-1.1-.5-2.1-1.1-4.5-2.3-6.6-1.1-2.4,1.3-4.9,13.7-4.6,17,.1,1.3.3,2.7.5,4.2,0,.6.2,1.2.3,1.7.8,4.8,2,10,3.8,16.4.2.2.5.3.8.5,1.4.8,3.5,1.8,5.5,2.8,5.5,2.7,5.7,2.9,5.7,3.4v.3s-.4.2-.4.2c-2.8,1.1-5.8,1.4-9,1,1.8,4.7,3.8,8.8,6.3,12.5,3.1,2.1,8.7,4.7,12.8,6.6,4.8,2.2,4.8,2.3,4.8,2.8v.4s-.4.1-.4.1c-2.5.8-4.9,1.1-7,1.3,2.5,2,5.1,3.7,7.9,5.2,2.1,1.2,4.5,2.1,6.7,3.1,4.8,2,9.7,4.1,13.2,8h.3Z"/>
      </g>
      <g>
        <path class="st7" d="M164,376c-2.4-18.4-6.1-36.6-12.4-53.9,0-.1.1-.3,0-.5-.7-1.8-1.5-3.6-2.3-5.4-1.1-2.8-2.3-5.5-3.6-8.3,0,0-.1-.2-.2-.2-3.4-7.5-7-14.8-10.9-22.1,0,0,.2-.2.2-.3,1.7-4.2,2.7-8.4,2.8-12.8,0-.9-1.4-.8-1.5,0-.1,3.9-.9,7.7-2.4,11.5-1.2-2.2-2.4-4.4-3.6-6.6.2,0,.3-.2.4-.4,2-6,2.9-12.2,2.8-18.3,0-.9-1.5-.8-1.5,0,.1,5.8-.7,11.6-2.5,17.3-5.6-10-11.5-19.8-17.9-29.3-.5-.7-1.8,0-1.3.7,4.8,7.2,9.4,14.5,13.7,22-6,1.3-11.5-.3-17-1.9-.9-.3-1.3,1-.4,1.3,5.8,1.8,11.7,3.4,18,1.8,0,0,0,0,0,0,7.1,12.2,13.6,24.8,19.5,37.7-2.9-.6-5.5-1.6-7.8-3.1-.7-.5-1.5.7-.8,1.2,2.5,1.6,5.4,2.7,8.5,3.3.3,0,.5,0,.6-.2.9,2,1.8,4,2.7,6.1,8,19.4,12.3,39.8,15.1,60.7.5,0,1-.2,1.5-.2Z"/>
        <path class="st7" d="M112.2,260.4c-4.6-.9-8.9-2.6-12.7-4.9,0,.6.2,1.2.3,1.8,3.6,2.1,7.6,3.6,11.9,4.4.9.2,1.4-1.1.5-1.3Z"/>
      </g>
      <g>
        <path class="st4" d="M249.6,272.6c0,5.9-13.6,8.7-17.9,10.3-9.5,3.5-18.8,7.1-25.9,14.7-8.3,9-15.5,19.5-22.6,29.4-.5.6-1.1.8-1.7.7-.1,0-.9-1.7-2-4.3-2.5-6.1-6.2-17.2-5.3-23.6.7-4.5,2.2-8.7,4.3-12.6.5,2,1.3,3.9,2.7,5.4.3.3,1.1-8,1.6-11.8.6-.8,1.3-1.5,1.9-2.2,1.5-1.7,3.2-3.2,5-4.6.4-.3.8-.6,1.2-.9,1.5-1.1,3-2.1,4.6-3,.4-.2.8-.5,1.3-.7,1.5-.8,3-1.6,4.6-2.3.5,2.9,1.2,5.7,2.5,8.3.3.6.9-6.6,1-9.8,1.5-.6,3-1,4.5-1.5.4,1.9,1,3.7,1.9,5.4.2.4,2.2-4.4,3-6.6,4.8-1,9.8-1.4,14.5-1.1.4,0,.8,0,1.2,0,1.3,0,2.6.2,3.9.4,4.7.7,15.7,3.7,15.9,10,0,0,0,.1,0,.2Z"/>
        <path d="M181.8,328.3c-.1,0-.2,0-.4,0-.3,0-.5,0-2.4-4.6-1.5-3.8-6.4-16.6-5.3-23.8.6-4.3,2.1-8.6,4.4-12.8l.6-1.2.3,1.3c.4,1.8,1.1,3.3,2,4.4.2-1.4.5-4.2.8-6.3.2-1.7.4-3.3.5-4.5h0c0-.1,0-.3,0-.3.7-.8,1.3-1.6,2-2.3,1.5-1.7,3.2-3.2,5.1-4.7.4-.3.8-.6,1.2-.9,1.5-1.1,3-2.1,4.6-3.1.4-.2.8-.5,1.3-.7,1.5-.8,3-1.6,4.6-2.3l.6-.3v.7c.5,2.6,1.1,4.8,2,6.8.3-2.1.6-5.9.6-8.1v-.3s.3-.1.3-.1c1.6-.6,3.3-1.1,4.5-1.5h.5c0-.1.1.4.1.4.4,1.8.9,3.2,1.5,4.5.6-1.2,1.8-4,2.4-5.7v-.3c0,0,.4,0,.4,0,5-1,9.9-1.4,14.6-1.1.4,0,.8,0,1.3,0,1.3,0,2.6.2,3.9.4,6,.9,16.1,4.2,16.3,10.5,0,0,0,.1,0,.2h-.5s.5,0,.5,0c0,5.2-9.2,7.9-15.2,9.8-1.2.4-2.3.7-3.1,1-9.1,3.4-18.5,6.9-25.7,14.6-7.1,7.8-13.5,16.7-19.6,25.3-1,1.4-2,2.7-2.9,4.1-.4.6-1.1,1-1.8,1ZM178.4,288.7c-1.9,3.7-3.1,7.5-3.7,11.3-1,7,3.8,19.6,5.3,23.3.9,2.2,1.5,3.5,1.8,4,.3,0,.7-.1,1-.5,1-1.4,2-2.7,2.9-4.1,6.2-8.6,12.5-17.5,19.7-25.4,7.3-7.9,17.3-11.6,26.1-14.9.8-.3,1.9-.6,3.1-1,5.4-1.6,14.4-4.4,14.5-8.8v-.2c-.2-5.6-10.2-8.7-15.4-9.5-1.3-.2-2.6-.3-3.8-.4-.4,0-.8,0-1.2,0-4.6-.2-9.3.1-14.1,1.1-.5,1.3-2.4,6.6-3.3,6.6h-.3s-.2-.3-.2-.3c-.7-1.4-1.3-3-1.8-5-1.1.3-2.4.7-3.6,1.2,0,1.8-.4,9.7-1.4,9.9h-.4c0,0-.2-.3-.2-.3-1.1-2.3-1.9-4.8-2.4-7.8-1.3.6-2.6,1.3-3.9,2-.4.2-.9.5-1.3.7-1.5.9-3.1,1.9-4.5,3-.4.3-.8.6-1.1.9-1.8,1.4-3.4,2.9-5,4.6-.6.6-1.2,1.3-1.8,2.1-.1,1.2-.3,2.7-.5,4.3-.8,7.6-.9,7.6-1.4,7.7h-.3c0,.1-.3-.1-.3-.1-1.1-1.1-1.9-2.5-2.5-4.3Z"/>
      </g>
      <g>
        <path class="st7" d="M197.4,288c-11.5,11.4-15.1,32.2-15.8,38.1-1.1,2.4-2,4.9-2.4,7.7-1.4,9.4-1,19.2-.7,28.7,0,3.1.2,6.2.4,9.3.5,0,1.1-.2,1.6-.3-.1-2-.2-3.9-.3-5.9-.3-8.4-.3-16.9.1-25.4.2-4.4.6-8.7,2.3-12.8.2-.1.4-.3.5-.5,7.2-10,14.3-20.4,22.6-29.4,7-7.7,16.3-11.2,25.9-14.7,4.3-1.6,17.8-4.4,17.9-10.3-18.1,2.1-38.9,2.3-52.1,15.4Z"/>
        <path class="st7" d="M197,282.5c-.8-4.4-.9-8.7-.2-13.1-.4.2-.9.5-1.3.7-.6,4.2-.5,8.4.4,12.6.1.8,1.3.5,1.2-.3Z"/>
        <path class="st7" d="M192.5,284.8c-1-3.8-1.6-7.7-1.7-11.6-.4.3-.8.6-1.2.9.1,3.7.7,7.4,1.7,11,.2.7,1.4.5,1.2-.3Z"/>
      </g>
    </g>
    <path class="st8" d="M211.8,363c0,3-.3,6-.9,8.9-2.2,10.4-8.2,19.3-16.5,25.4h-49.6c-8.3-6-14.3-15-16.5-25.4-.6-2.9-.9-5.8-.9-8.9s.4-6.2,1-9.2c.6-2.5,1.3-5,2.3-7.3h77.8c1,2.3,1.8,4.8,2.3,7.3.7,3,1,6,1,9.2Z"/>
  </g>
  <g>
    <path class="st6" d="M105.7,375.5c-1-1.3-12.1-.2-12.2.5-.3,2-.9,9.8.2,10.9,1,1,12.1,1,12.3-1,.2-1.7.7-9.1-.3-10.3Z"/>
    <path class="st7" d="M92.9,384.4s-5.1,7.3-1.5,13.1c0,0,26.7,1.3,34.7,0,0,0,.2-9.8-6.7-10.7-6.9-.8-13.8-.6-13.8-.6,0,0-7.7,3.6-12.8-1.8Z"/>
    <path class="st6" d="M46.7,375.5c-1-1.3-12.1-.2-12.2.5-.3,2-.9,9.8.2,10.9,1,1,12.1,1,12.3-1,.2-1.7.7-9.1-.3-10.3Z"/>
    <path class="st7" d="M33.9,384.4s-5.1,7.3-1.5,13.1c0,0,26.7,1.3,34.7,0,0,0,.2-9.8-6.7-10.7-6.9-.8-13.8-.6-13.8-.6,0,0-7.7,3.6-12.8-1.8Z"/>
    <path class="st7" d="M122.2,285.6c0,23.8-9,74-15.1,95.6h-15.7c0-.1-.2-24.9-.2-34.4,0-17.3-4.7-45.8-5.9-61.5-.7-8.4-.4-29.4-5.8-43.4-1-2.6-2-5.1-2.8-7.4-3.2-8.6-5.2-15.3-3.8-16.9,3.9-4.4,37.1-37,45.4-19,8.8,18.8,3.9,63.3,3.9,87.2Z"/>
    <path class="st7" d="M82.8,210.7s0,.8,0,2.4c0,3-.9,8.6-2.2,16-.6,3.2-1,17.1-1.6,20.9-2.7,15.4-6.5,25-8.7,45.2-2.7,23.7-15.4,61.5-21.6,86.8h-15.5s3.3-37,5.3-43.9c2.4-8.5-3.6-19.6-3.5-29.9,0-7.3-.1-14.6-.3-20.9,0-2.1,0-4.2,0-6.3.2-33.3-1.9-47.3,8.6-72.5.1-.4.3-.8.5-1.2,1.7-4,3.8-8.3,6.6-12.9.9-1.4,2.8-1.9,5.5-1.6,6.5.8,17.1,6.5,25.8,16.5.5.5.9,1,1.3,1.5Z"/>
    <path class="st7" d="M51.8,210.6c-3.1-1.7-6-2.3-8.8-2.2-10.4,25.3-8.4,39.2-8.6,72.5,0,2.1,0,4.2,0,6.3.1,6.8.5,13.8.3,20.9-.2,7.6,0,29.3-.7,37-1.1,13.5-1.7,32.7-1.1,36.8h7.7c3.7-12.6,4.2-27.7,6.6-40.6,2.5-13,1.4-26.7.9-39.9-.3-7.7-.9-15.4-2-23.1-1.1-7.5-2.9-14.8-3.2-22.4-.7-14.8,3-29.2,8.9-42.6.2-.4.2-.7,0-1,.6-.5.8-1.5,0-1.9Z"/>
    <path class="st8" d="M103.1,148.3s-.3,3.3.4,7.9c1.6,11,8.6,29.6,38.1,31.4,32.3,1.9,29.5-31.7,26.5-47.3-.9-4.7-1.8-7.7-1.8-7.7-.5-3-13.2-2.7-13.2-2.7-3.8.8-6.9,29.9-10.5,27.8-3.7-2-25.5-39.3-39.2-45.7-8.3-3.8-.3,36.2-.3,36.2Z"/>
    <path class="st7" d="M168.1,140.4c-1,12-2.1,27.2-11.7,35.7-10.9,9.6-25.9,4.1-34.8-5.2-1.8-1.8-3.4-3.7-5.1-5.5-7.4-14.6-1.4-33.2-8.2-48.4-.7-1.5-3-.6-2.4.8,1.9,4.3,2.8,8.9,3.3,13.5-.4.2-.7.6-.7,1.2,0,3.3,0,6.8,0,10.3-.3,5.2-.8,10.7,0,15.6-1.5-.9-3.1-1.7-5-2.3,1.6,11,8.6,29.6,38.1,31.4,32.3,1.9,29.5-31.7,26.5-47.3Z"/>
    <path class="st8" d="M123.5,208.4c-.4,1.2-31.2,8.3-40.7,9.8-10.2,1.6-22.2,2.1-30.9,1.7-6.7-.3-11.6-1.2-12.2-2.5-1.3-2.9,1.4-28,.8-46.5-.1-3-.2-6-.2-9-.2-19.3,1.1-37.8,5.4-41.1,1-.8,2.1-1.5,3.3-2.4,1.8-1.3,4-2.6,6.4-3.8,3.8-2,8.2-3.8,13.1-5.1,7.6-2,16.5-2.6,26.2-.4,0,0,0,0,0,0,2.4.5,4.8,1.2,7.2,2.2.6.2,1.2.4,1.8.7,8.2,3.3,7,21.2,5.7,36.3-.6,7-1.2,13.3-1,17.3.1,1.3.2,2.7.5,4,1.9,11.1,13.1,30.9,14.5,39Z"/>
    <path class="st6" d="M184.1,169.6c-1.3-.4-3-.8-4.3-.6-.9.1-1.6.6-2.2,1.4-1.2,1.5-2.1,3.3-3,5,0,.1,0,.2,0,.3,0,.1,0,.2,0,.3,1.2,2,3.6,1,4.8-.5.4-.5.6-1.1,1-1.6,1.3-1.8,2.1-1.1,3.6-1.4.7-.2,1.5-.6,1.6-1.4.1-.9-.6-1.3-1.3-1.5Z"/>
    <g>
      <path class="st1" d="M103.2,124.8c0,20.1-1.5,75.7-21.2,109.9,0,0,73.4-11.5,94.7-3.2,0,0,.1,0,.1,0,0-3.1,1.7-74.7,12.4-103.4,2.5-6.6-1.4-13.7-8.3-15.1-17.2-3.5-45.6-7-70,1.3-4.6,1.6-7.7,5.9-7.7,10.7Z"/>
      <path d="M81,235.3l.5-.9c19.4-33.7,21.2-87.9,21.1-109.6h0c0-5.1,3.2-9.6,8.1-11.2,23.9-8.1,51.4-5.1,70.3-1.3,3.4.7,6.3,2.8,8,5.8,1.7,3,1.9,6.7.7,10-10.7,28.5-12.3,100.2-12.4,103.2v.3s-.5.4-.5.4h-.3c-20.9-8.2-93.7,3.1-94.4,3.2l-1.1.2ZM103.7,124.8c.1,21.6-1.7,75.2-20.7,109.2,9.3-1.4,72.7-10.6,93.3-3.3.2-7.8,2.1-75.3,12.4-103,1.1-3,.9-6.3-.6-9.1-1.5-2.8-4.2-4.7-7.3-5.3-18.7-3.9-46-6.8-69.8,1.2-4.4,1.5-7.4,5.6-7.4,10.2h0Z"/>
    </g>
    <path class="st6" d="M180.2,185.7c0-.1-.1-.2-.2-.3.6-.2,1.2-.4,1.4-1,.3-.7-.2-1.3-.6-1.8,0,0,0,0,0,0,1.3-.2,2.5-.8,2.7-2,.2-1.1-.7-1.7-1.8-2.1.5-.1.9-.3,1.3-.5,1.5-.8.8-2.6-.4-3.3-.8-.5-3-.5-4.3-.4-.9,0-2.1.1-2.9.7-1.3,1,.1,2.2,1.2,2.9-1.3-.1-2.5.1-2.4,1.7,0,1.1.6,1.8,1.4,2.3-.6,0-1.2.2-1.7.5-1.2.8-.1,2.2.7,2.7.4.3.9.5,1.3.6,0,0-.2.1-.2.2-.5.7.4,1.7,1,2.1,1.8,1.1,4-.3,3.6-2.4Z"/>
    <path class="st4" d="M77.3,107.9l-1.2.2,3.9,9.3,7.5-5.6,6.9,4.2-4.8-7.8s-3.1-.8-4.5-.3c-1.3.6-.6,2.9-.6,2.9l-7.3-2.9Z"/>
    <path class="st6" d="M87.5,99.9v8s1.9,3.5,0,3.9c-4.2.8-10.2-3.9-10.2-3.9v-12.3l10.2,4.2Z"/>
    <path class="st6" d="M92.1,82.7s1.9,8.3,1.1,15.4c-.5,5.1-11.1,9.4-16.7.7-5.6-8.7-1.1-18.8-1.1-18.8l16.7,2.6Z"/>
    <path class="st7" d="M91.1,73.5c-1.4,0-2.4.7-3.7,1.2-2.2.9-4.1.8-6.3.9-2.8,0-5.5.3-7.6,2.3-3.4,3.2-4.4,10.8-2.4,15.4,0,.9.3,1.7,1.4,2.3,1.5.9,3.4.3,4.2-1.2,1.3-2.2.5-5.4.6-7.8,0-.6.1-1.3.1-1.9,6.5,1.1,15.2,2.3,19.5-2.4,4.4-4.7-.4-9-5.7-8.6Z"/>
    <path class="st4" d="M76.1,108.1l1.2-1.7s1.5,2.2,3.2,3.6c1.7,1.4,1.8,3,1.8,3l-6.2-4.9Z"/>
    <g>
      <path class="st6" d="M90.4,194.7c.9,1.3,2,.5,3.4.7,1.7.3,6,3.7,7.8,2.9,2.5-1.1-3-2.6-1.7-3.7.4-.4,7.9,3,5.9-.5-.4-.8-4.4-2.7-2.8-3,1.8.5,5.6,2.3,6.2.5.3-.8-1.9-2.1-3-2.4-5.6-1.7-2.6-1.9,1-.5,1.9.7,2.9-.3,1.3-1.9-3.3-3.2-9.5-2.7-13.3-1.2-1.6.6-6.8,6.2-4.8,9.1Z"/>
      <path class="st6" d="M96.9,186c.6-.3,1.1-.9,1.7-1.3.6-.4,1.4-1,1.7-1.7.6-1.2-.6-1.3-1.5-1.1-1.6.5-4,3.5-5,4.8-.1.2,2.5-.3,3.1-.6Z"/>
    </g>
    <path class="st8" d="M7.8,208.4c11.6,18.6,86-13,86-13l-1.4-7.4c-.8-.2-57.7,7.3-57.8,1.3,0-2.6,20.7-35.9,23.6-48.5,1.5-6.3.2-11.8-1.3-16.1-2.2-5.9-9-6.8-14.5-3.8-11.2,6.1-24.9,20.6-32.9,36.4-8.8,17.3-11.8,35-1.7,51Z"/>
    <path class="st3" d="M104.2,120.1s14-1.6,11.7,8.3c0,0,64.2-5.5,76,4.4,0,0,4.5-11-2-16.3-8.6-7-78.4-16.4-85.7,3.7Z"/>
    <rect x="54.1" y="189.2" width="38.4" height="1" transform="translate(-16.7 7.4) rotate(-5.2)"/>
    <path d="M44.7,212l-.2-1c.3,0,28.3-5,49-16l.5.9c-20.9,11.2-49.1,16.1-49.4,16.2Z"/>
    <path d="M85.2,104.1c-2.6,0-4.6-1-4.7-1.1-.2,0-.2-.3-.1-.5,0-.2.3-.2.5-.1,0,0,3.7,1.9,7.4.4.2,0,.4,0,.4.2,0,.2,0,.4-.2.4-1.1.5-2.3.6-3.3.6Z"/>
  </g>
  <g>
    <path class="st6" d="M251.6,379.5s-5,7.5-7.4,10c-2.3,2.5-.4,4.3-.4,4.3l5-1.6,5.4-4.6,6.8-5.3-9.4-2.8Z"/>
    <path class="st7" d="M272.7,124.6c-1.3,2.7,22.3,1.1,26.6-.8,8.6-3.9,12-17.8,9.1-26.4-1.4-4.2-4.1-9-7.4-12-3.1-2.8-5.7-1.5-9.5-1.3,0,0-.2,0-.2,0-.6-.2-4.4,3.1-4.7,3.8-3.1,7.1-2.8,11.2-5.7,18.4-1,2.5-3.6,8.7-8.1,18.3Z"/>
    <path class="st0" d="M296.1,146.6c-4.4,6.9-10.3,15.4-17.1,21.8-4.7,4.5-9.7,7.9-15,9.3-.2,0-.4,0-.7.1h0s0,0,0,0c-16.4,3.4-48.3-30-48.3-30,.7-.3,2.7-7,2.7-7,.8,1,36.7,13.3,42.4,12.3,1.9-.3,21.5-33.6,24.1-35,3.6-2,7.4-2.9,10-.5,8.1,7.4,13.1,11.1,1.8,28.9Z"/>
    <path class="st0" d="M358.8,367.6l-8.6,4.5s-6-8.7-11.2-16.1c-5.2-7.3-38.4-42.9-38.4-42.9-10.7-16,4.1-44.9,4.1-44.9l24.5,8.1s-5.7,15.5-5.2,16.2c.8,1.1,1.6,2.3,2.6,3.6,3.8,5.2,8.4,12,11.7,22.5,2,6.1,10,25,15.5,37.4,2.9,6.7,5.1,11.6,5.1,11.6Z"/>
    <path class="st0" d="M285.4,270.5s-2.3,27-3.9,33.5c-.2.8-.3,1.7-.4,2.7,0,.1,0,.2,0,.4-.7,5.8-6.8,23.1-17.4,62.4,0,.4-.2.8-.3,1.1-1.9,7.5-2.5,13-2.5,13l-9.2-4.1s1.1-8.7,2-17.6c.9-9-.7-57.6-.7-57.6,2.5-19.1,19.3-56,19.3-56l13.2,22.2Z"/>
    <path class="st8" d="M336.5,295.8s-5.1,2.7-13.4,5.8c-20.3,7.5-59.5,17.2-88.6-5.8,0,0,20.4-1.7,16.5-27.5-5-33,7.7-83.5,27.1-90.2,19.4-6.7,45.9,5.9,45.9,5.9,0,0,5.5,3.3,10,11,3.2,5.4,5.9,12.9,5.9,23,0,19.9-18.1,34.6-3.4,77.8Z"/>
    <path class="st8" d="M265.1,182.8c37.9,16.5,63.8.3,61.5-4.9-1.1-2.5-1.8-5.6-2.1-8.7-.6-5-.3-10.1,0-13.4.2-1.6.3-2.9.4-3.4,0,0,0-.2,0-.2,3-15.2,9.7-33.1-7.9-38.7-2.2-.7-4.7-1.2-7.7-1.5h0c-3.2-.3-6.9-.3-11.2,0,0,0-5.3,1.9-11.5,5-2.1,1.1-4.3,2.3-6.4,3.6-6.3,4-7.7,12-7.5,17.4.2,3.8,5.7,14.2,5.2,16.2-3.2,14.6-9.9,23.6-12.9,28.8Z"/>
    <g>
      <path class="st3" d="M270.7,148.1s-6.3,2.7-4.9,11.1c1.4,8.4,10.9,7,14.2,5,3.3-2,7.6-8.3,7.6-8.3l-2.9-7.3-4.2-1.5-6.5.3-3.4.7Z"/>
      <g>
        <g>
          <path class="st1" d="M320.7,202.7l-27,8.1c-2.2.7-4.5-.6-5.2-2.8l-14.7-49.4c-.7-2.2.6-4.5,2.8-5.2l27-8.1c2.2-.7,4.5.6,5.2,2.8l14.7,49.4c.7,2.2-.6,4.5-2.8,5.2Z"/>
          <path d="M292.5,211.5c-2,0-3.9-1.3-4.5-3.3l-14.7-49.4c-.7-2.5.7-5.1,3.1-5.8l27-8.1c1.2-.4,2.5-.2,3.6.4,1.1.6,1.9,1.6,2.3,2.8l14.7,49.4c.7,2.5-.7,5.1-3.1,5.8h0s-27,8.1-27,8.1c-.4.1-.9.2-1.3.2ZM304.9,145.7c-.4,0-.7,0-1.1.2l-27,8.1c-1.9.6-3,2.6-2.4,4.5l14.7,49.4c.6,1.9,2.6,3,4.5,2.4l27-8.1c1.9-.6,3-2.6,2.4-4.5l-14.7-49.4c-.3-.9-.9-1.7-1.8-2.2-.5-.3-1.1-.4-1.7-.4Z"/>
        </g>
        <path class="st3" d="M322.7,201.4l-27,8.1c-2.2.7-4.5-.6-5.2-2.8l-14.7-49.4c-.7-2.2.6-4.5,2.8-5.2l27-8.1c2.2-.7,4.5.6,5.2,2.8l14.7,49.4c.7,2.2-.6,4.5-2.8,5.2Z"/>
      </g>
      <g>
        <path class="st1" d="M270.7,148.1l32.8-11.2c2.9-1,5.8.7,8,2.9,3.3,3.5,7.1,10,8.4,22.5l-33.5,9.3s-.9-13.7-6-19.3c-5-5.4-9.6-4.3-9.6-4.3Z"/>
        <path d="M285.9,172.3v-.6c0-.1-.9-13.6-5.9-18.9-4.7-5.1-8.9-4.2-9.1-4.2l-.3-1,32.8-11.2c2.7-.9,5.8.2,8.5,3.1,4.6,4.9,7.4,12.5,8.5,22.7v.4s-34.5,9.6-34.5,9.6ZM273.6,147.7c1.9.4,4.4,1.5,7.1,4.4,4.6,5,5.8,16.1,6.1,18.9l32.5-9.1c-1.1-9.8-3.9-17.1-8.2-21.7-1.1-1.2-4.1-3.9-7.4-2.8l-30.1,10.2Z"/>
      </g>
    </g>
    <path class="st0" d="M291,106.5v7.1s-1.9,3.5,0,3.9c4.2.8,10.3-5.7,10.3-5.7v-9.5l-10.3,4.2Z"/>
    <path class="st0" d="M289,85.9s-3.8,7.7-4.7,14.8c-.7,5.1,8.6,11.7,16.2,4.6,7.6-7.1,5.5-18,5.5-18l-16.9-1.4Z"/>
    <g>
      <path class="st7" d="M262.3,375.7s2.2,1.8,1.7,6.5c0,0-9.1,4.8-14,14.8-1.1,2.3-8.1.4-10.7.4,0,0-2.7-1.1-.6-4.2.8-1.2,4.6-2.6,5.6-3.8,1.3,3.7,8.4-1.8,18.1-13.8Z"/>
      <polygon class="st7" points="264.1 382.3 262.5 397.4 259.9 397.5 259.8 383.1 264.1 382.3"/>
    </g>
    <path class="st6" d="M350.2,372.1s1.8,8.7,1.9,12.2c.1,3.5,2.8,3.4,2.8,3.4l2.4-4.6.6-7.1,1.1-8.5-8.8,4.7Z"/>
    <g>
      <path class="st7" d="M356.3,362.3s1.9-.7,4.8,2.9c0,0-3.1,9.8.4,20.4.8,2.4-5.5,6-7.4,7.8,0,0-2.7,1.1-3.4-2.6-.3-1.5,1.4-5.1,1.4-6.6,3.5,1.7,5.7-6.6,4.2-21.9Z"/>
      <polygon class="st7" points="361.1 365.3 370.7 377.2 368.8 379 358.7 368.9 361.1 365.3"/>
    </g>
    <path class="st0" d="M350.9,140.5c.5-1.3-26.3-27.7-36.6-23.9-6.4,2.4-3.8,14.4-2.2,19.6,3.4,11.5,31.6,36.1,30.6,37-1.1.9-5.8,2.5-8.7,3.1-5.2,1-12.6,1.6-19.7,1.9-11.2.6-21.8.5-22.4.7,0,0,3,7.9,3.3,8.5,0,0,2.8,1.1,7.4,2.6,11.5,3.6,37.1,5.5,53.6-.5,15.2-5.6,8.6-34.2-5.2-49Z"/>
    <g>
      <path class="st6" d="M290.4,178.1c-4-.9-10.3-.6-13.1,3-1.4,1.8-.2,2.7,1.5,1.7,3.4-1.8,6.4-2.1,1.1.4-1.1.5-3,2-2.7,2.8.8,1.7,4.4-.6,6.1-1.3,1.6,0-2.1,2.6-2.4,3.4-1.5,3.7,5.5-.7,6-.3,1.4.9-3.8,3.2-1.2,3.9,1.9.5,5.8-3.4,7.4-3.9,1.3-.4,2.5.3,3.3-1.2,1.6-3.2-4.3-8-5.9-8.4Z"/>
      <path class="st6" d="M292,178.9c-1.2-1.1-4-3.8-5.6-4.1-.9-.2-2.1.2-1.4,1.3.4.7,1.3,1.2,2,1.5.6.3,1.2.8,1.8,1.1.6.3,3.4.4,3.2.2Z"/>
    </g>
    <path class="st7" d="M284.3,89.9c1.2,1.7,3.5,1.5,5.2.8,1.1-.5,2.1-1.1,2.9-2,.5-.6,1-1.4,1.6-2,2.3,0,4.3,1.4,5.8,3.5.1.9-.4,1.9,0,2.9,6.1,18-6.7,30.8-9.5,36.8-.4.8.4,1.5,1.1,1.7,11.7,2.4,35.7,6.2,34.6-12.9-.5-8.7-4.6-17.7-9.9-24.5-4.2-5.3-9.1-13.3-16.2-14.1-2.8-.3-5.5,0-8.4.5-7.2,1.2-8.1,7.7-7.1,9.2Z"/>
    <path class="st2" d="M220.7,142.9s-3.9-4.8-5.6-5.3c-1.8-.6-9.2.7-9.9,1.7-.7,1.1,2,3.8,2.8,4,.8.2-1.3,3.3-.3,4.1,1,.8,3.8-.3,4.9-.4,1.1,0,2.1,2.5,4.4,2,2.3-.5,4.7-5,3.8-6.1Z"/>
    <g>
      <rect class="st4" x="206.5" y="127" width="12.7" height="21.1" transform="translate(-26 222.3) rotate(-52.4)"/>
      <path class="st7" d="M207.4,126l-4.4,5.8.8.6,2.3-2.9,1.6-2.1c.5-.7,1.6-.8,2.3-.3l13.4,10.3c.7.5.8,1.6.3,2.3l-3.9,5,1.6,1.2,4.5-5.8c.5-.7.4-1.7-.3-2.3l-15.9-12.2c-.7-.5-1.7-.4-2.3.3Z"/>
      <path class="st7" d="M207.1,126.4s0,0,0,0l-6.5,8.5c-.5.7-.4,1.7.3,2.3l15.9,12.2c.7.5,1.7.4,2.3-.3l6.5-8.5s0,0,0,0c.5-.7.3-1.7-.4-2.2l-15.9-12.2c-.7-.5-1.6-.4-2.2.2ZM215.6,147.4l-12.7-9.8c-.7-.5-.8-1.6-.3-2.3l5.3-6.9c.5-.7,1.6-.8,2.3-.3l12.7,9.8c.7.5.8,1.6.3,2.3l-5.3,6.9c-.5.7-1.6.8-2.3.3Z"/>
      <path class="st4" d="M222.6,143.5l-1.6,2.1c-.2.2-.5.3-.7,0h0c-.2-.2-.3-.5,0-.7l1.6-2.1c.2-.2.5-.3.7,0h0c.2.2.3.5,0,.7Z"/>
      <path class="st4" d="M204.5,131.7c-.3,0-.5-.2-.4-.5,0-.3.2-.5.5-.4.3,0,.5.2.4.5,0,.3-.2.5-.5.4Z"/>
    </g>
    <path class="st6" d="M213.8,147.1c0-.5.1-1.8-.5-1.9,0,0-.2,0-.3,0,.1-.3,0-.3.1-.7,0-.8-.2-2.1-1.2-1.8-.4.1-.7.4-1,.7,0-.7-.1-1.4-.7-2-.8-.8-1.4-.3-1.9.5,0-.9,0-2.4-1.1-2.1-.6.1-1.1.8-1.5,1.3-.6.6-1.1,1.4-1.5,2.2,0,0,0,0,0,0,0,0-.1.2-.2.3-.3,1.1,0,2,1.2,2.3.4.1.8,0,1.1-.3-.3.8,0,1,.6,1.5.7.5,1.5.1,2.1-.5,0,0,0,0,0,0,.1.5.2,1.1.7,1.3.4.1.7,0,1.1-.3,0,.1,0,.2,0,.3.9,1.3,2.6.7,2.7-.8Z"/>
    <path d="M292,108.9c-1.2,0-2-.2-2.1-.2-.2,0-.3-.2-.3-.4,0-.2.2-.3.4-.3,0,0,4.2.8,8-1.5.2,0,.4,0,.5.1,0,.2,0,.4-.1.5-2.4,1.4-4.8,1.7-6.5,1.7Z"/>
  </g>
  <g>
    <path class="st7" d="M272.1,47.2h-55.1c-4.6-.1-7.8,3.2-7.9,6.9l3,24c0,2.8,2.2,5,5,5l37.6.2c.2,3.2,3.2,6.5,6.7,10.2l-.6.3,3.1,6.1,3-2.3s-3.6-8.4-1.3-14.3l5.6-.2.9,1.3,2.7-2.1c.3-.2.5-.4.8-.6h0c0,0,0,0,0,0,.9-.9,1.5-2.2,1.5-3.6v-25.9c0-2.8-2.3-5-5-5Z"/>
    <path class="st8" d="M269.1,49.5h-55.1c-2.8,0-5,2.2-5,5v25.9c0,2.8,2.3,5,5,5l37.6.2c.2,4.4,4.8,13.7,12.2,14.3,0,0-3.6-8.4-1.3-14.3l6.6-.2c2.8,0,5-2.2,5-5v-25.9c0-2.8-2.3-5-5-5Z"/>
  </g>
</svg>