<?xml version="1.0" encoding="UTF-8"?>
<svg id="Layer_1" xmlns="http://www.w3.org/2000/svg" version="1.1" viewBox="0 0 400 400">
  <!-- Generator: Adobe Illustrator 29.0.0, SVG Export Plug-In . SVG Version: 2.1.0 Build 186)  -->
  <defs>
    <style>
      .st0 {
        fill: #ffd2a7;
      }

      .st1, .st2 {
        fill-rule: evenodd;
      }

      .st1, .st3 {
        fill: #fff;
      }

      .st4 {
        fill: #ffc2d1;
      }

      .st2, .st5 {
        fill: #8e364c;
      }

      .st6 {
        fill: #e0f7e9;
      }

      .st7 {
        fill: #2e4d34;
      }
    </style>
  </defs>
  <g>
    <path class="st6" d="M73.5,357.4c69.6,66.8,206,35.5,275.7,0,69.7-35.5,18.4-120.7,36.8-193.2,15.7-61.5-45.4-115.9-104.4-113.5-1,0-2.1,0-3.1.2-9.4.7-18.7,2.9-27.6,6.7-65.6,28.4-70.8,46.2-131.9,44-157.7-5.7-115.1,188.9-45.5,255.7Z"/>
    <path class="st6" d="M122.4,75.5c-.4,3,1.6,5.9,4.5,6.6,12,2.8,47,7.3,76.2-23.5,34.1-36-76.5-16.5-80.8,17Z"/>
  </g>
  <g>
    <g>
      <g>
        <path class="st4" d="M265.9,394.5c0,1,.8,1.8,1.8,1.8h12.7s59.2.2,59.2.2c1,0,1.8-.8,1.8-1.8v-6.4c0-1-.8-1.8-1.8-1.8h-6.2s-52.9-.2-52.9-.2h-12.9c-.2,0-.5,0-.7,0-.7.3-1.1.9-1.1,1.6v6.4Z"/>
        <path class="st5" d="M267.7,396.7c-1.2,0-2.1-1-2.1-2.1v-6.4c0-.9.5-1.6,1.4-1.9.3,0,.5-.1.8-.1l71.9.2c1.1,0,2.1,1,2.1,2.1v6.4c0,1.2-1,2.1-2.1,2.1l-71.9-.2ZM267.2,386.8c-.6.2-.9.8-.9,1.4v6.4c0,.8.6,1.5,1.4,1.5l71.9.2c.8,0,1.5-.7,1.5-1.5v-6.4c0-.8-.6-1.5-1.4-1.5l-71.9-.2c-.2,0-.4,0-.5.1Z"/>
      </g>
      <g>
        <path class="st4" d="M259.1,384.7c0,1,.8,1.8,1.8,1.8h6.2s13.3,0,13.3,0l52.4.2c.2,0,.5,0,.7-.1.6-.3,1.1-.9,1.1-1.6v-6.4c0-1-.8-1.8-1.8-1.8h-47.8c0-.1-24.1-.2-24.1-.2-1,0-1.8.8-1.8,1.8v6.4Z"/>
        <path class="st5" d="M260.9,386.8c-1.2,0-2.1-.9-2.1-2.1v-6.4c0-.6.2-1.1.6-1.5.4-.4.9-.6,1.5-.6l71.9.2c.6,0,1.1.2,1.5.6.4.4.6.9.6,1.5v6.4c0,.8-.5,1.6-1.3,1.9-.2.1-.5.2-.8.2l-71.9-.2ZM259.9,377.2c-.3.3-.4.6-.4,1v6.4c0,.8.6,1.5,1.4,1.5l71.9.2c.2,0,.4,0,.6-.1.6-.2.9-.8.9-1.3v-6.4c0-.4-.1-.8-.4-1-.3-.3-.6-.4-1-.4l-71.9-.2h0c-.4,0-.7.1-1,.4Z"/>
      </g>
      <g>
        <path class="st4" d="M263.9,374.7c0,1,.8,1.8,1.8,1.8h19.4c0,0,0,0,0,0l52.5.2c1,0,1.8-.8,1.8-1.8v-6.4c0-.8-.5-1.4-1.2-1.7-.2,0-.4-.1-.6-.1h-42.5c0-.1-24.7-.2-24.7-.2h-4.7c-1,0-1.8.8-1.8,1.8v6.4Z"/>
        <path class="st5" d="M265.6,376.8c-.6,0-1.1-.2-1.5-.6-.4-.4-.6-.9-.6-1.5v-6.4c0-1.1,1-2.1,2.1-2.1l71.9.2c.2,0,.4,0,.7.1.9.3,1.4,1.1,1.4,2v6.4c0,1.2-1,2.1-2.1,2.1l-71.9-.2ZM264.2,368.2v6.4c0,.8.6,1.5,1.4,1.5h19.3c0,0,0,0,0,0h.1c0,0,52.4.2,52.4.2.8,0,1.5-.7,1.5-1.5v-6.4c0-.6-.4-1.2-1-1.4-.2,0-.3,0-.5,0l-71.9-.2c-.8,0-1.5.7-1.5,1.5Z"/>
      </g>
      <g>
        <path class="st4" d="M269.1,364.8c0,.8.5,1.4,1.2,1.7.2,0,.4,0,.6,0h24c0,0,43.2.2,43.2.2h4.7c1,0,1.8-.8,1.8-1.8v-6.4c0-1-.8-1.8-1.8-1.8h-9.7s-43.6-.2-43.6-.2c0,0,0,0,0,0h-18.6c-.1,0-.3,0-.4,0-.8.2-1.4.9-1.4,1.7v6.4Z"/>
        <path class="st5" d="M270.9,366.9c-.2,0-.5,0-.7-.1-.8-.3-1.4-1.1-1.4-2v-6.4c0-1,.7-1.8,1.7-2,.2,0,.3,0,.5,0h18.3c0,0,0,0,0,0l53.6.2c1.2,0,2.1.9,2.1,2.1v6.4c0,1.2-1,2.1-2.1,2.1l-71.9-.2ZM289.5,357h0c0,0-18.5-.1-18.5-.1-.1,0-.2,0-.3,0-.7.1-1.1.7-1.1,1.4v6.4c0,.6.4,1.2,1,1.4.1,0,.3,0,.5,0l71.9.2c.8,0,1.5-.7,1.5-1.5v-6.4c0-.8-.6-1.5-1.4-1.5l-53.2-.2h-.1Z"/>
      </g>
      <g>
        <path class="st4" d="M259.1,354.8c0,1,.8,1.8,1.8,1.8h9.7s18.9,0,18.9,0h43.3c.1.1.3.1.4,0,.8-.2,1.4-.9,1.4-1.7v-6.4c0-.8-.6-1.5-1.3-1.7-.1,0-.3,0-.4,0h-41c0-.1-30.9-.2-30.9-.2-.2,0-.3,0-.5,0-.8.2-1.3.9-1.3,1.7v6.4Z"/>
        <path class="st5" d="M260.9,356.9c-1.2,0-2.1-.9-2.1-2.1v-6.4c0-1,.7-1.8,1.6-2,.2,0,.3,0,.5,0l71.9.2c.2,0,.4,0,.5,0,.9.2,1.6,1.1,1.6,2v6.4c0,1-.7,1.8-1.6,2-.2,0-.3,0-.5,0l-71.9-.2ZM260.5,347c-.6.2-1.1.7-1.1,1.4v6.4c0,.8.6,1.5,1.4,1.5l71.9.2c.1,0,.2,0,.3,0,.7-.1,1.1-.7,1.1-1.4v-6.4c0-.7-.4-1.3-1.1-1.4,0,0-.2,0-.3,0l-71.9-.2c-.1,0-.3,0-.4,0Z"/>
      </g>
      <g>
        <path class="st4" d="M261.2,325c0,.9.7,1.7,1.6,1.8h0c0,0,.1,0,.2,0h34.8c0,.1,27.3.2,27.3.2h9.8c1,0,1.8-.8,1.8-1.7v-6.4c0-1-.8-1.8-1.8-1.8h-5.1s-37.4-.1-37.4-.1h-29.4c-.1,0-.2,0-.4,0-.8.2-1.4.9-1.4,1.7v6.4Z"/>
        <path class="st5" d="M334.9,327.3l-71.9-.2c0,0-.2,0-.2,0-1.1-.1-1.9-1-1.9-2.1v-6.4c0-1,.7-1.8,1.7-2,.1,0,.3,0,.4,0l71.9.2c.6,0,1.1.2,1.5.6.4.4.6.9.6,1.5v6.4c0,1.2-1,2.1-2.1,2.1h0ZM262.7,317.1c-.7.1-1.2.7-1.2,1.4v6.4c0,.7.6,1.4,1.3,1.5,0,0,0,0,.1,0l71.9.2h0c.8,0,1.5-.7,1.5-1.5v-6.4c0-.4-.1-.8-.4-1-.3-.3-.6-.4-1-.4l-71.9-.2c-.1,0-.2,0-.3,0Z"/>
      </g>
      <g>
        <path class="st4" d="M259.1,344.9c0,.8.6,1.5,1.4,1.7.1,0,.3,0,.4,0h30.7c0,0,41.2.2,41.2.2.2,0,.3,0,.4,0,.8-.2,1.3-.9,1.3-1.7v-6.4c0-1-.8-1.8-1.8-1.8h-7.7s-24.6-.1-24.6-.1h-39.6c0-.1-.2-.1-.3-.1-.9.1-1.5.9-1.5,1.7v6.4Z"/>
        <path class="st5" d="M260.9,347c-.2,0-.4,0-.5,0-.9-.2-1.6-1.1-1.6-2v-6.4c0-1,.8-1.9,1.8-2.1.1,0,.2,0,.3,0l71.9.2c.6,0,1.1.2,1.5.6.4.4.6.9.6,1.5v6.4c0,1-.7,1.8-1.6,2-.2,0-.3,0-.5,0l-71.9-.2ZM260.7,337.1c-.7.1-1.2.7-1.2,1.4v6.4c0,.7.4,1.3,1.1,1.4,0,0,.2,0,.3,0l71.9.2c.1,0,.3,0,.4,0,.6-.2,1.1-.7,1.1-1.4v-6.4c0-.4-.1-.8-.4-1-.3-.3-.6-.4-1-.4l-71.9-.2c0,0-.1,0-.2,0Z"/>
      </g>
      <g>
        <path class="st4" d="M251.2,334.9c0,1,.8,1.8,1.8,1.8h7.7s39.9.1,39.9.1h24.4c0,0,.2,0,.3,0,.9-.1,1.5-.9,1.5-1.7v-6.4c0-.9-.7-1.7-1.6-1.8h0c0,0-.1,0-.2,0h-27.2c0,0-35-.2-35-.2h-9.8c-1,0-1.8.8-1.8,1.7v6.4Z"/>
        <path class="st5" d="M253,337c-.6,0-1.1-.2-1.5-.6-.4-.4-.6-.9-.6-1.5v-6.4c0-.6.2-1.1.6-1.5.4-.4,1-.6,1.5-.6l71.9.2c0,0,.2,0,.2,0,1.1.1,1.9,1,1.9,2.1v6.4c0,1-.8,1.9-1.8,2.1-.1,0-.2,0-.3,0l-71.9-.2ZM324.9,327.3l-71.9-.2c-.4,0-.8.1-1,.4-.3.3-.4.6-.4,1v6.4c0,.4.1.8.4,1,.3.3.6.4,1,.4l71.9.2c0,0,.1,0,.2,0,.7-.1,1.2-.7,1.2-1.4v-6.4c0-.7-.6-1.4-1.3-1.5,0,0,0,0,0,0h0Z"/>
      </g>
    </g>
    <path class="st5" d="M259.1,378.2v6.4c0,1,.8,1.8,1.7,1.8h6.2c-.7.3-1.1.9-1.1,1.7v6.4c0,1,.8,1.8,1.7,1.8h12.7c.6-.3.9-.9.9-1.5v-6.4c0-.8-.6-1.5-1.4-1.7.1,0,.2,0,.3-.1,0,0,.2,0,.2-.1.5-.3.8-.9.8-1.5v-6.4c0-.8-.5-1.4-1.2-1.7h3.9c.4,0,.7,0,1-.3h-24.1c-1,0-1.8.7-1.8,1.7Z"/>
    <path class="st5" d="M291.1,346.9h-1.9,1.7c0,0,.1,0,.2,0Z"/>
    <path class="st5" d="M259.1,354.8c0,1,.8,1.8,1.8,1.8h9.7c-.8.2-1.4.9-1.4,1.8v6.4c0,.8.5,1.4,1.2,1.7h-4.7c-1,0-1.8.8-1.8,1.8v6.4c0,1,.8,1.8,1.8,1.8h19.4c0,0,0,0,0,0,.5-.3.8-.9.8-1.5v-6.4c0-.9-.7-1.7-1.7-1.8h9.9c.3,0,.6,0,.9-.2,0,0,0,0,.1,0,.5-.3.8-.9.8-1.4v-6.4c0-1-.8-1.8-1.7-1.8h-5.1c.2,0,.3,0,.5-.2,0,0,0,0,0,0h0c.5-.3.9-.9.9-1.5v-6.4c0-.8-.6-1.5-1.3-1.7h-29.3c-.4.3-.7.8-.7,1.4v6.4Z"/>
    <g>
      <path class="st5" d="M351.4,394.4c12.2-6.8,18.9-23.3,15.4-40.7-3.5-17.3-16.1-29.8-29.9-31.3l-.2-1.2-7.7,1.6c-16.7,3.4-26.8,22.8-22.5,43.4,4.2,20.5,21.1,34.4,37.8,31l7.4-1.3-.3-1.3Z"/>
      <path class="st5" d="M374.4,352.1c4.2,20.5-6.1,40.2-22.8,43.6-16.7,3.4-33.4-10.7-37.6-31.2-4.2-20.5,5.9-39.9,22.5-43.4,16.7-3.4,33.6,10.4,37.8,31Z"/>
      <g>
        <path class="st4" d="M369,353.2c3.5,16.9-5,33-18.7,35.8-13.7,2.8-27.4-8.8-30.9-25.6-3.5-16.9,4.8-32.8,18.5-35.6,13.7-2.8,27.6,8.6,31.1,25.4Z"/>
        <path class="st5" d="M330.8,383.9c-5.9-4.9-10-12.1-11.7-20.4-3.5-17,4.9-33.2,18.8-36,6.7-1.4,13.7.5,19.6,5.4,5.9,4.8,10.1,12.1,11.8,20.3,1.7,8.2.6,16.5-3,23.4-3.6,6.9-9.3,11.4-16,12.8-1.4.3-2.8.4-4.2.4-5.3,0-10.6-2-15.3-5.9ZM368.7,353.3c-1.7-8.1-5.8-15.2-11.6-19.9-5.8-4.7-12.6-6.6-19.1-5.3-13.5,2.8-21.7,18.6-18.3,35.2,1.7,8.1,5.7,15.2,11.5,20,5.7,4.8,12.5,6.7,19,5.4,6.5-1.3,12.1-5.8,15.6-12.5,3.5-6.7,4.5-14.9,2.9-23h0Z"/>
      </g>
      <path class="st5" d="M344.9,342.7c1,0,1.9.1,2.8.4.9.2,1.7.6,2.5,1.1.8.5,1.4,1.2,2,2,.6.8,1.1,1.8,1.4,2.9l-3.4.4c-.5-1.1-1.2-2-2-2.5-.8-.6-1.7-.9-2.9-1l1.2,9.5c.7.2,1.4.4,2.1.6.7.2,1.4.5,2,.7.7.3,1.3.6,1.9.9.6.4,1.1.8,1.5,1.2.5.5.8,1,1.1,1.6.3.6.5,1.3.6,2.1.2,1.3,0,2.4-.3,3.4-.4,1-.9,1.9-1.6,2.6-.7.7-1.5,1.4-2.5,1.8-.9.5-1.9.8-2.9,1.1l.6,4.7-3.4.4-.6-4.8c-1.1,0-2-.4-3-.8-1-.4-1.8-1-2.6-1.8-.8-.7-1.5-1.6-2.1-2.6-.6-1-1.1-2-1.4-3.2l3.6-.4c.2.7.5,1.4.8,2,.3.6.7,1.1,1.2,1.6.4.5.9.9,1.4,1.2.5.3,1.1.5,1.7.6l-1.3-10.3c-1-.3-2-.6-2.9-1-.9-.4-1.8-.8-2.6-1.3-.8-.5-1.4-1.2-1.9-1.9-.5-.7-.8-1.7-1-2.8-.1-1,0-1.9.3-2.8.3-.9.7-1.7,1.3-2.4.6-.7,1.3-1.3,2.2-1.9.8-.5,1.8-.9,2.8-1.2l-.4-3,3.4-.4.4,3ZM338.5,350.7c0,.5.2.9.5,1.3.2.4.5.7.9,1.1.4.3.8.6,1.3.8.5.2,1.1.5,1.6.7l-1-8.1c-1.2.4-2.1.9-2.7,1.7-.6.8-.8,1.6-.7,2.5ZM352.2,363.2c0-.5-.2-1-.6-1.4-.3-.4-.7-.8-1.2-1.1-.5-.3-1-.6-1.6-.9-.6-.3-1.2-.5-1.9-.7l1.1,9.2c.7-.2,1.4-.5,1.9-.8.5-.4,1-.8,1.4-1.2.4-.5.6-1,.8-1.5.2-.5.2-1.1.1-1.7Z"/>
    </g>
    <g>
      <g>
        <path class="st4" d="M199.6,396.4l71.9.2c1,0,1.8-.8,1.8-1.8v-6.4c0-1-.8-1.8-1.8-1.8l-71.9-.2c-1,0-1.8.8-1.8,1.8v6.4c0,1,.8,1.8,1.8,1.8Z"/>
        <path class="st5" d="M271.5,396.9l-71.9-.2c-1.2,0-2.1-.9-2.1-2.1v-6.4c0-1.2,1-2.1,2.1-2.1h0l71.9.2c.6,0,1.1.2,1.5.6.4.4.6.9.6,1.5v6.4c0,.6-.2,1.1-.6,1.5-.4.4-.9.6-1.5.6h0ZM198.1,388.1v6.4c0,.8.6,1.5,1.4,1.5l71.9.2h0c.4,0,.8-.2,1-.4.3-.3.4-.6.4-1v-6.4c0-.4-.1-.8-.4-1-.3-.3-.6-.4-1-.4l-71.9-.2h0c-.8,0-1.5.7-1.5,1.5Z"/>
      </g>
      <g>
        <path class="st4" d="M214.1,366.5l71.9.2c1,0,1.8-.8,1.8-1.8v-6.4c0-1-.8-1.8-1.8-1.8l-71.9-.2c-1,0-1.8.8-1.8,1.8v6.4c0,1,.8,1.8,1.8,1.8Z"/>
        <path class="st5" d="M286,367.1l-71.9-.2c-.6,0-1.1-.2-1.5-.6-.4-.4-.6-.9-.6-1.5v-6.4c0-.6.2-1.1.6-1.5.4-.4.9-.6,1.5-.6h0l71.9.2c.6,0,1.1.2,1.5.6.4.4.6.9.6,1.5v6.4c0,1.2-1,2.1-2.1,2.1h0ZM213.1,357.3c-.3.3-.4.6-.4,1v6.4c0,.4.1.8.4,1s.6.4,1,.4l71.9.2h0c.4,0,.8-.2,1-.4.3-.3.4-.6.4-1v-6.4c0-.4-.1-.8-.4-1-.3-.3-.6-.4-1-.4l-71.9-.2h0c-.4,0-.8.2-1,.4Z"/>
      </g>
      <g>
        <path class="st4" d="M208.7,356.6l71.9.2c1,0,1.8-.8,1.8-1.8v-6.4c0-1-.8-1.8-1.8-1.8l-71.9-.2c-1,0-1.8.8-1.8,1.8v6.4c0,1,.8,1.8,1.8,1.8Z"/>
        <path class="st5" d="M280.6,357.1l-71.9-.2c-.6,0-1.1-.2-1.5-.6-.4-.4-.6-.9-.6-1.5v-6.4c0-.6.2-1.1.6-1.5.4-.4.9-.6,1.5-.6h0l71.9.2c.6,0,1.1.2,1.5.6.4.4.6.9.6,1.5v6.4c0,1.2-1,2.1-2.1,2.1h0ZM207.7,347.3c-.3.3-.4.6-.4,1v6.4c0,.4.1.8.4,1s.6.4,1,.4l71.9.2h0c.4,0,.8-.2,1-.4.3-.3.4-.6.4-1v-6.4c0-.4-.1-.8-.4-1s-.6-.4-1-.4l-71.9-.2h0c-.4,0-.8.2-1,.4Z"/>
      </g>
      <g>
        <path class="st4" d="M199.6,386.5l71.9.2c1,0,1.8-.8,1.8-1.8v-6.4c0-1-.8-1.8-1.8-1.8l-71.9-.2c-1,0-1.8.8-1.8,1.8v6.4c0,1,.8,1.8,1.8,1.8Z"/>
        <path class="st5" d="M271.5,387l-71.9-.2c-.6,0-1.1-.2-1.5-.6-.4-.4-.6-.9-.6-1.5v-6.4c0-.6.2-1.1.6-1.5.4-.4.9-.6,1.5-.6l71.9.2c.6,0,1.1.2,1.5.6.4.4.6.9.6,1.5v6.4c0,1.2-1,2.1-2.1,2.1h0ZM198.6,377.2c-.3.3-.4.6-.4,1v6.4c0,.4.1.8.4,1,.3.3.6.4,1,.4l71.9.2h0c.4,0,.8-.2,1-.4.3-.3.4-.6.4-1v-6.4c0-.4-.1-.8-.4-1-.3-.3-.6-.4-1-.4l-71.9-.2h0c-.4,0-.8.2-1,.4Z"/>
      </g>
      <g>
        <path class="st4" d="M204.1,376.5l71.9.2c1,0,1.8-.8,1.8-1.8v-6.4c0-1-.8-1.8-1.8-1.8l-71.9-.2c-1,0-1.8.8-1.8,1.8v6.4c0,1,.8,1.8,1.8,1.8Z"/>
        <path class="st5" d="M276,377l-71.9-.2c-1.2,0-2.1-.9-2.1-2.1v-6.4c0-1.2,1-2.1,2.1-2.1h0l71.9.2c.6,0,1.1.2,1.5.6.4.4.6.9.6,1.5v6.4c0,1.2-1,2.1-2.1,2.1h0ZM202.6,368.3v6.4c0,.8.6,1.5,1.4,1.5l71.9.2h0c.8,0,1.5-.7,1.5-1.5v-6.4c0-.8-.6-1.5-1.4-1.5l-71.9-.2h0c-.8,0-1.5.7-1.5,1.5Z"/>
      </g>
    </g>
  </g>
  <g>
    <g>
      <rect class="st5" x="258.2" y="51.1" width="5.2" height="42.6"/>
      <polygon class="st5" points="215.4 396.6 212.8 396.6 251.5 288.8 254.1 288.8 215.4 396.6"/>
      <rect class="st5" x="259.6" y="288.8" width="2.5" height="107.8"/>
      <polygon class="st5" points="309.1 396.6 306.5 396.6 267.8 288.8 270.4 288.8 309.1 396.6"/>
      <polygon class="st5" points="237.5 338 255.2 288.8 250 288.8 232.4 338 237.5 338"/>
      <rect class="st5" x="258.2" y="288.8" width="5.2" height="45.3"/>
      <polygon class="st5" points="289.3 338 271.6 288.8 266.5 288.8 284.1 338 289.3 338"/>
      <rect class="st5" x="250" y="283.3" width="21.6" height="5.5"/>
      <rect class="st5" x="251.1" y="55.4" width="19.3" height="5.5"/>
      <rect class="st5" x="238.2" y="287.1" width="45.2" height="5.5"/>
      <polygon class="st5" points="260.4 350.1 226.2 363.7 226.2 361.5 260.4 347.9 260.4 350.1"/>
      <polygon class="st5" points="295.9 363.7 261.2 350.1 261.2 347.9 295.9 361.5 295.9 363.7"/>
    </g>
    <g>
      <path class="st5" d="M353.9,281.5v4.8c0,.5-.4.9-.9.9h-192.6c-.5,0-.9-.4-.9-.9v-4.8c0-.5.4-.9.9-.9h192.6c.5,0,.9.4.9.9Z"/>
      <path class="st5" d="M161.2,60.9h191.1c.9,0,1.6.7,1.6,1.6v3.3c0,.9-.7,1.6-1.6,1.6h-191.1c-.9,0-1.6-.7-1.6-1.6v-3.3c0-.9.7-1.6,1.6-1.6Z"/>
      <rect class="st3" x="168.4" y="64.1" width="181.9" height="223"/>
      <path class="st5" d="M356.6,281.5v4.8c0,.5-.4.9-.9.9h-192.6c-.5,0-.9-.4-.9-.9v-4.8c0-.5.4-.9.9-.9h192.6c.5,0,.9.4.9.9Z"/>
      <path class="st5" d="M163.8,60.9h191.1c.9,0,1.6.7,1.6,1.6v3.3c0,.9-.7,1.6-1.6,1.6h-191.1c-.9,0-1.6-.7-1.6-1.6v-3.3c0-.9.7-1.6,1.6-1.6Z"/>
    </g>
    <g>
      <path class="st5" d="M241,120.6h-40.8c-2,0-3.6-.9-3.6-2h0c0-1.1,1.6-2,3.6-2h40.8c2,0,3.6.9,3.6,2h0c0,1.1-1.6,2-3.6,2Z"/>
      <path class="st5" d="M186.9,120.6h-1.4c-2,0-3.6-.9-3.6-2h0c0-1.1,1.6-2,3.6-2h1.4c2,0,3.6.9,3.6,2h0c0,1.1-1.6,2-3.6,2Z"/>
      <path class="st5" d="M287.7,127.3h-50.5c-2,0-3.6-.9-3.6-2h0c0-1.1,1.6-2,3.6-2h50.5c2,0,3.6.9,3.6,2h0c0,1.1-1.6,2-3.6,2Z"/>
      <path class="st5" d="M223.9,127.3h-1.4c-2,0-3.6-.9-3.6-2h0c0-1.1,1.6-2,3.6-2h1.4c2,0,3.6.9,3.6,2h0c0,1.1-1.6,2-3.6,2Z"/>
      <path class="st5" d="M287.7,120.6h-32.6c-2,0-3.6-.9-3.6-2h0c0-1.1,1.6-2,3.6-2h32.6c2,0,3.6.9,3.6,2h0c0,1.1-1.6,2-3.6,2Z"/>
      <path class="st5" d="M208.4,127.3h-22.9c-2,0-3.6-.9-3.6-2h0c0-1.1,1.6-2,3.6-2h22.9c2,0,3.6.9,3.6,2h0c0,1.1-1.6,2-3.6,2Z"/>
    </g>
    <g>
      <g>
        <path class="st3" d="M332.1,135.7h-25.2c-2.2,0-4-1.5-4-3.3v-20.9c0-1.8,1.8-3.3,4-3.3h25.2c2.2,0,4,1.5,4,3.3v20.9c0,1.8-1.8,3.3-4,3.3Z"/>
        <path class="st5" d="M332.1,136h-25.2c-2.4,0-4.3-1.6-4.3-3.6v-20.9c0-2,1.9-3.6,4.3-3.6h25.2c2.4,0,4.3,1.6,4.3,3.6v20.9c0,2-1.9,3.6-4.3,3.6ZM306.9,108.4c-2,0-3.6,1.4-3.6,3v20.9c0,1.7,1.6,3,3.6,3h25.2c2,0,3.6-1.4,3.6-3v-20.9c0-1.7-1.6-3-3.6-3h-25.2Z"/>
      </g>
      <path class="st5" d="M318.5,131.1c-1,0-3.3-.5-10-8.3-.7-.8-.4-1.8.5-2.4.9-.5,2.2-.4,2.9.4,2.1,2.4,4.7,5.2,6.3,6.4,2.9-3.9,11.2-14.6,11.6-15.1.6-.8,1.9-1,2.8-.5,1,.5,1.2,1.6.6,2.4-3.1,4-11.4,14.8-12.3,16.1-.4.6-1.2,1-2.1,1.1,0,0-.1,0-.2,0Z"/>
    </g>
    <g>
      <path class="st5" d="M241,156.2h-40.8c-2,0-3.6-.9-3.6-2h0c0-1.1,1.6-2,3.6-2h40.8c2,0,3.6.9,3.6,2h0c0,1.1-1.6,2-3.6,2Z"/>
      <path class="st5" d="M186.9,156.2h-1.4c-2,0-3.6-.9-3.6-2h0c0-1.1,1.6-2,3.6-2h1.4c2,0,3.6.9,3.6,2h0c0,1.1-1.6,2-3.6,2Z"/>
      <path class="st5" d="M287.7,162.9h-50.5c-2,0-3.6-.9-3.6-2h0c0-1.1,1.6-2,3.6-2h50.5c2,0,3.6.9,3.6,2h0c0,1.1-1.6,2-3.6,2Z"/>
      <path class="st5" d="M223.9,162.9h-1.4c-2,0-3.6-.9-3.6-2h0c0-1.1,1.6-2,3.6-2h1.4c2,0,3.6.9,3.6,2h0c0,1.1-1.6,2-3.6,2Z"/>
      <path class="st5" d="M287.7,156.2h-32.6c-2,0-3.6-.9-3.6-2h0c0-1.1,1.6-2,3.6-2h32.6c2,0,3.6.9,3.6,2h0c0,1.1-1.6,2-3.6,2Z"/>
      <path class="st5" d="M208.4,162.9h-22.9c-2,0-3.6-.9-3.6-2h0c0-1.1,1.6-2,3.6-2h22.9c2,0,3.6.9,3.6,2h0c0,1.1-1.6,2-3.6,2Z"/>
    </g>
    <g>
      <g>
        <path class="st3" d="M332.1,171.3h-25.2c-2.2,0-4-1.5-4-3.3v-20.9c0-1.8,1.8-3.3,4-3.3h25.2c2.2,0,4,1.5,4,3.3v20.9c0,1.8-1.8,3.3-4,3.3Z"/>
        <path class="st5" d="M332.1,171.6h-25.2c-2.4,0-4.3-1.6-4.3-3.6v-20.9c0-2,1.9-3.6,4.3-3.6h25.2c2.4,0,4.3,1.6,4.3,3.6v20.9c0,2-1.9,3.6-4.3,3.6ZM306.9,144c-2,0-3.6,1.4-3.6,3v20.9c0,1.7,1.6,3,3.6,3h25.2c2,0,3.6-1.4,3.6-3v-20.9c0-1.7-1.6-3-3.6-3h-25.2Z"/>
      </g>
      <path class="st5" d="M318.5,166.7c-1,0-3.3-.5-10-8.4-.7-.8-.4-1.8.5-2.4.9-.5,2.2-.4,2.9.4,2.1,2.4,4.7,5.2,6.3,6.4,2.9-3.9,11.2-14.6,11.6-15.1.6-.8,1.9-1,2.8-.5,1,.5,1.2,1.6.6,2.4-3.1,4-11.4,14.8-12.3,16.1-.4.6-1.2,1-2.1,1.1,0,0-.1,0-.2,0Z"/>
    </g>
    <g>
      <path class="st5" d="M241,191.8h-40.8c-2,0-3.6-.9-3.6-2h0c0-1.1,1.6-2,3.6-2h40.8c2,0,3.6.9,3.6,2h0c0,1.1-1.6,2-3.6,2Z"/>
      <path class="st5" d="M186.9,191.8h-1.4c-2,0-3.6-.9-3.6-2h0c0-1.1,1.6-2,3.6-2h1.4c2,0,3.6.9,3.6,2h0c0,1.1-1.6,2-3.6,2Z"/>
      <path class="st5" d="M287.7,198.5h-50.5c-2,0-3.6-.9-3.6-2h0c0-1.1,1.6-2,3.6-2h50.5c2,0,3.6.9,3.6,2h0c0,1.1-1.6,2-3.6,2Z"/>
      <path class="st5" d="M223.9,198.5h-1.4c-2,0-3.6-.9-3.6-2h0c0-1.1,1.6-2,3.6-2h1.4c2,0,3.6.9,3.6,2h0c0,1.1-1.6,2-3.6,2Z"/>
      <path class="st5" d="M287.7,191.8h-32.6c-2,0-3.6-.9-3.6-2h0c0-1.1,1.6-2,3.6-2h32.6c2,0,3.6.9,3.6,2h0c0,1.1-1.6,2-3.6,2Z"/>
      <path class="st5" d="M208.4,198.5h-22.9c-2,0-3.6-.9-3.6-2h0c0-1.1,1.6-2,3.6-2h22.9c2,0,3.6.9,3.6,2h0c0,1.1-1.6,2-3.6,2Z"/>
    </g>
    <g>
      <g>
        <path class="st3" d="M332.1,206.9h-25.2c-2.2,0-4-1.5-4-3.3v-20.9c0-1.8,1.8-3.3,4-3.3h25.2c2.2,0,4,1.5,4,3.3v20.9c0,1.8-1.8,3.3-4,3.3Z"/>
        <path class="st5" d="M332.1,207.2h-25.2c-2.4,0-4.3-1.6-4.3-3.6v-20.9c0-2,1.9-3.6,4.3-3.6h25.2c2.4,0,4.3,1.6,4.3,3.6v20.9c0,2-1.9,3.6-4.3,3.6ZM306.9,179.6c-2,0-3.6,1.4-3.6,3v20.9c0,1.7,1.6,3,3.6,3h25.2c2,0,3.6-1.4,3.6-3v-20.9c0-1.7-1.6-3-3.6-3h-25.2Z"/>
      </g>
      <path class="st5" d="M318.5,202.2c-1,0-3.3-.5-10-8.4-.7-.8-.4-1.8.5-2.4.9-.5,2.2-.4,2.9.4,2.1,2.4,4.7,5.2,6.3,6.4,2.9-3.9,11.2-14.6,11.6-15.1.6-.8,1.9-1,2.8-.5,1,.5,1.2,1.6.6,2.4-3.1,4-11.4,14.8-12.3,16.1-.4.6-1.2,1-2.1,1.1,0,0-.1,0-.2,0Z"/>
    </g>
    <g>
      <path class="st5" d="M241,227.4h-40.8c-2,0-3.6-.9-3.6-2h0c0-1.1,1.6-2,3.6-2h40.8c2,0,3.6.9,3.6,2h0c0,1.1-1.6,2-3.6,2Z"/>
      <path class="st5" d="M186.9,227.4h-1.4c-2,0-3.6-.9-3.6-2h0c0-1.1,1.6-2,3.6-2h1.4c2,0,3.6.9,3.6,2h0c0,1.1-1.6,2-3.6,2Z"/>
      <path class="st5" d="M287.7,234h-50.5c-2,0-3.6-.9-3.6-2h0c0-1.1,1.6-2,3.6-2h50.5c2,0,3.6.9,3.6,2h0c0,1.1-1.6,2-3.6,2Z"/>
      <path class="st5" d="M223.9,234h-1.4c-2,0-3.6-.9-3.6-2h0c0-1.1,1.6-2,3.6-2h1.4c2,0,3.6.9,3.6,2h0c0,1.1-1.6,2-3.6,2Z"/>
      <path class="st5" d="M287.7,227.4h-32.6c-2,0-3.6-.9-3.6-2h0c0-1.1,1.6-2,3.6-2h32.6c2,0,3.6.9,3.6,2h0c0,1.1-1.6,2-3.6,2Z"/>
      <path class="st5" d="M208.4,234h-22.9c-2,0-3.6-.9-3.6-2h0c0-1.1,1.6-2,3.6-2h22.9c2,0,3.6.9,3.6,2h0c0,1.1-1.6,2-3.6,2Z"/>
    </g>
    <g>
      <path class="st3" d="M332.1,242.5h-25.2c-2.2,0-4-1.5-4-3.3v-20.9c0-1.8,1.8-3.3,4-3.3h25.2c2.2,0,4,1.5,4,3.3v20.9c0,1.8-1.8,3.3-4,3.3Z"/>
      <path class="st5" d="M332.1,242.8h-25.2c-2.4,0-4.3-1.6-4.3-3.6v-20.9c0-2,1.9-3.6,4.3-3.6h25.2c2.4,0,4.3,1.6,4.3,3.6v20.9c0,2-1.9,3.6-4.3,3.6ZM306.9,215.2c-2,0-3.6,1.4-3.6,3v20.9c0,1.7,1.6,3,3.6,3h25.2c2,0,3.6-1.4,3.6-3v-20.9c0-1.7-1.6-3-3.6-3h-25.2Z"/>
    </g>
    <g>
      <path class="st5" d="M241,263h-40.8c-2,0-3.6-.9-3.6-2h0c0-1.1,1.6-2,3.6-2h40.8c2,0,3.6.9,3.6,2h0c0,1.1-1.6,2-3.6,2Z"/>
      <path class="st5" d="M186.9,263h-1.4c-2,0-3.6-.9-3.6-2h0c0-1.1,1.6-2,3.6-2h1.4c2,0,3.6.9,3.6,2h0c0,1.1-1.6,2-3.6,2Z"/>
      <path class="st5" d="M287.7,269.6h-50.5c-2,0-3.6-.9-3.6-2h0c0-1.1,1.6-2,3.6-2h50.5c2,0,3.6.9,3.6,2h0c0,1.1-1.6,2-3.6,2Z"/>
      <path class="st5" d="M223.9,269.6h-1.4c-2,0-3.6-.9-3.6-2h0c0-1.1,1.6-2,3.6-2h1.4c2,0,3.6.9,3.6,2h0c0,1.1-1.6,2-3.6,2Z"/>
      <path class="st5" d="M287.7,263h-32.6c-2,0-3.6-.9-3.6-2h0c0-1.1,1.6-2,3.6-2h32.6c2,0,3.6.9,3.6,2h0c0,1.1-1.6,2-3.6,2Z"/>
      <path class="st5" d="M208.4,269.6h-22.9c-2,0-3.6-.9-3.6-2h0c0-1.1,1.6-2,3.6-2h22.9c2,0,3.6.9,3.6,2h0c0,1.1-1.6,2-3.6,2Z"/>
    </g>
    <g>
      <path class="st3" d="M332.1,278.1h-25.2c-2.2,0-4-1.5-4-3.3v-20.9c0-1.8,1.8-3.3,4-3.3h25.2c2.2,0,4,1.5,4,3.3v20.9c0,1.8-1.8,3.3-4,3.3Z"/>
      <path class="st5" d="M332.1,278.3h-25.2c-2.4,0-4.3-1.6-4.3-3.6v-20.9c0-2,1.9-3.6,4.3-3.6h25.2c2.4,0,4.3,1.6,4.3,3.6v20.9c0,2-1.9,3.6-4.3,3.6ZM306.9,250.8c-2,0-3.6,1.4-3.6,3v20.9c0,1.7,1.6,3,3.6,3h25.2c2,0,3.6-1.4,3.6-3v-20.9c0-1.7-1.6-3-3.6-3h-25.2Z"/>
    </g>
    <g>
      <path class="st5" d="M192.5,77.2h9.1c1.8,0,3.1,0,4,.2.9.2,1.7.5,2.4.9.7.5,1.3,1.1,1.7,1.9.5.8.7,1.7.7,2.7s-.3,2-.9,2.9c-.6.9-1.4,1.6-2.3,2,1.4.4,2.4,1.1,3.2,2.1.7,1,1.1,2.1,1.1,3.4s-.2,2-.7,3c-.5,1-1.1,1.8-2,2.3-.8.6-1.9.9-3.1,1.1-.8,0-2.6.1-5.5.2h-7.7v-22.7ZM197.1,81v5.3h3c1.8,0,2.9,0,3.3,0,.8,0,1.4-.4,1.9-.8.4-.4.7-1,.7-1.8s-.2-1.3-.6-1.7c-.4-.4-1-.7-1.7-.8-.5,0-1.8,0-3.9,0h-2.6ZM197.1,90v6.1h4.2c1.7,0,2.7,0,3.1-.1.7-.1,1.2-.4,1.7-.9.4-.5.6-1.1.6-1.9s-.2-1.3-.5-1.7c-.3-.5-.8-.8-1.4-1-.6-.2-2-.3-4.1-.3h-3.7Z"/>
      <path class="st5" d="M215.4,77.2h4.6v12.3c0,2,0,3.2.2,3.8.2.9.7,1.7,1.4,2.2.7.6,1.7.8,3,.8s2.3-.3,2.9-.8c.7-.5,1.1-1.2,1.2-2,.1-.8.2-2.1.2-3.9v-12.6h4.6v11.9c0,2.7-.1,4.7-.4,5.8-.2,1.1-.7,2.1-1.4,2.9-.7.8-1.6,1.4-2.7,1.9-1.1.5-2.6.7-4.4.7s-3.8-.3-4.9-.8-2-1.2-2.7-2c-.7-.8-1.1-1.6-1.3-2.5-.3-1.3-.4-3.2-.4-5.8v-12.1Z"/>
      <path class="st5" d="M238.4,77.2h8.4c1.9,0,3.3.1,4.3.4,1.3.4,2.5,1.1,3.4,2.1,1,1,1.7,2.2,2.2,3.7.5,1.5.7,3.2.7,5.4s-.2,3.5-.7,4.8c-.6,1.7-1.4,3-2.4,4-.8.8-1.9,1.4-3.2,1.8-1,.3-2.4.5-4.1.5h-8.6v-22.7ZM242.9,81.1v15.1h3.4c1.3,0,2.2,0,2.8-.2.7-.2,1.4-.5,1.9-.9.5-.4.9-1.2,1.2-2.2.3-1,.5-2.4.5-4.2s-.2-3.1-.5-4c-.3-.9-.7-1.7-1.3-2.2-.6-.5-1.3-.9-2.1-1.1-.6-.1-1.9-.2-3.8-.2h-2.1Z"/>
      <path class="st5" d="M271.9,91.6v-3.8h9.9v9.1c-1,.9-2.4,1.7-4.2,2.5-1.8.7-3.7,1.1-5.5,1.1s-4.5-.5-6.2-1.5c-1.8-1-3.1-2.4-4-4.3-.9-1.9-1.3-3.9-1.3-6.1s.5-4.5,1.5-6.3c1-1.8,2.4-3.3,4.4-4.2,1.5-.8,3.3-1.1,5.4-1.1s5,.6,6.6,1.8c1.6,1.2,2.6,2.8,3.1,4.9l-4.6.9c-.3-1.1-.9-2-1.8-2.6-.9-.6-2-1-3.3-1-2,0-3.6.6-4.8,1.9-1.2,1.3-1.8,3.2-1.8,5.7s.6,4.7,1.8,6.1c1.2,1.3,2.8,2,4.7,2s1.9-.2,2.9-.6c1-.4,1.8-.8,2.5-1.4v-2.9h-5.3Z"/>
      <path class="st5" d="M286,99.9v-22.7h16.9v3.8h-12.3v5h11.4v3.8h-11.4v6.2h12.7v3.8h-17.3Z"/>
      <path class="st5" d="M312.3,99.9v-18.9h-6.7v-3.8h18.1v3.8h-6.7v18.9h-4.6Z"/>
    </g>
  </g>
  <rect class="st5" x="44.5" y="396.6" width="326" height="2.5"/>
  <g>
    <path class="st7" d="M141.4,160.5s-.5-2,3.9-2.7c6.6-1,37.8-27.5,42.1-45.9,4-16.7-1.8-36-2.2-45.5-1.8-1.7-5.3-2.5-6.8-3.2-3.4-1.5-4.9,30.7-19.7,44.8-18.7,17.9-43.6,37.5-46.9,44.7-3.5,7.8,29.6,7.8,29.6,7.8Z"/>
    <path class="st0" d="M140.9,376.6c-.9-1.2-10.9-.2-11,.4-.3,1.8-.8,8.9.2,9.8.9.9,10.9.9,11.1-.9.2-1.5.6-8.2-.3-9.3Z"/>
    <path class="st5" d="M129.4,384.7s-4.6,6.6-1.3,11.8c0,0,24.1,1.1,31.4,0,0,0,.2-8.9-6-9.6-6.2-.8-12.5-.5-12.5-.5,0,0-7,3.3-11.5-1.6Z"/>
    <path class="st0" d="M87.7,376.6c-.9-1.2-10.9-.2-11,.4-.3,1.8-.8,8.9.2,9.8.9.9,10.9.9,11.1-.9.2-1.5.6-8.2-.3-9.3Z"/>
    <path class="st5" d="M76.1,384.7s-4.6,6.6-1.3,11.8c0,0,24.1,1.1,31.4,0,0,0,.2-8.9-6-9.6-6.2-.8-12.5-.5-12.5-.5,0,0-7,3.3-11.5-1.6Z"/>
    <path class="st5" d="M155.9,295.3c0,21.5-8.1,66.8-13.6,86.4h-14.2c0-.1-.2-22.5-.1-31.1,0-15.7-4.2-41.4-5.4-55.6-.6-7.6-.4-26.6-5.3-39.2-.9-2.3-1.8-4.6-2.6-6.7-2.9-7.8-4.7-13.9-3.4-15.3,3.5-4,33.5-33.4,41.1-17.2,7.9,17,3.5,57.2,3.5,78.8Z"/>
    <path class="st5" d="M120.2,227.7s0,.7,0,2.2c0,2.7-.8,7.8-2,14.5-.5,2.9-.9,15.4-1.5,18.9-2.5,13.9-5.8,22.6-7.9,40.8-2.4,21.4-13.9,55.6-19.5,78.4h-14s3-33.4,4.8-39.7c2.2-7.7-3.2-17.7-3.2-27.1,0-6.6-.1-13.2-.2-18.9,0-1.9,0-3.8,0-5.7.2-30.1-1.7-42.7,7.7-65.5.1-.4.3-.7.4-1.1,1.5-3.6,3.5-7.5,6-11.7.8-1.3,2.5-1.7,5-1.5,5.8.7,15.4,5.9,23.4,14.9.4.5.8.9,1.2,1.4Z"/>
    <path class="st5" d="M92.3,227.6c-2.8-1.5-5.4-2.1-7.9-2-9.4,22.8-7.5,35.4-7.7,65.5,0,1.9,0,3.8,0,5.7.1,6.1.4,12.5.2,18.9-.2,6.8,0,26.5-.7,33.4-1,12.2-1.6,29.6-1,33.3h7c3.3-11.4,3.8-25,6-36.7,2.2-11.8,1.3-24.1.8-36-.3-7-.8-13.9-1.8-20.8-1-6.8-2.6-13.4-2.9-20.2-.6-13.3,2.7-26.4,8-38.5.2-.3.1-.6,0-.9.6-.5.7-1.3,0-1.7Z"/>
    <path class="st7" d="M157.1,225.6c-.3,1.1-28.2,7.5-36.8,8.8-9.2,1.4-20,1.9-27.9,1.5-6.1-.3-10.5-1.1-11-2.3-1.2-2.6,1.2-25.3.7-42,0-2.7-.1-5.4-.2-8.1-.2-17.4,1-34.1,4.9-37.1.9-.7,1.9-1.4,3-2.1,1.7-1.1,3.6-2.3,5.8-3.4,3.4-1.8,7.4-3.4,11.9-4.6,6.9-1.8,14.9-2.4,23.7-.4,0,0,0,0,0,0,2.1.5,4.3,1.1,6.5,2,.5.2,1,.4,1.6.6,7.4,3,6.4,19.2,5.2,32.8-.5,6.3-1.1,12-.9,15.6,0,1.2.2,2.4.5,3.6,1.7,10,11.9,27.9,13.1,35.2Z"/>
    <path class="st4" d="M92.8,152.3c-4.8,6.1-5.5,22-9.5,28.7-.5.8-1,1.7-1.4,2.5,0,2.7,0,5.4.2,8.1.5,16.7-1.9,39.4-.7,42,.6,1.2,5,2,11,2.3,1.1-1.9.6-4.2.5-6.3-.3-4.1-.7-8.3-1.1-12.4-.8-8.9-1.7-17.5.2-26.3,1.9-9.1,6-16.1,7.9-25.2,2.3-11-3.7-17.1-3.8-17.3.7-1.1-2.4,2.8-3.3,3.9Z"/>
    <path class="st5" d="M115.3,134.8h-1.1c0,.1,3.5,8.6,3.5,8.6l6.8-5.1,6.3,3.8-4.3-7.1s-2.8-.8-4-.2c-1.2.5-.6,2.7-.6,2.7l-6.6-2.7Z"/>
    <path class="st0" d="M124.5,127.5v7.3s1.7,3.2,0,3.5c-3.8.8-9.2-3.5-9.2-3.5v-11.1l9.2,3.8Z"/>
    <path class="st0" d="M125.1,109.6s3.2,7,3.8,13.5c.4,4.6-8.1,10.3-14.7,3.6-6.6-6.7-4.3-16.4-4.3-16.4l15.2-.7Z"/>
    <path class="st5" d="M122.6,101.7c-1.2.3-2,1-3.1,1.7-1.8,1.2-3.4,1.5-5.5,1.9-2.5.6-4.8,1.2-6.4,3.4-2.4,3.4-2,10.4.7,14,.2.8.6,1.4,1.6,1.8,1.5.5,3-.4,3.5-1.9.8-2.2-.5-4.9-.9-7.1,0-.5-.1-1.1-.2-1.7,5.9-.2,13.8-.8,16.8-5.6,3.1-5-2-7.9-6.6-6.6Z"/>
    <path class="st5" d="M114.2,134.9l1.1-1.5s1.3,2,2.9,3.2c1.6,1.3,1.7,2.7,1.7,2.7l-5.6-4.4Z"/>
    <polygon class="st5" points="124.5 138.3 121.6 140.5 124.1 143.3 126.8 143.2 127.8 140.3 124.5 138.3"/>
    <path class="st5" d="M126.8,143.2s7,16.4,4.9,34.4l-4.9,5.2-3.8-4.4s3.7-23.3,1.1-35l2.6-.2Z"/>
    <g>
      <path class="st0" d="M178.6,57.5c-.5-.3,0-1.8.6-2.3.3-.2.5-.7.4-1.1-.1-.5-.6-.5-1-.5-.7,0-2.4,1.9-2.6,3.1-.6,5.2.6,9.7,2.2,10.9.7.5,4.3,1.7,6.9-1,3-4.8,3.2-7.5,2-9.6,1.6-1-8,.9-8.6.5Z"/>
      <path class="st0" d="M175.9,58.3c0-.4.1-.8.2-1.2.2-1.2.9-2.2,2.4-2.5.4,0,.7,0,1,0,0,.2-.2.3-.3.5-.6.5-1.1,2-.6,2.3.5.4,10.2-1.6,8.6-.5.4.7.7,1.5.7,2.4-.7.8-1.9,1.2-2.9.2-.2.3-.3.5-.5.8-.7.8-1.8.6-2.3-.3,0,0,0-.2-.1-.3-.4.7-1.2.9-2,.4-.6-.4-1-1-1.3-1.6,0,0,0,0,0,.1.2,1.2-.2,2.9-1.7,2.8-.6,0-1-1.1-1.1-2.3,0-.3,0-.5,0-.8Z"/>
      <path class="st0" d="M188.4,56.5c.2-2-.1-2-2.4-2.2,0,0,0,0-.1,0-.2,0-.4-.2-.7-.2-.4,0-.8,0-1.1,0,0,0-.1-.2-.2-.3-.9-.9-2.3-.5-3.2.3,0,0,0,.1-.1.2-.6-.6-1.2-.9-2.2-.8-1.5.2-2.2,1.2-2.4,2.5-.5,1.8-.2,4.2.8,4.3,1.5.2,1.9-1.5,1.7-2.8,0,0,0,0,0-.1.2.6.6,1.2,1.3,1.6.8.5,1.6.2,2-.4,0,.1,0,.2.1.3.5.9,1.6,1.1,2.3.3.2-.3.3-.5.5-.8,1.6,1.5,3.5,0,3.7-1.9Z"/>
      <path class="st0" d="M177.4,62.3c-.8.1-1.8-1.9-1.7-3,0-.5-.1-1.2-.7-1.5-.7-.4-1.1,0-1.5.5-.6.8-.6,4.3.5,5.8,4.7,5.9,4.3-1.9,3.4-1.7Z"/>
    </g>
    <g>
      <path class="st2" d="M92.9,246.9l-27.2-23.7c-2.8-2.4-3.1-6.6-.6-9.4l36.6-42c2.4-2.8,6.6-3.1,9.4-.6l27.2,23.7c2.8,2.4,3.1,6.6.6,9.4l-36.6,42c-2.4,2.8-6.6,3.1-9.4.6Z"/>
      <path class="st2" d="M130,176.9c-3.4-3-8.7-2.6-11.7.8-3,3.4-2.6,8.7.8,11.7,3.4,3,8.7,2.6,11.7-.8,3-3.4,2.6-8.7-.8-11.7ZM121.1,187.1c-2.2-1.9-2.5-5.3-.5-7.5,1.9-2.2,5.3-2.5,7.5-.5,2.2,1.9,2.5,5.3.5,7.5-1.9,2.2-5.3,2.5-7.5.5Z"/>
      <path class="st1" d="M93.6,241.7l-22.8-19.8c-2.3-2-2.6-5.6-.5-7.9l32.8-37.6c2-2.3,5.6-2.6,7.9-.5l22.8,19.8c2.3,2,2.6,5.6.5,7.9l-32.8,37.6c-2,2.3-5.6,2.6-7.9.5Z"/>
      <path class="st2" d="M123.5,194.5l-10-8.7c-1.1-.9-1.2-2.5-.2-3.6l2.4-2.8,13.8,12-2.4,2.8c-.9,1.1-2.5,1.2-3.6.2Z"/>
      <path class="st5" d="M128,206.3c-.4,0-.9-.2-1.2-.5l-24.4-21.3c-.8-.7-.9-1.9-.2-2.7.7-.8,1.9-.9,2.7-.2l24.4,21.3c.8.7.9,1.9.2,2.7-.4.4-.9.7-1.5.7Z"/>
      <path class="st5" d="M124.3,210.5c-.4,0-.9-.2-1.2-.5l-24.4-21.3c-.8-.7-.9-1.9-.2-2.7.7-.8,1.9-.9,2.7-.2l24.4,21.3c.8.7.9,1.9.2,2.7-.4.4-.9.7-1.5.7Z"/>
      <path class="st5" d="M117,219c-.4,0-.9-.2-1.2-.5l-24.4-21.3c-.8-.7-.9-1.9-.2-2.7.7-.8,1.9-.9,2.7-.2l24.4,21.3c.8.7.9,1.9.2,2.7-.4.4-.9.7-1.5.6Z"/>
      <path class="st5" d="M113.3,223.2c-.4,0-.9-.2-1.2-.5l-24.4-21.3c-.8-.7-.9-1.9-.2-2.7.7-.8,1.9-.9,2.7-.2l24.4,21.3c.8.7.9,1.9.2,2.7-.4.4-.9.7-1.5.6Z"/>
      <path class="st5" d="M109.6,227.4c-.4,0-.9-.2-1.2-.5l-24.4-21.3c-.8-.7-.9-1.9-.2-2.7.7-.8,1.9-.9,2.7-.2l24.4,21.3c.8.7.9,1.9.2,2.7-.4.4-.9.7-1.5.7Z"/>
      <path class="st5" d="M98.6,240.1c-.4,0-.9-.2-1.2-.5l-24.4-21.3c-.8-.7-.9-1.9-.2-2.7.7-.8,1.9-.9,2.7-.2l24.4,21.3c.8.7.9,1.9.2,2.7-.4.4-.9.7-1.5.6Z"/>
    </g>
    <g>
      <g>
        <path class="st0" d="M116.3,235.5c1.1-.2,1.9-.7,2.3-1.8,0-.1,0-.3,0-.4.9,0,1.6-.2,2-1.1.4-.7.2-1.5-.2-2.3.2-.1.4-.3.5-.5,1.9-2.9-4.1-5-5.8-5.9-.6-.3-1.1-.2-1.4.1-.2,0-.3,0-.5,0-2.4,0-5.1,2.2-6.2,4.2-1.4,2.6-.6,5.2,1.5,7.1,1.5,1.4,4.7,4.1,6.9,2.7.9-.6,1-1.3.8-2Z"/>
        <path class="st0" d="M121.8,223.1c-1.1-1.7-2.7-3.1-4.8-3.3-2-.2-6,1.3-7.7,2.3-1.1-.2-3.3,6.1-.3,4.3,1.5-.9,3.9-.1,5.6-1.3.7-.5,1.1-1.3,2.1-1.4,1.2,0,2.2.7,3.1,1.3,1.1.8,2.8-.8,2-1.9Z"/>
      </g>
      <path class="st7" d="M92.4,232.7c.9,0,1.7,0,2.6,0h0c3.6,0,7.1-.3,10.6-.7l1.5-2.2,1.5-2.2.8-4.2s-4-.9-10.4-3.8c-.7-.3-1.5-.7-2.2-1-4.7-2.3-11.9-8.2-12-9.1,0-.5-.1-1-.1-1.5,0-3,.7-6.1,2-9.3.3-.7.6-1.4.9-2.2,1.7-3.7,3.9-7.4,6.2-10.6.5-.7.9-1.3,1.4-2,.8-1.1,1.6-2.1,2.3-3,5.1-6.5,7.7-14.6,6.8-22.8-.2-1.7-.5-3.3-.9-4.9-.2-.7-.3-1.3-.5-1.9-2.6-8.6-5.3-11.5-5.3-11.5-12.1,5.9-13.4,8.2-17.6,13.6-.6.8-1.2,1.6-1.8,2.4-6.1,8.5-9.9,17.1-12.4,24.9-.3.9-.6,1.8-.8,2.7-3.3,12.1-3,22.2-2,27.1.7,3.2,3,8.3,4.7,10.4.5.7,1.1,1.3,1.6,1.8,6.7,7.1,15,9.4,23.2,9.8Z"/>
    </g>
    <path d="M120.4,129.8c-.8,0-1.4,0-1.4,0v-.3c0,0,3.9.6,7-1.5l.2.2c-2.1,1.4-4.4,1.7-5.8,1.7Z"/>
  </g>
</svg>