<?xml version="1.0" encoding="UTF-8"?>
<svg id="Layer_1" xmlns="http://www.w3.org/2000/svg" version="1.1" viewBox="0 0 120 120">
  <!-- Generator: Adobe Illustrator 29.0.0, SVG Export Plug-In . SVG Version: 2.1.0 Build 186)  -->
  <defs>
    <style>
      .st0 {
        fill: #8e364c;
      }
    </style>
  </defs>
  <path class="st0" d="M60,4C29.1,4,4,29.1,4,60s25.1,56,56,56,56-25.1,56-56S90.9,4,60,4ZM84.2,47.6c.8,17.6-12.3,37.2-35.5,37.2s-13.6-2.1-19.2-5.6c6.6.8,13.3-1.1,18.5-5.2-5.5,0-10.1-3.7-11.7-8.7,2,.4,3.9.3,5.6-.2-6-1.2-10.2-6.6-10-12.4,1.7.9,3.6,1.5,5.7,1.6-5.6-3.7-7.1-11.1-3.9-16.7,6.2,7.6,15.4,12.5,25.8,13.1-1.8-7.8,4.1-15.3,12.2-15.3s6.8,1.5,9.1,3.9c2.8-.6,5.5-1.6,7.9-3-.9,2.9-2.9,5.4-5.5,6.9,2.5-.3,4.9-1,7.2-2-1.6,2.4-3.7,4.6-6.2,6.4Z"/>
</svg>