<?xml version="1.0" encoding="UTF-8"?>
<svg id="Layer_1" xmlns="http://www.w3.org/2000/svg" version="1.1" viewBox="0 0 120 120">
  <!-- Generator: Adobe Illustrator 29.0.0, SVG Export Plug-In . SVG Version: 2.1.0 Build 186)  -->
  <defs>
    <style>
      .st0 {
        fill: #8e364c;
      }
    </style>
  </defs>
  <path class="st0" d="M61.6,49.8c-.5,0-1,0-1.5,0s-1,0-1.5,0c-2.7.4-5.1,1.8-6.7,4-1.6,2.2-2.3,4.9-1.9,7.5.4,2.7,1.8,5.1,4,6.7s4.9,2.3,7.5,1.9c5.5-.8,9.4-6,8.6-11.5-.6-4.5-4-7.9-8.5-8.6Z"/>
  <path class="st0" d="M76.3,30.3h-32.6c-7.4,0-13.4,6-13.4,13.4v32.5c0,7.4,6,13.4,13.4,13.4h32.5c7.4,0,13.4-6,13.4-13.4v-32.5c0-7.4-5.9-13.4-13.3-13.4ZM72.9,69.3c-2.5,3.4-6.2,5.6-10.4,6.2-.8,0-1.6.2-2.4.2-3.4,0-6.7-1.1-9.4-3.1-3.4-2.5-5.6-6.2-6.2-10.4-.6-4.2.4-8.4,3-11.8,2.5-3.4,6.2-5.6,10.4-6.2,1.5-.2,3.1-.2,4.7,0,3.4.5,6.5,2.1,8.9,4.5s4,5.5,4.5,8.9c.5,4.1-.6,8.3-3.1,11.7ZM79.9,44.1c-.5.5-1.3.8-2,.8s-1.5-.3-2-.8-.8-1.3-.8-2,.3-1.5.8-2,1.3-.8,2-.8,1.5.3,2,.8.8,1.3.8,2-.2,1.5-.8,2Z"/>
  <path class="st0" d="M60,4C29.1,4,4,29.1,4,60s25.1,56,56,56,56-25.1,56-56S90.9,4,60,4ZM95.4,76.3c0,10.5-8.6,19.1-19.1,19.1h-32.6c-10.5,0-19.1-8.6-19.1-19.1v-32.6c0-10.5,8.6-19.1,19.1-19.1h32.5c10.5,0,19.1,8.6,19.1,19.1v32.6h.1Z"/>
</svg>