<?xml version="1.0" encoding="utf-8"?>
<!-- Generator: Adobe Illustrator 27.7.0, SVG Export Plug-In . SVG Version: 6.00 Build 0)  -->
<svg version="1.1" id="Layer_1" xmlns="http://www.w3.org/2000/svg" xmlns:xlink="http://www.w3.org/1999/xlink" x="0px" y="0px"
	 viewBox="0 0 120 120" style="enable-background:new 0 0 120 120;" xml:space="preserve">
<style type="text/css">
	.st0{fill:#EFEEEB;}
</style>
<g>
	<path class="st0" d="M61.6,49.8c-0.5-0.1-1-0.1-1.5-0.1s-1,0-1.5,0.1c-2.7,0.4-5.1,1.8-6.7,4c-1.6,2.2-2.3,4.9-1.9,7.5
		c0.4,2.7,1.8,5.1,4,6.7c2.2,1.6,4.9,2.3,7.5,1.9c5.5-0.8,9.4-6,8.6-11.5C69.5,53.9,66.1,50.5,61.6,49.8z"/>
	<path class="st0" d="M76.3,30.3H43.7c-7.4,0-13.4,6-13.4,13.4v32.5c0,7.4,6,13.4,13.4,13.4h32.5c7.4,0,13.4-6,13.4-13.4V43.7
		C89.7,36.3,83.7,30.3,76.3,30.3z M72.9,69.3c-2.5,3.4-6.2,5.6-10.4,6.2c-0.8,0.1-1.6,0.2-2.4,0.2c-3.4,0-6.7-1.1-9.4-3.1
		c-3.4-2.5-5.6-6.2-6.2-10.4c-0.6-4.2,0.4-8.4,3-11.8c2.5-3.4,6.2-5.6,10.4-6.2c1.5-0.2,3.1-0.2,4.7,0c3.4,0.5,6.5,2.1,8.9,4.5
		c2.4,2.4,4,5.5,4.5,8.9C76.5,61.7,75.4,65.9,72.9,69.3z M79.9,44.1c-0.5,0.5-1.3,0.8-2,0.8c-0.8,0-1.5-0.3-2-0.8s-0.8-1.3-0.8-2
		s0.3-1.5,0.8-2c0.5-0.5,1.3-0.8,2-0.8c0.8,0,1.5,0.3,2,0.8c0.5,0.5,0.8,1.3,0.8,2S80.5,43.6,79.9,44.1z"/>
	<path class="st0" d="M60,4C29.1,4,4,29.1,4,60s25.1,56,56,56s56-25.1,56-56S90.9,4,60,4z M95.4,76.3c0,10.5-8.6,19.1-19.1,19.1
		H43.7c-10.5,0-19.1-8.6-19.1-19.1V43.7c0-10.5,8.6-19.1,19.1-19.1h32.5c10.5,0,19.1,8.6,19.1,19.1V76.3z"/>
</g>
</svg>
