<?xml version="1.0" encoding="UTF-8"?>
<svg id="Layer_1" xmlns="http://www.w3.org/2000/svg" version="1.1" viewBox="0 0 120 120">
  <!-- Generator: Adobe Illustrator 29.0.0, SVG Export Plug-In . SVG Version: 2.1.0 Build 186)  -->
  <defs>
    <style>
      .st0 {
        fill: #8e364c;
      }
    </style>
  </defs>
  <path class="st0" d="M56.9,4.1c46.3-2.3,75.6,49.6,49,87.9-22.9,33-72.2,31.7-93.4-2.4C-10,53.5,14.7,6.2,56.9,4.1ZM33.2,26.6c-9.6,1.2-8.5,16.7,2.2,15.6s8.7-16.9-2.2-15.6ZM93.3,93.5v-30.2c0-2.5-2.8-8.4-4.5-10.2-7-7.2-19.5-6.2-26.1,1-.3.4-.6,1.1-1.1,1.2v-6.4h-12.5v44.6h13.4v-25.3c0-.5.8-2.6,1.1-3.1,3.1-6.1,13.3-6.3,15.8.3.1.4.6,1.8.6,2.1v26h13.4ZM41.3,93.5v-44.4s-.2-.2-.2-.2h-13.5v44.6h13.7Z"/>
</svg>