<?xml version="1.0" encoding="utf-8"?>
<!-- Generator: Adobe Illustrator 27.7.0, SVG Export Plug-In . SVG Version: 6.00 Build 0)  -->
<svg version="1.1" id="Layer_1" xmlns="http://www.w3.org/2000/svg" xmlns:xlink="http://www.w3.org/1999/xlink" x="0px" y="0px"
	 viewBox="0 0 120 120" style="enable-background:new 0 0 120 120;" xml:space="preserve">
<style type="text/css">
	.st0{fill:#EFEEEB;}
</style>
<path id="email" class="st0" d="M59.6,8.5C31.7,8.5,9.1,31.1,9.1,59.1s22.6,50.6,50.6,50.6s50.6-22.6,50.6-50.6
	c0-27.9-22.5-50.5-50.4-50.6C59.7,8.5,59.7,8.5,59.6,8.5z M39.7,43.2h39.8c2,0,1,2.7,0,3.4C78.5,47.3,62.6,56.7,62,57
	c-0.6,0.4-1.3,0.6-2,0.7c-0.7,0.1-1.5-0.2-2-0.7L40.4,46.6C38.7,45.9,37.7,43.2,39.7,43.2z M80.5,72.2c0,1-1.3,2.7-2.4,2.7H40.7
	c-1,0-2.4-1.7-2.4-2.7V53c0-0.3,0-1,1-0.7l17.9,10.4c0.6,0.4,1.3,0.6,2,0.7c0.7,0.1,1.5-0.2,2-0.7l18.5-10.4c1-0.7,1,0,1,0.7v19.2
	L80.5,72.2z"/>
</svg>
