<?xml version="1.0" encoding="utf-8"?>
<!-- Generator: Adobe Illustrator 27.7.0, SVG Export Plug-In . SVG Version: 6.00 Build 0)  -->
<svg version="1.1" id="Layer_1" xmlns="http://www.w3.org/2000/svg" xmlns:xlink="http://www.w3.org/1999/xlink" x="0px" y="0px"
	 viewBox="0 0 120 120" style="enable-background:new 0 0 120 120;" xml:space="preserve">
<style type="text/css">
	.st0{fill:#EFEEEB;}
</style>
<path id="Path_55" class="st0" d="M109.5,55.3v8.3c-0.3,1.7-0.3,3-0.7,4.6c-4.3,20.6-16.6,33.5-36.5,39.5c-2.7,0.6-5.5,1-8.3,1.3h-8
	c-2-0.2-4-0.5-6-1c-19.2-4.6-31.9-16.3-37.8-34.8c-1-3.3-1.3-6.6-2-10V55c0.3-1.7,0.3-3,0.7-4.6c4-19.2,15.3-32.2,34.5-38.8
	c3.4-1,6.8-1.7,10.3-2H64c1.7,0.3,3.3,0.3,4.6,0.7c20.2,4.3,33.2,16.3,39.5,35.8C108.8,49.1,109.2,52.2,109.5,55.3z M37.8,49
	c-0.2,4,0.9,7.9,3,11.3c6,10,11.9,20.2,17.6,30.5c0,0.4,0.3,0.7,0.7,0.7c0.4,0,0.7-0.3,0.7-0.7c6-10.3,11.6-20.6,17.9-30.5
	c3-4.7,3.9-10.5,2.7-15.9c-2.5-10.9-12.8-18.1-23.9-16.6C45.7,29.1,37.6,38.2,37.8,49z"/>
<path id="Path_56" class="st0" d="M70,48c0.1,6-4.7,11-10.8,11.1c-6,0.1-11-4.7-11.1-10.8c0-0.1,0-0.2,0-0.3
	c-0.1-6,4.7-10.9,10.7-11c0.1,0,0.2,0,0.2,0C65.1,37.1,70,42,70,48z"/>
</svg>
