<?xml version="1.0" encoding="utf-8"?>
<!-- Generator: Adobe Illustrator 27.8.0, SVG Export Plug-In . SVG Version: 6.00 Build 0)  -->
<svg version="1.1" id="Layer_1" xmlns="http://www.w3.org/2000/svg" xmlns:xlink="http://www.w3.org/1999/xlink" x="0px" y="0px"
	 viewBox="0 0 120 120" style="enable-background:new 0 0 120 120;" xml:space="preserve">
<style type="text/css">
	.st0{fill:#EFEEEB;}
</style>
<g>
	<path class="st0" d="M115.4,55.5c0,3,0,6.1,0,9.1c-0.3,1.7-0.4,3.5-0.8,5.2c-4.6,22-17.8,36.5-39.2,43.5c-3.5,1.2-7.2,1.6-10.9,2.1
		c-3,0-6.1,0-9.1,0c-1.7-0.3-3.5-0.4-5.2-0.8C28.1,110,13.7,96.9,6.7,75.5C5.5,72,5,68.3,4.6,64.6c0-3,0-6.1,0-9.1
		c0-0.3,0.1-0.6,0.1-0.8c0.7-7.6,2.9-14.7,6.6-21.3C22.6,13,45.8,0.9,69.8,5.6c22.1,4.3,36.5,17.6,43.5,38.9
		C114.5,48.1,115,51.8,115.4,55.5z M60,64.5c0.7,0,1.4,0,2.1,0c7,0,14,0,21,0c3.1,0,5.1-2.7,4.4-5.6c-0.5-2-2.2-3.3-4.4-3.3
		c-15.4,0-30.7,0-46.1,0c-0.1,0-0.2,0-0.3,0c-2.6,0.2-4.5,2.6-4.1,5.2c0.4,2.3,2.1,3.7,4.6,3.7C44.7,64.6,52.4,64.5,60,64.5z
		 M60,37.2C60,37.2,60,37.2,60,37.2c-7.8,0-15.6,0-23.4,0c-2.3,0-4.1,1.8-4.2,4.2c-0.1,2.1,1.4,4.1,3.6,4.5c0.7,0.2,1.4,0.2,2.1,0.2
		c14.6,0,29.1,0,43.7,0c0.4,0,0.7,0,1.1,0c3.1-0.2,5.1-2.6,4.5-5.4c-0.4-2.1-2.1-3.5-4.6-3.5C75.3,37.2,67.7,37.2,60,37.2z
		 M59.9,82.9C59.9,82.9,59.9,82.9,59.9,82.9c7.8,0,15.6,0,23.4,0c2.4,0,4.1-1.8,4.3-4.2c0.2-2.1-1.4-4.1-3.5-4.5
		C83.3,74,82.7,74,82,74c-14.6,0-29.3,0-43.9,0c-0.4,0-0.7,0-1.1,0c-3.1,0.3-5,2.7-4.4,5.5c0.4,2.1,2.2,3.4,4.5,3.4
		C44.7,83,52.3,82.9,59.9,82.9z"/>
</g>
</svg>
