<?xml version="1.0" encoding="UTF-8"?>
<svg id="Layer_1" xmlns="http://www.w3.org/2000/svg" version="1.1" viewBox="0 0 400 400">
  <!-- Generator: Adobe Illustrator 29.0.0, SVG Export Plug-In . SVG Version: 2.1.0 Build 186)  -->
  <defs>
    <style>
      .st0 {
        fill: #ffd2a7;
      }

      .st1 {
        fill: #e0f7e9;
      }

      .st2 {
        fill: #fff;
      }

      .st3 {
        fill: #2e4d34;
      }

      .st4 {
        fill: #8e364c;
      }
    </style>
  </defs>
  <g>
    <path class="st1" d="M280.5,95c-62.7,2.3-68.1-16-135.3-45.2-9.1-4-18.7-6.2-28.3-6.9-1.1,0-2.1-.1-3.2-.2C53.2,40.2-9.5,96,6.6,159.1c18.9,74.3-33.8,161.7,37.7,198.2,71.5,36.4,211.4,68.5,282.8,0,71.4-68.5,115.1-268.1-46.6-262.3Z"/>
    <path class="st1" d="M188.7,46.8c30,31.7,65.8,27,78.2,24.1,3.1-.7,5.1-3.6,4.7-6.7-4.4-34.3-117.9-54.4-82.8-17.4Z"/>
    <path class="st1" d="M327.1,357.2c-71.4,68.5-211.3,36.4-282.8,0C-27.2,320.8,25.5,233.4,6.6,159.1-9.5,96,53.2,40.2,113.6,42.7c1.1,0,2.1.1,3.2.2,9.7.7,19.2,3,28.3,6.9,67.2,29.1,72.6,47.4,135.3,45.2,161.7-5.8,118,193.8,46.6,262.3Z"/>
  </g>
  <rect class="st4" x="21.8" y="397.5" width="334.4" height="2.5"/>
  <g>
    <g>
      <path class="st4" d="M366.1,195.7c-15-7.6-19.9,11.5-22,28.7.4-14.3.9-30.2-1.8-43.7-1.6-8.2-6.6-13.8-14.1-11.5-2.7.8-1.5,5.6,1.1,4.8,4.5-1.3,9,9.8,9.3,13.8.3,3.9.4,7.7.5,11.6.3,6.2.5,12.4.5,18.6.1,15.2-1,30.1-2.9,45.1-3.2,25-7.6,49.8-6.8,75.2,0,3.2,4.4,3.2,4.3,0-.7-25.6,3.7-50.5,6.9-75.7-.3,12,0,23.8.4,36.2.6,16.8-2.1,33.4,1.8,49.9.7,3.1,4.9,1.8,4.2-1.3-3.1-13.1-1.7-25.8-1.5-39.2.1-11.3-1.3-22.5-1.4-33.8-.1-11.1,1.1-22.1,2.3-33.1.7-6.5,2-49,17-41.3,2.5,1.3,4.7-3,2.2-4.3Z"/>
      <path class="st4" d="M325.3,268.5c-1.2-6.9-9.9-39-20.1-26-1.9,2.4,1.2,5.9,3,3.5,5.2-6.7,13,24.9,13.4,27.5,1.1,8,1.2,16.1.9,24.1-.5,17.7-2.5,35-.6,52.7.3,3.1,4.6,3.2,4.3,0-2.9-27.2,3.8-54.8-1-81.8Z"/>
      <path class="st4" d="M303.2,258.9c11.1,25.4,10.5,56.6,12.8,84.4.3,3.2,4.6,3.2,4.3,0-2.4-28.7-1.9-60.6-13.4-86.9-1.2-2.9-5-.3-3.7,2.5Z"/>
    </g>
    <g>
      <path class="st3" d="M304.9,392.7c.1,2.9,2.2,5.1,4.7,5.1h39c2.5,0,4.5-2.2,4.7-5.1l3.5-56h-55.2l3.5,56Z"/>
      <polygon class="st4" points="302.3 356 355.7 356 356.6 336.7 301.4 336.7 302.3 356"/>
      <path class="st3" d="M300.3,330.6h57.4c5.1,0,9.2,4.1,9.2,9.2v.3c0,5.1-4.1,9.2-9.2,9.2h-57.4c-5.1,0-9.2-4.1-9.2-9.2v-.3c0-5.1,4.1-9.2,9.2-9.2Z"/>
    </g>
    <g>
      <path class="st3" d="M329.6,131.5c-5.9,12.1-17,25.2-13,39.6,2.8,10,12.9,16.1,22.9,15.3.3,0,.5-.1.7-.2.5,0,.9-.2,1.2-.7,9.9-18.3-7.8-35.2-9-53.2,0-1.4-2.1-2.2-2.8-.8Z"/>
      <path class="st3" d="M332.9,132.2c0-.9-.8-1.8-1.8-1.9-.8-.2-1.6.2-2,1-1.3,2.7-2.9,5.4-4.5,8.3-5.7,10-11.7,20.3-8.5,31.7,2.6,9.3,11.5,15.7,21.6,15.7s1.2,0,1.8,0c.3,0,.5,0,.8-.2.7,0,1.2-.4,1.5-1,6.3-11.6,1.6-22.8-3-33.7-2.7-6.4-5.5-13.1-6-19.8ZM341,185.2c-.2.3-.4.5-.8.5,0,0-.2,0-.2,0-.2,0-.3.1-.5.2-10.2.8-19.9-5.6-22.4-14.9-3.1-11,2.8-21.2,8.4-31,1.7-2.9,3.2-5.6,4.5-8.3.2-.4.5-.5.7-.5s.1,0,.2,0c.5,0,1,.5,1,1.1.5,6.8,3.3,13.6,6,20.1,4.7,11.1,9.1,21.6,3,32.8Z"/>
    </g>
    <g>
      <path class="st3" d="M341,201.4s0,0,0,0c-3.3-2.1-6.8-1.8-10.8-2.7-7.1-1.6-11.9-7.3-16.3-12.6-.6-.8-1.9-.5-2.4.3-4.3,7.2-6.2,17.8,1.8,23.4,8.2,5.7,20,0,27.7-4.8.9.2,1.8-.5,1.9-1.3,1.1-1.2-.3-3.4-1.8-2.4Z"/>
      <path class="st3" d="M340.9,200.9c-2.2-1.4-4.6-1.7-7-2-1.2-.2-2.4-.3-3.7-.6-7-1.6-11.8-7.4-16.1-12.5-.4-.4-.9-.7-1.5-.6-.7,0-1.3.4-1.6,1-4.8,8-6,18.5,2,24,2.4,1.7,5.2,2.5,8.4,2.5,5.4,0,12-2.4,19.7-7.1.5,0,.9,0,1.4-.4.4-.3.7-.7.9-1.2.7-.8.5-2,0-2.7-.6-.7-1.5-.9-2.3-.5ZM341,201.3h0s0,0,0,0h0ZM342.5,203.4c0,0-.1.2-.1.3,0,.3-.2.5-.5.7-.3.2-.6.2-.8.2-.1,0-.2,0-.4,0-11.9,7.4-21,9-27.2,4.8-7.5-5.2-6.2-15.1-1.7-22.7.2-.3.5-.5.9-.5,0,0,0,0,0,0,.2,0,.4,0,.6.3,4.3,5.2,9.2,11.1,16.6,12.8,1.3.3,2.5.5,3.7.6,2.5.3,4.7.6,6.9,2,.2.1.4.1.5,0,0,0,.1,0,.1,0,.6-.4,1,0,1.2.2.3.4.4,1,0,1.5Z"/>
    </g>
    <g>
      <path class="st3" d="M374.1,157.8c-12.9,10.6-29,19.2-33.1,36.7-.4,1.6,1.6,2.4,2.5,1.5,8.4-4.4,19.5-8.1,26.4-14.8,5.8-5.6,6.3-14.9,6.8-22.4.1-1.4-1.7-1.8-2.6-1.1Z"/>
      <path class="st3" d="M376.2,157.2c-.8-.4-1.8-.3-2.4.2-2.5,2.1-5.2,4.1-7.8,6.1-10.9,8.2-22.1,16.7-25.4,30.9-.2.9.2,1.7.9,2.2.3.2.7.3,1.1.3s.9-.1,1.2-.4c2.3-1.2,4.7-2.3,7.3-3.5,6.9-3.2,14.1-6.5,19.1-11.4,5.7-5.6,6.4-14.7,6.9-22.1v-.6c.1-.8-.2-1.4-.9-1.7ZM376.2,158.8v.6c-.6,7.2-1.2,16.2-6.7,21.5-4.9,4.8-12,8-18.9,11.2-2.6,1.2-5.1,2.3-7.4,3.5,0,0,0,0-.1,0-.3.3-.9.3-1.2,0-.2-.1-.6-.5-.5-1.1,3.2-13.9,14.3-22.3,25-30.4,2.6-2,5.3-4,7.9-6.1.2-.2.5-.3.8-.3s.4,0,.6.1c.3.2.5.4.4.8h0Z"/>
    </g>
    <g>
      <path class="st3" d="M392.7,213.6c-8.2-4.9-9.5-16.1-17.9-20.8-7-3.9-15.2-1.2-20.6,4.1-.2.2-.3.4-.4.7-.4.2-.7.6-.7,1.2-.9,8,4.1,14.8,10.5,19.2,9.2,6.2,18.4-1.3,28.3-1.4,1.5,0,2.1-2.1.8-2.8Z"/>
      <path class="st3" d="M393,213.2c-3.9-2.4-6.3-6.3-8.6-10.1-2.4-4-5-8.2-9.3-10.7-7.9-4.4-16.3-.5-21.1,4.2-.2.2-.4.4-.5.7-.4.3-.7.8-.8,1.4-.8,7.2,3.2,14.6,10.7,19.6,2.8,1.9,5.6,2.5,8.4,2.5s6.7-1,10-1.9c3.3-.9,6.7-1.9,10.2-2,.9,0,1.7-.6,1.9-1.5.2-.9-.1-1.8-.9-2.2ZM392.9,215.2c-.1.4-.4.8-1,.8-3.6,0-7.1,1-10.4,2-6.1,1.7-11.8,3.4-17.6-.5-7.2-4.8-11.1-11.8-10.3-18.7,0-.3.2-.6.5-.8,0,0,.2-.2.2-.3,0-.2.1-.3.3-.5,3.2-3.1,8-5.8,13.1-5.8s4.6.5,6.9,1.8c4.2,2.3,6.5,6.2,9,10.3,2.4,3.9,4.8,8,8.9,10.5h0c.5.3.6.8.5,1.2Z"/>
    </g>
    <g>
      <path class="st3" d="M373.4,222.2c-11-1.2-29.5,1.8-30.1,15.8,0,.8.5,1.3,1.1,1.4-.3.9.1,2.1,1.4,1.9,11.9-1.5,24.3-5.1,29.2-17.2.4-1-.6-1.8-1.5-1.9Z"/>
      <path class="st3" d="M373.5,221.7c-8.2-.9-19.3.6-25.6,5.9-3.2,2.7-4.9,6.2-5.1,10.4,0,.8.3,1.4,1,1.7,0,.6,0,1.1.4,1.5.3.4.8.6,1.3.6s.2,0,.3,0c11-1.4,24.3-4.7,29.6-17.5.2-.5.2-1-.1-1.5-.3-.6-1-1-1.8-1.1ZM374.4,224c-5.1,12.4-18,15.6-28.8,16.9-.3,0-.6,0-.7-.2-.2-.2-.3-.7-.1-1.1,0-.1,0-.3,0-.4,0-.1-.2-.2-.3-.2-.3,0-.7-.3-.7-.9.2-3.9,1.8-7.1,4.7-9.7,4.9-4.2,13.1-5.9,20.3-5.9s3.1,0,4.6.2h0c.4,0,.8.3,1,.6.1.2.1.4,0,.7Z"/>
    </g>
    <g>
      <path class="st3" d="M341.3,227.7c0,0-.1-.1-.2-.2-1.9-1.5-4-2.4-6.3-3-3.9-1.1-7-2.4-9.8-5.5-.5-.6-1.6-.6-2.2,0-4.1,4.3-2.1,10.3,2.1,13.7,1.9,1.5,4.1,2.9,6.6,2.6,3.2-.3,6.5-2.9,9.1-4.8,1.1-.2,2-1.6.9-2.6-.1-.1-.2-.2-.4-.3Z"/>
      <path class="st3" d="M341.8,227.5s0,0-.1,0c0,0-.2-.2-.2-.2-2.1-1.7-4.4-2.5-6.5-3.1-4-1.1-6.9-2.4-9.5-5.4-.3-.4-.8-.6-1.4-.6-.6,0-1.1.2-1.5.6-1.7,1.8-2.5,4-2.3,6.4.2,2.9,1.9,5.9,4.5,8,1.5,1.2,3.7,2.7,6.3,2.7s.4,0,.6,0c3.2-.3,6.3-2.6,8.9-4.5l.4-.3c.7-.2,1.4-.7,1.6-1.5.2-.7,0-1.4-.5-1.9,0,0-.2-.1-.2-.2ZM341.7,229.3c-.1.4-.5.8-1,.8,0,0-.1,0-.2,0l-.5.4c-2.5,1.8-5.5,4-8.4,4.3-2.5.3-4.7-1.3-6.2-2.5-2.4-1.9-4-4.7-4.2-7.3-.1-2.1.6-4.1,2.1-5.7.2-.2.5-.3.8-.3h0c.3,0,.5.1.7.3,2.8,3.1,5.9,4.5,10,5.7,1.9.6,4.2,1.3,6.2,3,0,0,0,0,.2.1,0,0,.1,0,.2.1,0,0,.1,0,.2.1h0c.4.3.4.7.3.9Z"/>
    </g>
    <g>
      <path class="st3" d="M366.8,245.4c-7,3.9-14.9,7.6-20.2,13.9-5.3,6.3-5.1,13.7-4.2,21.5.1.9.8,1.3,1.4,1.4.5.7,1.5,1,2.4.3,6-4.9,14-9.7,18.5-16.2,3.7-5.3,2.7-13.2,4.3-19.3.3-1.3-1.1-2.4-2.2-1.7Z"/>
      <path class="st3" d="M366.6,245c-1.2.7-2.4,1.3-3.6,2-6,3.3-12.3,6.7-16.7,12-5.6,6.7-5.2,14.5-4.3,21.9.1.9.8,1.6,1.7,1.8.4.4.9.7,1.4.7,0,0,.2,0,.2,0,.5,0,.9-.2,1.3-.5,1.7-1.4,3.5-2.7,5.3-4.1,4.9-3.7,10-7.4,13.3-12.1,2.5-3.5,2.9-8.1,3.3-12.5.2-2.5.5-4.8,1-6.9.2-.8,0-1.6-.7-2.1-.7-.5-1.5-.6-2.2-.2ZM366.9,245.4h0,0ZM368.6,247c-.6,2.2-.8,4.6-1,7-.4,4.3-.9,8.8-3.2,12.1-3.2,4.6-8.2,8.3-13,11.9-1.9,1.4-3.7,2.8-5.4,4.1-.2.2-.5.3-.8.3-.3,0-.7-.2-.9-.5,0,0-.2-.2-.3-.2-.2,0-.9-.2-1-1-.9-7.2-1.3-14.8,4.1-21.2,4.3-5.1,10.4-8.5,16.4-11.8,1.2-.7,2.4-1.3,3.6-2h0c.2,0,.3-.1.5-.1s.4,0,.6.2c.3.2.5.6.4,1.1Z"/>
    </g>
    <g>
      <path class="st3" d="M326.5,246c-.6-1.2-2.5-.9-2.8.4-1.3,6.1-2.5,12.6,0,18.6,2.4,5.7,7.4,10.7,12.2,14.4.7.5,1.3.3,1.7-.2.7-.1,1.2-.6,1.2-1.4-.3-5.7-.9-12-3.2-17.3-2.3-5.2-6.6-9.3-9.2-14.5Z"/>
      <path class="st3" d="M331.3,252.5c-1.6-2.1-3.2-4.4-4.4-6.8-.4-.7-1.1-1.1-2-1-.9.1-1.5.7-1.7,1.5-1.4,6.2-2.5,12.8.1,18.9,2.9,6.7,9,12,12.4,14.6.3.3.7.4,1.1.4s.8-.2,1.2-.5c.9-.2,1.5-.9,1.4-1.9-.3-5.6-.8-12.1-3.2-17.5-1.2-2.8-3.1-5.3-4.8-7.7ZM338.5,277.8c0,.7-.5.9-.8.9-.1,0-.2,0-.3.2-.2.3-.6.5-1.1.1-3.3-2.5-9.3-7.8-12.1-14.2-2.5-5.8-1.4-12.2,0-18.3.1-.5.5-.7.9-.7,0,0,0,0,.2,0,.3,0,.7.1.8.5,1.2,2.5,2.9,4.7,4.5,6.9,1.7,2.4,3.5,4.8,4.7,7.5,2.3,5.2,2.9,11.6,3.2,17.1h0Z"/>
    </g>
    <g>
      <path class="st3" d="M340.8,295.3c-3.9-3.4-7.4-6.2-9.7-10.9-.5-1-2.2-1-2.6,0-2.7,5.8-1.7,12,2.1,17.1,3.1,4.1,8.6,8.7,14,6.4.9-.4,1.1-1.3.9-2,.2-.2.4-.6.4-1-.1-4-2.1-7-5.1-9.6Z"/>
      <path class="st3" d="M341.2,294.9l-1.1-1c-3.5-3-6.4-5.6-8.5-9.8-.3-.6-1-1-1.8-1s0,0,0,0c-.8,0-1.4.4-1.7,1-2.7,5.8-1.9,12.2,2.1,17.6,1.4,1.9,6,7.3,11.4,7.3s2.1-.2,3.2-.7c1-.4,1.4-1.5,1.3-2.4.2-.3.3-.7.3-1.1-.1-3.7-1.8-6.9-5.2-9.9ZM345.2,305.5c-.1.1-.2.3-.1.4.1.5,0,1.2-.7,1.5-6.2,2.6-11.9-4.2-13.5-6.3-3.8-5.1-4.6-11.2-2-16.6.2-.3.5-.5.9-.5,0,0,0,0,0,0,.4,0,.8.2.9.5,2.2,4.4,5.4,7.2,8.7,10.1l1.1.9c3.2,2.9,4.8,5.8,4.9,9.2,0,.3,0,.5-.2.7Z"/>
    </g>
    <g>
      <path class="st3" d="M354.3,307.4c-5.2,2.5-10.7,5.6-12.1,11.6-1.5,1,0,3.5,1.7,2.5,5.3-2.9,14.4-5.2,12.7-13.2-.2-1-1.4-1.3-2.2-.9Z"/>
      <path class="st3" d="M356.1,306.9c-.6-.3-1.3-.3-2,0-5.2,2.5-10.8,5.6-12.4,11.8-.8.7-.8,1.8-.3,2.5.3.5.9,1,1.7,1s.6,0,1-.3c1-.5,2.1-1,3.2-1.6,5-2.3,11.2-5.2,9.7-12.1-.1-.6-.5-1-1-1.2ZM346.9,319.5c-1.2.5-2.3,1.1-3.3,1.6-.6.3-1.1,0-1.4-.4-.2-.3-.4-.9.2-1.3,0,0,.2-.2.2-.3,1.4-5.9,6.9-8.9,11.9-11.3.2,0,.4-.1.6-.1s.4,0,.5.1c.2.1.4.3.4.6,1.3,6.2-4.1,8.7-9.2,11.1Z"/>
    </g>
    <g>
      <path class="st3" d="M301.8,306.7c-1,.3-1.2,1.5-.8,2.3,2.8,5,6.3,10.3,12.4,11.4,1.1,1.4,3.4-.2,2.4-1.8-3.3-5.1-6.1-14-14-11.8Z"/>
      <path class="st3" d="M314.5,315.2c-2.6-4.8-5.9-10.8-12.8-8.9h0c-.5.2-1,.5-1.2,1-.3.6-.2,1.4.1,2,2.8,5,6.3,10.4,12.5,11.6.4.4.8.6,1.3.6s.9-.1,1.2-.4c.8-.5,1.2-1.6.5-2.7-.6-.9-1.2-2-1.8-3.1ZM315.2,320.2c-.3.2-.9.4-1.3-.1,0,0-.2-.2-.3-.2-5.9-1-9.3-6.3-12-11.1-.2-.3-.2-.8,0-1.1.1-.3.3-.4.6-.5,6.1-1.7,8.9,3.5,11.7,8.5.6,1.1,1.2,2.2,1.8,3.2.4.6,0,1.1-.3,1.4Z"/>
    </g>
    <path class="st4" d="M345.9,305.5c-5-3.4-12.4-7.1-12.8-14-.1-2-3.2-2-3.1,0,.5,8.2,8.2,12.4,14.3,16.6,1.6,1.1,3.2-1.5,1.5-2.6Z"/>
    <path class="st4" d="M359.3,254.4c-7,8.7-15.9,16.7-17.2,28.2-.2,1.9,2.8,1.9,3.1,0,1.2-10.3,10.1-18.2,16.4-26,1.2-1.5-.9-3.7-2.2-2.2Z"/>
    <path class="st4" d="M333.6,269.7c-3.3-4.4-4.8-8.9-5.8-14.3-.3-1.9-3.3-1.1-2.9.8.7,4,1.6,8,3.7,11.6,2.5,4.4,5.5,7.7,7.2,12.7.6,1.9,3.6,1.1,2.9-.8-1.3-3.7-2.7-6.8-5.1-10Z"/>
    <path class="st4" d="M342.3,228.6c-2.1-.5-4.2-.6-6.4-.7-1.7,0-7.9.7-8.2-1.9-.3-1.9-3.3-1.9-3.1,0,1,7.4,11.9,4.2,16.9,5.5,1.9.5,2.7-2.5.8-2.9Z"/>
    <path class="st4" d="M366.2,225.9c-8.7,2.2-19.9,6.5-24.7,14.7-1,1.7,1.7,3.2,2.6,1.5,4.3-7.4,15-11.3,22.8-13.3,1.9-.5,1.1-3.4-.8-2.9Z"/>
    <g>
      <path class="st3" d="M355.5,299.4c-11-1.2-29.5,1.8-30.1,15.8,0,.8.5,1.3,1.1,1.4-.3.9.1,2.1,1.4,1.9,11.9-1.5,24.3-5.1,29.2-17.2.4-1-.6-1.8-1.5-1.9Z"/>
      <path class="st3" d="M355.5,298.9c-8.2-.9-19.3.6-25.6,5.9-3.2,2.7-4.9,6.2-5.1,10.4,0,.8.3,1.4,1,1.7,0,.6,0,1.1.4,1.5.3.4.8.6,1.3.6s.2,0,.3,0c11-1.4,24.3-4.7,29.6-17.5.2-.5.2-1-.1-1.5-.3-.6-1-1-1.7-1.1ZM356.5,301.1c-5.1,12.4-18,15.6-28.8,16.9-.3,0-.6,0-.7-.2-.2-.2-.3-.7-.1-1.1,0-.1,0-.3,0-.4,0-.1-.2-.2-.3-.2-.3,0-.7-.3-.7-.9.2-3.9,1.8-7.1,4.7-9.7,4.9-4.2,13.1-5.9,20.3-5.9s3.1,0,4.6.2h0c.4,0,.8.3,1,.6.1.2.1.4,0,.7Z"/>
    </g>
    <path class="st4" d="M348.2,303c-8.7,2.2-19.9,6.5-24.7,14.7-1,1.7,1.7,3.2,2.6,1.5,4.3-7.4,15-11.3,22.8-13.3,1.9-.5,1.1-3.4-.8-2.9Z"/>
    <path class="st4" d="M374,206.3c-3.7-1.2-6.8-3.3-10.2-5.1-1.3-.7-2.5-1.3-3.9-1.9-1.3-.5-3.7-.7-4.6-1.8-.5-.6-1.6-.6-2.2,0-1.4,1.5-2.2,2.9-2.7,4.9-.5,1.9,2.5,2.7,2.9.8.1-.9.5-1.7,1-2.5.4.2.9.3,1.5.5,2.4.7,4.6,1.7,6.8,2.9,3.4,1.9,6.6,3.8,10.3,5,1.9.6,2.7-2.3.8-2.9Z"/>
    <path class="st4" d="M365.4,168.7c-4.6,6-10.6,10.3-16.5,15.1-4.1,3.3-10.7,7.7-10,13.7.2,1.9,3.3,1.9,3.1,0-.4-3.7,3.9-7.1,6.3-9.3,2.3-2,4.6-3.8,7-5.7,4.5-3.5,8.7-7.2,12.2-11.7,1.2-1.5-1-3.7-2.2-2.2Z"/>
    <path class="st4" d="M341.4,200.6c0,.5-.1,1-.2,1.5-3.7,0-7.4,0-11.1.5-4.3.5-14.2,2.4-13.5-5.9.2-2-2.9-1.9-3.1,0-1.3,14.2,21.3,8.3,28.9,8.5.9,0,1.4-.7,1.5-1.5.1-1,.2-2,.4-3,.2-1.9-2.8-1.9-3.1,0Z"/>
    <g>
      <path class="st3" d="M312.7,291.8s0,0-.1,0c-1.2-3.7-4-5.7-6.5-9-4.4-5.8-4.5-13.2-4.4-20.2,0-1-1.2-1.6-2-1.3-7.9,2.8-16.2,9.7-13.6,19.1,2.6,9.6,15.3,12.9,24.3,14.2.6.7,1.7.8,2.3.2,1.6-.2,2-2.8.2-3Z"/>
      <path class="st3" d="M312.9,291.3c-.8-2.5-2.4-4.2-4.1-6-.8-.9-1.6-1.8-2.4-2.8-4.4-5.7-4.4-13.2-4.3-19.9,0-.6-.3-1.1-.8-1.5-.6-.4-1.3-.5-1.9-.3-8.8,3-16.5,10.3-13.9,19.7,2.1,7.6,10.3,12.4,24.5,14.5.3.3.8.6,1.3.6,0,0,.1,0,.2,0,.4,0,.9-.1,1.2-.4,1.1-.2,1.7-1.2,1.7-2.1,0-.9-.6-1.6-1.5-1.8ZM312.7,291.7h0c0,0,0,0,0,0h0ZM312.5,294.3c0,0-.2,0-.3.1-.2.2-.5.3-.8.2-.3,0-.6-.2-.8-.4,0,0-.2-.2-.3-.2-13.9-2-21.9-6.6-23.9-13.8-2.4-8.8,5-15.6,13.3-18.5,0,0,.2,0,.3,0,.2,0,.5,0,.7.2.2.1.4.3.4.7,0,6.8,0,14.5,4.5,20.5.8,1.1,1.7,2,2.5,2.9,1.7,1.9,3.2,3.5,4,6,0,.2.2.3.4.3,0,0,0,0,.1,0,.7,0,.8.7.8.9,0,.5-.3,1.1-1,1.1Z"/>
    </g>
    <path class="st4" d="M313.5,291.4c-.4.3-.7.7-1.1,1-2.8-2.4-5.7-4.7-8.8-6.7-3.6-2.4-12.4-7.3-6.5-13.2,1.4-1.4-1-3.3-2.3-2-10.1,10.1,11,20,16.7,25.1.7.6,1.6.4,2.2-.2.7-.7,1.5-1.4,2.2-2.1,1.4-1.3-.9-3.3-2.3-2Z"/>
    <path class="st4" d="M337.7,176.7c-3.9-5-6.7-10-8.3-16.2-.5-1.9-3.4-1.1-2.9.8,1.2,4.7,3,9.2,5.7,13.2,3,4.4,7.2,8,8,13.5.3,1.9,3.2,1.1,2.9-.8-.6-4.2-2.9-7.3-5.5-10.6Z"/>
    <g>
      <path class="st3" d="M295.2,207.8c-5.9,12.1-17,25.2-13,39.6,2.8,10,12.9,16.1,22.9,15.3.3,0,.5-.1.7-.2.5,0,.9-.2,1.2-.7,9.9-18.3-7.8-35.2-9-53.2,0-1.4-2.1-2.2-2.8-.8Z"/>
      <path class="st3" d="M298.5,208.6c0-.9-.8-1.8-1.8-1.9-.8-.2-1.6.2-2,1-1.3,2.7-2.9,5.4-4.5,8.2-5.7,10-11.7,20.3-8.5,31.7,2.6,9.3,11.5,15.7,21.6,15.7s1.2,0,1.8,0c.3,0,.5,0,.8-.2.7,0,1.2-.4,1.5-1,6.3-11.6,1.6-22.8-3-33.7-2.7-6.4-5.5-13.1-6-19.8ZM306.6,261.6c-.2.3-.4.5-.8.5,0,0-.2,0-.2,0-.2,0-.3.1-.5.2-10.2.8-19.9-5.6-22.4-14.9-3.1-11,2.8-21.2,8.4-31,1.6-2.9,3.2-5.6,4.5-8.3.2-.4.5-.5.7-.5s.1,0,.2,0c.5,0,1,.5,1,1.1.5,6.8,3.3,13.6,6,20.1,4.7,11.1,9.1,21.6,3,32.8Z"/>
    </g>
    <path class="st4" d="M303.3,253.1c-3.9-5-6.7-10-8.3-16.2-.5-1.9-3.4-1.1-2.9.8,1.2,4.7,3,9.2,5.7,13.2,3,4.4,7.2,8,8,13.5.3,1.9,3.2,1.1,2.9-.8-.6-4.2-2.9-7.3-5.5-10.6Z"/>
    <path class="st4" d="M308.2,311.3c-.8-1.8-3.4-.2-2.6,1.5,1.8,4.1,6.1,6,9.2,8.9,1.4,1.3,3.6-.8,2.2-2.2-2.9-2.7-7-4.5-8.7-8.3Z"/>
  </g>
  <g>
    <path class="st0" d="M234.9,202.1c-7.8-1.1-14.8.2-17,2.3-.9.9,0,2.8,5.4,5.5,1,4.1,15.3,3.3,14.1,2.4-3.7-2.8-5-6.1-4.3-6.8.7-.7,2.8.1,3.4,1,.3.4.9.8,1.6.6.8-.2,1-.7,1-1.3,0-.9-2.2-3.5-4.1-3.8Z"/>
    <g>
      <path class="st2" d="M192.9,194.9c-5.9-1.5-13.4-10.6-15.7-14.4-3-5.1-6-10.3-9.6-15-3.2-4.2-7.3-8.6-12.7-9.6-4.6-.9-9.7.9-12.6,4.7-5.9,8.1,1.2,19.3,5.8,26.1,7.3,10.8,16.6,20.4,27.9,26.9,5.7,3.4,7,4.6,10,5.3,6.2,1.5,16.5-1.5,24-4.4,3.4-1.3,8-2.7,10.6-5.4,2.1-2.2,1.7-5.4,1.8-8.1-6.3.6-24-4.8-29.6-6.2Z"/>
      <path d="M222.4,200.7c-5,.4-17.7-3-25.3-5.1-1.7-.5-3.1-.8-4.2-1.1-5.8-1.5-13.3-10.6-15.4-14.2l-1.1-1.8c-2.6-4.4-5.3-9-8.6-13.2-3.1-4-7.3-8.7-13-9.7-4.9-.9-10.2,1-13,4.9-6.4,8.6,1.9,20.8,5.8,26.6,8,11.8,17.4,20.9,28.1,27,1.6.9,2.8,1.7,3.8,2.3,2.8,1.7,4.1,2.5,6.3,3.1,1.2.3,2.5.4,3.9.4,6.7,0,15.3-2.9,20.4-4.8.5-.2,1.1-.4,1.6-.6,3.2-1.2,6.9-2.5,9.2-4.8,1.8-1.9,1.9-4.4,1.9-6.8,0-.5,0-1.1,0-1.6,0-.1,0-.2-.1-.3,0,0-.2-.1-.3-.1ZM222,202.7c0,2.3,0,4.6-1.6,6.2-2.1,2.2-5.7,3.5-8.8,4.6-.6.2-1.1.4-1.6.6-6.1,2.3-17.2,6-23.7,4.4-2.1-.5-3.3-1.3-6.1-3-1-.6-2.3-1.4-3.8-2.3,0,0,0,0,0,0-10.5-6-19.9-15-27.8-26.7-3.8-5.7-11.8-17.5-5.8-25.6,2.2-3,5.9-4.7,9.8-4.7s1.6,0,2.3.2c5.4,1,9.5,5.6,12.4,9.4,3.2,4.1,5.9,8.7,8.5,13.1l1.1,1.8c1.9,3.2,9.5,13,16,14.6,1,.3,2.5.6,4.1,1.1,7.4,2,19.6,5.4,25.1,5.1,0,.4,0,.8,0,1.2Z"/>
    </g>
    <polygon class="st0" points="149.3 391.3 153.8 391.3 155.5 381.7 147.1 380.7 149.3 391.3"/>
    <path class="st4" d="M141.9,314.8c1.8,26.1,4.8,67.6,4.8,67.6h8.2s10.4-34.6,15.4-65.3c6.7-41.7,7.1-79.1,7.1-79.1l-44.2,4.6s7.1,47.4,8.8,72.2Z"/>
    <path class="st4" d="M158.6,379.9c-.2-.6-13-1.7-13.7,0-.7,1.8.5,2.3.5,2.3,0,0-1.6,1.2,0,1.6,1.6.4,7.5,2,11.8.7,0,0,1.9-.7,1.1-2.7,0,0,.4-1.3.2-2Z"/>
    <path class="st4" d="M141.2,305.7c1.8,19.3,4.6,63.9,4.6,63.9,0,0,7.9-42.6,11.4-79,3.4-35,4.1-55.6,4.1-55.6l-28.1,7.6s6.5,47,8,63.1Z"/>
    <path class="st4" d="M154.4,388.2c-3.4,2.2-5.6.3-5.6.3-5.6,2.7-3,9.8-3,9.8h3.9l1.9-2.2,2.6,2.2h23.7c-3.9-10.1-23.6-10.1-23.6-10.1Z"/>
    <path class="st4" d="M94.9,310.2c-1.6,23.8,4.1,72.8,4.1,72.8l8.4-2.3,39.7-138.2-44.2-4.6s-5.2,30.1-8,72.2Z"/>
    <polygon class="st0" points="100.7 391.3 105.3 391.3 107.5 380.7 99.1 381.7 100.7 391.3"/>
    <path class="st4" d="M109.7,379.9c-.7-1.7-13.5-.6-13.7,0-.2.6.2,2,.2,2-.8,2,1.1,2.7,1.1,2.7,4.3,1.2,10.2-.3,11.8-.7,1.6-.4,0-1.6,0-1.6,0,0,1.2-.5.5-2.3Z"/>
    <path class="st4" d="M105.8,388.5s-2.3,1.9-5.6-.3c0,0-19.8,0-23.6,10.1h21.7l2.6-1.9,2.3,1.9h5.5s2.6-7.1-3-9.8Z"/>
    <g>
      <path class="st2" d="M176.8,198.7c-2.5-15.5-5.7-35-21.3-42.8-8.2-4.1-18.4-4.3-26.9-.9-8.7,3.5-14.9,10.9-19.2,19-5.4,10.2-8.1,21.5-9.8,32.8-1.9,12.7-2.7,25.6-2.1,38.5,22.1,3.9,45,5.3,67.2,1.2,5-.9,10.2-1.9,15-3.8,1.5-.6,2.7-1,2.9-2.8.3-2.2-.7-5.2-1-7.4-1.4-11.3-3-22.5-4.9-33.7Z"/>
      <path d="M182.1,232.4c-1.3-10.7-2.9-21.8-4.9-33.8-2.5-15.7-5.7-35.2-21.6-43.1-8.1-4.1-18.6-4.4-27.2-.9-7.7,3.1-14.4,9.7-19.4,19.2-4.7,8.8-7.8,19.3-9.9,33-2,13.2-2.7,26.2-2.1,38.5,0,.2.2.4.4.4,13.9,2.5,26.9,3.7,39,3.7s19.4-.8,28.4-2.5h.3c4.9-1,10.1-1.9,14.8-3.8h.1c1.5-.7,2.8-1.2,3.1-3.1.2-1.6-.2-3.4-.5-5.2-.2-.8-.3-1.6-.4-2.3ZM182.2,239.8c-.2,1.4-1.1,1.8-2.5,2.4h-.1c-4.6,1.9-9.7,2.9-14.6,3.8h-.3c-19.7,3.7-41.5,3.4-66.7-1.1-.6-12.2.1-25,2.1-38,2.1-13.6,5.2-24,9.8-32.7,4.9-9.3,11.5-15.8,19-18.8,8.4-3.4,18.6-3,26.5.9,15.5,7.7,18.6,27,21.1,42.5,1.9,12,3.5,23,4.9,33.7,0,.7.3,1.6.4,2.4.3,1.7.7,3.5.5,4.9Z"/>
    </g>
    <path class="st4" d="M143.6,156.4l.3,5.9c-6.1.8-10.6.2-10.7.2h-.7c0,0,0,.6,0,.6,0,3.7,1.5,8.8,3.4,15.3,2.5,8.3,5.5,18.7,6.3,30,1.7,24-2.7,40.3-2.7,40.5l1.1.3c0-.2,4.5-16.6,2.8-40.9-.8-11.4-3.9-21.8-6.4-30.2-1.8-6-3.2-10.9-3.3-14.3,1.6.1,5.7.4,10.9-.3h.5c0,0-.4-7-.4-7h-1.2Z"/>
    <g>
      <path class="st4" d="M141.6,170.1c-.8.2-1.3,1.4-1,2.7.3,1.3,1.2,2.2,2,2.1.8-.2,1.3-1.4,1-2.7-.3-1.3-1.2-2.2-2-2.1Z"/>
      <path class="st4" d="M154.2,169c-.8.2-1.3,1.4-1,2.7.3,1.3,1.2,2.2,2,2.1.8-.2,1.3-1.4,1-2.7-.3-1.3-1.2-2.2-2-2.1Z"/>
      <path class="st4" d="M146.4,188.6c-.8.2-1.3,1.4-1,2.7.3,1.3,1.2,2.2,2,2.1.8-.2,1.3-1.4,1-2.7-.3-1.3-1.2-2.2-2-2.1Z"/>
      <path class="st4" d="M159.1,187.6c-.8.2-1.3,1.4-1,2.7.3,1.3,1.2,2.2,2,2.1.8-.2,1.3-1.4,1-2.7-.3-1.3-1.2-2.2-2-2.1Z"/>
      <path class="st4" d="M149.2,209.9c-.8.2-1.3,1.4-1,2.7.3,1.3,1.2,2.2,2,2.1.8-.2,1.3-1.4,1-2.7-.3-1.3-1.2-2.2-2-2.1Z"/>
      <path class="st4" d="M161.9,208.8c-.8.2-1.3,1.4-1,2.7.3,1.3,1.2,2.2,2,2.1.8-.2,1.3-1.4,1-2.7-.3-1.3-1.2-2.2-2-2.1Z"/>
      <path class="st4" d="M148.4,231.4c-.8.2-1.3,1.4-1,2.7.3,1.3,1.2,2.2,2,2.1.8-.2,1.3-1.4,1-2.7-.3-1.3-1.2-2.2-2-2.1Z"/>
      <path class="st4" d="M161.1,230.3c-.8.2-1.3,1.4-1,2.7.3,1.3,1.2,2.2,2,2.1.8-.2,1.3-1.4,1-2.7-.3-1.3-1.2-2.2-2-2.1Z"/>
    </g>
    <path class="st0" d="M145.6,144.4l-10.9-2.7c1.7,5.9-.5,11.7-.5,11.7,10.2,5.4,14.2.3,14.2.3-3.9-5.2-2.9-9.3-2.9-9.3Z"/>
    <g>
      <path class="st2" d="M218.9,200.1v12.5s4.2-1.2,4.2-1.2c2-2.6-.3-11.5-.3-11.5l-3.8.2Z"/>
      <path d="M222.8,199.5l-3.8.2c-.2,0-.4.2-.4.4v12.5c0,.1,0,.3.2.3,0,0,.2,0,.3,0s0,0,.1,0l4.1-1.2c0,0,.2,0,.2-.2,2.1-2.7-.1-11.5-.2-11.8,0-.2-.2-.3-.4-.3ZM222.8,211.1l-3.4,1v-11.5s3-.1,3-.1c.6,2.6,1.7,8.6.4,10.7Z"/>
    </g>
    <path class="st0" d="M139.7,120.7c-5.5,1.2-8.7,8.5-6.9,16.3,1.7,7.8,7.6,13.1,13.2,11.9,5.6-1.2,8.7-8.5,6.9-16.3-1.7-7.8-7.6-13.1-13.2-11.9Z"/>
    <path class="st0" d="M150,132.1s-2.2,9.4-.7,9.5c1.1,0,3.8-.6,5.1-1,.4-.1.7-.6.5-1-1.2-2.7-4.9-7.4-4.9-7.4Z"/>
    <path class="st4" d="M152,116.4c-3.9-2.9-10-2-13.1-1.4-5.7,1.1-12.4,8.5-11.3,15.5.8,4.9,3.6,12.6,7.6,12.5-1-5.1-2.4-8.5-.8-11.7,0,0,2.5,0,3.4-2.8.9-2.9,4.6-2.6,7.3-1.2,2.7,1.4,5.2,1.6,8.2,0,2.3-1.3,3-7.5-1.3-10.7Z"/>
    <path class="st0" d="M131.8,133.7c-1.6,1.8.9,7.7,3.6,5.7,2.8-1.9.1-5.3.1-5.3,0,0-2.1-2.3-3.7-.5Z"/>
    <g>
      <g>
        <path class="st2" d="M118.9,114l8.9,14.9s8.1-9.1,27.2-9l-3.1-17.9-32.9,11.9Z"/>
        <path d="M152,101.7c-.1,0-.2,0-.4,0l-32.9,11.9c-.1,0-.2.1-.3.3,0,.1,0,.3,0,.4l8.9,14.9c0,.1.2.2.3.2,0,0,0,0,0,0,.1,0,.2,0,.3-.1,0,0,8.1-8.8,26.6-8.8,0,0,.2,0,.3,0,.1,0,.2,0,.3-.2,0,0,.1-.2,0-.4l-3.1-17.9c0-.1,0-.2-.2-.3ZM127.8,128.2l-8.3-14,31.9-11.6,2.9,16.9c-16.6,0-24.7,6.9-26.6,8.7Z"/>
      </g>
      <g>
        <path class="st2" d="M119.4,104.6c-2.9.9-4.3,4.6-3.1,8s4.4,5.6,7.3,4.6c2.9-.9,4.3-4.5,3.1-8-1.2-3.5-4.4-5.6-7.3-4.6Z"/>
        <path d="M119.3,104.2c-3.1,1-4.6,4.9-3.4,8.6.6,1.8,1.7,3.3,3.2,4.2,1,.6,2,.9,3.1.9s1.1,0,1.6-.3c1.5-.5,2.7-1.7,3.3-3.3.6-1.6.6-3.5,0-5.3-1.2-3.7-4.7-5.9-7.8-4.9ZM126.2,114c-.5,1.4-1.5,2.4-2.8,2.8-1.3.4-2.7.2-3.9-.6-1.3-.8-2.3-2.1-2.8-3.7-1.1-3.3.2-6.6,2.8-7.5.4-.1.9-.2,1.3-.2,2.3,0,4.5,1.8,5.4,4.5.5,1.6.5,3.3,0,4.7Z"/>
      </g>
      <g>
        <path class="st2" d="M127.4,97.8c-3.3,1.1-5,5.3-3.6,9.5,1.4,4.1,5.2,6.6,8.5,5.5,3.3-1.1,5-5.3,3.6-9.5-1.4-4.1-5.2-6.6-8.5-5.5Z"/>
        <path d="M127.3,97.4c-1.7.6-3.1,1.9-3.8,3.9-.7,1.9-.7,4.1,0,6.2.7,2.1,2,3.8,3.7,4.9,1.1.7,2.4,1.1,3.6,1.1s1.2,0,1.8-.3c3.6-1.2,5.3-5.7,3.9-10-1.4-4.3-5.5-6.9-9.1-5.7ZM132.2,112.3c-1.5.5-3.1.2-4.6-.7-1.5-1-2.7-2.6-3.3-4.5-.6-1.9-.6-3.9,0-5.6.6-1.7,1.8-2.8,3.3-3.3.5-.2,1-.2,1.5-.2,2.7,0,5.4,2.2,6.5,5.4,1.3,3.9-.2,7.9-3.3,8.9Z"/>
      </g>
      <g>
        <path class="st2" d="M137.5,98.6c-3.1,1-4.7,4.9-3.5,8.6,1.2,3.7,4.8,5.9,7.9,4.9,3.1-1,4.7-4.9,3.5-8.6-1.2-3.7-4.8-5.9-7.9-4.9Z"/>
        <path d="M137.4,98.2c-1.6.5-2.9,1.8-3.6,3.6-.7,1.7-.7,3.7,0,5.6.6,1.9,1.8,3.5,3.4,4.5,1,.6,2.2,1,3.3,1s1.2,0,1.8-.3c3.4-1.1,5-5.2,3.7-9.2-1.3-4-5.1-6.3-8.5-5.2ZM141.8,111.7c-1.4.5-2.9.2-4.3-.6-1.4-.9-2.5-2.3-3.1-4-.6-1.7-.5-3.5,0-5,.6-1.5,1.7-2.6,3.1-3.1.5-.2,1-.2,1.5-.2,2.5,0,4.9,1.9,5.9,4.8,1.2,3.5-.3,7.1-3.2,8.1Z"/>
      </g>
      <g>
        <path class="st2" d="M148.1,96.7c-2.9,1-4.5,4.3-3.5,7.4,1,3.1,4.2,4.8,7.2,3.8,2.9-1,4.5-4.3,3.5-7.4-1-3.1-4.2-4.8-7.2-3.8Z"/>
        <path d="M152.6,96.7c-1.5-.8-3.1-.9-4.6-.4-1.5.5-2.8,1.6-3.5,3.1-.7,1.5-.8,3.2-.3,4.8.5,1.6,1.6,2.9,3.1,3.7.9.5,1.9.7,2.8.7s1.2,0,1.8-.3c3.2-1,4.8-4.6,3.7-7.9-.5-1.6-1.6-2.9-3.1-3.7ZM151.7,107.5c-1.3.4-2.7.3-4-.4-1.3-.7-2.2-1.8-2.7-3.2-.5-1.4-.4-2.9.2-4.2.6-1.3,1.7-2.2,3-2.7.5-.2,1-.3,1.6-.3.8,0,1.6.2,2.4.6,1.3.7,2.2,1.8,2.7,3.2.9,2.9-.5,5.9-3.2,6.8Z"/>
      </g>
    </g>
    <g>
      <polygon class="st2" points="134.6 148.7 133.5 153.5 141.8 156.3 140.7 151.1 134.6 148.7"/>
      <path d="M141.1,151c0-.1-.1-.3-.3-.3l-6.1-2.4c-.1,0-.3,0-.4,0-.1,0-.2.2-.2.3l-1.1,4.8c0,.2,0,.5.3.5.2,0,.5,0,.5-.3l.9-4.3,5.4,2.1,1.1,5c0,.2.2.3.4.3s0,0,0,0c.2,0,.4-.3.3-.5l-1.1-5.2Z"/>
    </g>
    <g>
      <polygon class="st2" points="145.2 150.4 145.6 155.9 149.7 153.8 147.1 149 145.2 150.4"/>
      <path d="M147.5,148.8c0-.1-.2-.2-.3-.2-.1,0-.2,0-.3,0l-1.9,1.3c-.1,0-.2.2-.2.4l.4,5.5c0,.2.2.4.4.4s0,0,0,0c.2,0,.4-.2.4-.5l-.4-5.3,1.3-.9,2.3,4.3c.1.2.4.3.6.2.2-.1.3-.4.2-.6l-2.5-4.8Z"/>
    </g>
    <path class="st4" d="M146.8,148.5l-2.2,1.5.4,5.5c-.9.4-2.1.3-2.7.2l-1.1-5.1-6.4-2.5-.4,1.1,5.8,2.3,1.1,5.2h.4c0,0,.7.3,1.6.3s1.8-.1,2.6-.6l.3-.2-.4-5.5,1.7-1.1-.7-1Z"/>
    <g>
      <polygon class="st0" points="45.5 171.9 50.3 176.9 57.3 172.1 48.3 163.9 45.5 171.9"/>
      <g>
        <g>
          <g>
            <path class="st2" d="M48.2,145.6l2.4-12.7-2.6-.5-2.6-.5-2.4,12.7s-3.8.2-5.4,4l-5.9,32.1c-.2,1.1.5,2.1,1.6,2.3l5.1.9,5.1.9c1.1.2,2.1-.5,2.3-1.6l5.9-32.1c0-4.2-3.6-5.7-3.6-5.7Z"/>
            <path d="M48.7,145.3l2.3-12.4c0-.1,0-.2,0-.3,0,0-.2-.2-.3-.2l-5.2-1c-.2,0-.5.1-.5.3l-2.3,12.4c-1,.1-4,.8-5.4,4.3l-5.9,32.1c-.2,1.3.6,2.6,2,2.8l10.2,1.9c.1,0,.3,0,.4,0,1.2,0,2.2-.8,2.4-2l5.9-32.2c0-3.7-2.6-5.4-3.5-5.9ZM43,144.6h0,0ZM45.4,183.3c-.2.9-1,1.4-1.8,1.3l-10.2-1.9c-.9-.2-1.4-1-1.3-1.8l5.9-32.1c1.4-3.5,4.9-3.7,5-3.7.2,0,.4-.2.4-.4l2.3-12.3,4.3.8-2.3,12.3c0,.2,0,.4.3.5,0,0,3.3,1.4,3.3,5.2l-5.9,32.1Z"/>
          </g>
          <path class="st4" d="M47.4,130h1c.2,0,.3.1.3.3v5.1c0,.2-.1.3-.3.3h-1c-.2,0-.3-.1-.3-.3v-5.1c0-.2.1-.3.3-.3Z" transform="translate(-91.5 155.8) rotate(-79.5)"/>
          <rect class="st4" x="32.6" y="158.1" width="18.5" height="14.4" transform="translate(-128.3 176.5) rotate(-79.5)"/>
          <rect class="st4" x="46.3" y="135.1" width="1.3" height="5.5" transform="translate(-97.2 159) rotate(-79.5)"/>
          <path class="st3" d="M37.6,156.8c-.5,0-1,0-1.5.1l-2.6,14.1c.4.3.8.6,1.3.7,2.5.5,5.1-2.5,5.8-6.6.8-4.1-.6-7.8-3.1-8.3Z"/>
        </g>
        <path class="st0" d="M47.4,161.6c-.5,0-.6.5-.4.8.6.9,1.3,1.1,2.3,1.3.3,1.1-.4,2.6-.1,3.7.2.9.7,1.7,1.6,2.3.6.4,1.2.2,1.4-.1.1,0,.2-.1.3-.3.5-2,.7-4.4-.4-6.3-.9-1.6-2.8-1.7-4.7-1.5Z"/>
      </g>
      <g>
        <path class="st2" d="M122.1,158.3c-11.5,4.3-29.9,30-33,31.4-3.1,1.4-31.9-20.4-35-19.6,0,0-6.8,2.4-6,4.4,0,0,1.6,2.9,2.8,6,4,10.4,24.7,30.6,38.9,29.8,24.8-1.5,29.9-13.7,33.3-20.6.4-.9.9-1.9,1.5-3,2.7-5.3,3.9-11.2,3.3-17-.6-6.2-2.1-12.7-5.9-11.2Z"/>
        <path d="M124.6,158.1c-.8-.5-1.7-.6-2.7-.2-7.8,2.9-18.7,15.5-25.9,23.8-3.3,3.8-6.2,7.2-7.1,7.6-1.4.6-11.2-5.7-18.3-10.3-9.3-6-15.1-9.7-16.7-9.3-.5.2-5.4,1.9-6.2,3.8-.2.4-.2.8,0,1.2,0,0,1.6,2.9,2.8,5.9,3.9,10.2,23.9,30.1,38.5,30.1s.6,0,.9,0c24.2-1.4,29.9-13.1,33.3-20.1l.3-.7c.4-.9.9-1.9,1.5-3,2.8-5.4,3.9-11.3,3.4-17.3-.6-6.3-1.9-10.2-3.8-11.4ZM124.3,186.3c-.6,1.1-1.1,2.1-1.5,3l-.3.7c-3.3,6.8-8.8,18.2-32.6,19.7-14.3.8-34.6-19.3-38.5-29.5-1.2-3.1-2.8-6-2.8-6,0,0,0-.2,0-.4.6-1.3,4.3-2.9,5.6-3.3,1.3-.3,9.4,5,16,9.2,10.7,7,17.4,11.2,19.1,10.4,1.1-.5,3.3-3,7.4-7.8,7.1-8.2,17.9-20.7,25.5-23.5.7-.3,1.3-.2,1.9.1,1.7,1,2.9,4.8,3.4,10.7.5,5.8-.6,11.6-3.3,16.8Z"/>
      </g>
      <g>
        <path class="st2" d="M46.1,174.1l1.6,4.4c.6-.8,12-8.9,12-8.9l-3.1-2.1c-6.8,2.9-10.5,6.6-10.5,6.6Z"/>
        <path d="M56.8,167.1c-.1,0-.3,0-.4,0-6.8,2.9-10.5,6.6-10.7,6.7-.1.1-.2.3,0,.5l1.6,4.4c0,.1.2.2.3.3,0,0,0,0,0,0,.1,0,.3,0,.3-.2.4-.6,7.6-5.7,11.9-8.8.1,0,.2-.2.2-.4s0-.3-.2-.4l-3.1-2.1ZM47.9,177.7l-1.3-3.5c.8-.8,4.3-3.8,10-6.2l2.4,1.6c-2.4,1.7-9.1,6.5-11.1,8.1Z"/>
      </g>
    </g>
    <path class="st0" d="M37.5,156.5c-1-.7-2-1.2-3-1.6,0,0,0,0-.1,0-.1-.1-.3-.2-.5-.1-1.2.2-2.4,1.3-1.4,2.7.2.3.5.7.9,1-1-.2-1.9-.1-2.2.8-.3,1,.5,2,1.5,2.8,0,0,0,0,0,0-.5.2-1.1.5-1.1,1.2,0,.5.4,1,.8,1.4-.1,0-.2,0-.3.1-1.1,1.5.2,3.6,2,3.6.6,0,1.7-.4,1.6-1.2,0-.1,0-.2,0-.3.4.1.8.2,1.3.1.9,0,2.2-.7,1.6-1.9-.3-.5-.7-.9-1.2-1.2.8,0,1.5-.4,1.9-1.2.6-1.2-.3-2-1.3-2.5,1.1,0,2.7-.4,2-1.8-.4-.8-1.4-1.4-2.1-1.8Z"/>
    <g>
      <path class="st4" d="M254.8,199.4l3.9,3.4,5.7.4,28.3-6,4.5-5.5c-22.8-1.5-42.4,7.6-42.4,7.6Z"/>
      <path class="st4" d="M262.1,200.8l-44.1,6.6c-1.1.2-1.8,1.2-1.6,2.2l.5,2.5c.2,1.1,1.2,1.8,2.3,1.5l43.6-9.1c1-.2,1.7-1.2,1.5-2.2-.2-1-1.1-1.7-2.2-1.6Z"/>
      <path class="st3" d="M254.8,199.4l1.6,3.1c1.5,2.8,4.3,4.7,7.4,4.9,5.7.4,15.5,0,27.4-5.2,2.8-1.2,4.8-3.8,5.4-6.8l.7-3.5s-24.1,10-42.4,7.6Z"/>
    </g>
    <path class="st0" d="M237.7,211.9c-.5-1-1-2-1.7-3-.5-.6-1.1-1.6-1.9-2-1.4-.7-1.7.9-1.7,2-.5-1-1.3-1.9-2.5-1.2-.8.5-1.1,1.2-1.2,2-.4-.5-.8-.9-1.2-1.1-1.2-.6-1.8.7-1.8,1.6,0,.4,0,.9.2,1.3,0,0-.2,0-.3,0-.8,0-1.2,1-1.2,1.6,0,1.8,2.2,3.1,3.6,1.9,0,0,.1-.2.1-.3.4.4.9.7,1.4.7.6,0,.9-.7,1.1-1.2,0,0,0,0,0,0,.8.9,1.8,1.7,2.9,1.3,1-.3,1-1.2.8-2.2.3.3.7.6,1,.8,1.4.9,2.4-.4,2.6-1.5,0-.2,0-.4-.2-.4,0,0,0,0,0-.1Z"/>
  </g>
  <g>
    <path class="st3" d="M179.1,253.8h40.3c2.8-1.7,5.3-3.7,7.6-5.9,7-7,11.3-16.5,11.5-27.1h-78.5c.2,14.1,7.8,26.3,19.1,33.1Z"/>
    <path class="st4" d="M167.9,220.7h-7.9c.2,14.1,7.8,26.3,19.1,33.1h3c-11.3-6.8-14-19-14.3-33.1Z"/>
  </g>
  <g>
    <path class="st4" d="M261.9,253.8h18.3c1.3-.8,2.4-1.7,3.5-2.7,3.2-3.2,5.2-7.5,5.2-12.3h-35.8c0,6.4,3.6,12,8.7,15.1Z"/>
    <path class="st4" d="M256.8,238.7h-3.6c0,6.4,3.6,12,8.7,15.1h1.4c-5.1-3.1-6.4-8.7-6.5-15.1Z"/>
  </g>
  <g>
    <path class="st4" d="M300.9,253.8h18.3c1.3-.8,2.4-1.7,3.5-2.7,3.2-3.2,5.2-7.5,5.2-12.3h-35.8c0,6.4,3.6,12,8.7,15.1Z"/>
    <path class="st4" d="M295.8,238.7h-3.6c0,6.4,3.6,12,8.7,15.1h1.4c-5.1-3.1-6.4-8.7-6.5-15.1Z"/>
  </g>
  <g>
    <g>
      <path class="st2" d="M86.1,235.1c-2.8,0-5.1,3.9-5.1,7.6s2.3,5.8,5.1,5.8,5.1-2.1,5.1-5.8-2.3-7.6-5.1-7.6Z"/>
      <path d="M86.1,234.6c-3.2,0-5.6,4.3-5.6,8.1s2.2,6.3,5.6,6.3,5.6-2.5,5.6-6.3-2.4-8.1-5.6-8.1ZM86.1,248c-2.7,0-4.6-2.1-4.6-5.3s2.2-7.1,4.6-7.1,4.6,3.5,4.6,7.1-1.8,5.3-4.6,5.3Z"/>
    </g>
    <g>
      <path class="st2" d="M97.4,235.1c-2.8,0-5.1,3.9-5.1,7.6s2.3,5.8,5.1,5.8,5.1-2.1,5.1-5.8-2.3-7.6-5.1-7.6Z"/>
      <path d="M97.4,234.6c-3.2,0-5.6,4.3-5.6,8.1s2.2,6.3,5.6,6.3,5.6-2.5,5.6-6.3-2.4-8.1-5.6-8.1ZM97.4,248c-2.7,0-4.6-2.1-4.6-5.3s2.2-7.1,4.6-7.1,4.6,3.5,4.6,7.1-1.8,5.3-4.6,5.3Z"/>
    </g>
    <g>
      <path class="st2" d="M108.8,235.1c-2.8,0-5.1,3.9-5.1,7.6s2.3,5.8,5.1,5.8,5.1-2.1,5.1-5.8-2.3-7.6-5.1-7.6Z"/>
      <path d="M108.8,234.6c-3.2,0-5.6,4.3-5.6,8.1s2.2,6.3,5.6,6.3,5.6-2.5,5.6-6.3-2.4-8.1-5.6-8.1ZM108.8,248c-2.7,0-4.6-2.1-4.6-5.3s2.2-7.1,4.6-7.1,4.6,3.5,4.6,7.1-1.8,5.3-4.6,5.3Z"/>
    </g>
    <g>
      <g>
        <path class="st2" d="M89.1,250.1h-5.9c-.4,0-.8.3-.7.7l.7,2.4c0,.2.3.4.7.4h4.5c.3,0,.6-.2.7-.4l.7-2.4c0-.3-.2-.7-.7-.7Z"/>
        <path d="M89.1,249.6h-5.9c-.4,0-.7.2-1,.5-.2.2-.2.5-.2.8l.7,2.4c.1.5.6.8,1.1.8h4.5c.5,0,1-.3,1.1-.8l.7-2.4c0-.3,0-.6-.2-.8-.2-.3-.6-.5-1-.5ZM88.6,253.1s0,0-.2,0h-4.5c-.1,0-.2,0-.2,0l-.7-2.4s0,0,.2,0h5.9c.1,0,.2,0,.2,0l-.7,2.4Z"/>
      </g>
      <g>
        <rect class="st2" x="80.5" y="245" width="56.6" height="7" rx="1.5" ry="1.5"/>
        <path d="M135.7,244.5h-53.7c-1.1,0-1.9.9-1.9,1.9v4c0,1.1.9,1.9,1.9,1.9h53.7c1.1,0,1.9-.9,1.9-1.9v-4c0-1.1-.9-1.9-1.9-1.9ZM136.7,250.5c0,.5-.4,1-1,1h-53.7c-.5,0-1-.4-1-1v-4c0-.5.4-1,1-1h53.7c.5,0,1,.4,1,1v4Z"/>
      </g>
      <g>
        <path class="st2" d="M79.3,243.7h59c.4,0,.7.3.7.7v1.5c0,.4-.3.7-.7.7h-59c-.4,0-.6-.3-.6-.6v-1.5c0-.4.3-.6.6-.6Z"/>
        <path d="M138.3,243.2h-59c-.6,0-1.1.5-1.1,1.1v1.5c0,.6.5,1.1,1.1,1.1h59c.6,0,1.1-.5,1.1-1.1v-1.5c0-.6-.5-1.1-1.1-1.1ZM138.5,245.8c0,0,0,.2-.2.2h-59c0,0-.2,0-.2-.2v-1.5c0,0,0-.2.2-.2h59c0,0,.2,0,.2.2v1.5Z"/>
      </g>
      <path class="st4" d="M91.3,250.1h-5.9c-.4,0-.8.3-.7.7l.7,2.4c0,.2.3.4.7.4h4.5c.3,0,.6-.2.7-.4l.7-2.4c0-.3-.2-.7-.7-.7Z"/>
      <path class="st4" d="M102.5,250.1h-5.9c-.4,0-.8.3-.7.7l.7,2.4c0,.2.3.4.7.4h4.5c.3,0,.6-.2.7-.4l.7-2.4c0-.3-.2-.7-.7-.7Z"/>
      <path class="st4" d="M113.8,250.1h-5.9c-.4,0-.8.3-.7.7l.7,2.4c0,.2.3.4.7.4h4.5c.3,0,.6-.2.7-.4l.7-2.4c0-.3-.2-.7-.7-.7Z"/>
      <path class="st4" d="M125,250.1h-5.9c-.4,0-.8.3-.7.7l.7,2.4c0,.2.3.4.7.4h4.5c.3,0,.6-.2.7-.4l.7-2.4c0-.3-.2-.7-.7-.7Z"/>
      <path class="st4" d="M136.2,250.1h-5.9c-.4,0-.8.3-.7.7l.7,2.4c0,.2.3.4.7.4h4.5c.3,0,.6-.2.7-.4l.7-2.4c0-.3-.2-.7-.7-.7Z"/>
      <rect class="st4" x="82.7" y="245" width="56.6" height="7" rx="1.5" ry="1.5"/>
      <path class="st4" d="M81.5,243.7h59c.4,0,.6.3.6.6v1.5c0,.4-.3.7-.7.7h-59c-.4,0-.6-.3-.6-.6v-1.5c0-.4.3-.6.6-.6Z"/>
    </g>
    <g>
      <path class="st2" d="M94,235.1c-2.8,0-5.1,3.9-5.1,7.6s2.3,5.8,5.1,5.8,5.1-2.1,5.1-5.8-2.3-7.6-5.1-7.6Z"/>
      <path d="M94,234.6c-3.2,0-5.6,4.3-5.6,8.1s2.2,6.3,5.6,6.3,5.6-2.5,5.6-6.3-2.4-8.1-5.6-8.1ZM94,248c-2.7,0-4.6-2.1-4.6-5.3s2.2-7.1,4.6-7.1,4.6,3.5,4.6,7.1-1.8,5.3-4.6,5.3Z"/>
    </g>
    <g>
      <path class="st2" d="M105.2,235.1c-2.8,0-5.1,3.9-5.1,7.6s2.3,5.8,5.1,5.8,5.1-2.1,5.1-5.8-2.3-7.6-5.1-7.6Z"/>
      <path d="M105.2,234.6c-3.2,0-5.6,4.3-5.6,8.1s2.2,6.3,5.6,6.3,5.6-2.5,5.6-6.3-2.4-8.1-5.6-8.1ZM105.2,248c-2.7,0-4.6-2.1-4.6-5.3s2.2-7.1,4.6-7.1,4.6,3.5,4.6,7.1-1.8,5.3-4.6,5.3Z"/>
    </g>
    <g>
      <path class="st2" d="M116.7,235.1c-2.8,0-5.1,3.9-5.1,7.6s2.3,5.8,5.1,5.8,5.1-2.1,5.1-5.8-2.3-7.6-5.1-7.6Z"/>
      <path d="M116.7,234.6c-3.2,0-5.6,4.3-5.6,8.1s2.2,6.3,5.6,6.3,5.6-2.5,5.6-6.3-2.4-8.1-5.6-8.1ZM116.7,248c-2.7,0-4.6-2.1-4.6-5.3s2.2-7.1,4.6-7.1,4.6,3.5,4.6,7.1-1.8,5.3-4.6,5.3Z"/>
    </g>
    <g>
      <path class="st2" d="M128.1,235.1c-2.8,0-5.1,3.9-5.1,7.6s2.3,5.8,5.1,5.8,5.1-2.1,5.1-5.8-2.3-7.6-5.1-7.6Z"/>
      <path d="M128.1,234.6c-3.2,0-5.6,4.3-5.6,8.1s2.2,6.3,5.6,6.3,5.6-2.5,5.6-6.3-2.4-8.1-5.6-8.1ZM128.1,248c-2.7,0-4.6-2.1-4.6-5.3s2.2-7.1,4.6-7.1,4.6,3.5,4.6,7.1-1.8,5.3-4.6,5.3Z"/>
    </g>
    <g>
      <path class="st4" d="M94.7,250.1h-5.9c-.4,0-.8.3-.7.7l.7,2.4c0,.2.3.4.7.4h4.5c.3,0,.6-.2.7-.4l.7-2.4c0-.3-.2-.7-.7-.7Z"/>
      <rect class="st4" x="86.1" y="245" width="56.6" height="7" rx="1.5" ry="1.5"/>
      <path class="st4" d="M84.9,243.7h59c.4,0,.6.3.6.6v1.5c0,.4-.3.7-.7.7h-59c-.4,0-.6-.3-.6-.6v-1.5c0-.4.3-.6.6-.6Z"/>
      <path class="st3" d="M96.9,250.1h-5.9c-.4,0-.8.3-.7.7l.7,2.4c0,.2.3.4.7.4h4.5c.3,0,.6-.2.7-.4l.7-2.4c0-.3-.2-.7-.7-.7Z"/>
      <path class="st3" d="M108.1,250.1h-5.9c-.4,0-.8.3-.7.7l.7,2.4c0,.2.3.4.7.4h4.5c.3,0,.6-.2.7-.4l.7-2.4c0-.3-.2-.7-.7-.7Z"/>
      <path class="st3" d="M119.4,250.1h-5.9c-.4,0-.8.3-.7.7l.7,2.4c0,.2.3.4.7.4h4.5c.3,0,.6-.2.7-.4l.7-2.4c0-.3-.2-.7-.7-.7Z"/>
      <path class="st3" d="M130.6,250.1h-5.9c-.4,0-.8.3-.7.7l.7,2.4c0,.2.3.4.7.4h4.5c.3,0,.6-.2.7-.4l.7-2.4c0-.3-.2-.7-.7-.7Z"/>
      <path class="st3" d="M141.8,250.1h-5.9c-.4,0-.8.3-.7.7l.7,2.4c0,.2.3.4.7.4h4.5c.3,0,.6-.2.7-.4l.7-2.4c0-.3-.2-.7-.7-.7Z"/>
      <rect class="st3" x="88.3" y="245" width="56.6" height="7" rx="1.5" ry="1.5"/>
      <path class="st3" d="M87.2,243.7h59c.4,0,.6.3.6.6v1.5c0,.4-.3.7-.7.7h-59c-.4,0-.6-.3-.6-.6v-1.5c0-.4.3-.6.6-.6Z"/>
    </g>
  </g>
  <g>
    <path class="st4" d="M33.4,394.9c0,1.4,1.2,2.6,2.6,2.6h4.4c1.4,0,2.6-1.2,2.6-2.6v-138.5h-9.6v138.5Z"/>
    <path class="st4" d="M301.2,394.9c0,1.4,1.2,2.6,2.6,2.6h4.4c1.4,0,2.6-1.2,2.6-2.6v-138.5h-9.6v138.5Z"/>
    <g>
      <rect class="st2" x="79.4" y="345" width="267.9" height="7.5"/>
      <path d="M347.2,344.5H79.4c-.3,0-.5.2-.5.5v7.5c0,.3.2.5.5.5h267.9c.3,0,.5-.2.5-.5v-7.5c0-.3-.2-.5-.5-.5ZM346.8,352H79.8v-6.5h266.9v6.5Z"/>
    </g>
    <rect class="st4" x="35.3" y="345" width="44.1" height="7.5"/>
    <path class="st4" d="M337.7,394.9c0,1.4,1.2,2.6,2.6,2.6h4.4c1.4,0,2.6-1.2,2.6-2.6v-138.5h-9.6v138.5Z"/>
    <g>
      <rect class="st2" x="89.1" y="253.6" width="271.5" height="13.6"/>
      <path d="M360.6,253.1H89.1c-.3,0-.5.2-.5.5v13.6c0,.3.2.5.5.5h271.5c.3,0,.5-.2.5-.5v-13.6c0-.3-.2-.5-.5-.5ZM360.1,266.7H89.6v-12.6h270.5v12.6Z"/>
    </g>
    <path class="st4" d="M69.8,394.9c0,1.4,1.2,2.6,2.6,2.6h4.4c1.4,0,2.6-1.2,2.6-2.6v-138.5h-9.6v138.5Z"/>
    <rect class="st4" x="15.2" y="253.6" width="73.9" height="13.6"/>
  </g>
  <g>
    <rect class="st3" x="208.3" y="304.7" width="56" height="40.3"/>
    <g>
      <rect class="st2" x="263.7" y="304.7" width="13.1" height="40.3"/>
      <path d="M276.8,304.3h-13.1c-.3,0-.5.2-.5.5v40.3c0,.3.2.5.5.5h13.1c.3,0,.5-.2.5-.5v-40.3c0-.3-.2-.5-.5-.5ZM276.3,344.5h-12.1v-39.3h12.1v39.3Z"/>
    </g>
    <g>
      <path class="st2" d="M272.5,313.4h-4.2c-1,0-1.9.8-1.9,1.9s.8,1.9,1.9,1.9h4.2c1,0,1.9-.8,1.9-1.9s-.8-1.9-1.9-1.9Z"/>
      <path d="M272.5,312.9h-4.2c-1.3,0-2.3,1.1-2.3,2.3s1,2.3,2.3,2.3h4.2c1.3,0,2.3-1,2.3-2.3s-1-2.3-2.3-2.3ZM272.5,316.6h-4.2c-.8,0-1.4-.6-1.4-1.4s.6-1.4,1.4-1.4h4.2c.8,0,1.4.6,1.4,1.4s-.6,1.4-1.4,1.4Z"/>
    </g>
    <g>
      <path class="st2" d="M224.3,312.9h-9.3c-.8,0-1.4.6-1.4,1.4s.6,1.4,1.4,1.4h9.3c.8,0,1.4-.6,1.4-1.4s-.6-1.4-1.4-1.4Z"/>
      <path d="M224.3,312.5h-9.3c-1,0-1.8.8-1.8,1.8s.8,1.8,1.8,1.8h9.3c1,0,1.9-.8,1.9-1.8s-.8-1.8-1.9-1.8ZM224.3,315.2h-9.3c-.5,0-.9-.4-.9-.9s.4-.9.9-.9h9.3c.5,0,.9.4.9.9s-.4.9-.9.9Z"/>
    </g>
  </g>
</svg>