<?xml version="1.0" encoding="utf-8"?>
<!-- Generator: Adobe Illustrator 27.7.0, SVG Export Plug-In . SVG Version: 6.00 Build 0)  -->
<svg version="1.1" id="Layer_1" xmlns="http://www.w3.org/2000/svg" xmlns:xlink="http://www.w3.org/1999/xlink" x="0px" y="0px"
	 viewBox="0 0 120 120" style="enable-background:new 0 0 120 120;" xml:space="preserve">
<style type="text/css">
	.st0{fill:#EFEEEB;}
</style>
<path id="Path_54" class="st0" d="M10,63v-6c0-0.1,0.1-0.3,0.1-0.4c0.1-1.8,0.3-3.6,0.6-5.4c2.2-12.6,9.3-23.9,19.6-31.5
	c6.8-5.1,14.8-8.3,23.2-9.3c1.2-0.1,2.3-0.2,3.5-0.4h5.9c1,0.1,2.1,0.2,3.1,0.3c5.5,0.6,10.8,2.2,15.7,4.6
	c10.6,5.1,19.1,13.8,23.9,24.6c1.9,4.2,3.2,8.7,3.9,13.4c0.2,1.4,0.3,2.8,0.5,4.2V63c-0.1,1.2-0.2,2.3-0.4,3.5
	c-0.7,5.4-2.2,10.7-4.7,15.5c-4.7,9.7-12.5,17.6-22.1,22.5c-5.1,2.7-10.7,4.4-16.4,5.1c-1.2,0.1-2.4,0.2-3.5,0.4H57
	c-0.1,0-0.2,0-0.3-0.1c-1.6-0.1-3.2-0.3-4.8-0.5c-6.1-1-11.9-3-17.2-6.2c-9-5.2-16.1-13.1-20.4-22.5c-2-4.3-3.3-8.8-4-13.5
	C10.3,65.8,10.1,64.4,10,63z M78.1,88c0.3,0,0.6,0,1,0c1.4,0,2.7-0.6,3.7-1.5c1.2-1.2,2.3-2.3,3.5-3.5c1-1,1.6-2.4,1.8-3.9
	c0.3-3.6-2-6.8-5.5-7.8c-2.4-0.6-4.7-1.4-7.1-1.9c-2.3-0.6-4.8,0.1-6.5,1.8c-0.7,0.7-1.4,1.3-2,2.1c-0.3,0.4-0.8,0.5-1.2,0.3
	c-9.2-2.8-16.4-10-19.2-19.2c-0.2-0.4,0-0.8,0.3-1.1c0.7-0.6,1.3-1.3,1.9-1.9c1.8-1.8,2.5-4.4,1.8-6.9c-0.6-2.2-1.2-4.4-1.8-6.6
	c-0.5-1.9-1.7-3.5-3.3-4.6c-2.7-1.9-6.4-1.5-8.7,0.9c-1.1,1.2-2.3,2.3-3.5,3.5c-0.8,0.8-1.3,2-1.3,3.1c-0.1,2.5,0.1,5.1,0.5,7.6
	C36.1,70.8,55.3,87.6,78.1,88L78.1,88z"/>
</svg>
