<?xml version="1.0" encoding="utf-8"?>
<!-- Generator: Adobe Illustrator 28.0.0, SVG Export Plug-In . SVG Version: 6.00 Build 0)  -->
<svg version="1.1" id="Layer_1" xmlns="http://www.w3.org/2000/svg" xmlns:xlink="http://www.w3.org/1999/xlink" x="0px" y="0px"
	 viewBox="0 0 100 100" style="enable-background:new 0 0 100 100;" xml:space="preserve">
<style type="text/css">
	.st0{fill:#FFFFFF;}
</style>
<g>
	<path class="st0" d="M21.5,91.9c-13,0-20.9-10.2-20.9-24.2c0-24.4,22.9-48.1,41.1-59.6l2.5,3.7C35.4,18.6,22.4,33,21.2,49.8
		c13.2-0.5,21.7,8.7,21.7,20.7C42.9,81.9,34.4,91.9,21.5,91.9z M76.8,91.9c-13,0-20.9-10.2-20.9-24.2c0-24.4,22.9-48.1,41.1-59.6
		l2.5,3.7C90.8,18.6,77.8,33,76.6,49.8c13.2-0.5,21.7,8.7,21.7,20.7C98.2,81.9,89.8,91.9,76.8,91.9z"/>
</g>
</svg>
