<?xml version="1.0" encoding="UTF-8"?>
<svg id="Layer_1" xmlns="http://www.w3.org/2000/svg" xmlns:xlink="http://www.w3.org/1999/xlink" version="1.1" viewBox="0 0 400 400">
  <!-- Generator: Adobe Illustrator 29.0.0, SVG Export Plug-In . SVG Version: 2.1.0 Build 186)  -->
  <defs>
    <style>
      .st0 {
        fill: #ffd2a7;
      }

      .st1 {
        fill: #3e1200;
      }

      .st2 {
        fill: url(#_ÂÁ_Ï_ÌÌ_È_ËÂÌÚ_7);
      }

      .st3 {
        fill: url(#_ÂÁ_Ï_ÌÌ_È_ËÂÌÚ_3);
      }

      .st4 {
        fill: url(#_ÂÁ_Ï_ÌÌ_È_ËÂÌÚ_2);
      }

      .st5 {
        fill: url(#_ÂÁ_Ï_ÌÌ_È_ËÂÌÚ_5);
      }

      .st6 {
        fill: #e0f7e9;
      }

      .st7 {
        fill: #ffbc8e;
      }

      .st8 {
        fill: #c8d3fb;
      }

      .st9 {
        fill: #fff;
      }

      .st10 {
        fill: #2e4d34;
      }

      .st11 {
        fill: url(#_ÂÁ_Ï_ÌÌ_È_ËÂÌÚ_23);
      }

      .st12 {
        fill: url(#_ÂÁ_Ï_ÌÌ_È_ËÂÌÚ_22);
      }

      .st13 {
        fill: url(#_ÂÁ_Ï_ÌÌ_È_ËÂÌÚ_21);
      }

      .st14 {
        fill: url(#_ÂÁ_Ï_ÌÌ_È_ËÂÌÚ_51);
      }

      .st15 {
        fill: url(#_ÂÁ_Ï_ÌÌ_È_ËÂÌÚ_53);
      }

      .st16 {
        fill: url(#_ÂÁ_Ï_ÌÌ_È_ËÂÌÚ_52);
      }

      .st17 {
        fill: url(#_ÂÁ_Ï_ÌÌ_È_ËÂÌÚ_28);
      }

      .st18 {
        fill: url(#_ÂÁ_Ï_ÌÌ_È_ËÂÌÚ_29);
      }

      .st19 {
        fill: url(#_ÂÁ_Ï_ÌÌ_È_ËÂÌÚ_26);
      }

      .st20 {
        fill: url(#_ÂÁ_Ï_ÌÌ_È_ËÂÌÚ_27);
      }

      .st21 {
        fill: url(#_ÂÁ_Ï_ÌÌ_È_ËÂÌÚ_24);
      }

      .st22 {
        fill: url(#_ÂÁ_Ï_ÌÌ_È_ËÂÌÚ_25);
      }

      .st23 {
        fill: #8e364c;
      }
    </style>
    <linearGradient id="_ÂÁ_Ï_ÌÌ_È_ËÂÌÚ_2" data-name="¡ÂÁ˚ÏˇÌÌ˚È „‡‰ËÂÌÚ 2" x1="20" y1="396.9" x2="365" y2="396.9" gradientUnits="userSpaceOnUse">
      <stop offset="0" stop-color="#8e364c"/>
      <stop offset="1" stop-color="#8e364c"/>
    </linearGradient>
    <linearGradient id="_ÂÁ_Ï_ÌÌ_È_ËÂÌÚ_21" data-name="¡ÂÁ˚ÏˇÌÌ˚È „‡‰ËÂÌÚ 2" x1="42.9" y1="190.9" x2="59.2" y2="190.9" xlink:href="#_ÂÁ_Ï_ÌÌ_È_ËÂÌÚ_2"/>
    <linearGradient id="_ÂÁ_Ï_ÌÌ_È_ËÂÌÚ_22" data-name="¡ÂÁ˚ÏˇÌÌ˚È „‡‰ËÂÌÚ 2" x1="39.9" y1="187" x2="103.9" y2="187" xlink:href="#_ÂÁ_Ï_ÌÌ_È_ËÂÌÚ_2"/>
    <linearGradient id="_ÂÁ_Ï_ÌÌ_È_ËÂÌÚ_7" data-name="¡ÂÁ˚ÏˇÌÌ˚È „‡‰ËÂÌÚ 7" x1="63.6" y1="231.1" x2="228.1" y2="231.1" gradientUnits="userSpaceOnUse">
      <stop offset="0" stop-color="#2e4d34"/>
      <stop offset="1" stop-color="#2e4d34"/>
    </linearGradient>
    <linearGradient id="_ÂÁ_Ï_ÌÌ_È_ËÂÌÚ_23" data-name="¡ÂÁ˚ÏˇÌÌ˚È „‡‰ËÂÌÚ 2" x1="253.1" y1="144.1" x2="264.3" y2="144.1" xlink:href="#_ÂÁ_Ï_ÌÌ_È_ËÂÌÚ_2"/>
    <linearGradient id="_ÂÁ_Ï_ÌÌ_È_ËÂÌÚ_24" data-name="¡ÂÁ˚ÏˇÌÌ˚È „‡‰ËÂÌÚ 2" x1="-608.2" y1="185.8" x2="-598" y2="61.8" gradientTransform="translate(918.3 17.1) rotate(-5.9)" xlink:href="#_ÂÁ_Ï_ÌÌ_È_ËÂÌÚ_2"/>
    <linearGradient id="_ÂÁ_Ï_ÌÌ_È_ËÂÌÚ_5" data-name="¡ÂÁ˚ÏˇÌÌ˚È „‡‰ËÂÌÚ 5" x1="-670.4" y1="131.8" x2="-648.3" y2="131.8" gradientTransform="translate(1000.4 65.2) rotate(2.9)" gradientUnits="userSpaceOnUse">
      <stop offset="0" stop-color="#fff"/>
      <stop offset="1" stop-color="#d3dbeb"/>
    </linearGradient>
    <linearGradient id="_ÂÁ_Ï_ÌÌ_È_ËÂÌÚ_3" data-name="¡ÂÁ˚ÏˇÌÌ˚È „‡‰ËÂÌÚ 3" x1="-2318.9" y1="508" x2="-2249" y2="508" gradientTransform="translate(2680.4 41.8) rotate(10.3)" gradientUnits="userSpaceOnUse">
      <stop offset="0" stop-color="#ffd000"/>
      <stop offset="1" stop-color="#8e364c"/>
    </linearGradient>
    <linearGradient id="_ÂÁ_Ï_ÌÌ_È_ËÂÌÚ_25" data-name="¡ÂÁ˚ÏˇÌÌ˚È „‡‰ËÂÌÚ 2" x1="316.7" y1="219.2" x2="366.1" y2="162.1" xlink:href="#_ÂÁ_Ï_ÌÌ_È_ËÂÌÚ_2"/>
    <linearGradient id="_ÂÁ_Ï_ÌÌ_È_ËÂÌÚ_26" data-name="¡ÂÁ˚ÏˇÌÌ˚È „‡‰ËÂÌÚ 2" x1="318.4" y1="220.7" x2="367.8" y2="163.6" xlink:href="#_ÂÁ_Ï_ÌÌ_È_ËÂÌÚ_2"/>
    <linearGradient id="_ÂÁ_Ï_ÌÌ_È_ËÂÌÚ_27" data-name="¡ÂÁ˚ÏˇÌÌ˚È „‡‰ËÂÌÚ 2" x1="-86.8" y1="110.5" x2="-54.9" y2="110.5" gradientTransform="translate(272.2) rotate(-180) scale(1 -1)" xlink:href="#_ÂÁ_Ï_ÌÌ_È_ËÂÌÚ_2"/>
    <linearGradient id="_ÂÁ_Ï_ÌÌ_È_ËÂÌÚ_51" data-name="¡ÂÁ˚ÏˇÌÌ˚È „‡‰ËÂÌÚ 5" x1="161.9" y1="379.5" x2="178" y2="379.5" gradientTransform="matrix(1,0,0,1,0,0)" xlink:href="#_ÂÁ_Ï_ÌÌ_È_ËÂÌÚ_5"/>
    <linearGradient id="_ÂÁ_Ï_ÌÌ_È_ËÂÌÚ_28" data-name="¡ÂÁ˚ÏˇÌÌ˚È „‡‰ËÂÌÚ 2" x1="175" y1="220.7" x2="249.8" y2="220.7" gradientTransform="translate(370.2 -41.9) rotate(74.9)" xlink:href="#_ÂÁ_Ï_ÌÌ_È_ËÂÌÚ_2"/>
    <linearGradient id="_ÂÁ_Ï_ÌÌ_È_ËÂÌÚ_29" data-name="¡ÂÁ˚ÏˇÌÌ˚È „‡‰ËÂÌÚ 2" x1="135.5" y1="327.6" x2="240.2" y2="327.6" gradientTransform="translate(455.2 60.9) rotate(74.9)" xlink:href="#_ÂÁ_Ï_ÌÌ_È_ËÂÌÚ_2"/>
    <linearGradient id="_ÂÁ_Ï_ÌÌ_È_ËÂÌÚ_52" data-name="¡ÂÁ˚ÏˇÌÌ˚È „‡‰ËÂÌÚ 5" x1="113.5" y1="368.7" x2="233.5" y2="368.7" gradientTransform="matrix(1,0,0,1,0,0)" xlink:href="#_ÂÁ_Ï_ÌÌ_È_ËÂÌÚ_5"/>
    <linearGradient id="_ÂÁ_Ï_ÌÌ_È_ËÂÌÚ_53" data-name="¡ÂÁ˚ÏˇÌÌ˚È „‡‰ËÂÌÚ 5" x1="220.2" y1="379.5" x2="236.2" y2="379.5" gradientTransform="matrix(1,0,0,1,0,0)" xlink:href="#_ÂÁ_Ï_ÌÌ_È_ËÂÌÚ_5"/>
  </defs>
  <g>
    <rect class="st4" x="20" y="395.6" width="344.9" height="2.6"/>
    <g>
      <path class="st6" d="M9.6,208.7C23.2,120,100.3-43.7,213.3,22.1c97,56.5,30.3,125.1,110,153.3,136.2,48.2,17.8,251.2-147.4,216.2C10.8,356.5-3.2,291.2,9.6,208.7Z"/>
      <path class="st6" d="M283.5,51.3c-6.4,32.3,4.8,92.6,68,113.2,63.2,20.6,41.3-29,0-69.3-41.3-40.4-58.4-92.6-68-43.9Z"/>
    </g>
    <g>
      <g>
        <g>
          <path class="st6" d="M315.4,297.2h-32.4v-17.7h32.4v17.7ZM284.8,295.4h28.7v-14.1h-28.7v14.1Z"/>
          <path class="st6" d="M337.6,313.1h-32.4v-17.7h32.4v17.7ZM307,311.3h28.7v-14.1h-28.7v14.1Z"/>
        </g>
        <path class="st6" d="M235.5,144.7h-32.4v-17.7h32.4v17.7ZM205,142.9h28.7v-14.1h-28.7v14.1Z"/>
        <g>
          <path class="st6" d="M178.6,340.7h-32.4v-17.7h32.4v17.7ZM148,338.8h28.7v-14.1h-28.7v14.1Z"/>
          <path class="st6" d="M209.1,340.7h-32.4v-17.7h32.4v17.7ZM178.6,338.8h28.7v-14.1h-28.7v14.1Z"/>
          <path class="st6" d="M193.8,356.5h-32.4v-17.7h32.4v17.7ZM163.3,354.7h28.7v-14.1h-28.7v14.1Z"/>
        </g>
      </g>
      <g>
        <g>
          <path class="st6" d="M131.6,238.6h-32.4v-17.7h32.4v17.7ZM101.1,236.8h28.7v-14.1h-28.7v14.1Z"/>
          <path class="st6" d="M109.4,254.5h-32.4v-17.7h32.4v17.7ZM78.9,252.6h28.7v-14.1h-28.7v14.1Z"/>
        </g>
        <g>
          <path class="st6" d="M77.5,165.6h-32.4v-17.7h32.4v17.7ZM46.9,163.7h28.7v-14.1h-28.7v14.1Z"/>
          <path class="st6" d="M108,165.6h-32.4v-17.7h32.4v17.7ZM77.5,163.7h28.7v-14.1h-28.7v14.1Z"/>
          <path class="st6" d="M92.7,181.4h-32.4v-17.7h32.4v17.7ZM62.2,179.6h28.7v-14.1h-28.7v14.1Z"/>
        </g>
      </g>
    </g>
  </g>
  <g>
    <path class="st0" d="M168.1,387.3c-7.7-2.5-11.4-14.8-13.1-21.4l-8,3.1s4,12,3.5,19.7c-.5,7.7,1.7,7,1.7,7h26.1s-2.5-5.8-10.2-8.3Z"/>
    <path class="st10" d="M168.1,387.3c-2.3-.8-4.3-2.4-5.9-4.5-1.1-1.5-6.3.2-7.1,3,0,0-2.1,1.5-4.6,1.3,0,.5,0,1.1,0,1.6-.5,7.7,1.7,7,1.7,7h26.1s-2.5-5.8-10.2-8.3Z"/>
    <path class="st0" d="M73.5,367.8l-8,3.4c4.9,8.6,6.7,16.7-7.2,16.7s-8,7.7-8,7.7h33.3s3.3-1.3-1.5-9.1c-5.2-8.5-8.6-18.6-8.6-18.6Z"/>
    <path class="st10" d="M71.7,388.4c-2.1-1.9.2-5.6-2.7-5.8-.6,3.2-3.7,5.3-10.7,5.3s-8,7.7-8,7.7h33.3s3.1-1.3-1.1-8.4c-3.5,0-7.6,4.2-10.8,1.3Z"/>
    <path class="st10" d="M70.7,209.5c-13.2,20.5-42.4,83.6-42.7,86.6-.3,3.5,7,7,19.6-1.1,10.5-6.8,69.4-62.1,47.6-87.1-8-9.2-20.5-4.7-24.5,1.6Z"/>
    <path class="st10" d="M90.4,204.2c-6.2,55.5-50.2,92.9-53,95.3,2.8-.6,6.2-2,10.2-4.5,10.5-6.8,69.4-62.1,47.6-87.1-1.5-1.7-3.1-2.9-4.8-3.8Z"/>
    <path class="st10" d="M119.9,223.6c-5.6-11.6-14.5-19.4-17.3-21.3-4.6-3.2-15.2-2.9-17.1,5.9-2,8.8-2.2,14.1,3.2,30,5.4,15.9,28.3,53.5,31.5,65.4,3.1,11.9,21.5,12,15.7-5-5.8-17.1-9.5-61.5-15.9-74.9Z"/>
    <path class="st10" d="M137.4,301.8c-1.3-3.2-2.1-5.6-3.2-8.8-4.6-14-17.7.2-16.6,3.9,1.4,4.7,3.3,6.9,7.2,23.3,3.9,16.5,9.1,24.7,13.8,32.4,4.7,7.6,8.5,18.5,8.5,18.5,8.1.5,10.3-2.8,10.3-2.8,0,0-4.6-17.5-7.7-31.7-3.1-14.2-9.1-27.3-12.2-34.8Z"/>
    <path class="st10" d="M28,296.1c-2,5.2,36.6,77.7,36.6,77.7,8.1-.4,11.2-4.8,11.2-4.8,0,0-9.7-22-12.3-36.3-11.6-63.6-34.1-40.2-35.5-36.6Z"/>
    <path class="st10" d="M32.2,123c4.7-.3,8.7,3.2,9.1,7.8.3,4.7-3.2,8.7-7.8,9.1-4.7.3-8.7-3.2-9.1-7.8s3.2-8.7,7.8-9.1Z"/>
    <path class="st10" d="M26.7,167.9c.3-8.9-5.5-13.8-1.8-24.2,3.8-10.4,8.8-11.9,13.5-13.8,12-4.9,26.5,9.3,22.7,20.6-3.5,10.5,1.8,17.9,6.7,25.9,4.9,7.9,9.2,34.1-13.5,38.6-22.6,4.5-28.8-4.7-32.4-18.4-4.3-16.4,4.4-19.7,4.6-28.6Z"/>
    <path class="st7" d="M59.1,176.7c0,2.9-1.9,37.7-3.8,42-2.3,5-8.9,2.5-10.5-3.7-1.6-5.9-2.5-31.2.6-39.3,3.3-8.7,14-5.3,13.8.9Z"/>
    <path class="st7" d="M57.7,175.9c-14.6,12.6-13.2,37.4-13,39.1-1.6-6-2.4-31.2.6-39.2,3-8,12.8-.2,12.4,0Z"/>
    <path class="st13" d="M59.2,186.3l-1,12.4-.6,7.7-.4,4.9c-8.5-.9-14.3-4.3-14.3-4.3.4-2.6.1-9.7.2-16.5,0-3.9.2-7.7.7-10.6,0-.4.1-.9.2-1.3,1.7-7.8,7.1-8,7.1-8l8.1,15.8Z"/>
    <path class="st23" d="M58.2,198.7l-.6,7.7c-1.1-.4-2.3-.7-3.2-.8,0,0-3.4,1.4-7.2-2.5-3.8-3.9-2.5-9.3-3.8-12,0-.2-.2-.3-.3-.5-1.5-2.7-4.6-6.6-3.7-10.4.2-.8.5-2.4,1.7-3.3.5.7,1.8,2.1,2.4,2.7l.2.3,14.4,18.9Z"/>
    <path class="st0" d="M83.4,187c-1.9-3.1-2.9-6.5-7.9-18.2-2-4.6-3.1-8.5-5.4-9.4-2.9-1.2-6.9,1.4-9.6,3.5-4.9,3.8-11.7-9.8-11.7-9.8-2.7-1.9-10.4,4.9-3.9,12.4,6.5,7.6-4.1,10-4.8,12.9-1,4,2.6,8.2,3.9,10.9,1.3,2.7,0,8.1,3.8,12,3.8,3.9,7.7.6,7.7.6,2.7.5,6.4,2.5,8.2,4.5,4.2,4.7,4.8,8.6,4.8,8.6,19.2-4.9,35.4-13.6,35.4-13.6,0,0-14.8-5.2-20.5-14.4Z"/>
    <path class="st7" d="M60.5,162.8c-4.9,3.8-11.7-9.8-11.7-9.8-1.5-1-4.5.6-5.8,3.5,1.8-.8,10.6,3.1,16.1,14.5,1.5,3.2-.2,7.2-2.5,9.9,0,0,19.7-10.5,19-12.2-2-4.6-12.3-8-15-5.9Z"/>
    <path class="st12" d="M83.4,187c-1.9-3.1-2.9-6.5-7.9-18.2-2-4.6-3.1-8.5-5.4-9.4-2.6-1.1-6.1.9-8.8,2.9,2,9-1.3,17.4-7.6,18.9-4,1-8.2-1.2-11.3-5.2-1.2.9-2.2,1.7-2.4,2.5-1,4,2.6,8.2,3.9,10.9,1.3,2.7,0,8.1,3.8,12,3.8,3.9,7.7.6,7.7.6,2.7.5,6.4,2.5,8.2,4.5,4.2,4.7,4.8,8.6,4.8,8.6,21.4-2.4,35.4-13.6,35.4-13.6,0,0-14.8-5.2-20.5-14.4Z"/>
    <path class="st23" d="M83.4,187c-1.9-3.1-2.9-6.5-7.9-18.2-2-4.6-3.1-8.5-5.4-9.4-2.5-1.1-5.9.8-8.5,2.7.3.5.5,1,.8,1.5,3.1,6.6,2.4,14-1.3,19.7l3.3-1.6c3.8-1.8,8.6.3,10.2,4,1.2,2.8.6,5.8-1.2,7.9l3.8,7.9c2.8,6,10.2,5.9,16.7,4.6,4.4-.9,10-4.7,10-4.7,0,0-14.8-5.2-20.5-14.4Z"/>
    <path class="st7" d="M43.6,214.7c5.1-7.2,14.7-2,12.4,3.5-3.3,8.2-22.7,28.7-23,34-.3,5.3-10.4,1.3-6.2-3.1,4.2-4.4,12.5-28.5,16.8-34.4Z"/>
    <path class="st7" d="M17.4,253.6c4.5.1,6.3,4.4,10.1,2.8,3.8-1.5,5.6-1.4,5.5-4.5,0-3.1-2.6-3-7.8-3.1-5-.1-14.6,4.7-7.9,4.9Z"/>
    <path class="st0" d="M36.6,148.8s3-13,7.1-13.8c4.1-.8,7.4-.9,10,3.4,0,0,2.9,3.7,2.5,8.6,0,0,6,4.2,1,12.1-5,7.8-15.5,4.1-19.5-2.1,0,0-5.3,2.4-6.6-2.6-1.3-5.1,2-5.7,5.6-5.6Z"/>
    <path class="st7" d="M36.6,148.8s3-13,7.1-13.8c3.3-.7,6.1-.8,8.3,1.3-2.8-.4-11.3,11.7-10.6,18.3.7,6.7,8.3,10,13.7,6.4.6-.4,1.3-.9,1.8-1.5-5.1,7.2-15.2,3.5-19.2-2.5,0,0-5.3,2.4-6.6-2.6-1.3-5.1,2-5.7,5.6-5.6Z"/>
    <path class="st10" d="M57,139.8s-6.6-.2-10.8-3.5c-4.1-3.2-6-2.4-6-2.4,10.6-6.2,16.7,5.8,16.7,5.8Z"/>
    <path class="st10" d="M43.8,134.3c1.9,1.2,2.9,5.5-1.1,11-3.9,5.4-1.8,11.3-5.8,8.4-4-2.8-4.1-3.4-5-7.8-.9-4.4,7.6-14.3,11.8-11.6Z"/>
  </g>
  <g>
    <rect class="st10" x="64.9" y="63.6" width="167.7" height="332.2"/>
    <g>
      <polygon class="st10" points="228.1 395.7 63.6 399.9 64.9 62.3 228.1 68.8 228.1 395.7"/>
      <polygon class="st2" points="228.1 395.8 63.6 399.8 64.9 62.3 228.1 68.8 228.1 395.8"/>
      <g>
        <polygon class="st9" points="96.1 367.3 97.5 94.9 195.5 101.3 195.5 363.2 96.1 367.3"/>
        <path class="st9" d="M215.9,383.6l-140.1,4,1.4-313.1,138.7,6.5v302.6ZM78.5,384.9l134.7-4V83.7l-133.3-6.5-1.4,307.6Z"/>
        <path class="st9" d="M92.8,229.7c0-5.1-3.6-9.2-8-9.2s-8,4.1-8,9.2,3.6,9.2,8,9.2,8-4.1,8-9.2Z"/>
        <circle class="st9" cx="149.7" cy="143.6" r="4.8"/>
      </g>
    </g>
  </g>
  <g>
    <g>
      <circle class="st10" cx="257.1" cy="144.1" r="12.9"/>
      <circle class="st10" cx="258.5" cy="144.1" r="12.9"/>
    </g>
    <circle class="st23" cx="257.8" cy="144.1" r="5.6"/>
    <circle class="st11" cx="258.7" cy="144.1" r="5.6"/>
  </g>
  <g>
    <g>
      <g>
        <path class="st0" d="M278.6,388.6c16.6-4.1,12.4-14.9,10.7-26.3l13.1-1.2c-1.3,9.4-.2,13.3.8,26.5.7,9.4-2,8.6-2,8.6l-32.1.4s-.1-5.6,9.5-8Z"/>
        <path class="st10" d="M278.6,388.3c2.9-.8,8.1-2.8,10.1-5.5.6-.8,2,2.6,3,3.7,2.1,2.2,9.5.8,11.4-.8,0,.7,0,1.2,0,1.8.7,9.4-2,8.6-2,8.6l-32.1.4s-.6-5.5,9.5-8.3Z"/>
      </g>
      <path class="st10" d="M317.9,216.5s-14.7,21.8-19.9,33.8c-2.8,6.6-18.6,40.9-17.3,48.8,0,0,7.8,65.5,8.7,73.2,0,0,7.9,2.6,14.3-.2,0,0,.4-55.3,0-69.2,11.9-14.2,31.9-39.3,35.4-52.8,5.1-19.6-12.6-27.5-21.1-33.7Z"/>
      <path class="st10" d="M339,250.2c-3.5,13.4-23.5,38.6-35.4,52.8.5,13.9,0,69.2,0,69.2-6.4,2.8-14.3.2-14.3.2,0,0,0-.1,0-.2,2.8.3,6.5.3,9.8-1.1,0,0,.5-55.3,0-69.2,11.9-14.2,26.8-47.3,35.4-52.8,14.9-9.5-8.5-25.3-17.5-31.2.6-.9.9-1.3.9-1.3,8.6,6.2,26.3,14.1,21.1,33.7Z"/>
    </g>
    <g>
      <g>
        <path class="st0" d="M311,388.6c16.6-4.1,12.4-14.9,10.7-26.3l13.1-1.2c-1.3,9.4-.2,13.3.8,26.5.7,9.4-2,8.6-2,8.6l-32.1.4s-.1-5.6,9.5-8Z"/>
        <path class="st10" d="M311,388.3c2.9-.8,8.1-2.8,10.1-5.5.6-.8,2,2.6,3,3.7,2.1,2.2,9.5.8,11.4-.8,0,.7,0,1.2,0,1.8.7,9.4-2,8.6-2,8.6l-32.1.4s-.6-5.5,9.5-8.3Z"/>
      </g>
      <path class="st10" d="M361.7,254.3c-2.2,11.9-16,32.7-25.8,46.3.7,8.1.2,71.6.2,71.6-.6.3-1.2.5-1.8.7-5.9,1.7-12.4-.5-12.4-.5-.9-7.4-8.2-68.6-8.7-72.9,0,0,0-.2,0-.2-1.5-7.8,10.5-40.6,12.7-46.8,3.9-11.5,15.7-32,15.7-32,5.5,4.6,15.2,10.3,19.1,20,1.6,4,2.2,8.6,1.2,14.1Z"/>
    </g>
    <g>
      <path class="st0" d="M289,190.9c-10.9,2.3-39.3,19.1-46.1,18.3-4.6-.5,1.8,10.2,5.2,8.8,7.1-2.9,35.6-7.4,46.3-10.8,9.1-2.9,2-17.9-5.3-16.3Z"/>
      <g>
        <path class="st23" d="M314.6,151.3c-3.9,3.3-15,22.8-21.8,36.9-.2.4-2.2,3.3-1.6,3.5,3.9,1.4,10.5,2.3,11.8,6.2.6,1.7.9,3.4.8,5.2,9-8,23.6-38.9,24.6-42.7,2.4-10-7.5-14.4-13.8-9Z"/>
        <path class="st23" d="M289,191.3s7.4,6,7.6,15.9c0,0,8.5-3.1,12-9.7,2.7-5.1-6-9.1-8.5-10-2.5-.9-9.3,2.2-11.1,3.8Z"/>
      </g>
      <path class="st10" d="M338.4,126.2c-1.5,8,8.3,11.7,8.3,11.7,1.1-5.9,8-9,10.6-16.2,2.7-7.4-1.5-15.7-12.1-15.9-6.5-.1-5.3,12.3-6.7,20.3Z"/>
      <path class="st21" d="M345.9,149.5c5.6,1,15.8,4.1,18.6,9.7,1.9,3.8.3,28.7-2.7,54.8-1.4,12.4-1,17.9-1.1,28.9,0,0-44.7,24.6-63.4,5.1,0,0,3.3-26.7,5.4-42.4,3.3-24.9,9.8-50.2,13.8-54.5,5.9-6.4,23.8-2.5,29.4-1.5Z"/>
      <path class="st23" d="M359.9,169.8l-27,43.3-13.6,3.4-18.8,5.2-.7,5.8s31-1.8,42.5-5.8c11.1-3.8,20.8-18.7,20.8-18.7,0,0,4.1-28.2,2.1-33.3-2-5-5.4,0-5.4,0Z"/>
      <path class="st5" d="M347,149.7s-21.2,26.5-23.6,28.7c0,0,1.9-23.6,2.7-30.6l20.9,2Z"/>
      <path class="st3" d="M344,137.8c.3-1,.5-1.7.5-1.7,0,0-10.8-9.5-12.7-.5l12.2,2.2Z"/>
      <path class="st0" d="M331,154.6l-3.1-6.7s3.6-2.2,3.5-8.4c-.4-15.2,13-3.4,13-3.4,0,0-3.2,12.5,1.4,13.3l-14.8,5.2Z"/>
      <path class="st7" d="M331.3,151.7c7.8,1.4,7.9-8.5,8.4-10.3.4-1.7,4.8-5.2,4.8-5.2,0,0-3.2,12.5,1.4,13.3l-14.8,5.2-1.8-3.9c.5.5,1.2.8,2.1,1Z"/>
      <path class="st0" d="M328.9,113.5l-4.8,17.3c-1,5.2,4.3,10.5,9.7,11.5h0c5.5,1,10.7-2.4,11.6-7.6v-.4c0,0,5.8.6,6.9-5.1,1.1-5.8-3.2-4.1-3.2-4.1l.5-2.5c.5-2.8-1.4-5.6-4.2-6.1l-16.6-3Z"/>
      <path class="st7" d="M349.2,125.1l.5-2.7c.5-2.7-1.3-5.3-4-5.8l-2.8-.5c0,0,0,.1,0,.2l-3.7,19.9c-.6,3.5-4.5,5.6-7.9,4.8-1-.2-3.1-1.3-3.8-1.9,2.2,2,4.3,2.8,6.3,3.2,5.5,1,10.7-2.4,11.6-7.6v-.4c0,0,5.8.6,6.9-5.1,1.1-5.8-3.2-4.1-3.2-4.1Z"/>
      <path class="st8" d="M329.8,146.1c-.6,4,1.3,8.5,1.3,8.5,0,0-2.2-1.5-4.9,1-1.1,1.1-2.1,1-2.1,1,0,0,.2-3.2,2.1-9.2l3.6-1.3Z"/>
      <g>
        <path class="st0" d="M330,197.9c-10.9,2.3-39.3,19.1-46.1,18.3-4.6-.5,2.6,6.5,6,5.1,7.1-2.9,34.8-3.7,45.5-7.1,9.1-2.9,2-17.9-5.3-16.3Z"/>
        <path class="st22" d="M324.6,205.4c2-5,4.8-8.8,12.6-20.7.3-.5.5-1.1.8-1.6,5.5-9.7,8.4-22.2,9.5-23.9,4.2-6.4,20.4-8.1,19,8.4-1.3,15-16.3,41.2-25.9,46.1-3.6,1.8-5.7,2.1-12.3-2.1-1.6-1.1-4.4-4.6-3.8-6.1Z"/>
        <path class="st19" d="M317.7,201.3s5,6.8,5.3,17.6c0,0,17.4-2.4,22.6-9.2,4-5.2-12.6-9.7-15.2-11.1-2.7-1.4-7,1.4-12.6,2.8Z"/>
      </g>
      <path class="st8" d="M343.6,146.4c-2.8,3.8-12.5,8.2-12.5,8.2,0,0,3-.5,5.6,3.5,1.1,1.7,2.9,2.3,2.9,2.3,0,0,6.3-4.3,7.5-10.7l-3.4-3.2Z"/>
      <path class="st10" d="M343.6,114.4s-4.6,4.2-11.6,2.2c-7-2-6,1.6-6,1.6,0,0-3.3-13.7,6.7-16.6,10-3,14.5,4.3,14.5,4.3l-3.5,8.5Z"/>
    </g>
    <g>
      <path class="st20" d="M352.8,116c1.6,1.5,2.9,3.9,3.6,7.9,0,0,8.4-16.1-5.1-24.1-14.4-8.5-26.1,4.4-23.9,10.4,0,0,13.1-5.8,25.5,5.8Z"/>
      <path class="st23" d="M352.1,100.4c-.1-.3-.3-.4-.6-.5-.2,0-.4-.1-.6,0,0-.4,0-.8-.5-.9-6.3-1.6-12.5.9-15.7,6.5-.5.9.8,1.7,1.3.8,2.9-5.1,8.3-7.3,14-5.9,0,0,.2,0,.2,0-1.3,1.5-2.2,3.3-3.6,4.8-1.4,1.5-3,2.5-4,4.3-.5.9.8,1.7,1.3.8,1-1.8,2.8-2.9,4.2-4.4,1.1-1.3,1.9-2.7,2.9-4,1.8,4.5,4.1,9.2,2.1,14-.4.9,1.1,1.3,1.5.4,2.3-5.5-.6-10.8-2.5-16Z"/>
      <path class="st23" d="M345,110.7s-10.3-5.2-11.6-5.9c-9.5-5.7-19.7-6.7-21.4-2.7-4.2,9.3,13.6,9.3,13.6,9.3,0,0,5.1-4.4,19.5-.7Z"/>
      <path class="st23" d="M352.6,100.3c.2-.8-.4-1.5-1.1-1.7-.8-.2-1.5.4-1.7,1.1-.2.8.4,1.5,1.1,1.7.8.2,1.5-.4,1.7-1.1Z"/>
    </g>
  </g>
  <path class="st10" d="M361.7,254.3c-2.2,11.9-16,32.7-25.8,46.3.7,8.1.2,71.6.2,71.6-.6.3-1.2.5-1.8.7-.5-6.7-5.1-64.7,0-74.8,17-20.7,20.7-42.2,21.4-52.7,3.1-1.5,5-2.5,5-2.5,0-.7,0-1.3,0-2,1.4,3.8,1.9,8.3,1,13.5Z"/>
  <g>
    <g>
      <path class="st10" d="M148.3,379.5c0-9,7.2-16.3,16.1-16.5h0s5.6,0,5.6,0v.8c6.6,2.2,11.4,8.4,11.4,15.7s-4.6,13.2-10.9,15.5v1s-5.5,0-5.5,0c0,0,0,0-.1,0s0,0-.1,0h-.3c-8.9-.2-16.1-7.5-16.1-16.5Z"/>
      <path class="st10" d="M170,363c9.1,0,16.5,7.4,16.5,16.5s-7.4,16.5-16.5,16.5-16.5-7.4-16.5-16.5,7.4-16.5,16.5-16.5Z"/>
      <path class="st14" d="M170,371.4c4.4,0,8,3.6,8,8s-3.6,8-8,8-8-3.6-8-8,3.6-8,8-8Z"/>
    </g>
    <g>
      <polygon class="st10" points="168.6 381.3 172.4 381.3 214.8 220 211 220 168.6 381.3"/>
      <polygon class="st8" points="183.2 333.5 241.2 333.5 241.7 330.3 183.7 330.3 183.2 333.5"/>
      <polygon class="st8" points="200.3 269.6 258.4 269.6 258.9 266.4 200.8 266.4 200.3 269.6"/>
      <polygon class="st8" points="225.9 386.3 229.6 386.3 273.3 220 269.5 220 225.9 386.3"/>
      <path class="st10" d="M167.6,380.2c0,1.6,1.3,2.9,2.9,2.9s2.9-1.3,2.9-2.9-1.3-2.9-2.9-2.9-2.9,1.3-2.9,2.9Z"/>
      <path class="st10" d="M298.2,216.4h-26.7c-.5,0-1,.4-1.1.9l-1.1,4.1h29c1.4,0,2.5-1.1,2.5-2.5h0c0-1.4-1.1-2.5-2.5-2.5Z"/>
      <path class="st1" d="M239.6,216.4h-26.6c-.6,0-1.2.4-1.3,1l-1.1,3.9h29c1.4,0,2.5-1.1,2.5-2.5h0c0-1.4-1.1-2.5-2.5-2.5Z"/>
    </g>
    <g>
      <polygon class="st23" points="154.5 190.6 142.1 236.5 210.1 252.1 187.4 189.3 154.5 190.6"/>
      <rect class="st17" x="188.6" y="188.3" width="47.6" height="64.7" transform="translate(-55.9 368.4) rotate(-74.9)"/>
      <polygon class="st23" points="175 235.2 142.1 236.5 204.5 253.3 237.5 252.1 175 235.2"/>
      <path class="st9" d="M163.1,198.3h3.3c1,0,1.7-.9,1.7-1.9h0c0-1-.8-1.7-1.8-1.7h-3.3c-1,0-1.7.9-1.7,1.9h0c0,1,.8,1.7,1.8,1.7Z"/>
      <path class="st9" d="M208.1,204l15.6,4.1c.9.2,1.8-.3,2-1.2h0c.2-.9-.3-1.8-1.2-2l-15.6-4.1c-.9-.2-1.8.3-2,1.2h0c-.2.9.3,1.8,1.2,2Z"/>
      <path class="st9" d="M205.9,210.4l15.6,4.1c.9.2,1.8-.3,2-1.2h0c.2-.9-.3-1.8-1.2-2l-15.6-4.1c-.9-.2-1.8.3-2,1.2h0c-.2.9.3,1.8,1.2,2Z"/>
    </g>
    <g>
      <polygon class="st10" points="134.5 233.9 120 287.8 199.8 306 173.1 232.4 134.5 233.9"/>
      <rect class="st10" x="174.6" y="231.3" width="55.8" height="75.8" transform="translate(-110.2 394.7) rotate(-74.9)"/>
      <polygon class="st23" points="158.6 286.3 120 287.8 193.2 307.5 231.8 306 158.6 286.3"/>
      <path class="st9" d="M144.6,243h3.8c1.1-.1,2-1,2-2.2h0c0-1.1-1-2-2.1-2h-3.8c-1.1.1-2,1-2,2.2h0c0,1.1,1,2,2.1,2Z"/>
      <path class="st9" d="M197.4,249.6l18.3,4.8c1,.3,2.1-.4,2.3-1.4h0c.3-1-.4-2.1-1.4-2.3l-18.3-4.8c-1-.3-2.1.4-2.3,1.4h0c-.3,1,.4,2.1,1.4,2.3Z"/>
      <path class="st9" d="M194.8,257.2l18.3,4.8c1,.3,2.1-.4,2.3-1.4h0c.3-1-.4-2.1-1.4-2.3l-18.3-4.8c-1-.3-2.1.4-2.3,1.4h0c-.3,1,.4,2.1,1.4,2.3Z"/>
    </g>
    <g>
      <polygon class="st23" points="106.8 285.4 89.4 349.7 184.7 371.5 152.9 283.6 106.8 285.4"/>
      <rect class="st18" x="154.6" y="282.3" width="66.6" height="90.5" transform="translate(-177.3 423.7) rotate(-74.9)"/>
      <polygon class="st23" points="135.5 347.9 89.4 349.7 176.8 373.3 222.9 371.5 135.5 347.9"/>
      <path class="st9" d="M118.8,296.3h4.6c1.4-.1,2.4-1.2,2.4-2.6h0c0-1.4-1.1-2.4-2.5-2.4h-4.6c-1.4.1-2.4,1.2-2.4,2.6h0c0,1.4,1.1,2.4,2.5,2.4Z"/>
      <path class="st9" d="M181.8,304.2l21.9,5.7c1.2.3,2.5-.5,2.8-1.7h0c.3-1.2-.5-2.5-1.7-2.8l-21.9-5.7c-1.2-.3-2.5.5-2.8,1.7h0c-.3,1.2.5,2.5,1.7,2.8Z"/>
      <path class="st9" d="M178.8,313.2l21.9,5.7c1.2.3,2.5-.5,2.8-1.7h0c.3-1.2-.5-2.5-1.7-2.8l-21.9-5.7c-1.2-.3-2.5.5-2.8,1.7h0c-.3,1.2.5,2.5,1.7,2.8Z"/>
    </g>
    <path class="st16" d="M171,378.4l-55.4-15.6h-.1c-1.3-.5-2.1-1.7-2-3.1.1-1.4,1.1-2.5,2.5-2.7h.2s47,.5,47,.5h.2s53.4,14.9,53.4,14.9l16.7,8.2-62.5-2ZM162.8,360.7l-44.1-.4,52.8,14.9,46.7,1.5-2.5-1.2-52.8-14.7Z"/>
    <g>
      <path class="st10" d="M206.5,379.5c0-9,7.2-16.3,16.1-16.5h0s5.6,0,5.6,0v.8c6.6,2.2,11.4,8.4,11.4,15.7s-4.6,13.2-10.9,15.5v1s-5.5,0-5.5,0c0,0,0,0-.1,0s0,0-.1,0h-.3c-8.9-.2-16.1-7.5-16.1-16.5Z"/>
      <path class="st10" d="M228.2,363c9.1,0,16.5,7.4,16.5,16.5s-7.4,16.5-16.5,16.5-16.5-7.4-16.5-16.5,7.4-16.5,16.5-16.5Z"/>
      <path class="st15" d="M228.2,371.4c4.4,0,8,3.6,8,8s-3.6,8-8,8-8-3.6-8-8,3.6-8,8-8Z"/>
    </g>
  </g>
  <path class="st0" d="M286.5,223.2s-5.9-.6-6.2-4c-.4-3.4.6-4.7,4.7-5.2,4.1-.5,10.8,0,10.8,4.2,0,4.1-1.8,7.3-9.2,5Z"/>
</svg>