<?xml version="1.0" encoding="UTF-8"?>
<svg id="Layer_1" xmlns="http://www.w3.org/2000/svg" version="1.1" viewBox="0 0 400 400">
  <!-- Generator: Adobe Illustrator 29.0.0, SVG Export Plug-In . SVG Version: 2.1.0 Build 186)  -->
  <defs>
    <style>
      .st0 {
        fill: #5c3833;
      }

      .st1 {
        fill: #ffd2a7;
      }

      .st2, .st3 {
        fill-rule: evenodd;
      }

      .st2, .st4, .st5 {
        fill: #fff;
      }

      .st6 {
        fill: #fde5dd;
      }

      .st3, .st7 {
        fill: #8e364c;
      }

      .st8 {
        fill: #e0f7e9;
      }

      .st9 {
        fill: #ab5c3b;
      }

      .st5 {
        stroke: #000;
        stroke-miterlimit: 10;
        stroke-width: .8px;
      }

      .st10 {
        fill: #2e4d34;
      }

      .st11 {
        fill: #e0dace;
      }
    </style>
  </defs>
  <g>
    <path class="st8" d="M342.2,166.8c-85-53.2-111.9-112.9-164.6-123.3C10.6,10.6-48.4,370.7,56.5,367c83.8-3,89.8-5.5,217.8,26.8,134.2,33.9,152.9-173.7,67.9-226.9Z"/>
    <path class="st8" d="M287,43.9c-11.7,33.1,8.9,67.5,33.7,87.2,51.8,41.2,49.9-8.4,21.8-38.1-19.5-20.5-43.7-82.2-55.4-49.1Z"/>
  </g>
  <rect class="st7" x="27" y="397.5" width="335.5" height="2.5"/>
  <g>
    <path class="st1" d="M227.7,167.6c-1,0-2.7-.3-3.6,0-.5.2-1,.5-.8,1.2.2.6.7.9,1.2,1,1,.2,1.2.5,2.2,1.7-1.5.5-3.7.6-7.7-1.4-1.3-.7-2.9-1.4-4.5-1.1-.3,0-.6.3-.6.5,0,0,0,.1,0,.2-.2,0-.4,0-.5,0-1,0-1.7,0-1.9,1.2-.2.7.2,1.5.7,2.3-.6.1-1,.4-1.2,1-.7,2.2,1.8,3.4,4.5,4,.3,2.2,4.9,2.6,9.1,2-.3,1.1.5,4.2.6,4.9,0,.3,6.1-1.4,6.6-2.5,1.1-2.5,1.9-8.6-2.3-14.1-.4-.6-1-.9-1.7-1Z"/>
    <g>
      <path class="st4" d="M285,151.3c-12.6,5.8-33.1,44.8-36.5,46.7-3.4,1.9-11.5-9.3-14.6-17.3,0,0-8.9,1.5-10.9,4,0,0,3.3,38.1,26.6,36.5,27.3-1.9,33.8-18.9,35.3-29,.6-4.3.3-7.3.3-7.3,0,0,7.5-37-.2-33.5Z"/>
      <path d="M287.1,151c-.5-.4-1.2-.7-2.4-.1-8.6,4-20.6,22.8-28.5,35.3-3.7,5.8-6.9,10.9-7.9,11.4-.4.2-.8.2-1.4,0-3.8-1.4-9.9-10.4-12.5-17,0-.2-.3-.3-.5-.3-.4,0-9.1,1.6-11.2,4.1,0,0-.1.2-.1.4,0,.4,3.5,37,25.7,37,.5,0,1,0,1.4,0,27.6-1.9,34.2-19.3,35.7-29.4.6-4,.4-6.9.3-7.4.7-3.4,5.9-30.3,1.5-33.8ZM284.7,184.7s0,0,0,.1c0,0,.3,3-.3,7.2-1.4,9.9-7.8,26.7-34.8,28.6-.5,0-.9,0-1.4,0-20.5,0-24.4-32.9-24.7-35.9,1.7-1.7,7.5-3.1,10.1-3.6,2.8,6.9,8.9,15.8,12.9,17.2.8.3,1.6.3,2.2,0,1.2-.6,3.7-4.5,8.3-11.7,7.9-12.4,19.8-31.1,28.1-34.9.8-.4,1.2-.2,1.4,0,3.4,2.7-.2,24.7-1.8,32.9Z"/>
    </g>
    <path class="st9" d="M274.1,379.8c-1,.9-1.3,7.1-1.3,8.6,0,1.7,9.2,2.8,10.2,2.1,1-.8,1.3-7.3,1.3-9,0-.6-9.1-2.6-10.1-1.6Z"/>
    <path class="st7" d="M273.2,388.8s-5.8-.4-11.6.2c-5.8.5-5.9,8.8-5.9,8.8,6.7,1.2,29.1.8,29.1.8,3.2-4.7-.9-11-.9-11-4.3,4.4-10.7,1.2-10.7,1.2Z"/>
    <path class="st9" d="M322.4,379.5c-.8,1.1-.2,7.2,0,8.7.2,1.7,9.5,1.5,10.3.6.9-.9.3-7.4,0-9.1-.1-.6-9.4-1.3-10.3-.2Z"/>
    <path class="st7" d="M322.6,388.6s-5.8,0-11.6.7c-5.8.8-5.4,9.1-5.4,9.1,6.8.9,29.1-.6,29.1-.6,3-4.9-1.5-10.9-1.5-10.9-4.1,4.7-10.7,1.7-10.7,1.7Z"/>
    <path class="st10" d="M271.4,232.9c-7.4,15.8-9.1,49.2-9.1,69.2s4.5,64.3,9,82.5c0,0,11.5,2.3,11.6,2.2-.3-2.9,3.3-11.5,3.3-24.3,0-15.6,6.1-47.7,7.1-60.8.6-7.1,6.2-20.7,10.7-32.4.7-1.7,1.3-3.4,1.9-5,3-7.9,4.9-14.1,3.7-15.5-3.2-3.7-31.2-31-38.2-16Z"/>
    <path class="st10" d="M304.5,264.1c-2.8-3.8-8.9-7.5-12.1-2-1.8,3.1.3,6.7.4,9.9.4,6.4-3.7,12.2-6.2,17.8-8.9,20.1-1.7,42.2-4.1,63.2-1.3,11-6.5,21.6-5.6,32.8,2.8,1.3,6.8,2.2,8.9,1.1,1.1-4.3,6.4-71.9,7.4-85,.6-7.1,6.2-20.7,10.7-32.4.7-1.7,1.3-3.4,1.9-5-.1,0-.2-.1-.3-.2-.3-.2-.7-.2-1,0Z"/>
    <path class="st10" d="M334.2,240.2c-1.4-3.4-3.2-7-5.5-10.8-.3-.5-.9-.9-1.6-1.2-.8-.3-1.8-.3-3-.2-5.2.6-13.4,5-20.6,12.6-.8.8-1.5,1.6-2.2,2.5,0,0,0,.7,0,2,.2,8.1,1.1,39.7,4.6,70.6,2.3,19.9,6.6,50.8,15.5,69.8h10.4c0-.1,2.3-.1,2.3-.1,0,0-.4-21.3-1.2-30.4-2.2-23.8,3-38.1,2.9-51.3-.2-27.2,6.9-40.5-.5-60.7-.3-.9-.7-1.9-1.1-2.8Z"/>
    <g>
      <path class="st4" d="M337.1,201.1c0-2.5.1-5,.1-7.5.1-16.2-.9-31.7-4.6-34.5-.8-.6-1.7-1.3-2.8-2-1.5-1.1-3.3-2.1-5.4-3.2-3.2-1.7-6.9-3.2-11-4.3-6.4-1.7-13.8-2.2-22-.3,0,0,0,0,0,0-2,.4-4,1-6.1,1.8-.5.2-1,.4-1.5.5-6.9,2.8-5.9,17.8-4.8,30.5.5,5.9,1,11.2.8,14.5,0,1.1-.2,2.2-.4,3.3-1.6,9.3-11,26-12.2,32.7.3,1,25.9,9.3,33.9,10.5,8.5,1.3,18.9-.5,26.3-.9,5.6-.3,9.7-1,10.3-2.1,1.1-2.4-1.2-23.5-.7-39.1Z"/>
      <path d="M337.6,201.1c0-2.2.1-4.6.1-7.6.1-14.2-.6-31.7-4.7-34.9-.7-.6-1.6-1.2-2.8-2-1.7-1.2-3.5-2.2-5.4-3.2-3.6-1.9-7.3-3.3-11.1-4.3-7.4-1.9-14.8-2-22.2-.3,0,0,0,0-.1,0-2,.5-4.1,1.1-6,1.8-.4.1-.7.3-1.1.4l-.4.2c-7,2.8-6.4,16.8-5.1,30.9l.2,1.9c.5,5.2.8,9.6.7,12.6,0,1.3-.2,2.3-.4,3.3-.8,5-4,12.3-6.9,18.7-2.5,5.6-4.8,10.8-5.3,14,0,0,0,.2,0,.2.5,1.5,27.5,9.8,34.3,10.8,2.2.3,4.6.5,7,.5,4.2,0,8.4-.4,12.4-.8,2.5-.2,4.9-.5,7-.6,6.5-.3,10.1-1.1,10.7-2.4.6-1.2.4-6.2,0-14.8-.4-7.4-.8-16.7-.6-24.4ZM267.4,232.7h0,0ZM337.3,240c-.3.7-3.1,1.5-9.9,1.9-2.1,0-4.5.3-7.1.6-6.1.6-13.1,1.2-19.1.3-7.6-1.2-31.1-8.7-33.4-10.2.6-3.1,2.8-8.2,5.2-13.5,2.9-6.5,6.1-13.9,6.9-18.9.2-1,.3-2.1.4-3.4.2-3-.2-7.5-.7-12.7l-.2-1.9c-.9-10.2-2.4-27.2,4.5-30l.4-.2c.4-.1.7-.3,1.1-.4,1.9-.7,4-1.3,5.9-1.8,0,0,.1,0,.2,0,7.2-1.6,14.5-1.5,21.7.4,3.7.9,7.4,2.4,10.9,4.2,1.8,1,3.6,2,5.3,3.2,1.1.8,2,1.4,2.7,2,2.9,2.3,4.5,14.7,4.4,34.1,0,2.9,0,5.3-.1,7.5-.2,7.8.2,17.1.6,24.5.4,7.1.7,13.3.2,14.4Z"/>
    </g>
    <path class="st7" d="M300.1,150.8s.6-2-.5-2.5c-1.1-.5-3.8.2-3.8.2l-4,6.6,5.8-3.6,6.3,4.7,3.3-7.8h-1c0-.1-6.1,2.3-6.1,2.3Z"/>
    <path class="st1" d="M297.6,148.3s-1.6,2.9,0,3.3c3.5.7,8.6-3.2,8.6-3.2v-10.3l-8.6,3.6v6.8Z"/>
    <path class="st1" d="M293.8,127.1s-1.6,7-.9,13c.5,4.3,9.3,7.9,14.1.6,4.7-7.3.9-15.8.9-15.8l-14,2.2Z"/>
    <path class="st7" d="M303,121.1c-1.9,0-3.5,0-5.3-.7-1.1-.4-1.9-.9-3.1-1-4.5-.3-8.5,3.3-4.8,7.2,3.6,3.9,10.9,2.9,16.4,2,0,.6,0,1.2,0,1.6,0,2.1-.6,4.7.5,6.6.7,1.3,2.3,1.8,3.6,1,.8-.5,1.1-1.2,1.1-1.9,1.7-3.8.9-10.2-2-12.9-1.8-1.7-4.1-1.9-6.4-1.9Z"/>
    <path class="st7" d="M303.5,150c-1.5,1.2-1.5,2.5-1.5,2.5l5.2-4.1-1-1.4s-1.2,1.8-2.7,3Z"/>
    <polygon class="st7" points="294.6 153.4 295.5 156.1 298 156.2 300.3 153.6 297.6 151.5 294.6 153.4"/>
    <path class="st7" d="M298,156.2l-2.4-.2s-6.5,15.2-4.6,31.9l4.6,4.9,3.5-4.1s-3.4-21.7-1.1-32.6Z"/>
    <path class="st7" d="M309.1,136.9c.1-.1.2-.2.3-.3.9-1-.8-2.4-1.7-1.4-1.1,1.2-2.3,2.2-4,2.8-2.2.7-3.2.1-4.7-1.2-.4-.4-1.2-.3-1.6.1-1.3,1.5-5.1-.6-5.6,1.7-.4,1.8,1.7,5.1,4,5.7,6.1,1.8,10.5-2.1,13.9-5.7.6-.7,0-1.6-.7-1.7Z"/>
    <path class="st10" d="M329.9,244.6c-.3,0-.4.2-.5.4-.3.2-.5.5-.4,1,3.9,13.1,2.4,25.3-.1,38.5-2.3,11.9-3.2,25.1-2,37.2,1.2,11.6,2.6,25.2,2.2,36.7-.3,10.2-.7,17.6,2.7,27.1h2.3s-.4-21.3-1.2-30.5c-2.2-23.8,3-38.1,2.9-51.3-.2-27.2,6.9-40.5-.5-60.7-2,.5-4,1.1-5.4,1.6Z"/>
    <path class="st7" d="M264.5,314.7s36.4,9.4,58.7-.3c0,0,.3-52.4,3.1-69.4l-56.8-7.4s-5.3,44.3-4.9,77.1Z"/>
    <path class="st7" d="M272.4,242.5c3.6,1.6,24.1,10.2,53.6,4.1.2-1.1.4-2,.4-2l-50.7-4.4c0,1.2-3.4,1-3.3,2.4Z"/>
    <path class="st7" d="M268.3,232.8l-1.4,4.8s31.5,11.7,71,6.7l-1-3.6s-50.2,1.9-68.6-7.9Z"/>
    <path class="st7" d="M282.2,254.3h-.4s0,.3,0,.3c-2,10.6.6,25.8.7,26v.2s11,4.1,11,4.1l12.9-2.5v-.4c-.9-8.7,2.2-24.8,2.3-24.9v-.4c0,0-.4,0-.4,0-15.2-1.1-25.9-2.5-26-2.5ZM305.4,281.9l-11.9,2.3-10.3-3.9c-.3-1.9-2.4-15.4-.7-25.1,2,.2,11.8,1.4,25.2,2.4-.5,2.6-2.9,16.3-2.3,24.4Z"/>
    <g>
      <g>
        <path class="st2" d="M274.5,177.8l-3.1.7-5.4,2.1-2.9,2.8.4,7s5.8,3.6,9.2,3.9c3.4.4,11.7-1.9,9.7-9.3-1.9-7.4-8-7.3-8-7.3Z"/>
        <path d="M274.5,177.3h0s0,0,0,0l-3.1.7-5.4,2.1c0,0-.1,0-.2.1l-2.9,2.8c0,0-.2.2-.1.4l.4,7c0,.2,0,.3.2.4.2.1,5.9,3.6,9.4,4,.3,0,.5,0,.8,0,2.4,0,6-1,8.1-3.4,1.5-1.7,2-4,1.3-6.6-2-7.6-8.3-7.6-8.5-7.6ZM280.9,190.9c-2.1,2.4-6.1,3.2-8.1,3-2.9-.3-7.7-3.1-8.8-3.7l-.3-6.5,2.6-2.6,5.2-2.1,3-.7c.5,0,5.8.3,7.5,6.9.6,2.2.2,4.2-1.1,5.7Z"/>
      </g>
      <g>
        <g>
          <path class="st2" d="M275.8,187.5c-.3-2-2.1-3.5-4.2-3.2l-24.9,3.3c-2,.3-3.5,2.1-3.2,4.2l6.2,45.5c.3,2,2.1,3.5,4.2,3.2l24.9-3.3c2-.3,3.5-2.1,3.2-4.2l-6.2-45.5Z"/>
          <path d="M276.3,187.5c-.3-2.3-2.4-3.9-4.7-3.6l-24.9,3.3c-1.1.1-2.1.7-2.8,1.6-.7.9-1,2-.8,3.1l6.2,45.5c.3,2.1,2.1,3.6,4.2,3.6s.4,0,.6,0h0l24.9-3.3c2.3-.3,3.9-2.4,3.6-4.7l-6.2-45.5ZM253.9,240.5h0,0ZM278.8,236.7l-24.9,3.3c-1.8.2-3.4-1-3.6-2.8l-6.2-45.5c-.1-.9.1-1.7.6-2.4.5-.7,1.3-1.1,2.1-1.2l24.9-3.3c.1,0,.3,0,.4,0,1.6,0,3,1.2,3.2,2.8l6.2,45.5c.2,1.8-1,3.4-2.8,3.6Z"/>
        </g>
        <path class="st3" d="M273.7,187.2c-.3-2-2.1-3.5-4.2-3.2l-24.9,3.3c-2,.3-3.5,2.1-3.2,4.2l6.2,45.5c.3,2,2.1,3.5,4.2,3.2l24.9-3.3c2-.3,3.5-2.1,3.2-4.2l-6.2-45.5Z"/>
      </g>
      <g>
        <path class="st2" d="M238.3,186.1c-1.4,4-2.1,10.7,1.4,21.3l30.7-4.7s-4.3-11.5-2.2-17.8c2.1-6.3,6.2-7,6.2-7l-30.7,3c-2.7.3-4.5,2.7-5.4,5.3Z"/>
        <path d="M274.4,177.3l-30.7,3c-2.5.2-4.7,2.3-5.8,5.6-1.9,5.6-1.5,12.9,1.4,21.6,0,.2.3.3.5.3s0,0,0,0l30.7-4.7c.1,0,.3-.1.3-.2,0-.1,0-.3,0-.4,0-.1-4.3-11.4-2.2-17.5,2-5.9,5.7-6.7,5.9-6.7.3,0,.4-.3.4-.5,0-.3-.3-.4-.5-.4ZM267.8,184.7c-1.9,5.7,1.1,15.2,2,17.6l-29.7,4.6c-2.7-8.4-3.1-15.3-1.3-20.6.5-1.4,1.9-4.7,5-5l28.1-2.7c-1.4,1-3,2.9-4.1,6.2Z"/>
      </g>
    </g>
    <g>
      <path class="st6" d="M282.5,210.2c-3.3-1.3-8.6-1.7-11.4,1.1-1.3,1.3-.5,2.2,1.1,1.6,3.1-1.2,5.6-1,.9.4-1,.3-2.8,1.4-2.6,2.1.5,1.5,3.8,0,5.3-.4,1.4.3-2,1.9-2.4,2.6-1.7,3,4.7,0,5.1.4,1.1.9-3.6,2.2-1.5,3.1,1.6.7,5.3-2.2,6.7-2.5,1.2-.2,2.1.5,2.9-.6,1.7-2.5-2.7-7.3-4.1-7.8Z"/>
      <path class="st6" d="M279.4,207c-.7-.2-1.8,0-1.3.9.3.6,1,1.1,1.5,1.5.5.3.9.8,1.4,1.1.5.3,2.8.7,2.7.5-.8-1.1-2.9-3.6-4.3-4.1Z"/>
    </g>
    <g>
      <path class="st4" d="M327.6,154.9c-4.7-2.6-10.5-1.8-12.4,3.3-1.3,3.6-2.4,8.3-1.1,13.7,2.5,10.8,20.2,39.2,20.2,41.4,0,5.1-48.8-1.3-49.4-1.1l-1.2,6.4s63.6,27,73.5,11.1c8.6-13.7,6-28.8-1.5-43.6-6.8-13.5-18.5-25.9-28.1-31.1Z"/>
      <path d="M327.8,154.5c-2.9-1.6-6.1-1.9-8.7-.9-2.1.8-3.6,2.3-4.3,4.4-1.2,3.2-2.6,8.1-1.2,14,1.6,6.7,9,20.2,14.4,30,2.8,5.2,5.8,10.5,5.8,11.3,0,0,0,.2-.2.3-3.4,3-34.4-.4-44.6-1.5-3.9-.4-4.1-.4-4.3-.4-.2,0-.3.2-.4.4l-1.2,6.4c0,.2,0,.4.3.5,2,.8,38.3,16.1,59.9,16.1s11.9-1.5,14.2-5.3c7.8-12.4,7.3-26.9-1.5-44.1-6.6-13-18.2-25.9-28.3-31.3ZM356.8,229.4h0c-9.2,14.8-67.4-9-72.6-11.1l1.1-5.6c.6,0,2,.2,3.7.4,19.4,2.1,42,4.2,45.3,1.3.4-.4.5-.8.5-1,0-.9-1.9-4.5-5.9-11.8-5.4-9.8-12.8-23.2-14.3-29.8-1.3-5.7,0-10.4,1.1-13.5.7-1.9,2-3.2,3.8-3.9,2.3-.9,5.3-.6,7.9.9,9.9,5.4,21.4,18.1,27.9,30.9,8.6,16.9,9.1,31,1.5,43.1Z"/>
    </g>
  </g>
  <g>
    <path class="st9" d="M203.6,224.4c.4-.6.6-1.2.5-1.8-.2-.8-.8-.9-1.5-.8-.1,0-.3,0-.4,0,0,0,0-.1,0-.2,0-.2-.3-.4-.5-.4-1.2-.1-2.4.5-3.3,1-2.9,1.7-4.6,1.7-5.8,1.3.7-.9.8-1.2,1.6-1.4.4,0,.8-.4.9-.8.1-.6-.3-.8-.6-.9-.7-.2-2,0-2.7.1-.5,0-.9.4-1.2.8-3,4.4-3.9,7.1-3,9,.4.8,4.9.4,6.5-.4,3.2.3,7.3,0,7.4-1.7,2-.6,3.8-1.6,3.2-3.3-.2-.5-.5-.7-.9-.8Z"/>
    <path class="st11" d="M163.8,279.5h-30.2v8.4h30.2c2.8,0,5.1,2.3,5.1,5.1v30.5h8.4v-30.5c0-7.4-6-13.5-13.5-13.5Z"/>
    <g>
      <path class="st10" d="M158.4,319.3l10.8,74.9c.3,2.2,2.2,3.8,4.4,3.5,2.2-.2,3.8-2.1,3.7-4.3l-5.7-75.4-13.1,1.2Z"/>
      <path class="st10" d="M129.7,393.7c0,2.2,1.8,4,4,4,2.2,0,4-1.7,4.1-3.9l2.6-84.8-13.1-.3,2.5,84.9Z"/>
      <path class="st10" d="M44.9,393.2c-.1,2.2,1.5,4.1,3.7,4.3,2.2.2,4.1-1.4,4.4-3.5l13.5-94-13.1-1.2-8.5,94.5Z"/>
      <path class="st10" d="M84.3,393.9c.1,2.2,1.9,3.9,4.1,3.9,2.2,0,4-1.8,4-4l2.5-93.1-13.1.3,2.6,93Z"/>
      <g>
        <path class="st10" d="M179.7,316.8h-21.6c-9.5,0-17.6-7.4-18.3-16.9l-2.2-43c-.3-3.7-3.5-6.4-7.2-6.1H47.2s6,60.6,8.1,63.9c1.7,2.7,27.2,11,37.2,14.2,2.5.8,4,1.2,4,1.2h83.3c3.7,0,6.7-3,6.7-6.6s-3-6.7-6.7-6.7Z"/>
        <path class="st10" d="M179.7,316.8h-87.2v13.3h87.2c3.7,0,6.7-3,6.7-6.6s-3-6.7-6.7-6.7Z"/>
        <path class="st10" d="M96.5,316.8h-21.6c-9.5,0-17.6-7.4-18.3-16.9l-2.2-43c-.3-3.7-3.5-6.4-7.2-6.1-3.7.3-6.4,3.5-6.1,7.2l2.2,43c1.3,16.4,15.2,29.2,31.6,29.2h21.6c3.7,0,6.7-3,6.7-6.6s-3-6.7-6.7-6.7Z"/>
      </g>
    </g>
    <polygon class="st0" points="181.6 390.4 185.3 389.7 185.6 380.6 178.7 382.7 181.6 390.4"/>
    <g>
      <path class="st4" d="M185.8,388.2c-2.4,2.3-4.5,1.1-4.5,1.1-4.1,3-1,8.3-1,8.3l26.1-4.7c-4.6-7.6-20.6-4.7-20.6-4.7Z"/>
      <path d="M185.7,387.7c0,0-.2,0-.2.1-2.1,2-3.9,1-4,1-.2,0-.4,0-.5,0-4.4,3.2-1.1,8.9-1.1,9,0,.1.2.2.4.2s0,0,0,0l26.1-4.7c.2,0,.3-.1.4-.3,0-.1,0-.3,0-.4-4.7-7.8-20.4-5.1-21.1-4.9ZM180.6,397.1c-.6-1.1-2.2-4.9.8-7.3.7.3,2.6.7,4.7-1.2,1.5-.2,15-2.2,19.5,3.9l-25,4.5Z"/>
    </g>
    <g>
      <path class="st4" d="M185.6,387.6s0,0,0,0c-.9.2-.7,1.4,0,1.7.3.2.6.3,1,0,1.4-.4,4.6-1.5,3.3-3.3-1.2-1.7-3.3.6-4.3,1.5Z"/>
      <path d="M188.9,385c-1.3-.1-2.6,1.2-3.5,2.1h-.1c-.5.3-.9.7-.9,1.2,0,.6.3,1.3.8,1.5.2.2.5.3.8.3s.5,0,.7-.2c1.5-.4,3.4-1.2,3.8-2.4.1-.4.2-.9-.3-1.6-.3-.5-.8-.8-1.3-.8ZM189.6,387.1c-.2.6-1.4,1.3-3.3,1.8,0,0-.1,0-.2,0-.1.1-.3.1-.5,0-.2-.1-.4-.4-.4-.6,0,0,0-.2.3-.3,0,0,.2,0,.2-.1l.2-.2c.6-.6,1.8-1.8,2.7-1.8s0,0,0,0c.1,0,.4,0,.6.4.2.3.2.6.2.7Z"/>
    </g>
    <polygon class="st0" points="155.2 391.1 160 391.3 160.9 382.1 153.8 383 155.2 391.1"/>
    <g>
      <path class="st4" d="M123.5,279.9s-43.8,18-16,32.1c13.9,7,40.3-.9,49.3,8.2,8.9,9.1,21.4,64.8,21.4,64.8l8.4-.6s.9-70.1-14.4-85.6c-12.7-12.9-48.7-18.9-48.7-18.9Z"/>
      <path d="M123.6,279.4c0,0-.2,0-.3,0-1,.4-25.1,10.5-25.5,21.7-.2,4.2,3,8,9.5,11.3,6.6,3.3,15.9,3.4,24.9,3.4,10.1,0,19.6,0,24.2,4.7,8.7,8.9,21.2,64.1,21.3,64.6,0,.2.2.4.5.4s0,0,0,0l8.4-.6c.2,0,.4-.2.4-.5,0-2.9.7-70.4-14.5-85.9-12.7-12.9-47.5-18.8-49-19.1ZM186.1,383.9l-7.5.5c-1.2-5.5-12.8-55.9-21.5-64.7-4.9-5-14.6-5-24.9-5-8.9,0-18.1,0-24.5-3.3-6.1-3.1-9.1-6.6-9-10.4.4-10.2,22.9-20,24.8-20.8,2.4.4,36.2,6.5,48.3,18.8,14.4,14.6,14.3,78.8,14.3,84.8Z"/>
    </g>
    <g>
      <path class="st4" d="M82.5,279.9s-19.4,28.5,4.7,37.8c14.5,5.6,36.5-3.2,45.5,5.9,8.9,9.1,20.5,61.8,20.5,61.8l8.3-1s3.9-69.2-11.4-84.8c-12.7-12.9-67.5-19.8-67.5-19.8Z"/>
      <path d="M82.6,279.4c-.2,0-.4,0-.5.2-.4.6-10.4,15.4-6.6,27.3,1.6,5.1,5.5,8.9,11.6,11.2,6.6,2.6,14.7,2.2,22.4,1.8,9.3-.4,18.1-.9,22.9,4,8.7,8.9,20.2,61,20.4,61.5,0,.2.2.4.5.4s0,0,0,0l8.3-1c.2,0,.4-.2.4-.5.2-2.8,3.7-69.6-11.6-85.1-12.7-12.9-65.6-19.6-67.8-19.9ZM161,384l-7.5.9c-1.2-5.4-11.9-52.8-20.5-61.6-3.7-3.7-9.3-4.5-15.8-4.5s-5.1.1-7.8.3c-7.7.4-15.6.7-22-1.7-5.8-2.2-9.5-5.8-11-10.6-3.3-10.6,5.1-24.3,6.4-26.3,4.4.6,55,7.5,66.9,19.6,14.4,14.6,11.6,78.3,11.3,84Z"/>
    </g>
    <g>
      <path class="st4" d="M159.8,389.5c-2.8,1.8-4.6.2-4.6.2-4.6,2.2-2.4,8-2.4,8h26.5c-3.2-8.3-19.4-8.3-19.4-8.3Z"/>
      <path d="M159.8,389c0,0-.2,0-.3,0-2.4,1.6-4,.3-4.1.3-.1-.1-.4-.1-.5,0-4.9,2.4-2.7,8.6-2.7,8.6,0,.2.3.3.5.3h26.5c.2,0,.3,0,.4-.2,0-.1.1-.3,0-.4-3.3-8.5-19.2-8.6-19.9-8.6ZM153,397.3c-.4-1.2-1.3-5.2,2-7,.7.4,2.4,1.2,4.8-.3,1.5,0,15.1.5,18.5,7.3h-25.4Z"/>
    </g>
    <g>
      <path class="st4" d="M161.8,386.1c-1.7-.5-2.6,2.1-2.8,3.3-.2,1.1,1.4,1.6,1.8.7,0,0,.1,0,.2-.2.7-.8,3.1-3.3.8-3.9Z"/>
      <path d="M161.9,385.7c-.5-.2-1.1,0-1.6.2-1.1.7-1.7,2.6-1.8,3.5-.1.9.5,1.5,1.1,1.7.1,0,.3,0,.4,0,.5,0,.9-.2,1.1-.6,0,0,.1-.1.2-.2l.3-.3c.8-.9,1.9-2.2,1.6-3.3-.2-.5-.6-.9-1.3-1ZM160.9,389.4c-.1.1-.2.2-.3.3h-.1c0,.1-.1.2-.2.3,0,.2-.4.2-.4.1-.2,0-.5-.2-.4-.6.1-.8.6-2.3,1.4-2.8.2-.1.3-.2.5-.2s.2,0,.3,0c.3,0,.5.2.6.4.2.6-.9,1.9-1.4,2.4Z"/>
    </g>
    <path class="st7" d="M186.3,230.3l-1.9-1.5s-3.1,3.1-7.1,6.9c-.4.4-.9.9-1.4,1.3-2,1.9-4.2,3.9-6.4,5.8-.5.4-.9.8-1.3,1.2-3.6,3.1-5,4.5-5.3,4.3-.5-.4-1-.9-1.7-1.6-2-2.1-4.6-5.7-7.5-9.7-.4-.5-.8-1.1-1.2-1.6-7.2-9.9-16-21.3-21.4-20.2-18.7,4,2.3,37.8,21.3,48.5.6.3,1.1.6,1.7.9,2.4,1.2,6.6,2.5,8.8,2.8,3.2.4,11.3-5.9,13.9-9.6.4-.6.8-1.2,1.2-1.8,2.1-3.3,4.2-7.2,6.2-11.2.3-.6.6-1.2.9-1.8,1.5-3.1,3-6.4,4.5-9.7l-1.9-1.5-1.5-1.2Z"/>
    <path class="st7" d="M147.6,254.6c-.3-8.3-1-15.4-2.3-21.1-.1-.6-.3-1.3-.5-1.9-3-11.4-9-17.7-20.7-19.8-7.9-1.4-14.5.5-20,4.5-.4.3-.9.6-1.3,1-4.5,3.6-8.2,8.6-11.2,14.2-.3.5-.6,1.1-.9,1.7-3.4,6.6-5.9,13.9-7.8,20.8-.2.6-.3,1.2-.5,1.8-1.3,5.2-2.3,10.1-3,14.2-.1.7-.2,1.3-.3,1.9-1,6.3-1.3,10.5-1.3,10.5,4.8,1.5,9.4,2.8,13.8,3.8.6.2,1.3.3,1.9.4,6.5,1.5,12.4,2.5,17.7,3.1.7,0,1.3.2,2,.2,9.2,1,16.6.9,22.2.4.7,0,1.3-.1,1.9-.2,6.9-.7,10.5-2,10.5-2,0-3.7,0-7.3,0-10.8,0-.7,0-1.3,0-1.9,0-6.9,0-13.2-.2-18.9,0-.7,0-1.3,0-2Z"/>
    <path class="st9" d="M128.1,205.2l-8.6-3.3c.8,5-1.6,9.4-1.6,9.4,8,6.5,11.6,1.8,11.6,1.8-2.6-4.7-1.3-7.9-1.3-7.9Z"/>
    <path class="st7" d="M185.2,226.2l-2.2,2.3,7.2,7.4,1.7-3.1c-.3-2.7-6.8-6.6-6.8-6.6Z"/>
    <path class="st9" d="M118.5,186.3c-4.2,2-5.3,8.5-2.5,14.4,2.8,5.9,8.6,9,12.8,7,4.2-2,5.3-8.4,2.5-14.4-2.8-5.9-8.5-9-12.8-7Z"/>
    <path class="st9" d="M129,193.6s0,7.9,1.2,7.7c.9-.2,2.9-1.2,3.9-1.8.3-.2.4-.6.2-.9-1.5-2-5.4-5-5.4-5Z"/>
    <path class="st10" d="M131.1,181.3c-3.7-1.6-11.9-.4-14.3.6-4.4,1.9-8.3,9.2-6.1,14.5,1.6,3.8,5.2,9.4,8.4,8.6-1.8-3.9-3.5-6.3-2.8-9.3,0,0,2-.4,2.2-2.9.2-2.5,3.2-3,5.6-2.4,2.4.6,6,.2,8.1-1.7,1.6-1.5,2.9-5.8-1.1-7.5Z"/>
    <path class="st9" d="M117.8,197.9s-2.1-1.4-3.1.3c-1,1.8,2.1,6,4,3.9,1.9-2.1-.9-4.2-.9-4.2Z"/>
    <path class="st10" d="M82.6,281.7h-30.2v8.4h30.2c2.8,0,5.1,2.3,5.1,5.1v30.5h8.4v-30.5c0-7.4-6-13.5-13.5-13.5Z"/>
    <g>
      <g>
        <path class="st7" d="M188.3,265c1.6.8,2.6.1,1.4-1.3-2.6-2.9-8.4-2.6-12-1.9-1.5.3-6.8,3.9-5.3,6.4.7,1.1,1.7.7,3,1,1.5.4,6.4,4.4,7.9,3.6,2.1-1.2-3.5-2.7-2.3-3.4.4-.2,6,3.8,6,1.7,0-.9-4.2-3.9-2.8-3.9,1.6.6,5.2,3.6,5.9,2.3.3-.6-1.9-2.9-2.9-3.4-3.2-1.8-2.1-2.5,1.1-1Z"/>
        <path class="st7" d="M174.9,263.7c-.5.8.6,1.6,1.3,1,1-.4,1.9-.8,2.5-1.7.4-.5.6-1.1,1-1.6.6-.7,1.4-1,2.3-1.4.5-.2.9-1,.4-1.4-2.5-2-6.4,3.2-7.5,5Z"/>
      </g>
      <path class="st7" d="M129.9,234.4c-5-6.2-12.9-17.6-21-20.2-2.5-.8-7.5,2.5-10.3,7.2,0,0,0,0,0,0h0c0,.3-.2.4-.3.6,0,0,0,.1-.1.2-1.2,2.5-4,10.4,4.7,21.2,5.8,7,13.4,12.6,21.6,16.4,12.3,5.7,22.2,9.7,37.6,10.7,4.1,0,9,.3,11.7-2.6,1.3-1.4,2.3-3.6,3.3-5.2-7.1-1.5-19.6-7.6-26.3-10.9-7.8-3.8-15.8-11.3-20.7-17.4Z"/>
      <path class="st7" d="M171.1,271.9l4.5-.8s2-4.4,2-10.7l-3.1-1.3s-3,12.1-3.5,12.9Z"/>
    </g>
    <path class="st4" d="M158.9,255.2c0,0-10.1-3.7-18.2-10.6-8.6-7.3-21.4-23.6-21.5-23.8-.2-.2-.5-.2-.7,0s-.2.5,0,.7c.1.2,13,16.6,21.6,23.9,8.2,7,18.4,10.7,18.5,10.8,0,0,.1,0,.2,0,.2,0,.4-.1.5-.3,0-.3,0-.5-.3-.6Z"/>
    <path class="st4" d="M133,263.1c-22.4-6.7-33-24.7-33.1-24.9-.1-.2-.4-.3-.7-.2-.2.1-.3.4-.2.7.1.2,11,18.5,33.7,25.3,0,0,0,0,.1,0,.2,0,.4-.1.5-.3,0-.3,0-.5-.3-.6Z"/>
  </g>
  <g>
    <rect class="st7" x="208.2" y="280.7" width="4" height="113.2"/>
    <g>
      <path class="st10" d="M305.2,272.3c-.7-2.9-3.4-5-6.4-5h-165.6c-3.6,0-6.8,2.5-7.7,6l-5.4,21.8c-.4,1.4,1.2,2.6,2.5,1.9,8-4.3,19.2-5,25.9-.3,8.4,5.9,22,.3,22,.3,0,0,0,0,0,0h0s13.6-3.2,23.3,0c9.7,3.2,34.6,5.3,53.1,0,16.3-4.7,47.8-3.6,61.1,1.2,1.7.6,3.5-.9,3-2.7l-5.8-23.2Z"/>
      <path class="st10" d="M305.7,273.5c-.8-3.1-3.6-5.3-6.9-5.3h-165.6c-3.9,0-7.2,2.6-8.1,6.4l-5.4,21.8c-.2.9,0,1.7.8,2.3.7.5,1.6.6,2.4.2,8.3-4.5,19.2-4.7,25.4-.4,8.5,6,21.9.6,22.4.4,0,0,0,0,0,0,1.4-.3,13.9-3,22.9,0,5.6,1.9,15.8,3.3,26.8,3.3s18.4-.9,26.5-3.3c16.9-4.9,48.1-3.4,60.8,1.2,1,.4,2,.1,2.8-.6.8-.7,1.1-1.7.8-2.7l-5.8-23.2ZM310,298.7c-.5.5-1.2.6-1.8.4-12.9-4.6-44.4-6.1-61.4-1.2-18.2,5.2-42.7,3.3-52.8,0-3.3-1.1-7.1-1.5-10.6-1.5-6.6,0-12.4,1.3-13,1.4,0,0-.1,0-.2,0-1.3.5-13.7,5.1-21.4-.3-6.4-4.5-17.7-4.4-26.4.3-.4.2-.9.2-1.3-.1-.3-.2-.6-.7-.4-1.3l5.4-21.8c.8-3.3,3.8-5.6,7.2-5.6h165.6c2.8,0,5.2,1.9,5.9,4.6l5.8,23.2c.2.7,0,1.3-.5,1.8Z"/>
    </g>
    <path class="st4" d="M192.9,288.1c-.9,0-1.7.7-1.7,1.7s.7,1.7,1.7,1.7,1.7-.7,1.7-1.7-.7-1.7-1.7-1.7Z"/>
    <path class="st4" d="M201.3,275.6c-.7,0-1.3.6-1.3,1.3s.6,1.3,1.3,1.3,1.3-.6,1.3-1.3-.6-1.3-1.3-1.3Z"/>
    <path class="st4" d="M211,292.4c-.9,0-1.7.7-1.7,1.7s.7,1.7,1.7,1.7,1.7-.7,1.7-1.7-.7-1.7-1.7-1.7Z"/>
    <path class="st4" d="M240,291.4c-.9,0-1.7.7-1.7,1.7s.7,1.7,1.7,1.7,1.7-.7,1.7-1.7-.7-1.7-1.7-1.7Z"/>
    <path class="st4" d="M223.5,278.5c-.9,0-1.7.7-1.7,1.7s.7,1.7,1.7,1.7,1.7-.7,1.7-1.7-.7-1.7-1.7-1.7Z"/>
    <path class="st4" d="M215.7,285.5c-.5,0-1,.4-1,1s.4,1,1,1,1-.4,1-1-.4-1-1-1Z"/>
    <path class="st4" d="M230.2,271.5c-.5,0-1,.4-1,1s.4,1,1,1,1-.4,1-1-.4-1-1-1Z"/>
    <path class="st4" d="M222.6,294.8c-.5,0-1,.4-1,1s.4,1,1,1,1-.4,1-1-.4-1-1-1Z"/>
    <path class="st4" d="M191.5,278.2c-1.1,0-1.9.9-1.9,1.9s.9,1.9,1.9,1.9,1.9-.9,1.9-1.9-.9-1.9-1.9-1.9Z"/>
    <path class="st4" d="M203.5,284.2c-1.1,0-1.9.9-1.9,1.9s.9,1.9,1.9,1.9,1.9-.9,1.9-1.9-.9-1.9-1.9-1.9Z"/>
    <path class="st4" d="M213.3,274.4c-.8,0-1.4.6-1.4,1.4s.6,1.4,1.4,1.4,1.4-.6,1.4-1.4-.6-1.4-1.4-1.4Z"/>
    <path class="st4" d="M230.6,286.6c-.8,0-1.4.6-1.4,1.4s.6,1.4,1.4,1.4,1.4-.6,1.4-1.4-.6-1.4-1.4-1.4Z"/>
    <path class="st4" d="M240,278.2c-.8,0-1.4.6-1.4,1.4s.6,1.4,1.4,1.4,1.4-.6,1.4-1.4-.6-1.4-1.4-1.4Z"/>
    <path class="st4" d="M251.3,288.1c-.9,0-1.7.7-1.7,1.7s.7,1.7,1.7,1.7,1.7-.7,1.7-1.7-.7-1.7-1.7-1.7Z"/>
    <path class="st4" d="M259.7,275.6c-.7,0-1.3.6-1.3,1.3s.6,1.3,1.3,1.3,1.3-.6,1.3-1.3-.6-1.3-1.3-1.3Z"/>
    <path class="st4" d="M269.4,292.4c-.9,0-1.7.7-1.7,1.7s.7,1.7,1.7,1.7,1.7-.7,1.7-1.7-.7-1.7-1.7-1.7Z"/>
    <path class="st4" d="M298.4,291.4c-.9,0-1.7.7-1.7,1.7s.7,1.7,1.7,1.7,1.7-.7,1.7-1.7-.7-1.7-1.7-1.7Z"/>
    <path class="st4" d="M281.9,278.5c-.9,0-1.7.7-1.7,1.7s.7,1.7,1.7,1.7,1.7-.7,1.7-1.7-.7-1.7-1.7-1.7Z"/>
    <path class="st4" d="M274.1,285.5c-.5,0-1,.4-1,1s.4,1,1,1,1-.4,1-1-.4-1-1-1Z"/>
    <path class="st4" d="M288.6,271.5c-.5,0-1,.4-1,1s.4,1,1,1,1-.4,1-1-.4-1-1-1Z"/>
    <path class="st4" d="M249.9,278.2c-1.1,0-1.9.9-1.9,1.9s.9,1.9,1.9,1.9,1.9-.9,1.9-1.9-.9-1.9-1.9-1.9Z"/>
    <path class="st4" d="M261.9,284.2c-1.1,0-1.9.9-1.9,1.9s.9,1.9,1.9,1.9,1.9-.9,1.9-1.9-.9-1.9-1.9-1.9Z"/>
    <path class="st4" d="M271.7,274.4c-.8,0-1.4.6-1.4,1.4s.6,1.4,1.4,1.4,1.4-.6,1.4-1.4-.6-1.4-1.4-1.4Z"/>
    <path class="st4" d="M289,286.6c-.8,0-1.4.6-1.4,1.4s.6,1.4,1.4,1.4,1.4-.6,1.4-1.4-.6-1.4-1.4-1.4Z"/>
    <path class="st4" d="M248.5,271c-.8,0-1.4.6-1.4,1.4s.6,1.4,1.4,1.4,1.4-.6,1.4-1.4-.6-1.4-1.4-1.4Z"/>
    <path class="st4" d="M298.4,278.2c-.8,0-1.4.6-1.4,1.4s.6,1.4,1.4,1.4,1.4-.6,1.4-1.4-.6-1.4-1.4-1.4Z"/>
    <rect class="st7" x="188.5" y="393.2" width="43.5" height="4.4"/>
    <path class="st4" d="M134.3,288.1c-.9,0-1.7.7-1.7,1.7s.7,1.7,1.7,1.7,1.7-.7,1.7-1.7-.7-1.7-1.7-1.7Z"/>
    <path class="st4" d="M142.7,275.6c-.7,0-1.3.6-1.3,1.3s.6,1.3,1.3,1.3,1.3-.6,1.3-1.3-.6-1.3-1.3-1.3Z"/>
    <path class="st4" d="M152.4,292.4c-.9,0-1.7.7-1.7,1.7s.7,1.7,1.7,1.7,1.7-.7,1.7-1.7-.7-1.7-1.7-1.7Z"/>
    <path class="st4" d="M181.4,291.4c-.9,0-1.7.7-1.7,1.7s.7,1.7,1.7,1.7,1.7-.7,1.7-1.7-.7-1.7-1.7-1.7Z"/>
    <path class="st4" d="M164.9,278.5c-.9,0-1.7.7-1.7,1.7s.7,1.7,1.7,1.7,1.7-.7,1.7-1.7-.7-1.7-1.7-1.7Z"/>
    <path class="st4" d="M157,285.5c-.5,0-1,.4-1,1s.4,1,1,1,1-.4,1-1-.4-1-1-1Z"/>
    <path class="st4" d="M171.5,271.5c-.5,0-1,.4-1,1s.4,1,1,1,1-.4,1-1-.4-1-1-1Z"/>
    <path class="st4" d="M163.9,294.8c-.5,0-1,.4-1,1s.4,1,1,1,1-.4,1-1-.4-1-1-1Z"/>
    <path class="st4" d="M132.9,278.2c-1.1,0-1.9.9-1.9,1.9s.9,1.9,1.9,1.9,1.9-.9,1.9-1.9-.9-1.9-1.9-1.9Z"/>
    <path class="st4" d="M144.9,284.2c-1.1,0-1.9.9-1.9,1.9s.9,1.9,1.9,1.9,1.9-.9,1.9-1.9-.9-1.9-1.9-1.9Z"/>
    <path class="st4" d="M154.6,274.4c-.8,0-1.4.6-1.4,1.4s.6,1.4,1.4,1.4,1.4-.6,1.4-1.4-.6-1.4-1.4-1.4Z"/>
    <path class="st4" d="M172,286.6c-.8,0-1.4.6-1.4,1.4s.6,1.4,1.4,1.4,1.4-.6,1.4-1.4-.6-1.4-1.4-1.4Z"/>
    <path class="st4" d="M181.4,278.2c-.8,0-1.4.6-1.4,1.4s.6,1.4,1.4,1.4,1.4-.6,1.4-1.4-.6-1.4-1.4-1.4Z"/>
  </g>
  <g>
    <path d="M165.2,69.5c-45.2,29.8-108.2,23.8-153.3,8.8l-.7,1c45.6,15.2,102.2,23.6,154.8-9.1,14.5-8.4,33.2-26.7,33.2-26.7l-1.6-1.1c-10.6,13.1-32.4,27-32.4,27Z"/>
    <path d="M229.7,78c-45.5,13.1-95.3-.5-128.6-21.9l-.8.7c33.7,21.7,77.5,35.7,129.9,22,14.2-3.2,34.8-13.5,34.8-13.5l-1-1.3c-12.5,8-34.3,14-34.3,14Z"/>
    <path d="M275.1,77c-47.5,4.1-95.2-12.3-126.8-35.6l-.9.7c32,23.7,73.6,39.3,128,35.8,14.7-.5,37.2-6.6,37.2-6.6l-.6-1.5c-14.1,5.4-36.8,7.1-36.8,7.1Z"/>
    <g>
      <rect x="135.8" y="74" width=".9" height="24.7"/>
      <path class="st5" d="M142.2,106c-.4-.4-.9-.7-1.4-1-.5-.3-1-.5-1.5-.7l-.9-5h-3.3s-1,4.9-1,4.9c-.5.2-1.1.4-1.6.7-.5.3-1,.6-1.4,1-3.1,2.8-3.1,7.2,0,10,3.1,2.8,8,2.8,11.2,0,3.1-2.7,3.2-7.2,0-10Z"/>
    </g>
    <g>
      <rect x="197.9" y="83.4" width=".9" height="29.3"/>
      <path class="st5" d="M204.2,119.5c-.4-.4-.9-.7-1.4-1-.5-.3-1-.5-1.5-.7l-.9-5h-3.3s-1,4.9-1,4.9c-.5.2-1.1.4-1.6.7-.5.3-1,.6-1.4,1-3.1,2.8-3.1,7.2,0,10,3.1,2.8,8,2.8,11.2,0,3.1-2.7,3.2-7.2,0-10Z"/>
    </g>
    <rect x="260.7" y="78" width=".9" height="27.5"/>
    <g>
      <rect x="61.3" y="89.9" width=".9" height="28.5"/>
      <path class="st5" d="M67.4,124.1c-.4-.4-.9-.7-1.4-1-.5-.3-1-.5-1.5-.7l-.9-5h-3.3s-1,4.9-1,4.9c-.5.2-1.1.4-1.6.7-.5.3-1,.6-1.4,1-3.1,2.8-3.1,7.2,0,10,3.1,2.8,8,2.8,11.2,0,3.1-2.7,3.2-7.2,0-10Z"/>
    </g>
  </g>
  <path class="st5" d="M266.8,112.5c-.4-.4-.9-.7-1.4-1-.5-.3-1-.5-1.5-.7l-.9-5h-3.3s-1,4.9-1,4.9c-.5.2-1.1.4-1.6.7-.5.3-1,.6-1.4,1-3.1,2.8-3.1,7.2,0,10,3.1,2.8,8,2.8,11.2,0,3.1-2.7,3.2-7.2,0-10Z"/>
</svg>