<?xml version="1.0" encoding="utf-8"?>
<!-- Generator: Adobe Illustrator 27.7.0, SVG Export Plug-In . SVG Version: 6.00 Build 0)  -->
<svg version="1.1" id="Layer_1" xmlns="http://www.w3.org/2000/svg" xmlns:xlink="http://www.w3.org/1999/xlink" x="0px" y="0px"
	 viewBox="0 0 120 120" style="enable-background:new 0 0 120 120;" xml:space="preserve">
<style type="text/css">
	.st0{fill:#EFEEEB;}
</style>
<path class="st0" d="M60,4C29.1,4,4,29.1,4,60s25.1,56,56,56s56-25.1,56-56S90.9,4,60,4z M84.2,47.6C85,65.2,71.9,84.8,48.7,84.8
	c-7.1,0-13.6-2.1-19.2-5.6c6.6,0.8,13.3-1.1,18.5-5.2c-5.5-0.1-10.1-3.7-11.7-8.7c2,0.4,3.9,0.3,5.6-0.2c-6-1.2-10.2-6.6-10-12.4
	c1.7,0.9,3.6,1.5,5.7,1.6c-5.6-3.7-7.1-11.1-3.9-16.7c6.2,7.6,15.4,12.5,25.8,13.1c-1.8-7.8,4.1-15.3,12.2-15.3
	c3.6,0,6.8,1.5,9.1,3.9c2.8-0.6,5.5-1.6,7.9-3c-0.9,2.9-2.9,5.4-5.5,6.9c2.5-0.3,4.9-1,7.2-2C88.8,43.6,86.7,45.8,84.2,47.6z"/>
</svg>
