<?xml version="1.0" encoding="UTF-8"?>
<svg id="Layer_1" xmlns="http://www.w3.org/2000/svg" version="1.1" viewBox="0 0 120 120">
  <!-- Generator: Adobe Illustrator 29.0.0, SVG Export Plug-In . SVG Version: 2.1.0 Build 186)  -->
  <defs>
    <style>
      .st0 {
        fill: #8e364c;
      }
    </style>
  </defs>
  <polygon class="st0" points="33.8 31.2 77 88.8 86.4 88.8 43.2 31.2 33.8 31.2"/>
  <path class="st0" d="M56.9,4.1C14.7,6.2-10,53.5,12.5,89.6c21.2,34.1,70.5,35.3,93.4,2.4C132.6,53.7,103.2,1.8,56.9,4.1ZM74.4,93.6l-19.5-26.1c-.2,0-.9.8-1.1,1-7.8,8.3-15.3,16.9-23.2,25.1h-6.5l27.8-30L24.2,26.4h21.6l18.1,24,.3-.2,22-23.8h6.5l-25.8,28.1,29.1,39h-21.6Z"/>
</svg>